<?xml version="1.0" encoding="UTF-8" standalone="no"?>
<!-- Created with Inkscape (http://www.inkscape.org/) -->
<!DOCTYPE svg PUBLIC "-//W3C//DTD SVG 1.1//EN" "http://www.w3.org/Graphics/SVG/1.1/DTD/svg11.dtd"> 

<svg
   xmlns="http://www.w3.org/2000/svg"
   width="1200"
   height="500"
   version="1.1"
   style="enable-background:new">

  <rect x="0" y="0" width="1200" height="500"
	fill="#e0e0e0"/>

  <text x="615.0" y="20.0" text-anchor="middle" font-size="12">Number of libri per month</text>

  <rect x="50" y="30" width="1130" height="440"
	fill="white" stroke="black" stroke-width="2"/>
  
  <rect x="53.766666666666666" y="184.0" width="67.8" height="286.0"
	fill="#a090ff"/>
  
  <rect x="129.1" y="324.79999999999995" width="67.8" height="145.20000000000002"
	fill="#a090ff"/>
  
  <rect x="204.4333333333333" y="331.4" width="67.8" height="138.60000000000002"
	fill="#a090ff"/>
  
  <rect x="279.76666666666665" y="338.0" width="67.8" height="132.0"
	fill="#a090ff"/>
  
  <rect x="355.09999999999997" y="397.4" width="67.8" height="72.60000000000001"
	fill="#a090ff"/>
  
  <rect x="430.4333333333333" y="393.0" width="67.8" height="77.0"
	fill="#a090ff"/>
  
  <rect x="505.76666666666665" y="406.2" width="67.8" height="63.800000000000004"
	fill="#a090ff"/>
  
  <rect x="581.0999999999999" y="333.6" width="67.8" height="136.4"
	fill="#a090ff"/>
  
  <rect x="656.4333333333334" y="395.2" width="67.8" height="74.80000000000001"
	fill="#a090ff"/>
  
  <rect x="731.7666666666667" y="399.6" width="67.8" height="70.4"
	fill="#a090ff"/>
  
  <rect x="807.1" y="346.79999999999995" width="67.8" height="123.20000000000002"
	fill="#a090ff"/>
  
  <rect x="882.4333333333333" y="404.0" width="67.8" height="66.0"
	fill="#a090ff"/>
  
  <rect x="957.7666666666667" y="346.79999999999995" width="67.8" height="123.20000000000002"
	fill="#a090ff"/>
  
  <rect x="1033.1" y="395.2" width="67.8" height="74.80000000000001"
	fill="#a090ff"/>
  
  <rect x="1108.4333333333334" y="375.4" width="67.8" height="94.60000000000001"
	fill="#a090ff"/>
  
  
  <line x1="50.0" y1="369.74285714285713" x2="125.33333333333333" y2="359.37142857142857"
	stroke="#0000ff" stroke-width="2"/>
  
  <line x1="125.33333333333333" y1="359.37142857142857" x2="200.66666666666666" y2="348.37142857142857"
	stroke="#0000ff" stroke-width="2"/>
  
  <line x1="200.66666666666666" y1="348.37142857142857" x2="276.0" y2="339.25714285714287"
	stroke="#0000ff" stroke-width="2"/>
  
  <line x1="276.0" y1="339.25714285714287" x2="351.3333333333333" y2="360.62857142857143"
	stroke="#0000ff" stroke-width="2"/>
  
  <line x1="351.3333333333333" y1="360.62857142857143" x2="426.66666666666663" y2="370.68571428571425"
	stroke="#0000ff" stroke-width="2"/>
  
  <line x1="426.66666666666663" y1="370.68571428571425" x2="502.0" y2="380.42857142857144"
	stroke="#0000ff" stroke-width="2"/>
  
  <line x1="502.0" y1="380.42857142857144" x2="577.3333333333333" y2="381.68571428571425"
	stroke="#0000ff" stroke-width="2"/>
  
  <line x1="577.3333333333333" y1="381.68571428571425" x2="652.6666666666666" y2="382.62857142857143"
	stroke="#0000ff" stroke-width="2"/>
  
  <line x1="652.6666666666666" y1="382.62857142857143" x2="728.0" y2="376.0285714285714"
	stroke="#0000ff" stroke-width="2"/>
  
  <line x1="728.0" y1="376.0285714285714" x2="803.3333333333333" y2="374.45714285714286"
	stroke="#0000ff" stroke-width="2"/>
  
  <line x1="803.3333333333333" y1="374.45714285714286" x2="878.6666666666666" y2="380.42857142857144"
	stroke="#0000ff" stroke-width="2"/>
  
  <line x1="878.6666666666666" y1="380.42857142857144" x2="954.0" y2="377.6"
	stroke="#0000ff" stroke-width="2"/>
  
  <line x1="954.0" y1="377.6" x2="1029.3333333333333" y2="374.1428571428571"
	stroke="#0000ff" stroke-width="2"/>
  
  <line x1="1029.3333333333333" y1="374.1428571428571" x2="1104.6666666666665" y2="378.2285714285714"
	stroke="#0000ff" stroke-width="2"/>
  



  
  <line x1="125.33333333333333" y1="470.0" x2="125.33333333333333" y2="29.999999999999943"
	stroke="#c0c0c0"/>
   
  
  <line x1="351.3333333333333" y1="470.0" x2="351.3333333333333" y2="29.999999999999943"
	stroke="#c0c0c0"/>
   
  <text y="490" x="351.3333333333333" text-anchor="middle" font-size="10">2016</text>
  
  
  <line x1="577.3333333333333" y1="470.0" x2="577.3333333333333" y2="29.999999999999943"
	stroke="#c0c0c0"/>
   
  
  <line x1="803.3333333333333" y1="470.0" x2="803.3333333333333" y2="29.999999999999943"
	stroke="#c0c0c0"/>
   
  
  <line x1="803.3333333333333" y1="470.0" x2="803.3333333333333" y2="29.999999999999943"
	stroke="#606060"/>
   
  
  <line x1="1029.3333333333333" y1="470.0" x2="1029.3333333333333" y2="29.999999999999943"
	stroke="#c0c0c0"/>
   
  
  
  <line y1="426.0" x1="50.0" y2="426.0" x2="1180.0"
	stroke="#c0c0c0"/>
  
  <text x="45" y="426.0" text-anchor="end" font-size="10">20</text>
  
  
  <line y1="382.0" x1="50.0" y2="382.0" x2="1180.0"
	stroke="#c0c0c0"/>
  
  <text x="45" y="382.0" text-anchor="end" font-size="10">40</text>
  
  
  <line y1="338.0" x1="50.0" y2="338.0" x2="1180.0"
	stroke="#c0c0c0"/>
  
  <text x="45" y="338.0" text-anchor="end" font-size="10">60</text>
  
  
  <line y1="294.0" x1="50.0" y2="294.0" x2="1180.0"
	stroke="#c0c0c0"/>
  
  <text x="45" y="294.0" text-anchor="end" font-size="10">80</text>
  
  
  <line y1="249.99999999999997" x1="50.0" y2="249.99999999999997" x2="1180.0"
	stroke="#c0c0c0"/>
  
  <text x="45" y="249.99999999999997" text-anchor="end" font-size="10">100</text>
  
  
  <line y1="206.0" x1="50.0" y2="206.0" x2="1180.0"
	stroke="#c0c0c0"/>
  
  <text x="45" y="206.0" text-anchor="end" font-size="10">120</text>
  
  
  <line y1="162.0" x1="50.0" y2="162.0" x2="1180.0"
	stroke="#c0c0c0"/>
  
  <text x="45" y="162.0" text-anchor="end" font-size="10">140</text>
  
  
  <line y1="118.0" x1="50.0" y2="118.0" x2="1180.0"
	stroke="#c0c0c0"/>
  
  <text x="45" y="118.0" text-anchor="end" font-size="10">160</text>
  
  
  <line y1="73.99999999999994" x1="50.0" y2="73.99999999999994" x2="1180.0"
	stroke="#c0c0c0"/>
  
  <text x="45" y="73.99999999999994" text-anchor="end" font-size="10">180</text>
  
  

</svg>
