<?xml version="1.0" encoding="UTF-8" standalone="no"?>
<!-- Created with Inkscape (http://www.inkscape.org/) -->
<!DOCTYPE svg PUBLIC "-//W3C//DTD SVG 1.1//EN" "http://www.w3.org/Graphics/SVG/1.1/DTD/svg11.dtd"> 

<svg
   xmlns="http://www.w3.org/2000/svg"
   width="1200"
   height="500"
   version="1.1"
   style="enable-background:new">

  <rect x="0" y="0" width="1200" height="500"
	fill="#e0e0e0"/>

  <text x="615.0" y="20.0" text-anchor="middle" font-size="12">Number of posts per month on forum &quot;Documentazione&quot; (and children)</text>

  <rect x="50" y="30" width="1130" height="440"
	fill="white" stroke="black" stroke-width="2"/>
  
  <rect x="50.61413043478261" y="447.26666666666665" width="11.054347826086957" height="22.733333333333334"
	fill="#a090ff"/>
  
  <rect x="62.89673913043478" y="440.08" width="11.054347826086957" height="29.92"
	fill="#a090ff"/>
  
  <rect x="75.17934782608695" y="405.02666666666664" width="11.054347826086957" height="64.97333333333333"
	fill="#a090ff"/>
  
  <rect x="87.46195652173913" y="396.52" width="11.054347826086957" height="73.48"
	fill="#a090ff"/>
  
  <rect x="99.74456521739131" y="429.52" width="11.054347826086957" height="40.48"
	fill="#a090ff"/>
  
  <rect x="112.02717391304347" y="441.25333333333333" width="11.054347826086957" height="28.746666666666666"
	fill="#a090ff"/>
  
  <rect x="124.30978260869566" y="398.1333333333333" width="11.054347826086957" height="71.86666666666666"
	fill="#a090ff"/>
  
  <rect x="136.5923913043478" y="393.44" width="11.054347826086957" height="76.56"
	fill="#a090ff"/>
  
  <rect x="148.875" y="378.62666666666667" width="11.054347826086957" height="91.37333333333333"
	fill="#a090ff"/>
  
  <rect x="161.1576086956522" y="334.33333333333337" width="11.054347826086957" height="135.66666666666666"
	fill="#a090ff"/>
  
  <rect x="173.44021739130437" y="387.72" width="11.054347826086957" height="82.28"
	fill="#a090ff"/>
  
  <rect x="185.72282608695653" y="369.5333333333333" width="11.054347826086957" height="100.46666666666667"
	fill="#a090ff"/>
  
  <rect x="198.00543478260872" y="334.03999999999996" width="11.054347826086957" height="135.96"
	fill="#a090ff"/>
  
  <rect x="210.28804347826087" y="324.6533333333333" width="11.054347826086957" height="145.34666666666666"
	fill="#a090ff"/>
  
  <rect x="222.57065217391306" y="386.1066666666667" width="11.054347826086957" height="83.89333333333333"
	fill="#a090ff"/>
  
  <rect x="234.85326086956522" y="323.48" width="11.054347826086957" height="146.52"
	fill="#a090ff"/>
  
  <rect x="247.1358695652174" y="290.62666666666667" width="11.054347826086957" height="179.37333333333333"
	fill="#a090ff"/>
  
  <rect x="259.41847826086956" y="285.93333333333334" width="11.054347826086957" height="184.06666666666666"
	fill="#a090ff"/>
  
  <rect x="271.70108695652175" y="294.5866666666667" width="11.054347826086957" height="175.41333333333333"
	fill="#a090ff"/>
  
  <rect x="283.9836956521739" y="268.18666666666667" width="11.054347826086957" height="201.81333333333333"
	fill="#a090ff"/>
  
  <rect x="296.2663043478261" y="321.28" width="11.054347826086957" height="148.72"
	fill="#a090ff"/>
  
  <rect x="308.54891304347825" y="363.96" width="11.054347826086957" height="106.04"
	fill="#a090ff"/>
  
  <rect x="320.83152173913044" y="339.76" width="11.054347826086957" height="130.24"
	fill="#a090ff"/>
  
  <rect x="333.1141304347826" y="331.1066666666667" width="11.054347826086957" height="138.89333333333335"
	fill="#a090ff"/>
  
  <rect x="345.3967391304348" y="383.61333333333334" width="11.054347826086957" height="86.38666666666667"
	fill="#a090ff"/>
  
  <rect x="357.67934782608694" y="372.02666666666664" width="11.054347826086957" height="97.97333333333333"
	fill="#a090ff"/>
  
  <rect x="369.9619565217391" y="389.62666666666667" width="11.054347826086957" height="80.37333333333333"
	fill="#a090ff"/>
  
  <rect x="382.2445652173913" y="355.15999999999997" width="11.054347826086957" height="114.84"
	fill="#a090ff"/>
  
  <rect x="394.5271739130435" y="277.28" width="11.054347826086957" height="192.72"
	fill="#a090ff"/>
  
  <rect x="406.8097826086957" y="276.6933333333333" width="11.054347826086957" height="193.30666666666667"
	fill="#a090ff"/>
  
  <rect x="419.0923913043478" y="387.72" width="11.054347826086957" height="82.28"
	fill="#a090ff"/>
  
  <rect x="431.375" y="325.38666666666666" width="11.054347826086957" height="144.61333333333334"
	fill="#a090ff"/>
  
  <rect x="443.65760869565213" y="348.12" width="11.054347826086957" height="121.88"
	fill="#a090ff"/>
  
  <rect x="455.9402173913043" y="363.81333333333333" width="11.054347826086957" height="106.18666666666667"
	fill="#a090ff"/>
  
  <rect x="468.2228260869565" y="390.6533333333333" width="11.054347826086957" height="79.34666666666666"
	fill="#a090ff"/>
  
  <rect x="480.50543478260863" y="334.7733333333333" width="11.054347826086957" height="135.22666666666666"
	fill="#a090ff"/>
  
  <rect x="492.7880434782608" y="314.38666666666666" width="11.054347826086957" height="155.61333333333334"
	fill="#a090ff"/>
  
  <rect x="505.070652173913" y="109.78666666666669" width="11.054347826086957" height="360.2133333333333"
	fill="#a090ff"/>
  
  <rect x="517.3532608695652" y="137.2133333333333" width="11.054347826086957" height="332.7866666666667"
	fill="#a090ff"/>
  
  <rect x="529.6358695652174" y="168.45333333333332" width="11.054347826086957" height="301.5466666666667"
	fill="#a090ff"/>
  
  <rect x="541.9184782608695" y="245.16" width="11.054347826086957" height="224.84"
	fill="#a090ff"/>
  
  <rect x="554.2010869565217" y="209.95999999999998" width="11.054347826086957" height="260.04"
	fill="#a090ff"/>
  
  <rect x="566.4836956521739" y="330.08000000000004" width="11.054347826086957" height="139.92"
	fill="#a090ff"/>
  
  <rect x="578.766304347826" y="366.3066666666667" width="11.054347826086957" height="103.69333333333333"
	fill="#a090ff"/>
  
  <rect x="591.0489130434783" y="340.2" width="11.054347826086957" height="129.8"
	fill="#a090ff"/>
  
  <rect x="603.3315217391304" y="346.94666666666666" width="11.054347826086957" height="123.05333333333333"
	fill="#a090ff"/>
  
  <rect x="615.6141304347826" y="305.5866666666667" width="11.054347826086957" height="164.41333333333333"
	fill="#a090ff"/>
  
  <rect x="627.8967391304348" y="273.17333333333335" width="11.054347826086957" height="196.82666666666665"
	fill="#a090ff"/>
  
  <rect x="640.1793478260869" y="270.82666666666665" width="11.054347826086957" height="199.17333333333335"
	fill="#a090ff"/>
  
  <rect x="652.4619565217391" y="263.49333333333334" width="11.054347826086957" height="206.50666666666666"
	fill="#a090ff"/>
  
  <rect x="664.7445652173913" y="368.21333333333337" width="11.054347826086957" height="101.78666666666666"
	fill="#a090ff"/>
  
  <rect x="677.0271739130434" y="266.4266666666667" width="11.054347826086957" height="203.57333333333332"
	fill="#a090ff"/>
  
  <rect x="689.3097826086956" y="268.91999999999996" width="11.054347826086957" height="201.08"
	fill="#a090ff"/>
  
  <rect x="701.5923913043478" y="293.4133333333333" width="11.054347826086957" height="176.58666666666667"
	fill="#a090ff"/>
  
  <rect x="713.875" y="389.7733333333333" width="11.054347826086957" height="80.22666666666667"
	fill="#a090ff"/>
  
  <rect x="726.1576086956521" y="333.15999999999997" width="11.054347826086957" height="136.84"
	fill="#a090ff"/>
  
  <rect x="738.4402173913043" y="373.3466666666667" width="11.054347826086957" height="96.65333333333334"
	fill="#a090ff"/>
  
  <rect x="750.7228260869565" y="392.70666666666665" width="11.054347826086957" height="77.29333333333334"
	fill="#a090ff"/>
  
  <rect x="763.0054347826086" y="408.6933333333333" width="11.054347826086957" height="61.306666666666665"
	fill="#a090ff"/>
  
  <rect x="775.2880434782609" y="408.9866666666667" width="11.054347826086957" height="61.013333333333335"
	fill="#a090ff"/>
  
  <rect x="787.570652173913" y="373.64" width="11.054347826086957" height="96.36"
	fill="#a090ff"/>
  
  <rect x="799.8532608695651" y="377.74666666666667" width="11.054347826086957" height="92.25333333333333"
	fill="#a090ff"/>
  
  <rect x="812.1358695652174" y="400.7733333333333" width="11.054347826086957" height="69.22666666666667"
	fill="#a090ff"/>
  
  <rect x="824.4184782608695" y="423.8" width="11.054347826086957" height="46.2"
	fill="#a090ff"/>
  
  <rect x="836.7010869565217" y="433.48" width="11.054347826086957" height="36.52"
	fill="#a090ff"/>
  
  <rect x="848.9836956521739" y="405.76" width="11.054347826086957" height="64.24"
	fill="#a090ff"/>
  
  <rect x="861.266304347826" y="431.28" width="11.054347826086957" height="38.72"
	fill="#a090ff"/>
  
  <rect x="873.5489130434783" y="401.50666666666666" width="11.054347826086957" height="68.49333333333334"
	fill="#a090ff"/>
  
  <rect x="885.8315217391304" y="428.05333333333334" width="11.054347826086957" height="41.946666666666665"
	fill="#a090ff"/>
  
  <rect x="898.1141304347826" y="424.38666666666666" width="11.054347826086957" height="45.61333333333334"
	fill="#a090ff"/>
  
  <rect x="910.3967391304348" y="427.76" width="11.054347826086957" height="42.24"
	fill="#a090ff"/>
  
  <rect x="922.6793478260869" y="389.3333333333333" width="11.054347826086957" height="80.66666666666667"
	fill="#a090ff"/>
  
  <rect x="934.9619565217391" y="411.48" width="11.054347826086957" height="58.52"
	fill="#a090ff"/>
  
  <rect x="947.2445652173913" y="428.49333333333334" width="11.054347826086957" height="41.50666666666667"
	fill="#a090ff"/>
  
  <rect x="959.5271739130434" y="433.3333333333333" width="11.054347826086957" height="36.666666666666664"
	fill="#a090ff"/>
  
  <rect x="971.8097826086956" y="427.76" width="11.054347826086957" height="42.24"
	fill="#a090ff"/>
  
  <rect x="984.0923913043478" y="419.25333333333333" width="11.054347826086957" height="50.74666666666667"
	fill="#a090ff"/>
  
  <rect x="996.375" y="404.44" width="11.054347826086957" height="65.56"
	fill="#a090ff"/>
  
  <rect x="1008.6576086956521" y="414.85333333333335" width="11.054347826086957" height="55.14666666666667"
	fill="#a090ff"/>
  
  <rect x="1020.9402173913043" y="434.06666666666666" width="11.054347826086957" height="35.93333333333333"
	fill="#a090ff"/>
  
  <rect x="1033.2228260869565" y="435.5333333333333" width="11.054347826086957" height="34.46666666666667"
	fill="#a090ff"/>
  
  <rect x="1045.5054347826085" y="439.49333333333334" width="11.054347826086957" height="30.506666666666668"
	fill="#a090ff"/>
  
  <rect x="1057.788043478261" y="433.18666666666667" width="11.054347826086957" height="36.81333333333333"
	fill="#a090ff"/>
  
  <rect x="1070.070652173913" y="432.74666666666667" width="11.054347826086957" height="37.25333333333333"
	fill="#a090ff"/>
  
  <rect x="1082.3532608695652" y="442.5733333333333" width="11.054347826086957" height="27.426666666666666"
	fill="#a090ff"/>
  
  <rect x="1094.6358695652173" y="447.26666666666665" width="11.054347826086957" height="22.733333333333334"
	fill="#a090ff"/>
  
  <rect x="1106.9184782608695" y="411.7733333333333" width="11.054347826086957" height="58.22666666666667"
	fill="#a090ff"/>
  
  <rect x="1119.2010869565217" y="402.5333333333333" width="11.054347826086957" height="67.46666666666667"
	fill="#a090ff"/>
  
  <rect x="1131.4836956521738" y="402.5333333333333" width="11.054347826086957" height="67.46666666666667"
	fill="#a090ff"/>
  
  <rect x="1143.766304347826" y="384.2" width="11.054347826086957" height="85.8"
	fill="#a090ff"/>
  
  <rect x="1156.0489130434783" y="394.4666666666667" width="11.054347826086957" height="75.53333333333333"
	fill="#a090ff"/>
  
  <rect x="1168.3315217391305" y="394.90666666666664" width="11.054347826086957" height="75.09333333333333"
	fill="#a090ff"/>
  
  
  <line x1="50.0" y1="442.69904761904763" x2="62.28260869565217" y2="436.9161904761905"
	stroke="#0000ff" stroke-width="2"/>
  
  <line x1="62.28260869565217" y1="436.9161904761905" x2="74.56521739130434" y2="432.8095238095238"
	stroke="#0000ff" stroke-width="2"/>
  
  <line x1="74.56521739130434" y1="432.8095238095238" x2="86.84782608695653" y2="422.54285714285714"
	stroke="#0000ff" stroke-width="2"/>
  
  <line x1="86.84782608695653" y1="422.54285714285714" x2="99.13043478260869" y2="414.85333333333335"
	stroke="#0000ff" stroke-width="2"/>
  
  <line x1="99.13043478260869" y1="414.85333333333335" x2="111.41304347826087" y2="406.07428571428574"
	stroke="#0000ff" stroke-width="2"/>
  
  <line x1="111.41304347826087" y1="406.07428571428574" x2="123.69565217391305" y2="395.97523809523807"
	stroke="#0000ff" stroke-width="2"/>
  
  <line x1="123.69565217391305" y1="395.97523809523807" x2="135.97826086956522" y2="394.7180952380952"
	stroke="#0000ff" stroke-width="2"/>
  
  <line x1="135.97826086956522" y1="394.7180952380952" x2="148.26086956521738" y2="386.1485714285714"
	stroke="#0000ff" stroke-width="2"/>
  
  <line x1="148.26086956521738" y1="386.1485714285714" x2="160.54347826086956" y2="370.83238095238096"
	stroke="#0000ff" stroke-width="2"/>
  
  <line x1="160.54347826086956" y1="370.83238095238096" x2="172.82608695652175" y2="360.3352380952381"
	stroke="#0000ff" stroke-width="2"/>
  
  <line x1="172.82608695652175" y1="360.3352380952381" x2="185.1086956521739" y2="359.28761904761905"
	stroke="#0000ff" stroke-width="2"/>
  
  <line x1="185.1086956521739" y1="359.28761904761905" x2="197.3913043478261" y2="351.4095238095238"
	stroke="#0000ff" stroke-width="2"/>
  
  <line x1="197.3913043478261" y1="351.4095238095238" x2="209.67391304347825" y2="345.1657142857143"
	stroke="#0000ff" stroke-width="2"/>
  
  <line x1="209.67391304347825" y1="345.1657142857143" x2="221.95652173913044" y2="330.6247619047619"
	stroke="#0000ff" stroke-width="2"/>
  
  <line x1="221.95652173913044" y1="330.6247619047619" x2="234.2391304347826" y2="319.91809523809525"
	stroke="#0000ff" stroke-width="2"/>
  
  <line x1="234.2391304347826" y1="319.91809523809525" x2="246.52173913043478" y2="310.5104761904762"
	stroke="#0000ff" stroke-width="2"/>
  
  <line x1="246.52173913043478" y1="310.5104761904762" x2="258.804347826087" y2="310.0285714285714"
	stroke="#0000ff" stroke-width="2"/>
  
  <line x1="258.804347826087" y1="310.0285714285714" x2="271.0869565217391" y2="306.8647619047619"
	stroke="#0000ff" stroke-width="2"/>
  
  <line x1="271.0869565217391" y1="306.8647619047619" x2="283.3695652173913" y2="309.1904761904762"
	stroke="#0000ff" stroke-width="2"/>
  
  <line x1="283.3695652173913" y1="309.1904761904762" x2="295.6521739130435" y2="314.97333333333336"
	stroke="#0000ff" stroke-width="2"/>
  
  <line x1="295.6521739130435" y1="314.97333333333336" x2="307.9347826086956" y2="328.92761904761903"
	stroke="#0000ff" stroke-width="2"/>
  
  <line x1="307.9347826086956" y1="328.92761904761903" x2="320.2173913043478" y2="339.9904761904762"
	stroke="#0000ff" stroke-width="2"/>
  
  <line x1="320.2173913043478" y1="339.9904761904762" x2="332.5" y2="357.3390476190476"
	stroke="#0000ff" stroke-width="2"/>
  
  <line x1="332.5" y1="357.3390476190476" x2="344.7826086956522" y2="362.17904761904765"
	stroke="#0000ff" stroke-width="2"/>
  
  <line x1="344.7826086956522" y1="362.17904761904765" x2="357.0652173913044" y2="349.7961904761905"
	stroke="#0000ff" stroke-width="2"/>
  
  <line x1="357.0652173913044" y1="349.7961904761905" x2="369.3478260869565" y2="340.78666666666663"
	stroke="#0000ff" stroke-width="2"/>
  
  <line x1="369.3478260869565" y1="340.78666666666663" x2="381.6304347826087" y2="348.8742857142857"
	stroke="#0000ff" stroke-width="2"/>
  
  <line x1="381.6304347826087" y1="348.8742857142857" x2="393.9130434782609" y2="340.55619047619047"
	stroke="#0000ff" stroke-width="2"/>
  
  <line x1="393.9130434782609" y1="340.55619047619047" x2="406.19565217391306" y2="337.1409523809524"
	stroke="#0000ff" stroke-width="2"/>
  
  <line x1="406.19565217391306" y1="337.1409523809524" x2="418.4782608695652" y2="333.4533333333333"
	stroke="#0000ff" stroke-width="2"/>
  
  <line x1="418.4782608695652" y1="333.4533333333333" x2="430.7608695652174" y2="338.5238095238095"
	stroke="#0000ff" stroke-width="2"/>
  
  <line x1="430.7608695652174" y1="338.5238095238095" x2="443.04347826086956" y2="346.7371428571429"
	stroke="#0000ff" stroke-width="2"/>
  
  <line x1="443.04347826086956" y1="346.7371428571429" x2="455.32608695652175" y2="352.1219047619048"
	stroke="#0000ff" stroke-width="2"/>
  
  <line x1="455.32608695652175" y1="352.1219047619048" x2="467.60869565217394" y2="312.41714285714284"
	stroke="#0000ff" stroke-width="2"/>
  
  <line x1="467.60869565217394" y1="312.41714285714284" x2="479.89130434782606" y2="285.53523809523807"
	stroke="#0000ff" stroke-width="2"/>
  
  <line x1="479.89130434782606" y1="285.53523809523807" x2="492.17391304347825" y2="259.8685714285714"
	stroke="#0000ff" stroke-width="2"/>
  
  <line x1="492.17391304347825" y1="259.8685714285714" x2="504.45652173913044" y2="242.91809523809525"
	stroke="#0000ff" stroke-width="2"/>
  
  <line x1="504.45652173913044" y1="242.91809523809525" x2="516.7391304347826" y2="217.10476190476192"
	stroke="#0000ff" stroke-width="2"/>
  
  <line x1="516.7391304347826" y1="217.10476190476192" x2="529.0217391304348" y2="216.43428571428572"
	stroke="#0000ff" stroke-width="2"/>
  
  <line x1="529.0217391304348" y1="216.43428571428572" x2="541.304347826087" y2="223.85142857142858"
	stroke="#0000ff" stroke-width="2"/>
  
  <line x1="541.304347826087" y1="223.85142857142858" x2="553.5869565217391" y2="256.76761904761906"
	stroke="#0000ff" stroke-width="2"/>
  
  <line x1="553.5869565217391" y1="256.76761904761906" x2="565.8695652173913" y2="286.7295238095238"
	stroke="#0000ff" stroke-width="2"/>
  
  <line x1="565.8695652173913" y1="286.7295238095238" x2="578.1521739130435" y2="306.32"
	stroke="#0000ff" stroke-width="2"/>
  
  <line x1="578.1521739130435" y1="306.32" x2="590.4347826086956" y2="310.32190476190476"
	stroke="#0000ff" stroke-width="2"/>
  
  <line x1="590.4347826086956" y1="310.32190476190476" x2="602.7173913043479" y2="319.01714285714286"
	stroke="#0000ff" stroke-width="2"/>
  
  <line x1="602.7173913043479" y1="319.01714285714286" x2="615.0" y2="309.50476190476195"
	stroke="#0000ff" stroke-width="2"/>
  
  <line x1="615.0" y1="309.50476190476195" x2="627.2826086956521" y2="309.77714285714285"
	stroke="#0000ff" stroke-width="2"/>
  
  <line x1="627.2826086956521" y1="309.77714285714285" x2="639.5652173913044" y2="299.23809523809524"
	stroke="#0000ff" stroke-width="2"/>
  
  <line x1="639.5652173913044" y1="299.23809523809524" x2="651.8478260869565" y2="288.0914285714286"
	stroke="#0000ff" stroke-width="2"/>
  
  <line x1="651.8478260869565" y1="288.0914285714286" x2="664.1304347826087" y2="286.35238095238094"
	stroke="#0000ff" stroke-width="2"/>
  
  <line x1="664.1304347826087" y1="286.35238095238094" x2="676.4130434782609" y2="303.0095238095238"
	stroke="#0000ff" stroke-width="2"/>
  
  <line x1="676.4130434782609" y1="303.0095238095238" x2="688.695652173913" y2="311.9142857142857"
	stroke="#0000ff" stroke-width="2"/>
  
  <line x1="688.695652173913" y1="311.9142857142857" x2="700.9782608695652" y2="327.60761904761904"
	stroke="#0000ff" stroke-width="2"/>
  
  <line x1="700.9782608695652" y1="327.60761904761904" x2="713.2608695652174" y2="331.1066666666667"
	stroke="#0000ff" stroke-width="2"/>
  
  <line x1="713.2608695652174" y1="331.1066666666667" x2="725.5434782608695" y2="351.43047619047616"
	stroke="#0000ff" stroke-width="2"/>
  
  <line x1="725.5434782608695" y1="351.43047619047616" x2="737.8260869565217" y2="371.44"
	stroke="#0000ff" stroke-width="2"/>
  
  <line x1="737.8260869565217" y1="371.44" x2="750.1086956521739" y2="382.9009523809524"
	stroke="#0000ff" stroke-width="2"/>
  
  <line x1="750.1086956521739" y1="382.9009523809524" x2="762.3913043478261" y2="381.18285714285713"
	stroke="#0000ff" stroke-width="2"/>
  
  <line x1="762.3913043478261" y1="381.18285714285713" x2="774.6739130434783" y2="390.84190476190474"
	stroke="#0000ff" stroke-width="2"/>
  
  <line x1="774.6739130434783" y1="390.84190476190474" x2="786.9565217391304" y2="398.0495238095238"
	stroke="#0000ff" stroke-width="2"/>
  
  <line x1="786.9565217391304" y1="398.0495238095238" x2="799.2391304347826" y2="403.87428571428575"
	stroke="#0000ff" stroke-width="2"/>
  
  <line x1="799.2391304347826" y1="403.87428571428575" x2="811.5217391304348" y2="403.4552380952381"
	stroke="#0000ff" stroke-width="2"/>
  
  <line x1="811.5217391304348" y1="403.4552380952381" x2="823.804347826087" y2="406.64"
	stroke="#0000ff" stroke-width="2"/>
  
  <line x1="823.804347826087" y1="406.64" x2="836.0869565217391" y2="410.62095238095236"
	stroke="#0000ff" stroke-width="2"/>
  
  <line x1="836.0869565217391" y1="410.62095238095236" x2="848.3695652173913" y2="417.807619047619"
	stroke="#0000ff" stroke-width="2"/>
  
  <line x1="848.3695652173913" y1="417.807619047619" x2="860.6521739130435" y2="421.18095238095236"
	stroke="#0000ff" stroke-width="2"/>
  
  <line x1="860.6521739130435" y1="421.18095238095236" x2="872.9347826086956" y2="421.74666666666667"
	stroke="#0000ff" stroke-width="2"/>
  
  <line x1="872.9347826086956" y1="421.74666666666667" x2="885.2173913043479" y2="415.44"
	stroke="#0000ff" stroke-width="2"/>
  
  <line x1="885.2173913043479" y1="415.44" x2="897.5" y2="416.25714285714287"
	stroke="#0000ff" stroke-width="2"/>
  
  <line x1="897.5" y1="416.25714285714287" x2="909.7826086956521" y2="415.8590476190476"
	stroke="#0000ff" stroke-width="2"/>
  
  <line x1="909.7826086956521" y1="415.8590476190476" x2="922.0652173913044" y2="420.4057142857143"
	stroke="#0000ff" stroke-width="2"/>
  
  <line x1="922.0652173913044" y1="420.4057142857143" x2="934.3478260869565" y2="420.36380952380955"
	stroke="#0000ff" stroke-width="2"/>
  
  <line x1="934.3478260869565" y1="420.36380952380955" x2="946.6304347826087" y2="419.6304761904762"
	stroke="#0000ff" stroke-width="2"/>
  
  <line x1="946.6304347826087" y1="419.6304761904762" x2="958.9130434782609" y2="416.2990476190476"
	stroke="#0000ff" stroke-width="2"/>
  
  <line x1="958.9130434782609" y1="416.2990476190476" x2="971.195652173913" y2="419.9447619047619"
	stroke="#0000ff" stroke-width="2"/>
  
  <line x1="971.195652173913" y1="419.9447619047619" x2="983.4782608695652" y2="423.1714285714286"
	stroke="#0000ff" stroke-width="2"/>
  
  <line x1="983.4782608695652" y1="423.1714285714286" x2="995.7608695652174" y2="424.1771428571428"
	stroke="#0000ff" stroke-width="2"/>
  
  <line x1="995.7608695652174" y1="424.1771428571428" x2="1008.0434782608695" y2="425.0571428571429"
	stroke="#0000ff" stroke-width="2"/>
  
  <line x1="1008.0434782608695" y1="425.0571428571429" x2="1020.3260869565217" y2="425.83238095238096"
	stroke="#0000ff" stroke-width="2"/>
  
  <line x1="1020.3260869565217" y1="425.83238095238096" x2="1032.608695652174" y2="427.76"
	stroke="#0000ff" stroke-width="2"/>
  
  <line x1="1032.608695652174" y1="427.76" x2="1044.891304347826" y2="433.20761904761906"
	stroke="#0000ff" stroke-width="2"/>
  
  <line x1="1044.891304347826" y1="433.20761904761906" x2="1057.1739130434783" y2="437.83809523809526"
	stroke="#0000ff" stroke-width="2"/>
  
  <line x1="1057.1739130434783" y1="437.83809523809526" x2="1069.4565217391305" y2="434.6533333333333"
	stroke="#0000ff" stroke-width="2"/>
  
  <line x1="1069.4565217391305" y1="434.6533333333333" x2="1081.7391304347825" y2="429.93904761904764"
	stroke="#0000ff" stroke-width="2"/>
  
  <line x1="1081.7391304347825" y1="429.93904761904764" x2="1094.0217391304348" y2="424.6590476190476"
	stroke="#0000ff" stroke-width="2"/>
  
  <line x1="1094.0217391304348" y1="424.6590476190476" x2="1106.304347826087" y2="417.6609523809524"
	stroke="#0000ff" stroke-width="2"/>
  
  <line x1="1106.304347826087" y1="417.6609523809524" x2="1118.586956521739" y2="412.192380952381"
	stroke="#0000ff" stroke-width="2"/>
  
  <line x1="1118.586956521739" y1="412.192380952381" x2="1130.8695652173913" y2="405.3828571428571"
	stroke="#0000ff" stroke-width="2"/>
  
  <line x1="1130.8695652173913" y1="405.3828571428571" x2="1143.1521739130435" y2="397.90285714285716"
	stroke="#0000ff" stroke-width="2"/>
  
  <line x1="1143.1521739130435" y1="397.90285714285716" x2="1155.4347826086957" y2="395.49333333333334"
	stroke="#0000ff" stroke-width="2"/>
  
  <line x1="1155.4347826086957" y1="395.49333333333334" x2="1167.7173913043478" y2="394.4038095238095"
	stroke="#0000ff" stroke-width="2"/>
  



  
  <line x1="86.84782608695653" y1="470.0" x2="86.84782608695653" y2="30.0"
	stroke="#c0c0c0"/>
   
  
  <line x1="86.84782608695653" y1="470.0" x2="86.84782608695653" y2="30.0"
	stroke="#606060"/>
   
  
  <line x1="123.69565217391305" y1="470.0" x2="123.69565217391305" y2="30.0"
	stroke="#c0c0c0"/>
   
  
  <line x1="160.54347826086956" y1="470.0" x2="160.54347826086956" y2="30.0"
	stroke="#c0c0c0"/>
   
  <text y="490" x="160.54347826086956" text-anchor="middle" font-size="10">2010</text>
  
  
  <line x1="197.3913043478261" y1="470.0" x2="197.3913043478261" y2="30.0"
	stroke="#c0c0c0"/>
   
  
  <line x1="234.2391304347826" y1="470.0" x2="234.2391304347826" y2="30.0"
	stroke="#c0c0c0"/>
   
  
  <line x1="234.2391304347826" y1="470.0" x2="234.2391304347826" y2="30.0"
	stroke="#606060"/>
   
  
  <line x1="271.0869565217391" y1="470.0" x2="271.0869565217391" y2="30.0"
	stroke="#c0c0c0"/>
   
  
  <line x1="307.9347826086956" y1="470.0" x2="307.9347826086956" y2="30.0"
	stroke="#c0c0c0"/>
   
  <text y="490" x="307.9347826086956" text-anchor="middle" font-size="10">2011</text>
  
  
  <line x1="344.7826086956522" y1="470.0" x2="344.7826086956522" y2="30.0"
	stroke="#c0c0c0"/>
   
  
  <line x1="381.6304347826087" y1="470.0" x2="381.6304347826087" y2="30.0"
	stroke="#c0c0c0"/>
   
  
  <line x1="381.6304347826087" y1="470.0" x2="381.6304347826087" y2="30.0"
	stroke="#606060"/>
   
  
  <line x1="418.4782608695652" y1="470.0" x2="418.4782608695652" y2="30.0"
	stroke="#c0c0c0"/>
   
  
  <line x1="455.32608695652175" y1="470.0" x2="455.32608695652175" y2="30.0"
	stroke="#c0c0c0"/>
   
  <text y="490" x="455.32608695652175" text-anchor="middle" font-size="10">2012</text>
  
  
  <line x1="492.17391304347825" y1="470.0" x2="492.17391304347825" y2="30.0"
	stroke="#c0c0c0"/>
   
  
  <line x1="529.0217391304348" y1="470.0" x2="529.0217391304348" y2="30.0"
	stroke="#c0c0c0"/>
   
  
  <line x1="529.0217391304348" y1="470.0" x2="529.0217391304348" y2="30.0"
	stroke="#606060"/>
   
  
  <line x1="565.8695652173913" y1="470.0" x2="565.8695652173913" y2="30.0"
	stroke="#c0c0c0"/>
   
  
  <line x1="602.7173913043479" y1="470.0" x2="602.7173913043479" y2="30.0"
	stroke="#c0c0c0"/>
   
  <text y="490" x="602.7173913043479" text-anchor="middle" font-size="10">2013</text>
  
  
  <line x1="639.5652173913044" y1="470.0" x2="639.5652173913044" y2="30.0"
	stroke="#c0c0c0"/>
   
  
  <line x1="676.4130434782609" y1="470.0" x2="676.4130434782609" y2="30.0"
	stroke="#c0c0c0"/>
   
  
  <line x1="676.4130434782609" y1="470.0" x2="676.4130434782609" y2="30.0"
	stroke="#606060"/>
   
  
  <line x1="713.2608695652174" y1="470.0" x2="713.2608695652174" y2="30.0"
	stroke="#c0c0c0"/>
   
  
  <line x1="750.1086956521739" y1="470.0" x2="750.1086956521739" y2="30.0"
	stroke="#c0c0c0"/>
   
  <text y="490" x="750.1086956521739" text-anchor="middle" font-size="10">2014</text>
  
  
  <line x1="786.9565217391304" y1="470.0" x2="786.9565217391304" y2="30.0"
	stroke="#c0c0c0"/>
   
  
  <line x1="823.804347826087" y1="470.0" x2="823.804347826087" y2="30.0"
	stroke="#c0c0c0"/>
   
  
  <line x1="823.804347826087" y1="470.0" x2="823.804347826087" y2="30.0"
	stroke="#606060"/>
   
  
  <line x1="860.6521739130435" y1="470.0" x2="860.6521739130435" y2="30.0"
	stroke="#c0c0c0"/>
   
  
  <line x1="897.5" y1="470.0" x2="897.5" y2="30.0"
	stroke="#c0c0c0"/>
   
  <text y="490" x="897.5" text-anchor="middle" font-size="10">2015</text>
  
  
  <line x1="934.3478260869565" y1="470.0" x2="934.3478260869565" y2="30.0"
	stroke="#c0c0c0"/>
   
  
  <line x1="971.195652173913" y1="470.0" x2="971.195652173913" y2="30.0"
	stroke="#c0c0c0"/>
   
  
  <line x1="971.195652173913" y1="470.0" x2="971.195652173913" y2="30.0"
	stroke="#606060"/>
   
  
  <line x1="1008.0434782608695" y1="470.0" x2="1008.0434782608695" y2="30.0"
	stroke="#c0c0c0"/>
   
  
  <line x1="1044.891304347826" y1="470.0" x2="1044.891304347826" y2="30.0"
	stroke="#c0c0c0"/>
   
  <text y="490" x="1044.891304347826" text-anchor="middle" font-size="10">2016</text>
  
  
  <line x1="1081.7391304347825" y1="470.0" x2="1081.7391304347825" y2="30.0"
	stroke="#c0c0c0"/>
   
  
  <line x1="1118.586956521739" y1="470.0" x2="1118.586956521739" y2="30.0"
	stroke="#c0c0c0"/>
   
  
  <line x1="1118.586956521739" y1="470.0" x2="1118.586956521739" y2="30.0"
	stroke="#606060"/>
   
  
  <line x1="1155.4347826086957" y1="470.0" x2="1155.4347826086957" y2="30.0"
	stroke="#c0c0c0"/>
   
  
  
  <line y1="426.0" x1="50.0" y2="426.0" x2="1180.0"
	stroke="#c0c0c0"/>
  
  <text x="45" y="426.0" text-anchor="end" font-size="10">300</text>
  
  
  <line y1="382.0" x1="50.0" y2="382.0" x2="1180.0"
	stroke="#c0c0c0"/>
  
  <text x="45" y="382.0" text-anchor="end" font-size="10">600</text>
  
  
  <line y1="338.0" x1="50.0" y2="338.0" x2="1180.0"
	stroke="#c0c0c0"/>
  
  <text x="45" y="338.0" text-anchor="end" font-size="10">900</text>
  
  
  <line y1="294.0" x1="50.0" y2="294.0" x2="1180.0"
	stroke="#c0c0c0"/>
  
  <text x="45" y="294.0" text-anchor="end" font-size="10">1200</text>
  
  
  <line y1="250.0" x1="50.0" y2="250.0" x2="1180.0"
	stroke="#c0c0c0"/>
  
  <text x="45" y="250.0" text-anchor="end" font-size="10">1500</text>
  
  
  <line y1="206.0" x1="50.0" y2="206.0" x2="1180.0"
	stroke="#c0c0c0"/>
  
  <text x="45" y="206.0" text-anchor="end" font-size="10">1800</text>
  
  
  <line y1="162.0" x1="50.0" y2="162.0" x2="1180.0"
	stroke="#c0c0c0"/>
  
  <text x="45" y="162.0" text-anchor="end" font-size="10">2100</text>
  
  
  <line y1="118.0" x1="50.0" y2="118.0" x2="1180.0"
	stroke="#c0c0c0"/>
  
  <text x="45" y="118.0" text-anchor="end" font-size="10">2400</text>
  
  
  <line y1="74.0" x1="50.0" y2="74.0" x2="1180.0"
	stroke="#c0c0c0"/>
  
  <text x="45" y="74.0" text-anchor="end" font-size="10">2700</text>
  
  

</svg>
