<?xml version="1.0" encoding="UTF-8" standalone="no"?>
<!-- Created with Inkscape (http://www.inkscape.org/) -->
<!DOCTYPE svg PUBLIC "-//W3C//DTD SVG 1.1//EN" "http://www.w3.org/Graphics/SVG/1.1/DTD/svg11.dtd"> 

<svg
   xmlns="http://www.w3.org/2000/svg"
   width="1200"
   height="500"
   version="1.1"
   style="enable-background:new">

  <rect x="0" y="0" width="1200" height="500"
	fill="#e0e0e0"/>

  <text x="615.0" y="20.0" text-anchor="middle" font-size="12">Number of posts per month on forum &quot;Area Relax&quot; (and children)</text>

  <rect x="50" y="30" width="1130" height="440"
	fill="white" stroke="black" stroke-width="2"/>
  
  <rect x="50.61413043478261" y="460.1" width="11.054347826086957" height="9.9"
	fill="#a090ff"/>
  
  <rect x="62.89673913043478" y="418.3" width="11.054347826086957" height="51.7"
	fill="#a090ff"/>
  
  <rect x="75.17934782608695" y="362.42" width="11.054347826086957" height="107.58"
	fill="#a090ff"/>
  
  <rect x="87.46195652173913" y="341.2266666666667" width="11.054347826086957" height="128.77333333333334"
	fill="#a090ff"/>
  
  <rect x="99.74456521739131" y="391.6066666666667" width="11.054347826086957" height="78.39333333333333"
	fill="#a090ff"/>
  
  <rect x="112.02717391304347" y="419.5466666666667" width="11.054347826086957" height="50.45333333333333"
	fill="#a090ff"/>
  
  <rect x="124.30978260869566" y="378.8466666666667" width="11.054347826086957" height="91.15333333333334"
	fill="#a090ff"/>
  
  <rect x="136.5923913043478" y="410.38" width="11.054347826086957" height="59.62"
	fill="#a090ff"/>
  
  <rect x="148.875" y="312.7733333333333" width="11.054347826086957" height="157.22666666666666"
	fill="#a090ff"/>
  
  <rect x="161.1576086956522" y="340.49333333333334" width="11.054347826086957" height="129.50666666666666"
	fill="#a090ff"/>
  
  <rect x="173.44021739130437" y="400.18666666666667" width="11.054347826086957" height="69.81333333333333"
	fill="#a090ff"/>
  
  <rect x="185.72282608695653" y="383.98" width="11.054347826086957" height="86.02"
	fill="#a090ff"/>
  
  <rect x="198.00543478260872" y="370.56" width="11.054347826086957" height="99.44"
	fill="#a090ff"/>
  
  <rect x="210.28804347826087" y="303.38666666666666" width="11.054347826086957" height="166.61333333333334"
	fill="#a090ff"/>
  
  <rect x="222.57065217391306" y="338.9533333333333" width="11.054347826086957" height="131.04666666666668"
	fill="#a090ff"/>
  
  <rect x="234.85326086956522" y="344.3066666666667" width="11.054347826086957" height="125.69333333333333"
	fill="#a090ff"/>
  
  <rect x="247.1358695652174" y="313.6533333333333" width="11.054347826086957" height="156.34666666666666"
	fill="#a090ff"/>
  
  <rect x="259.41847826086956" y="293.4133333333333" width="11.054347826086957" height="176.58666666666667"
	fill="#a090ff"/>
  
  <rect x="271.70108695652175" y="271.12" width="11.054347826086957" height="198.88"
	fill="#a090ff"/>
  
  <rect x="283.9836956521739" y="244.35333333333332" width="11.054347826086957" height="225.64666666666668"
	fill="#a090ff"/>
  
  <rect x="296.2663043478261" y="329.56666666666666" width="11.054347826086957" height="140.43333333333334"
	fill="#a090ff"/>
  
  <rect x="308.54891304347825" y="361.8333333333333" width="11.054347826086957" height="108.16666666666667"
	fill="#a090ff"/>
  
  <rect x="320.83152173913044" y="381.34000000000003" width="11.054347826086957" height="88.66"
	fill="#a090ff"/>
  
  <rect x="333.1141304347826" y="355.38" width="11.054347826086957" height="114.62"
	fill="#a090ff"/>
  
  <rect x="345.3967391304348" y="394.68666666666667" width="11.054347826086957" height="75.31333333333333"
	fill="#a090ff"/>
  
  <rect x="357.67934782608694" y="403.26666666666665" width="11.054347826086957" height="66.73333333333333"
	fill="#a090ff"/>
  
  <rect x="369.9619565217391" y="418.74" width="11.054347826086957" height="51.26"
	fill="#a090ff"/>
  
  <rect x="382.2445652173913" y="406.64" width="11.054347826086957" height="63.36"
	fill="#a090ff"/>
  
  <rect x="394.5271739130435" y="358.02" width="11.054347826086957" height="111.98"
	fill="#a090ff"/>
  
  <rect x="406.8097826086957" y="252.64" width="11.054347826086957" height="217.36"
	fill="#a090ff"/>
  
  <rect x="419.0923913043478" y="374.96" width="11.054347826086957" height="95.04"
	fill="#a090ff"/>
  
  <rect x="431.375" y="371.8066666666667" width="11.054347826086957" height="98.19333333333333"
	fill="#a090ff"/>
  
  <rect x="443.65760869565213" y="398.20666666666665" width="11.054347826086957" height="71.79333333333334"
	fill="#a090ff"/>
  
  <rect x="455.9402173913043" y="369.82666666666665" width="11.054347826086957" height="100.17333333333333"
	fill="#a090ff"/>
  
  <rect x="468.2228260869565" y="313.14" width="11.054347826086957" height="156.86"
	fill="#a090ff"/>
  
  <rect x="480.50543478260863" y="282.4133333333333" width="11.054347826086957" height="187.58666666666667"
	fill="#a090ff"/>
  
  <rect x="492.7880434782608" y="144.32666666666665" width="11.054347826086957" height="325.67333333333335"
	fill="#a090ff"/>
  
  <rect x="505.070652173913" y="64.98000000000002" width="11.054347826086957" height="405.02"
	fill="#a090ff"/>
  
  <rect x="517.3532608695652" y="176.66666666666669" width="11.054347826086957" height="293.3333333333333"
	fill="#a090ff"/>
  
  <rect x="529.6358695652174" y="260.4866666666667" width="11.054347826086957" height="209.51333333333332"
	fill="#a090ff"/>
  
  <rect x="541.9184782608695" y="235.04" width="11.054347826086957" height="234.96"
	fill="#a090ff"/>
  
  <rect x="554.2010869565217" y="330.88666666666666" width="11.054347826086957" height="139.11333333333334"
	fill="#a090ff"/>
  
  <rect x="566.4836956521739" y="328.02666666666664" width="11.054347826086957" height="141.97333333333333"
	fill="#a090ff"/>
  
  <rect x="578.766304347826" y="367.11333333333334" width="11.054347826086957" height="102.88666666666667"
	fill="#a090ff"/>
  
  <rect x="591.0489130434783" y="380.82666666666665" width="11.054347826086957" height="89.17333333333333"
	fill="#a090ff"/>
  
  <rect x="603.3315217391304" y="375.1066666666667" width="11.054347826086957" height="94.89333333333333"
	fill="#a090ff"/>
  
  <rect x="615.6141304347826" y="350.76" width="11.054347826086957" height="119.24"
	fill="#a090ff"/>
  
  <rect x="627.8967391304348" y="360.22" width="11.054347826086957" height="109.78"
	fill="#a090ff"/>
  
  <rect x="640.1793478260869" y="374.6666666666667" width="11.054347826086957" height="95.33333333333333"
	fill="#a090ff"/>
  
  <rect x="652.4619565217391" y="336.24" width="11.054347826086957" height="133.76"
	fill="#a090ff"/>
  
  <rect x="664.7445652173913" y="362.05333333333334" width="11.054347826086957" height="107.94666666666667"
	fill="#a090ff"/>
  
  <rect x="677.0271739130434" y="346.43333333333334" width="11.054347826086957" height="123.56666666666666"
	fill="#a090ff"/>
  
  <rect x="689.3097826086956" y="368.21333333333337" width="11.054347826086957" height="101.78666666666666"
	fill="#a090ff"/>
  
  <rect x="701.5923913043478" y="404.5866666666667" width="11.054347826086957" height="65.41333333333333"
	fill="#a090ff"/>
  
  <rect x="713.875" y="399.6" width="11.054347826086957" height="70.4"
	fill="#a090ff"/>
  
  <rect x="726.1576086956521" y="395.2733333333333" width="11.054347826086957" height="74.72666666666667"
	fill="#a090ff"/>
  
  <rect x="738.4402173913043" y="400.8466666666667" width="11.054347826086957" height="69.15333333333334"
	fill="#a090ff"/>
  
  <rect x="750.7228260869565" y="413.5333333333333" width="11.054347826086957" height="56.46666666666667"
	fill="#a090ff"/>
  
  <rect x="763.0054347826086" y="410.9666666666667" width="11.054347826086957" height="59.03333333333333"
	fill="#a090ff"/>
  
  <rect x="775.2880434782609" y="392.85333333333335" width="11.054347826086957" height="77.14666666666666"
	fill="#a090ff"/>
  
  <rect x="787.570652173913" y="425.78" width="11.054347826086957" height="44.22"
	fill="#a090ff"/>
  
  <rect x="799.8532608695651" y="379.28666666666663" width="11.054347826086957" height="90.71333333333334"
	fill="#a090ff"/>
  
  <rect x="812.1358695652174" y="391.68" width="11.054347826086957" height="78.32000000000001"
	fill="#a090ff"/>
  
  <rect x="824.4184782608695" y="405.02666666666664" width="11.054347826086957" height="64.97333333333333"
	fill="#a090ff"/>
  
  <rect x="836.7010869565217" y="423.36" width="11.054347826086957" height="46.64"
	fill="#a090ff"/>
  
  <rect x="848.9836956521739" y="422.62666666666667" width="11.054347826086957" height="47.373333333333335"
	fill="#a090ff"/>
  
  <rect x="861.266304347826" y="427.90666666666664" width="11.054347826086957" height="42.093333333333334"
	fill="#a090ff"/>
  
  <rect x="873.5489130434783" y="388.67333333333335" width="11.054347826086957" height="81.32666666666667"
	fill="#a090ff"/>
  
  <rect x="885.8315217391304" y="383.32" width="11.054347826086957" height="86.68"
	fill="#a090ff"/>
  
  <rect x="898.1141304347826" y="386.76666666666665" width="11.054347826086957" height="83.23333333333333"
	fill="#a090ff"/>
  
  <rect x="910.3967391304348" y="416.4666666666667" width="11.054347826086957" height="53.53333333333333"
	fill="#a090ff"/>
  
  <rect x="922.6793478260869" y="439.7133333333333" width="11.054347826086957" height="30.286666666666665"
	fill="#a090ff"/>
  
  <rect x="934.9619565217391" y="446.09333333333336" width="11.054347826086957" height="23.906666666666666"
	fill="#a090ff"/>
  
  <rect x="947.2445652173913" y="450.7133333333333" width="11.054347826086957" height="19.286666666666665"
	fill="#a090ff"/>
  
  <rect x="959.5271739130434" y="453.1333333333333" width="11.054347826086957" height="16.866666666666667"
	fill="#a090ff"/>
  
  <rect x="971.8097826086956" y="445.36" width="11.054347826086957" height="24.64"
	fill="#a090ff"/>
  
  <rect x="984.0923913043478" y="424.97333333333336" width="11.054347826086957" height="45.026666666666664"
	fill="#a090ff"/>
  
  <rect x="996.375" y="419.9866666666667" width="11.054347826086957" height="50.013333333333335"
	fill="#a090ff"/>
  
  <rect x="1008.6576086956521" y="429.59333333333336" width="11.054347826086957" height="40.406666666666666"
	fill="#a090ff"/>
  
  <rect x="1020.9402173913043" y="407.37333333333333" width="11.054347826086957" height="62.626666666666665"
	fill="#a090ff"/>
  
  <rect x="1033.2228260869565" y="427.02666666666664" width="11.054347826086957" height="42.973333333333336"
	fill="#a090ff"/>
  
  <rect x="1045.5054347826085" y="435.02" width="11.054347826086957" height="34.98"
	fill="#a090ff"/>
  
  <rect x="1057.788043478261" y="443.8933333333333" width="11.054347826086957" height="26.106666666666666"
	fill="#a090ff"/>
  
  <rect x="1070.070652173913" y="412.94666666666666" width="11.054347826086957" height="57.053333333333335"
	fill="#a090ff"/>
  
  <rect x="1082.3532608695652" y="439.49333333333334" width="11.054347826086957" height="30.506666666666668"
	fill="#a090ff"/>
  
  <rect x="1094.6358695652173" y="436.9266666666667" width="11.054347826086957" height="33.07333333333333"
	fill="#a090ff"/>
  
  <rect x="1106.9184782608695" y="449.3933333333333" width="11.054347826086957" height="20.606666666666666"
	fill="#a090ff"/>
  
  <rect x="1119.2010869565217" y="402.09333333333336" width="11.054347826086957" height="67.90666666666667"
	fill="#a090ff"/>
  
  <rect x="1131.4836956521738" y="422.55333333333334" width="11.054347826086957" height="47.446666666666665"
	fill="#a090ff"/>
  
  <rect x="1143.766304347826" y="424.68" width="11.054347826086957" height="45.32"
	fill="#a090ff"/>
  
  <rect x="1156.0489130434783" y="412.2866666666667" width="11.054347826086957" height="57.71333333333333"
	fill="#a090ff"/>
  
  <rect x="1168.3315217391305" y="441.91333333333336" width="11.054347826086957" height="28.086666666666666"
	fill="#a090ff"/>
  
  
  <line x1="50.0" y1="427.4352380952381" x2="62.28260869565217" y2="416.2361904761905"
	stroke="#0000ff" stroke-width="2"/>
  
  <line x1="62.28260869565217" y1="416.2361904761905" x2="74.56521739130434" y2="409.0285714285714"
	stroke="#0000ff" stroke-width="2"/>
  
  <line x1="74.56521739130434" y1="409.0285714285714" x2="86.84782608695653" y2="396.00666666666666"
	stroke="#0000ff" stroke-width="2"/>
  
  <line x1="86.84782608695653" y1="396.00666666666666" x2="99.13043478260869" y2="388.9038095238095"
	stroke="#0000ff" stroke-width="2"/>
  
  <line x1="99.13043478260869" y1="388.9038095238095" x2="111.41304347826087" y2="373.8285714285714"
	stroke="#0000ff" stroke-width="2"/>
  
  <line x1="111.41304347826087" y1="373.8285714285714" x2="123.69565217391305" y2="370.6961904761905"
	stroke="#0000ff" stroke-width="2"/>
  
  <line x1="123.69565217391305" y1="370.6961904761905" x2="135.97826086956522" y2="379.1190476190476"
	stroke="#0000ff" stroke-width="2"/>
  
  <line x1="135.97826086956522" y1="379.1190476190476" x2="148.26086956521738" y2="378.0295238095238"
	stroke="#0000ff" stroke-width="2"/>
  
  <line x1="148.26086956521738" y1="378.0295238095238" x2="160.54347826086956" y2="371.0314285714286"
	stroke="#0000ff" stroke-width="2"/>
  
  <line x1="160.54347826086956" y1="371.0314285714286" x2="172.82608695652175" y2="360.25142857142856"
	stroke="#0000ff" stroke-width="2"/>
  
  <line x1="172.82608695652175" y1="360.25142857142856" x2="185.1086956521739" y2="350.04761904761904"
	stroke="#0000ff" stroke-width="2"/>
  
  <line x1="185.1086956521739" y1="350.04761904761904" x2="197.3913043478261" y2="354.552380952381"
	stroke="#0000ff" stroke-width="2"/>
  
  <line x1="197.3913043478261" y1="354.552380952381" x2="209.67391304347825" y2="350.7180952380952"
	stroke="#0000ff" stroke-width="2"/>
  
  <line x1="209.67391304347825" y1="350.7180952380952" x2="221.95652173913044" y2="335.4647619047619"
	stroke="#0000ff" stroke-width="2"/>
  
  <line x1="221.95652173913044" y1="335.4647619047619" x2="234.2391304347826" y2="319.34190476190474"
	stroke="#0000ff" stroke-width="2"/>
  
  <line x1="234.2391304347826" y1="319.34190476190474" x2="246.52173913043478" y2="301.312380952381"
	stroke="#0000ff" stroke-width="2"/>
  
  <line x1="246.52173913043478" y1="301.312380952381" x2="258.804347826087" y2="305.052380952381"
	stroke="#0000ff" stroke-width="2"/>
  
  <line x1="258.804347826087" y1="305.052380952381" x2="271.0869565217391" y2="308.32095238095235"
	stroke="#0000ff" stroke-width="2"/>
  
  <line x1="271.0869565217391" y1="308.32095238095235" x2="283.3695652173913" y2="313.6114285714286"
	stroke="#0000ff" stroke-width="2"/>
  
  <line x1="283.3695652173913" y1="313.6114285714286" x2="295.6521739130435" y2="319.57238095238097"
	stroke="#0000ff" stroke-width="2"/>
  
  <line x1="295.6521739130435" y1="319.57238095238097" x2="307.9347826086956" y2="334.03999999999996"
	stroke="#0000ff" stroke-width="2"/>
  
  <line x1="307.9347826086956" y1="334.03999999999996" x2="320.2173913043478" y2="352.91809523809525"
	stroke="#0000ff" stroke-width="2"/>
  
  <line x1="320.2173913043478" y1="352.91809523809525" x2="332.5" y2="377.8304761904762"
	stroke="#0000ff" stroke-width="2"/>
  
  <line x1="332.5" y1="377.8304761904762" x2="344.7826086956522" y2="388.8409523809524"
	stroke="#0000ff" stroke-width="2"/>
  
  <line x1="344.7826086956522" y1="388.8409523809524" x2="357.0652173913044" y2="388.2961904761905"
	stroke="#0000ff" stroke-width="2"/>
  
  <line x1="357.0652173913044" y1="388.2961904761905" x2="369.3478260869565" y2="369.9104761904762"
	stroke="#0000ff" stroke-width="2"/>
  
  <line x1="369.3478260869565" y1="369.9104761904762" x2="381.6304347826087" y2="372.70761904761906"
	stroke="#0000ff" stroke-width="2"/>
  
  <line x1="381.6304347826087" y1="372.70761904761906" x2="393.9130434782609" y2="369.43904761904764"
	stroke="#0000ff" stroke-width="2"/>
  
  <line x1="393.9130434782609" y1="369.43904761904764" x2="406.19565217391306" y2="368.7161904761905"
	stroke="#0000ff" stroke-width="2"/>
  
  <line x1="406.19565217391306" y1="368.7161904761905" x2="418.4782608695652" y2="361.72857142857146"
	stroke="#0000ff" stroke-width="2"/>
  
  <line x1="418.4782608695652" y1="361.72857142857146" x2="430.7608695652174" y2="348.37142857142857"
	stroke="#0000ff" stroke-width="2"/>
  
  <line x1="430.7608695652174" y1="348.37142857142857" x2="443.04347826086956" y2="337.5704761904762"
	stroke="#0000ff" stroke-width="2"/>
  
  <line x1="443.04347826086956" y1="337.5704761904762" x2="455.32608695652175" y2="322.09714285714284"
	stroke="#0000ff" stroke-width="2"/>
  
  <line x1="455.32608695652175" y1="322.09714285714284" x2="467.60869565217394" y2="277.8142857142857"
	stroke="#0000ff" stroke-width="2"/>
  
  <line x1="467.60869565217394" y1="277.8142857142857" x2="479.89130434782606" y2="249.93714285714287"
	stroke="#0000ff" stroke-width="2"/>
  
  <line x1="479.89130434782606" y1="249.93714285714287" x2="492.17391304347825" y2="230.26285714285711"
	stroke="#0000ff" stroke-width="2"/>
  
  <line x1="492.17391304347825" y1="230.26285714285711" x2="504.45652173913044" y2="211.00761904761902"
	stroke="#0000ff" stroke-width="2"/>
  
  <line x1="504.45652173913044" y1="211.00761904761902" x2="516.7391304347826" y2="213.54285714285714"
	stroke="#0000ff" stroke-width="2"/>
  
  <line x1="516.7391304347826" y1="213.54285714285714" x2="529.0217391304348" y2="220.05904761904762"
	stroke="#0000ff" stroke-width="2"/>
  
  <line x1="529.0217391304348" y1="220.05904761904762" x2="541.304347826087" y2="251.8857142857143"
	stroke="#0000ff" stroke-width="2"/>
  
  <line x1="541.304347826087" y1="251.8857142857143" x2="553.5869565217391" y2="297.00666666666666"
	stroke="#0000ff" stroke-width="2"/>
  
  <line x1="553.5869565217391" y1="297.00666666666666" x2="565.8695652173913" y2="325.35523809523806"
	stroke="#0000ff" stroke-width="2"/>
  
  <line x1="565.8695652173913" y1="325.35523809523806" x2="578.1521739130435" y2="338.25142857142856"
	stroke="#0000ff" stroke-width="2"/>
  
  <line x1="578.1521739130435" y1="338.25142857142856" x2="590.4347826086956" y2="356.13428571428574"
	stroke="#0000ff" stroke-width="2"/>
  
  <line x1="590.4347826086956" y1="356.13428571428574" x2="602.7173913043479" y2="362.3885714285714"
	stroke="#0000ff" stroke-width="2"/>
  
  <line x1="602.7173913043479" y1="362.3885714285714" x2="615.0" y2="363.56190476190477"
	stroke="#0000ff" stroke-width="2"/>
  
  <line x1="615.0" y1="363.56190476190477" x2="627.2826086956521" y2="362.8390476190476"
	stroke="#0000ff" stroke-width="2"/>
  
  <line x1="627.2826086956521" y1="362.8390476190476" x2="639.5652173913044" y2="357.9257142857143"
	stroke="#0000ff" stroke-width="2"/>
  
  <line x1="639.5652173913044" y1="357.9257142857143" x2="651.8478260869565" y2="356.94095238095235"
	stroke="#0000ff" stroke-width="2"/>
  
  <line x1="651.8478260869565" y1="356.94095238095235" x2="664.1304347826087" y2="364.6304761904762"
	stroke="#0000ff" stroke-width="2"/>
  
  <line x1="664.1304347826087" y1="364.6304761904762" x2="676.4130434782609" y2="370.25619047619045"
	stroke="#0000ff" stroke-width="2"/>
  
  <line x1="676.4130434782609" y1="370.25619047619045" x2="688.695652173913" y2="373.2"
	stroke="#0000ff" stroke-width="2"/>
  
  <line x1="688.695652173913" y1="373.2" x2="700.9782608695652" y2="382.4295238095238"
	stroke="#0000ff" stroke-width="2"/>
  
  <line x1="700.9782608695652" y1="382.4295238095238" x2="713.2608695652174" y2="389.7838095238095"
	stroke="#0000ff" stroke-width="2"/>
  
  <line x1="713.2608695652174" y1="389.7838095238095" x2="725.5434782608695" y2="399.0028571428571"
	stroke="#0000ff" stroke-width="2"/>
  
  <line x1="725.5434782608695" y1="399.0028571428571" x2="737.8260869565217" y2="402.52285714285716"
	stroke="#0000ff" stroke-width="2"/>
  
  <line x1="737.8260869565217" y1="402.52285714285716" x2="750.1086956521739" y2="405.55047619047616"
	stroke="#0000ff" stroke-width="2"/>
  
  <line x1="750.1086956521739" y1="405.55047619047616" x2="762.3913043478261" y2="402.6485714285714"
	stroke="#0000ff" stroke-width="2"/>
  
  <line x1="762.3913043478261" y1="402.6485714285714" x2="774.6739130434783" y2="402.1352380952381"
	stroke="#0000ff" stroke-width="2"/>
  
  <line x1="774.6739130434783" y1="402.1352380952381" x2="786.9565217391304" y2="402.73238095238094"
	stroke="#0000ff" stroke-width="2"/>
  
  <line x1="786.9565217391304" y1="402.73238095238094" x2="799.2391304347826" y2="404.13619047619045"
	stroke="#0000ff" stroke-width="2"/>
  
  <line x1="799.2391304347826" y1="404.13619047619045" x2="811.5217391304348" y2="405.8019047619048"
	stroke="#0000ff" stroke-width="2"/>
  
  <line x1="811.5217391304348" y1="405.8019047619048" x2="823.804347826087" y2="410.8095238095238"
	stroke="#0000ff" stroke-width="2"/>
  
  <line x1="823.804347826087" y1="410.8095238095238" x2="836.0869565217391" y2="405.50857142857143"
	stroke="#0000ff" stroke-width="2"/>
  
  <line x1="836.0869565217391" y1="405.50857142857143" x2="848.3695652173913" y2="406.0847619047619"
	stroke="#0000ff" stroke-width="2"/>
  
  <line x1="848.3695652173913" y1="406.0847619047619" x2="860.6521739130435" y2="405.3828571428571"
	stroke="#0000ff" stroke-width="2"/>
  
  <line x1="860.6521739130435" y1="405.3828571428571" x2="872.9347826086956" y2="407.01714285714286"
	stroke="#0000ff" stroke-width="2"/>
  
  <line x1="872.9347826086956" y1="407.01714285714286" x2="885.2173913043479" y2="409.35333333333335"
	stroke="#0000ff" stroke-width="2"/>
  
  <line x1="885.2173913043479" y1="409.35333333333335" x2="897.5" y2="412.7057142857143"
	stroke="#0000ff" stroke-width="2"/>
  
  <line x1="897.5" y1="412.7057142857143" x2="909.7826086956521" y2="415.9638095238095"
	stroke="#0000ff" stroke-width="2"/>
  
  <line x1="909.7826086956521" y1="415.9638095238095" x2="922.0652173913044" y2="425.17238095238093"
	stroke="#0000ff" stroke-width="2"/>
  
  <line x1="922.0652173913044" y1="425.17238095238093" x2="934.3478260869565" y2="434.03523809523807"
	stroke="#0000ff" stroke-width="2"/>
  
  <line x1="934.3478260869565" y1="434.03523809523807" x2="946.6304347826087" y2="439.49333333333334"
	stroke="#0000ff" stroke-width="2"/>
  
  <line x1="946.6304347826087" y1="439.49333333333334" x2="958.9130434782609" y2="439.99619047619046"
	stroke="#0000ff" stroke-width="2"/>
  
  <line x1="958.9130434782609" y1="439.99619047619046" x2="971.195652173913" y2="438.5504761904762"
	stroke="#0000ff" stroke-width="2"/>
  
  <line x1="971.195652173913" y1="438.5504761904762" x2="983.4782608695652" y2="433.0190476190476"
	stroke="#0000ff" stroke-width="2"/>
  
  <line x1="983.4782608695652" y1="433.0190476190476" x2="995.7608695652174" y2="429.6352380952381"
	stroke="#0000ff" stroke-width="2"/>
  
  <line x1="995.7608695652174" y1="429.6352380952381" x2="1008.0434782608695" y2="427.04761904761904"
	stroke="#0000ff" stroke-width="2"/>
  
  <line x1="1008.0434782608695" y1="427.04761904761904" x2="1020.3260869565217" y2="426.83809523809526"
	stroke="#0000ff" stroke-width="2"/>
  
  <line x1="1020.3260869565217" y1="426.83809523809526" x2="1032.608695652174" y2="425.12"
	stroke="#0000ff" stroke-width="2"/>
  
  <line x1="1032.608695652174" y1="425.12" x2="1044.891304347826" y2="427.90666666666664"
	stroke="#0000ff" stroke-width="2"/>
  
  <line x1="1044.891304347826" y1="427.90666666666664" x2="1057.1739130434783" y2="428.95428571428573"
	stroke="#0000ff" stroke-width="2"/>
  
  <line x1="1057.1739130434783" y1="428.95428571428573" x2="1069.4565217391305" y2="434.95714285714286"
	stroke="#0000ff" stroke-width="2"/>
  
  <line x1="1069.4565217391305" y1="434.95714285714286" x2="1081.7391304347825" y2="431.3952380952381"
	stroke="#0000ff" stroke-width="2"/>
  
  <line x1="1081.7391304347825" y1="431.3952380952381" x2="1094.0217391304348" y2="429.6142857142857"
	stroke="#0000ff" stroke-width="2"/>
  
  <line x1="1094.0217391304348" y1="429.6142857142857" x2="1106.304347826087" y2="426.8695238095238"
	stroke="#0000ff" stroke-width="2"/>
  
  <line x1="1106.304347826087" y1="426.8695238095238" x2="1118.586956521739" y2="426.7752380952381"
	stroke="#0000ff" stroke-width="2"/>
  
  <line x1="1118.586956521739" y1="426.7752380952381" x2="1130.8695652173913" y2="427.12095238095236"
	stroke="#0000ff" stroke-width="2"/>
  
  <line x1="1130.8695652173913" y1="427.12095238095236" x2="1143.1521739130435" y2="427.8333333333333"
	stroke="#0000ff" stroke-width="2"/>
  
  <line x1="1143.1521739130435" y1="427.8333333333333" x2="1155.4347826086957" y2="426.7647619047619"
	stroke="#0000ff" stroke-width="2"/>
  
  <line x1="1155.4347826086957" y1="426.7647619047619" x2="1167.7173913043478" y2="432.4533333333333"
	stroke="#0000ff" stroke-width="2"/>
  



  
  <line x1="86.84782608695653" y1="470.0" x2="86.84782608695653" y2="30.0"
	stroke="#c0c0c0"/>
   
  
  <line x1="86.84782608695653" y1="470.0" x2="86.84782608695653" y2="30.0"
	stroke="#606060"/>
   
  
  <line x1="123.69565217391305" y1="470.0" x2="123.69565217391305" y2="30.0"
	stroke="#c0c0c0"/>
   
  
  <line x1="160.54347826086956" y1="470.0" x2="160.54347826086956" y2="30.0"
	stroke="#c0c0c0"/>
   
  <text y="490" x="160.54347826086956" text-anchor="middle" font-size="10">2010</text>
  
  
  <line x1="197.3913043478261" y1="470.0" x2="197.3913043478261" y2="30.0"
	stroke="#c0c0c0"/>
   
  
  <line x1="234.2391304347826" y1="470.0" x2="234.2391304347826" y2="30.0"
	stroke="#c0c0c0"/>
   
  
  <line x1="234.2391304347826" y1="470.0" x2="234.2391304347826" y2="30.0"
	stroke="#606060"/>
   
  
  <line x1="271.0869565217391" y1="470.0" x2="271.0869565217391" y2="30.0"
	stroke="#c0c0c0"/>
   
  
  <line x1="307.9347826086956" y1="470.0" x2="307.9347826086956" y2="30.0"
	stroke="#c0c0c0"/>
   
  <text y="490" x="307.9347826086956" text-anchor="middle" font-size="10">2011</text>
  
  
  <line x1="344.7826086956522" y1="470.0" x2="344.7826086956522" y2="30.0"
	stroke="#c0c0c0"/>
   
  
  <line x1="381.6304347826087" y1="470.0" x2="381.6304347826087" y2="30.0"
	stroke="#c0c0c0"/>
   
  
  <line x1="381.6304347826087" y1="470.0" x2="381.6304347826087" y2="30.0"
	stroke="#606060"/>
   
  
  <line x1="418.4782608695652" y1="470.0" x2="418.4782608695652" y2="30.0"
	stroke="#c0c0c0"/>
   
  
  <line x1="455.32608695652175" y1="470.0" x2="455.32608695652175" y2="30.0"
	stroke="#c0c0c0"/>
   
  <text y="490" x="455.32608695652175" text-anchor="middle" font-size="10">2012</text>
  
  
  <line x1="492.17391304347825" y1="470.0" x2="492.17391304347825" y2="30.0"
	stroke="#c0c0c0"/>
   
  
  <line x1="529.0217391304348" y1="470.0" x2="529.0217391304348" y2="30.0"
	stroke="#c0c0c0"/>
   
  
  <line x1="529.0217391304348" y1="470.0" x2="529.0217391304348" y2="30.0"
	stroke="#606060"/>
   
  
  <line x1="565.8695652173913" y1="470.0" x2="565.8695652173913" y2="30.0"
	stroke="#c0c0c0"/>
   
  
  <line x1="602.7173913043479" y1="470.0" x2="602.7173913043479" y2="30.0"
	stroke="#c0c0c0"/>
   
  <text y="490" x="602.7173913043479" text-anchor="middle" font-size="10">2013</text>
  
  
  <line x1="639.5652173913044" y1="470.0" x2="639.5652173913044" y2="30.0"
	stroke="#c0c0c0"/>
   
  
  <line x1="676.4130434782609" y1="470.0" x2="676.4130434782609" y2="30.0"
	stroke="#c0c0c0"/>
   
  
  <line x1="676.4130434782609" y1="470.0" x2="676.4130434782609" y2="30.0"
	stroke="#606060"/>
   
  
  <line x1="713.2608695652174" y1="470.0" x2="713.2608695652174" y2="30.0"
	stroke="#c0c0c0"/>
   
  
  <line x1="750.1086956521739" y1="470.0" x2="750.1086956521739" y2="30.0"
	stroke="#c0c0c0"/>
   
  <text y="490" x="750.1086956521739" text-anchor="middle" font-size="10">2014</text>
  
  
  <line x1="786.9565217391304" y1="470.0" x2="786.9565217391304" y2="30.0"
	stroke="#c0c0c0"/>
   
  
  <line x1="823.804347826087" y1="470.0" x2="823.804347826087" y2="30.0"
	stroke="#c0c0c0"/>
   
  
  <line x1="823.804347826087" y1="470.0" x2="823.804347826087" y2="30.0"
	stroke="#606060"/>
   
  
  <line x1="860.6521739130435" y1="470.0" x2="860.6521739130435" y2="30.0"
	stroke="#c0c0c0"/>
   
  
  <line x1="897.5" y1="470.0" x2="897.5" y2="30.0"
	stroke="#c0c0c0"/>
   
  <text y="490" x="897.5" text-anchor="middle" font-size="10">2015</text>
  
  
  <line x1="934.3478260869565" y1="470.0" x2="934.3478260869565" y2="30.0"
	stroke="#c0c0c0"/>
   
  
  <line x1="971.195652173913" y1="470.0" x2="971.195652173913" y2="30.0"
	stroke="#c0c0c0"/>
   
  
  <line x1="971.195652173913" y1="470.0" x2="971.195652173913" y2="30.0"
	stroke="#606060"/>
   
  
  <line x1="1008.0434782608695" y1="470.0" x2="1008.0434782608695" y2="30.0"
	stroke="#c0c0c0"/>
   
  
  <line x1="1044.891304347826" y1="470.0" x2="1044.891304347826" y2="30.0"
	stroke="#c0c0c0"/>
   
  <text y="490" x="1044.891304347826" text-anchor="middle" font-size="10">2016</text>
  
  
  <line x1="1081.7391304347825" y1="470.0" x2="1081.7391304347825" y2="30.0"
	stroke="#c0c0c0"/>
   
  
  <line x1="1118.586956521739" y1="470.0" x2="1118.586956521739" y2="30.0"
	stroke="#c0c0c0"/>
   
  
  <line x1="1118.586956521739" y1="470.0" x2="1118.586956521739" y2="30.0"
	stroke="#606060"/>
   
  
  <line x1="1155.4347826086957" y1="470.0" x2="1155.4347826086957" y2="30.0"
	stroke="#c0c0c0"/>
   
  
  
  <line y1="426.0" x1="50.0" y2="426.0" x2="1180.0"
	stroke="#c0c0c0"/>
  
  <text x="45" y="426.0" text-anchor="end" font-size="10">600</text>
  
  
  <line y1="382.0" x1="50.0" y2="382.0" x2="1180.0"
	stroke="#c0c0c0"/>
  
  <text x="45" y="382.0" text-anchor="end" font-size="10">1200</text>
  
  
  <line y1="338.0" x1="50.0" y2="338.0" x2="1180.0"
	stroke="#c0c0c0"/>
  
  <text x="45" y="338.0" text-anchor="end" font-size="10">1800</text>
  
  
  <line y1="294.0" x1="50.0" y2="294.0" x2="1180.0"
	stroke="#c0c0c0"/>
  
  <text x="45" y="294.0" text-anchor="end" font-size="10">2400</text>
  
  
  <line y1="250.0" x1="50.0" y2="250.0" x2="1180.0"
	stroke="#c0c0c0"/>
  
  <text x="45" y="250.0" text-anchor="end" font-size="10">3000</text>
  
  
  <line y1="206.0" x1="50.0" y2="206.0" x2="1180.0"
	stroke="#c0c0c0"/>
  
  <text x="45" y="206.0" text-anchor="end" font-size="10">3600</text>
  
  
  <line y1="162.0" x1="50.0" y2="162.0" x2="1180.0"
	stroke="#c0c0c0"/>
  
  <text x="45" y="162.0" text-anchor="end" font-size="10">4200</text>
  
  
  <line y1="118.0" x1="50.0" y2="118.0" x2="1180.0"
	stroke="#c0c0c0"/>
  
  <text x="45" y="118.0" text-anchor="end" font-size="10">4800</text>
  
  
  <line y1="74.0" x1="50.0" y2="74.0" x2="1180.0"
	stroke="#c0c0c0"/>
  
  <text x="45" y="74.0" text-anchor="end" font-size="10">5400</text>
  
  

</svg>
