<?xml version="1.0" encoding="UTF-8" standalone="no"?>
<!-- Created with Inkscape (http://www.inkscape.org/) -->
<!DOCTYPE svg PUBLIC "-//W3C//DTD SVG 1.1//EN" "http://www.w3.org/Graphics/SVG/1.1/DTD/svg11.dtd"> 

<svg
   xmlns="http://www.w3.org/2000/svg"
   width="1200"
   height="500"
   version="1.1"
   style="enable-background:new">

  <rect x="0" y="0" width="1200" height="500"
	fill="#e0e0e0"/>

  <text x="615.0" y="20.0" text-anchor="middle" font-size="12">Number of posts per month on forum &quot;Inizia qui la tua avventura nella community&quot; (and children)</text>

  <rect x="50" y="30" width="1130" height="440"
	fill="white" stroke="black" stroke-width="2"/>
  
  <rect x="50.61413043478261" y="348.78" width="11.054347826086957" height="121.22"
	fill="#a090ff"/>
  
  <rect x="62.89673913043478" y="378.04" width="11.054347826086957" height="91.96"
	fill="#a090ff"/>
  
  <rect x="75.17934782608695" y="367.7" width="11.054347826086957" height="102.3"
	fill="#a090ff"/>
  
  <rect x="87.46195652173913" y="354.28" width="11.054347826086957" height="115.72"
	fill="#a090ff"/>
  
  <rect x="99.74456521739131" y="334.91999999999996" width="11.054347826086957" height="135.08"
	fill="#a090ff"/>
  
  <rect x="112.02717391304347" y="402.02" width="11.054347826086957" height="67.98"
	fill="#a090ff"/>
  
  <rect x="124.30978260869566" y="353.18" width="11.054347826086957" height="116.82000000000001"
	fill="#a090ff"/>
  
  <rect x="136.5923913043478" y="365.28" width="11.054347826086957" height="104.72"
	fill="#a090ff"/>
  
  <rect x="148.875" y="371.88" width="11.054347826086957" height="98.12"
	fill="#a090ff"/>
  
  <rect x="161.1576086956522" y="374.96" width="11.054347826086957" height="95.04"
	fill="#a090ff"/>
  
  <rect x="173.44021739130437" y="386.84000000000003" width="11.054347826086957" height="83.16"
	fill="#a090ff"/>
  
  <rect x="185.72282608695653" y="310.5" width="11.054347826086957" height="159.5"
	fill="#a090ff"/>
  
  <rect x="198.00543478260872" y="334.91999999999996" width="11.054347826086957" height="135.08"
	fill="#a090ff"/>
  
  <rect x="210.28804347826087" y="367.7" width="11.054347826086957" height="102.3"
	fill="#a090ff"/>
  
  <rect x="222.57065217391306" y="380.24" width="11.054347826086957" height="89.76"
	fill="#a090ff"/>
  
  <rect x="234.85326086956522" y="322.15999999999997" width="11.054347826086957" height="147.84"
	fill="#a090ff"/>
  
  <rect x="247.1358695652174" y="314.02" width="11.054347826086957" height="155.98"
	fill="#a090ff"/>
  
  <rect x="259.41847826086956" y="326.78" width="11.054347826086957" height="143.22"
	fill="#a090ff"/>
  
  <rect x="271.70108695652175" y="321.06" width="11.054347826086957" height="148.94"
	fill="#a090ff"/>
  
  <rect x="283.9836956521739" y="328.1" width="11.054347826086957" height="141.9"
	fill="#a090ff"/>
  
  <rect x="296.2663043478261" y="374.52" width="11.054347826086957" height="95.48"
	fill="#a090ff"/>
  
  <rect x="308.54891304347825" y="349.44" width="11.054347826086957" height="120.56"
	fill="#a090ff"/>
  
  <rect x="320.83152173913044" y="367.92" width="11.054347826086957" height="102.08"
	fill="#a090ff"/>
  
  <rect x="333.1141304347826" y="301.91999999999996" width="11.054347826086957" height="168.08"
	fill="#a090ff"/>
  
  <rect x="345.3967391304348" y="335.58000000000004" width="11.054347826086957" height="134.42"
	fill="#a090ff"/>
  
  <rect x="357.67934782608694" y="273.76" width="11.054347826086957" height="196.24"
	fill="#a090ff"/>
  
  <rect x="369.9619565217391" y="345.26" width="11.054347826086957" height="124.74"
	fill="#a090ff"/>
  
  <rect x="382.2445652173913" y="278.38" width="11.054347826086957" height="191.62"
	fill="#a090ff"/>
  
  <rect x="394.5271739130435" y="294.65999999999997" width="11.054347826086957" height="175.34"
	fill="#a090ff"/>
  
  <rect x="406.8097826086957" y="277.06" width="11.054347826086957" height="192.94"
	fill="#a090ff"/>
  
  <rect x="419.0923913043478" y="290.48" width="11.054347826086957" height="179.52"
	fill="#a090ff"/>
  
  <rect x="431.375" y="242.96" width="11.054347826086957" height="227.04"
	fill="#a090ff"/>
  
  <rect x="443.65760869565213" y="223.16" width="11.054347826086957" height="246.84"
	fill="#a090ff"/>
  
  <rect x="455.9402173913043" y="231.96" width="11.054347826086957" height="238.04"
	fill="#a090ff"/>
  
  <rect x="468.2228260869565" y="264.52" width="11.054347826086957" height="205.48"
	fill="#a090ff"/>
  
  <rect x="480.50543478260863" y="259.46000000000004" width="11.054347826086957" height="210.54"
	fill="#a090ff"/>
  
  <rect x="492.7880434782608" y="160.24" width="11.054347826086957" height="309.76"
	fill="#a090ff"/>
  
  <rect x="505.070652173913" y="232.18" width="11.054347826086957" height="237.82"
	fill="#a090ff"/>
  
  <rect x="517.3532608695652" y="158.26" width="11.054347826086957" height="311.74"
	fill="#a090ff"/>
  
  <rect x="529.6358695652174" y="147.26" width="11.054347826086957" height="322.74"
	fill="#a090ff"/>
  
  <rect x="541.9184782608695" y="196.76" width="11.054347826086957" height="273.24"
	fill="#a090ff"/>
  
  <rect x="554.2010869565217" y="154.51999999999998" width="11.054347826086957" height="315.48"
	fill="#a090ff"/>
  
  <rect x="566.4836956521739" y="169.26" width="11.054347826086957" height="300.74"
	fill="#a090ff"/>
  
  <rect x="578.766304347826" y="179.38" width="11.054347826086957" height="290.62"
	fill="#a090ff"/>
  
  <rect x="591.0489130434783" y="221.18" width="11.054347826086957" height="248.82"
	fill="#a090ff"/>
  
  <rect x="603.3315217391304" y="169.48000000000002" width="11.054347826086957" height="300.52"
	fill="#a090ff"/>
  
  <rect x="615.6141304347826" y="231.74" width="11.054347826086957" height="238.26"
	fill="#a090ff"/>
  
  <rect x="627.8967391304348" y="164.42000000000002" width="11.054347826086957" height="305.58"
	fill="#a090ff"/>
  
  <rect x="640.1793478260869" y="178.06" width="11.054347826086957" height="291.94"
	fill="#a090ff"/>
  
  <rect x="652.4619565217391" y="182.89999999999998" width="11.054347826086957" height="287.1"
	fill="#a090ff"/>
  
  <rect x="664.7445652173913" y="227.34" width="11.054347826086957" height="242.66"
	fill="#a090ff"/>
  
  <rect x="677.0271739130434" y="164.64" width="11.054347826086957" height="305.36"
	fill="#a090ff"/>
  
  <rect x="689.3097826086956" y="205.33999999999997" width="11.054347826086957" height="264.66"
	fill="#a090ff"/>
  
  <rect x="701.5923913043478" y="250.22" width="11.054347826086957" height="219.78"
	fill="#a090ff"/>
  
  <rect x="713.875" y="312.03999999999996" width="11.054347826086957" height="157.96"
	fill="#a090ff"/>
  
  <rect x="726.1576086956521" y="213.92000000000002" width="11.054347826086957" height="256.08"
	fill="#a090ff"/>
  
  <rect x="738.4402173913043" y="262.32" width="11.054347826086957" height="207.68"
	fill="#a090ff"/>
  
  <rect x="750.7228260869565" y="259.02" width="11.054347826086957" height="210.98"
	fill="#a090ff"/>
  
  <rect x="763.0054347826086" y="317.76" width="11.054347826086957" height="152.24"
	fill="#a090ff"/>
  
  <rect x="775.2880434782609" y="307.64" width="11.054347826086957" height="162.36"
	fill="#a090ff"/>
  
  <rect x="787.570652173913" y="247.14" width="11.054347826086957" height="222.86"
	fill="#a090ff"/>
  
  <rect x="799.8532608695651" y="215.9" width="11.054347826086957" height="254.1"
	fill="#a090ff"/>
  
  <rect x="812.1358695652174" y="273.98" width="11.054347826086957" height="196.02"
	fill="#a090ff"/>
  
  <rect x="824.4184782608695" y="187.74" width="11.054347826086957" height="282.26"
	fill="#a090ff"/>
  
  <rect x="836.7010869565217" y="202.92000000000002" width="11.054347826086957" height="267.08"
	fill="#a090ff"/>
  
  <rect x="848.9836956521739" y="237.9" width="11.054347826086957" height="232.1"
	fill="#a090ff"/>
  
  <rect x="861.266304347826" y="272.65999999999997" width="11.054347826086957" height="197.34"
	fill="#a090ff"/>
  
  <rect x="873.5489130434783" y="219.64" width="11.054347826086957" height="250.36"
	fill="#a090ff"/>
  
  <rect x="885.8315217391304" y="195.66000000000003" width="11.054347826086957" height="274.34"
	fill="#a090ff"/>
  
  <rect x="898.1141304347826" y="63.660000000000025" width="11.054347826086957" height="406.34"
	fill="#a090ff"/>
  
  <rect x="910.3967391304348" y="269.8" width="11.054347826086957" height="200.2"
	fill="#a090ff"/>
  
  <rect x="922.6793478260869" y="162.88" width="11.054347826086957" height="307.12"
	fill="#a090ff"/>
  
  <rect x="934.9619565217391" y="152.54000000000002" width="11.054347826086957" height="317.46"
	fill="#a090ff"/>
  
  <rect x="947.2445652173913" y="314.46000000000004" width="11.054347826086957" height="155.54"
	fill="#a090ff"/>
  
  <rect x="959.5271739130434" y="311.15999999999997" width="11.054347826086957" height="158.84"
	fill="#a090ff"/>
  
  <rect x="971.8097826086956" y="226.24" width="11.054347826086957" height="243.76"
	fill="#a090ff"/>
  
  <rect x="984.0923913043478" y="252.2" width="11.054347826086957" height="217.8"
	fill="#a090ff"/>
  
  <rect x="996.375" y="292.46000000000004" width="11.054347826086957" height="177.54"
	fill="#a090ff"/>
  
  <rect x="1008.6576086956521" y="351.2" width="11.054347826086957" height="118.8"
	fill="#a090ff"/>
  
  <rect x="1020.9402173913043" y="353.18" width="11.054347826086957" height="116.82000000000001"
	fill="#a090ff"/>
  
  <rect x="1033.2228260869565" y="385.3" width="11.054347826086957" height="84.7"
	fill="#a090ff"/>
  
  <rect x="1045.5054347826085" y="385.52" width="11.054347826086957" height="84.48"
	fill="#a090ff"/>
  
  <rect x="1057.788043478261" y="364.84000000000003" width="11.054347826086957" height="105.16"
	fill="#a090ff"/>
  
  <rect x="1070.070652173913" y="389.92" width="11.054347826086957" height="80.08"
	fill="#a090ff"/>
  
  <rect x="1082.3532608695652" y="349.88" width="11.054347826086957" height="120.12"
	fill="#a090ff"/>
  
  <rect x="1094.6358695652173" y="329.2" width="11.054347826086957" height="140.8"
	fill="#a090ff"/>
  
  <rect x="1106.9184782608695" y="324.58000000000004" width="11.054347826086957" height="145.42"
	fill="#a090ff"/>
  
  <rect x="1119.2010869565217" y="290.91999999999996" width="11.054347826086957" height="179.08"
	fill="#a090ff"/>
  
  <rect x="1131.4836956521738" y="321.72" width="11.054347826086957" height="148.28"
	fill="#a090ff"/>
  
  <rect x="1143.766304347826" y="267.6" width="11.054347826086957" height="202.4"
	fill="#a090ff"/>
  
  <rect x="1156.0489130434783" y="264.08000000000004" width="11.054347826086957" height="205.92"
	fill="#a090ff"/>
  
  <rect x="1168.3315217391305" y="260.56" width="11.054347826086957" height="209.44"
	fill="#a090ff"/>
  
  
  <line x1="50.0" y1="408.4" x2="62.28260869565217" y2="389.10285714285715"
	stroke="#0000ff" stroke-width="2"/>
  
  <line x1="62.28260869565217" y1="389.10285714285715" x2="74.56521739130434" y2="379.3914285714286"
	stroke="#0000ff" stroke-width="2"/>
  
  <line x1="74.56521739130434" y1="379.3914285714286" x2="86.84782608695653" y2="362.70285714285717"
	stroke="#0000ff" stroke-width="2"/>
  
  <line x1="86.84782608695653" y1="362.70285714285717" x2="99.13043478260869" y2="365.06"
	stroke="#0000ff" stroke-width="2"/>
  
  <line x1="99.13043478260869" y1="365.06" x2="111.41304347826087" y2="364.18"
	stroke="#0000ff" stroke-width="2"/>
  
  <line x1="111.41304347826087" y1="364.18" x2="123.69565217391305" y2="365.21714285714285"
	stroke="#0000ff" stroke-width="2"/>
  
  <line x1="123.69565217391305" y1="365.21714285714285" x2="135.97826086956522" y2="369.86857142857144"
	stroke="#0000ff" stroke-width="2"/>
  
  <line x1="135.97826086956522" y1="369.86857142857144" x2="148.26086956521738" y2="366.38"
	stroke="#0000ff" stroke-width="2"/>
  
  <line x1="148.26086956521738" y1="366.38" x2="160.54347826086956" y2="356.7942857142857"
	stroke="#0000ff" stroke-width="2"/>
  
  <line x1="160.54347826086956" y1="356.7942857142857" x2="172.82608695652175" y2="358.86857142857144"
	stroke="#0000ff" stroke-width="2"/>
  
  <line x1="172.82608695652175" y1="358.86857142857144" x2="185.1086956521739" y2="361.00571428571425"
	stroke="#0000ff" stroke-width="2"/>
  
  <line x1="185.1086956521739" y1="361.00571428571425" x2="197.3913043478261" y2="353.90285714285716"
	stroke="#0000ff" stroke-width="2"/>
  
  <line x1="197.3913043478261" y1="353.90285714285716" x2="209.67391304347825" y2="345.19714285714286"
	stroke="#0000ff" stroke-width="2"/>
  
  <line x1="209.67391304347825" y1="345.19714285714286" x2="221.95652173913044" y2="336.6171428571429"
	stroke="#0000ff" stroke-width="2"/>
  
  <line x1="221.95652173913044" y1="336.6171428571429" x2="234.2391304347826" y2="338.12571428571425"
	stroke="#0000ff" stroke-width="2"/>
  
  <line x1="234.2391304347826" y1="338.12571428571425" x2="246.52173913043478" y2="337.1514285714286"
	stroke="#0000ff" stroke-width="2"/>
  
  <line x1="246.52173913043478" y1="337.1514285714286" x2="258.804347826087" y2="338.12571428571425"
	stroke="#0000ff" stroke-width="2"/>
  
  <line x1="258.804347826087" y1="338.12571428571425" x2="271.0869565217391" y2="333.7257142857143"
	stroke="#0000ff" stroke-width="2"/>
  
  <line x1="271.0869565217391" y1="333.7257142857143" x2="283.3695652173913" y2="340.2628571428571"
	stroke="#0000ff" stroke-width="2"/>
  
  <line x1="283.3695652173913" y1="340.2628571428571" x2="295.6521739130435" y2="338.5342857142857"
	stroke="#0000ff" stroke-width="2"/>
  
  <line x1="295.6521739130435" y1="338.5342857142857" x2="307.9347826086956" y2="339.7914285714286"
	stroke="#0000ff" stroke-width="2"/>
  
  <line x1="307.9347826086956" y1="339.7914285714286" x2="320.2173913043478" y2="333.0342857142857"
	stroke="#0000ff" stroke-width="2"/>
  
  <line x1="320.2173913043478" y1="333.0342857142857" x2="332.5" y2="335.48571428571427"
	stroke="#0000ff" stroke-width="2"/>
  
  <line x1="332.5" y1="335.48571428571427" x2="344.7826086956522" y2="321.75142857142856"
	stroke="#0000ff" stroke-width="2"/>
  
  <line x1="344.7826086956522" y1="321.75142857142856" x2="357.0652173913044" y2="313.9257142857143"
	stroke="#0000ff" stroke-width="2"/>
  
  <line x1="357.0652173913044" y1="313.9257142857143" x2="369.3478260869565" y2="300.9457142857143"
	stroke="#0000ff" stroke-width="2"/>
  
  <line x1="369.3478260869565" y1="300.9457142857143" x2="381.6304347826087" y2="299.31142857142856"
	stroke="#0000ff" stroke-width="2"/>
  
  <line x1="381.6304347826087" y1="299.31142857142856" x2="393.9130434782609" y2="286.08000000000004"
	stroke="#0000ff" stroke-width="2"/>
  
  <line x1="393.9130434782609" y1="286.08000000000004" x2="406.19565217391306" y2="278.8514285714285"
	stroke="#0000ff" stroke-width="2"/>
  
  <line x1="406.19565217391306" y1="278.8514285714285" x2="418.4782608695652" y2="262.6657142857143"
	stroke="#0000ff" stroke-width="2"/>
  
  <line x1="418.4782608695652" y1="262.6657142857143" x2="430.7608695652174" y2="260.6857142857143"
	stroke="#0000ff" stroke-width="2"/>
  
  <line x1="430.7608695652174" y1="260.6857142857143" x2="443.04347826086956" y2="255.65714285714284"
	stroke="#0000ff" stroke-width="2"/>
  
  <line x1="443.04347826086956" y1="255.65714285714284" x2="455.32608695652175" y2="238.96857142857144"
	stroke="#0000ff" stroke-width="2"/>
  
  <line x1="455.32608695652175" y1="238.96857142857144" x2="467.60869565217394" y2="230.64"
	stroke="#0000ff" stroke-width="2"/>
  
  <line x1="467.60869565217394" y1="230.64" x2="479.89130434782606" y2="218.54"
	stroke="#0000ff" stroke-width="2"/>
  
  <line x1="479.89130434782606" y1="218.54" x2="492.17391304347825" y2="207.69714285714286"
	stroke="#0000ff" stroke-width="2"/>
  
  <line x1="492.17391304347825" y1="207.69714285714286" x2="504.45652173913044" y2="202.66857142857145"
	stroke="#0000ff" stroke-width="2"/>
  
  <line x1="504.45652173913044" y1="202.66857142857145" x2="516.7391304347826" y2="186.95428571428567"
	stroke="#0000ff" stroke-width="2"/>
  
  <line x1="516.7391304347826" y1="186.95428571428567" x2="529.0217391304348" y2="174.06857142857143"
	stroke="#0000ff" stroke-width="2"/>
  
  <line x1="529.0217391304348" y1="174.06857142857143" x2="541.304347826087" y2="176.80285714285714"
	stroke="#0000ff" stroke-width="2"/>
  
  <line x1="541.304347826087" y1="176.80285714285714" x2="553.5869565217391" y2="175.23142857142858"
	stroke="#0000ff" stroke-width="2"/>
  
  <line x1="553.5869565217391" y1="175.23142857142858" x2="565.8695652173913" y2="176.83428571428567"
	stroke="#0000ff" stroke-width="2"/>
  
  <line x1="565.8695652173913" y1="176.83428571428567" x2="578.1521739130435" y2="188.9028571428571"
	stroke="#0000ff" stroke-width="2"/>
  
  <line x1="578.1521739130435" y1="188.9028571428571" x2="590.4347826086956" y2="184.28285714285715"
	stroke="#0000ff" stroke-width="2"/>
  
  <line x1="590.4347826086956" y1="184.28285714285715" x2="602.7173913043479" y2="187.6457142857143"
	stroke="#0000ff" stroke-width="2"/>
  
  <line x1="602.7173913043479" y1="187.6457142857143" x2="615.0" y2="189.59428571428572"
	stroke="#0000ff" stroke-width="2"/>
  
  <line x1="615.0" y1="189.59428571428572" x2="627.2826086956521" y2="196.4457142857143"
	stroke="#0000ff" stroke-width="2"/>
  
  <line x1="627.2826086956521" y1="196.4457142857143" x2="639.5652173913044" y2="188.36857142857144"
	stroke="#0000ff" stroke-width="2"/>
  
  <line x1="639.5652173913044" y1="188.36857142857144" x2="651.8478260869565" y2="193.49142857142857"
	stroke="#0000ff" stroke-width="2"/>
  
  <line x1="651.8478260869565" y1="193.49142857142857" x2="664.1304347826087" y2="196.13142857142856"
	stroke="#0000ff" stroke-width="2"/>
  
  <line x1="664.1304347826087" y1="196.13142857142856" x2="676.4130434782609" y2="217.22"
	stroke="#0000ff" stroke-width="2"/>
  
  <line x1="676.4130434782609" y1="217.22" x2="688.695652173913" y2="222.34285714285713"
	stroke="#0000ff" stroke-width="2"/>
  
  <line x1="688.695652173913" y1="222.34285714285713" x2="700.9782608695652" y2="233.68857142857144"
	stroke="#0000ff" stroke-width="2"/>
  
  <line x1="700.9782608695652" y1="233.68857142857144" x2="713.2608695652174" y2="238.2142857142857"
	stroke="#0000ff" stroke-width="2"/>
  
  <line x1="713.2608695652174" y1="238.2142857142857" x2="725.5434782608695" y2="260.0885714285714"
	stroke="#0000ff" stroke-width="2"/>
  
  <line x1="725.5434782608695" y1="260.0885714285714" x2="737.8260869565217" y2="274.70285714285717"
	stroke="#0000ff" stroke-width="2"/>
  
  <line x1="737.8260869565217" y1="274.70285714285717" x2="750.1086956521739" y2="274.2628571428571"
	stroke="#0000ff" stroke-width="2"/>
  
  <line x1="750.1086956521739" y1="274.2628571428571" x2="762.3913043478261" y2="260.52857142857147"
	stroke="#0000ff" stroke-width="2"/>
  
  <line x1="762.3913043478261" y1="260.52857142857147" x2="774.6739130434783" y2="269.1085714285714"
	stroke="#0000ff" stroke-width="2"/>
  
  <line x1="774.6739130434783" y1="269.1085714285714" x2="786.9565217391304" y2="258.4542857142857"
	stroke="#0000ff" stroke-width="2"/>
  
  <line x1="786.9565217391304" y1="258.4542857142857" x2="799.2391304347826" y2="250.44"
	stroke="#0000ff" stroke-width="2"/>
  
  <line x1="799.2391304347826" y1="250.44" x2="811.5217391304348" y2="239.03142857142856"
	stroke="#0000ff" stroke-width="2"/>
  
  <line x1="811.5217391304348" y1="239.03142857142856" x2="823.804347826087" y2="234.0342857142857"
	stroke="#0000ff" stroke-width="2"/>
  
  <line x1="823.804347826087" y1="234.0342857142857" x2="836.0869565217391" y2="230.1057142857143"
	stroke="#0000ff" stroke-width="2"/>
  
  <line x1="836.0869565217391" y1="230.1057142857143" x2="848.3695652173913" y2="227.2142857142857"
	stroke="#0000ff" stroke-width="2"/>
  
  <line x1="848.3695652173913" y1="227.2142857142857" x2="860.6521739130435" y2="197.16857142857145"
	stroke="#0000ff" stroke-width="2"/>
  
  <line x1="860.6521739130435" y1="197.16857142857145" x2="872.9347826086956" y2="208.89142857142855"
	stroke="#0000ff" stroke-width="2"/>
  
  <line x1="872.9347826086956" y1="208.89142857142855" x2="885.2173913043479" y2="203.17142857142858"
	stroke="#0000ff" stroke-width="2"/>
  
  <line x1="885.2173913043479" y1="203.17142857142858" x2="897.5" y2="190.9771428571429"
	stroke="#0000ff" stroke-width="2"/>
  
  <line x1="897.5" y1="190.9771428571429" x2="909.7826086956521" y2="196.94857142857143"
	stroke="#0000ff" stroke-width="2"/>
  
  <line x1="909.7826086956521" y1="196.94857142857143" x2="922.0652173913044" y2="210.0228571428571"
	stroke="#0000ff" stroke-width="2"/>
  
  <line x1="922.0652173913044" y1="210.0228571428571" x2="934.3478260869565" y2="214.39142857142858"
	stroke="#0000ff" stroke-width="2"/>
  
  <line x1="934.3478260869565" y1="214.39142857142858" x2="946.6304347826087" y2="241.3257142857143"
	stroke="#0000ff" stroke-width="2"/>
  
  <line x1="946.6304347826087" y1="241.3257142857143" x2="958.9130434782609" y2="244.56285714285713"
	stroke="#0000ff" stroke-width="2"/>
  
  <line x1="958.9130434782609" y1="244.56285714285713" x2="971.195652173913" y2="271.4657142857143"
	stroke="#0000ff" stroke-width="2"/>
  
  <line x1="971.195652173913" y1="271.4657142857143" x2="983.4782608695652" y2="300.12857142857143"
	stroke="#0000ff" stroke-width="2"/>
  
  <line x1="983.4782608695652" y1="300.12857142857143" x2="995.7608695652174" y2="310.24857142857144"
	stroke="#0000ff" stroke-width="2"/>
  
  <line x1="995.7608695652174" y1="310.24857142857144" x2="1008.0434782608695" y2="320.87142857142857"
	stroke="#0000ff" stroke-width="2"/>
  
  <line x1="1008.0434782608695" y1="320.87142857142857" x2="1020.3260869565217" y2="340.6714285714286"
	stroke="#0000ff" stroke-width="2"/>
  
  <line x1="1020.3260869565217" y1="340.6714285714286" x2="1032.608695652174" y2="360.3457142857143"
	stroke="#0000ff" stroke-width="2"/>
  
  <line x1="1032.608695652174" y1="360.3457142857143" x2="1044.891304347826" y2="368.54857142857145"
	stroke="#0000ff" stroke-width="2"/>
  
  <line x1="1044.891304347826" y1="368.54857142857145" x2="1057.1739130434783" y2="365.4057142857143"
	stroke="#0000ff" stroke-width="2"/>
  
  <line x1="1057.1739130434783" y1="365.4057142857143" x2="1069.4565217391305" y2="361.32"
	stroke="#0000ff" stroke-width="2"/>
  
  <line x1="1069.4565217391305" y1="361.32" x2="1081.7391304347825" y2="347.83714285714285"
	stroke="#0000ff" stroke-width="2"/>
  
  <line x1="1081.7391304347825" y1="347.83714285714285" x2="1094.0217391304348" y2="338.72285714285715"
	stroke="#0000ff" stroke-width="2"/>
  
  <line x1="1094.0217391304348" y1="338.72285714285715" x2="1106.304347826087" y2="324.83142857142855"
	stroke="#0000ff" stroke-width="2"/>
  
  <line x1="1106.304347826087" y1="324.83142857142855" x2="1118.586956521739" y2="306.8542857142857"
	stroke="#0000ff" stroke-width="2"/>
  
  <line x1="1118.586956521739" y1="306.8542857142857" x2="1130.8695652173913" y2="294.0942857142857"
	stroke="#0000ff" stroke-width="2"/>
  
  <line x1="1130.8695652173913" y1="294.0942857142857" x2="1143.1521739130435" y2="284.28857142857146"
	stroke="#0000ff" stroke-width="2"/>
  
  <line x1="1143.1521739130435" y1="284.28857142857146" x2="1155.4347826086957" y2="275.1428571428571"
	stroke="#0000ff" stroke-width="2"/>
  
  <line x1="1155.4347826086957" y1="275.1428571428571" x2="1167.7173913043478" y2="270.8057142857143"
	stroke="#0000ff" stroke-width="2"/>
  



  
  <line x1="86.84782608695653" y1="470.0" x2="86.84782608695653" y2="30.0"
	stroke="#c0c0c0"/>
   
  
  <line x1="86.84782608695653" y1="470.0" x2="86.84782608695653" y2="30.0"
	stroke="#606060"/>
   
  
  <line x1="123.69565217391305" y1="470.0" x2="123.69565217391305" y2="30.0"
	stroke="#c0c0c0"/>
   
  
  <line x1="160.54347826086956" y1="470.0" x2="160.54347826086956" y2="30.0"
	stroke="#c0c0c0"/>
   
  <text y="490" x="160.54347826086956" text-anchor="middle" font-size="10">2010</text>
  
  
  <line x1="197.3913043478261" y1="470.0" x2="197.3913043478261" y2="30.0"
	stroke="#c0c0c0"/>
   
  
  <line x1="234.2391304347826" y1="470.0" x2="234.2391304347826" y2="30.0"
	stroke="#c0c0c0"/>
   
  
  <line x1="234.2391304347826" y1="470.0" x2="234.2391304347826" y2="30.0"
	stroke="#606060"/>
   
  
  <line x1="271.0869565217391" y1="470.0" x2="271.0869565217391" y2="30.0"
	stroke="#c0c0c0"/>
   
  
  <line x1="307.9347826086956" y1="470.0" x2="307.9347826086956" y2="30.0"
	stroke="#c0c0c0"/>
   
  <text y="490" x="307.9347826086956" text-anchor="middle" font-size="10">2011</text>
  
  
  <line x1="344.7826086956522" y1="470.0" x2="344.7826086956522" y2="30.0"
	stroke="#c0c0c0"/>
   
  
  <line x1="381.6304347826087" y1="470.0" x2="381.6304347826087" y2="30.0"
	stroke="#c0c0c0"/>
   
  
  <line x1="381.6304347826087" y1="470.0" x2="381.6304347826087" y2="30.0"
	stroke="#606060"/>
   
  
  <line x1="418.4782608695652" y1="470.0" x2="418.4782608695652" y2="30.0"
	stroke="#c0c0c0"/>
   
  
  <line x1="455.32608695652175" y1="470.0" x2="455.32608695652175" y2="30.0"
	stroke="#c0c0c0"/>
   
  <text y="490" x="455.32608695652175" text-anchor="middle" font-size="10">2012</text>
  
  
  <line x1="492.17391304347825" y1="470.0" x2="492.17391304347825" y2="30.0"
	stroke="#c0c0c0"/>
   
  
  <line x1="529.0217391304348" y1="470.0" x2="529.0217391304348" y2="30.0"
	stroke="#c0c0c0"/>
   
  
  <line x1="529.0217391304348" y1="470.0" x2="529.0217391304348" y2="30.0"
	stroke="#606060"/>
   
  
  <line x1="565.8695652173913" y1="470.0" x2="565.8695652173913" y2="30.0"
	stroke="#c0c0c0"/>
   
  
  <line x1="602.7173913043479" y1="470.0" x2="602.7173913043479" y2="30.0"
	stroke="#c0c0c0"/>
   
  <text y="490" x="602.7173913043479" text-anchor="middle" font-size="10">2013</text>
  
  
  <line x1="639.5652173913044" y1="470.0" x2="639.5652173913044" y2="30.0"
	stroke="#c0c0c0"/>
   
  
  <line x1="676.4130434782609" y1="470.0" x2="676.4130434782609" y2="30.0"
	stroke="#c0c0c0"/>
   
  
  <line x1="676.4130434782609" y1="470.0" x2="676.4130434782609" y2="30.0"
	stroke="#606060"/>
   
  
  <line x1="713.2608695652174" y1="470.0" x2="713.2608695652174" y2="30.0"
	stroke="#c0c0c0"/>
   
  
  <line x1="750.1086956521739" y1="470.0" x2="750.1086956521739" y2="30.0"
	stroke="#c0c0c0"/>
   
  <text y="490" x="750.1086956521739" text-anchor="middle" font-size="10">2014</text>
  
  
  <line x1="786.9565217391304" y1="470.0" x2="786.9565217391304" y2="30.0"
	stroke="#c0c0c0"/>
   
  
  <line x1="823.804347826087" y1="470.0" x2="823.804347826087" y2="30.0"
	stroke="#c0c0c0"/>
   
  
  <line x1="823.804347826087" y1="470.0" x2="823.804347826087" y2="30.0"
	stroke="#606060"/>
   
  
  <line x1="860.6521739130435" y1="470.0" x2="860.6521739130435" y2="30.0"
	stroke="#c0c0c0"/>
   
  
  <line x1="897.5" y1="470.0" x2="897.5" y2="30.0"
	stroke="#c0c0c0"/>
   
  <text y="490" x="897.5" text-anchor="middle" font-size="10">2015</text>
  
  
  <line x1="934.3478260869565" y1="470.0" x2="934.3478260869565" y2="30.0"
	stroke="#c0c0c0"/>
   
  
  <line x1="971.195652173913" y1="470.0" x2="971.195652173913" y2="30.0"
	stroke="#c0c0c0"/>
   
  
  <line x1="971.195652173913" y1="470.0" x2="971.195652173913" y2="30.0"
	stroke="#606060"/>
   
  
  <line x1="1008.0434782608695" y1="470.0" x2="1008.0434782608695" y2="30.0"
	stroke="#c0c0c0"/>
   
  
  <line x1="1044.891304347826" y1="470.0" x2="1044.891304347826" y2="30.0"
	stroke="#c0c0c0"/>
   
  <text y="490" x="1044.891304347826" text-anchor="middle" font-size="10">2016</text>
  
  
  <line x1="1081.7391304347825" y1="470.0" x2="1081.7391304347825" y2="30.0"
	stroke="#c0c0c0"/>
   
  
  <line x1="1118.586956521739" y1="470.0" x2="1118.586956521739" y2="30.0"
	stroke="#c0c0c0"/>
   
  
  <line x1="1118.586956521739" y1="470.0" x2="1118.586956521739" y2="30.0"
	stroke="#606060"/>
   
  
  <line x1="1155.4347826086957" y1="470.0" x2="1155.4347826086957" y2="30.0"
	stroke="#c0c0c0"/>
   
  
  
  <line y1="426.0" x1="50.0" y2="426.0" x2="1180.0"
	stroke="#c0c0c0"/>
  
  <text x="45" y="426.0" text-anchor="end" font-size="10">200</text>
  
  
  <line y1="382.0" x1="50.0" y2="382.0" x2="1180.0"
	stroke="#c0c0c0"/>
  
  <text x="45" y="382.0" text-anchor="end" font-size="10">400</text>
  
  
  <line y1="338.0" x1="50.0" y2="338.0" x2="1180.0"
	stroke="#c0c0c0"/>
  
  <text x="45" y="338.0" text-anchor="end" font-size="10">600</text>
  
  
  <line y1="294.0" x1="50.0" y2="294.0" x2="1180.0"
	stroke="#c0c0c0"/>
  
  <text x="45" y="294.0" text-anchor="end" font-size="10">800</text>
  
  
  <line y1="250.0" x1="50.0" y2="250.0" x2="1180.0"
	stroke="#c0c0c0"/>
  
  <text x="45" y="250.0" text-anchor="end" font-size="10">1000</text>
  
  
  <line y1="206.0" x1="50.0" y2="206.0" x2="1180.0"
	stroke="#c0c0c0"/>
  
  <text x="45" y="206.0" text-anchor="end" font-size="10">1200</text>
  
  
  <line y1="162.0" x1="50.0" y2="162.0" x2="1180.0"
	stroke="#c0c0c0"/>
  
  <text x="45" y="162.0" text-anchor="end" font-size="10">1400</text>
  
  
  <line y1="118.0" x1="50.0" y2="118.0" x2="1180.0"
	stroke="#c0c0c0"/>
  
  <text x="45" y="118.0" text-anchor="end" font-size="10">1600</text>
  
  
  <line y1="74.0" x1="50.0" y2="74.0" x2="1180.0"
	stroke="#c0c0c0"/>
  
  <text x="45" y="74.0" text-anchor="end" font-size="10">1800</text>
  
  

</svg>
