<?xml version="1.0" encoding="UTF-8" standalone="no"?>
<!-- Created with Inkscape (http://www.inkscape.org/) -->
<!DOCTYPE svg PUBLIC "-//W3C//DTD SVG 1.1//EN" "http://www.w3.org/Graphics/SVG/1.1/DTD/svg11.dtd"> 

<svg
   xmlns="http://www.w3.org/2000/svg"
   width="1200"
   height="500"
   version="1.1"
   style="enable-background:new">

  <rect x="0" y="0" width="1200" height="500"
	fill="#e0e0e0"/>

  <text x="615.0" y="20.0" text-anchor="middle" font-size="12">Number of posts per month on forum &quot;Il mondo dell&#39;editoria&quot; (and children)</text>

  <rect x="50" y="30" width="1130" height="440"
	fill="white" stroke="black" stroke-width="2"/>
  
  <rect x="50.61413043478261" y="453.1333333333333" width="11.054347826086957" height="16.866666666666667"
	fill="#a090ff"/>
  
  <rect x="62.89673913043478" y="441.25333333333333" width="11.054347826086957" height="28.746666666666666"
	fill="#a090ff"/>
  
  <rect x="75.17934782608695" y="425.70666666666665" width="11.054347826086957" height="44.29333333333334"
	fill="#a090ff"/>
  
  <rect x="87.46195652173913" y="418.08" width="11.054347826086957" height="51.92"
	fill="#a090ff"/>
  
  <rect x="99.74456521739131" y="437.88" width="11.054347826086957" height="32.12"
	fill="#a090ff"/>
  
  <rect x="112.02717391304347" y="429.37333333333333" width="11.054347826086957" height="40.626666666666665"
	fill="#a090ff"/>
  
  <rect x="124.30978260869566" y="429.52" width="11.054347826086957" height="40.48"
	fill="#a090ff"/>
  
  <rect x="136.5923913043478" y="357.06666666666666" width="11.054347826086957" height="112.93333333333334"
	fill="#a090ff"/>
  
  <rect x="148.875" y="388.0133333333333" width="11.054347826086957" height="81.98666666666666"
	fill="#a090ff"/>
  
  <rect x="161.1576086956522" y="388.0133333333333" width="11.054347826086957" height="81.98666666666666"
	fill="#a090ff"/>
  
  <rect x="173.44021739130437" y="435.09333333333336" width="11.054347826086957" height="34.906666666666666"
	fill="#a090ff"/>
  
  <rect x="185.72282608695653" y="443.16" width="11.054347826086957" height="26.84"
	fill="#a090ff"/>
  
  <rect x="198.00543478260872" y="429.52" width="11.054347826086957" height="40.48"
	fill="#a090ff"/>
  
  <rect x="210.28804347826087" y="377.6" width="11.054347826086957" height="92.4"
	fill="#a090ff"/>
  
  <rect x="222.57065217391306" y="378.3333333333333" width="11.054347826086957" height="91.66666666666667"
	fill="#a090ff"/>
  
  <rect x="234.85326086956522" y="376.8666666666667" width="11.054347826086957" height="93.13333333333334"
	fill="#a090ff"/>
  
  <rect x="247.1358695652174" y="302.21333333333337" width="11.054347826086957" height="167.78666666666666"
	fill="#a090ff"/>
  
  <rect x="259.41847826086956" y="353.6933333333333" width="11.054347826086957" height="116.30666666666667"
	fill="#a090ff"/>
  
  <rect x="271.70108695652175" y="387.5733333333333" width="11.054347826086957" height="82.42666666666666"
	fill="#a090ff"/>
  
  <rect x="283.9836956521739" y="394.17333333333335" width="11.054347826086957" height="75.82666666666667"
	fill="#a090ff"/>
  
  <rect x="296.2663043478261" y="392.56" width="11.054347826086957" height="77.44"
	fill="#a090ff"/>
  
  <rect x="308.54891304347825" y="403.26666666666665" width="11.054347826086957" height="66.73333333333333"
	fill="#a090ff"/>
  
  <rect x="320.83152173913044" y="445.50666666666666" width="11.054347826086957" height="24.493333333333332"
	fill="#a090ff"/>
  
  <rect x="333.1141304347826" y="418.37333333333333" width="11.054347826086957" height="51.626666666666665"
	fill="#a090ff"/>
  
  <rect x="345.3967391304348" y="374.96" width="11.054347826086957" height="95.04"
	fill="#a090ff"/>
  
  <rect x="357.67934782608694" y="349.73333333333335" width="11.054347826086957" height="120.26666666666667"
	fill="#a090ff"/>
  
  <rect x="369.9619565217391" y="415.73333333333335" width="11.054347826086957" height="54.266666666666666"
	fill="#a090ff"/>
  
  <rect x="382.2445652173913" y="421.0133333333333" width="11.054347826086957" height="48.986666666666665"
	fill="#a090ff"/>
  
  <rect x="394.5271739130435" y="408.84" width="11.054347826086957" height="61.160000000000004"
	fill="#a090ff"/>
  
  <rect x="406.8097826086957" y="382.88" width="11.054347826086957" height="87.12"
	fill="#a090ff"/>
  
  <rect x="419.0923913043478" y="418.37333333333333" width="11.054347826086957" height="51.626666666666665"
	fill="#a090ff"/>
  
  <rect x="431.375" y="426.73333333333335" width="11.054347826086957" height="43.266666666666666"
	fill="#a090ff"/>
  
  <rect x="443.65760869565213" y="419.1066666666667" width="11.054347826086957" height="50.89333333333333"
	fill="#a090ff"/>
  
  <rect x="455.9402173913043" y="419.25333333333333" width="11.054347826086957" height="50.74666666666667"
	fill="#a090ff"/>
  
  <rect x="468.2228260869565" y="430.5466666666667" width="11.054347826086957" height="39.45333333333333"
	fill="#a090ff"/>
  
  <rect x="480.50543478260863" y="420.5733333333333" width="11.054347826086957" height="49.42666666666667"
	fill="#a090ff"/>
  
  <rect x="492.7880434782608" y="327.2933333333333" width="11.054347826086957" height="142.70666666666668"
	fill="#a090ff"/>
  
  <rect x="505.070652173913" y="312.7733333333333" width="11.054347826086957" height="157.22666666666666"
	fill="#a090ff"/>
  
  <rect x="517.3532608695652" y="389.62666666666667" width="11.054347826086957" height="80.37333333333333"
	fill="#a090ff"/>
  
  <rect x="529.6358695652174" y="370.85333333333335" width="11.054347826086957" height="99.14666666666666"
	fill="#a090ff"/>
  
  <rect x="541.9184782608695" y="402.38666666666666" width="11.054347826086957" height="67.61333333333333"
	fill="#a090ff"/>
  
  <rect x="554.2010869565217" y="363.37333333333333" width="11.054347826086957" height="106.62666666666667"
	fill="#a090ff"/>
  
  <rect x="566.4836956521739" y="387.5733333333333" width="11.054347826086957" height="82.42666666666666"
	fill="#a090ff"/>
  
  <rect x="578.766304347826" y="383.76" width="11.054347826086957" height="86.24"
	fill="#a090ff"/>
  
  <rect x="591.0489130434783" y="344.4533333333333" width="11.054347826086957" height="125.54666666666667"
	fill="#a090ff"/>
  
  <rect x="603.3315217391304" y="323.48" width="11.054347826086957" height="146.52"
	fill="#a090ff"/>
  
  <rect x="615.6141304347826" y="394.4666666666667" width="11.054347826086957" height="75.53333333333333"
	fill="#a090ff"/>
  
  <rect x="627.8967391304348" y="297.96000000000004" width="11.054347826086957" height="172.04"
	fill="#a090ff"/>
  
  <rect x="640.1793478260869" y="319.96000000000004" width="11.054347826086957" height="150.04"
	fill="#a090ff"/>
  
  <rect x="652.4619565217391" y="288.28" width="11.054347826086957" height="181.72"
	fill="#a090ff"/>
  
  <rect x="664.7445652173913" y="355.3066666666667" width="11.054347826086957" height="114.69333333333333"
	fill="#a090ff"/>
  
  <rect x="677.0271739130434" y="303.82666666666665" width="11.054347826086957" height="166.17333333333335"
	fill="#a090ff"/>
  
  <rect x="689.3097826086956" y="319.81333333333333" width="11.054347826086957" height="150.18666666666667"
	fill="#a090ff"/>
  
  <rect x="701.5923913043478" y="357.36" width="11.054347826086957" height="112.64"
	fill="#a090ff"/>
  
  <rect x="713.875" y="378.04" width="11.054347826086957" height="91.96"
	fill="#a090ff"/>
  
  <rect x="726.1576086956521" y="293.26666666666665" width="11.054347826086957" height="176.73333333333332"
	fill="#a090ff"/>
  
  <rect x="738.4402173913043" y="346.6533333333333" width="11.054347826086957" height="123.34666666666666"
	fill="#a090ff"/>
  
  <rect x="750.7228260869565" y="347.97333333333336" width="11.054347826086957" height="122.02666666666667"
	fill="#a090ff"/>
  
  <rect x="763.0054347826086" y="400.3333333333333" width="11.054347826086957" height="69.66666666666667"
	fill="#a090ff"/>
  
  <rect x="775.2880434782609" y="387.8666666666667" width="11.054347826086957" height="82.13333333333334"
	fill="#a090ff"/>
  
  <rect x="787.570652173913" y="372.17333333333335" width="11.054347826086957" height="97.82666666666667"
	fill="#a090ff"/>
  
  <rect x="799.8532608695651" y="396.37333333333333" width="11.054347826086957" height="73.62666666666667"
	fill="#a090ff"/>
  
  <rect x="812.1358695652174" y="410.74666666666667" width="11.054347826086957" height="59.25333333333333"
	fill="#a090ff"/>
  
  <rect x="824.4184782608695" y="421.4533333333333" width="11.054347826086957" height="48.54666666666667"
	fill="#a090ff"/>
  
  <rect x="836.7010869565217" y="372.02666666666664" width="11.054347826086957" height="97.97333333333333"
	fill="#a090ff"/>
  
  <rect x="848.9836956521739" y="381.12" width="11.054347826086957" height="88.88"
	fill="#a090ff"/>
  
  <rect x="861.266304347826" y="395.3466666666667" width="11.054347826086957" height="74.65333333333334"
	fill="#a090ff"/>
  
  <rect x="873.5489130434783" y="403.12" width="11.054347826086957" height="66.88"
	fill="#a090ff"/>
  
  <rect x="885.8315217391304" y="338.73333333333335" width="11.054347826086957" height="131.26666666666668"
	fill="#a090ff"/>
  
  <rect x="898.1141304347826" y="347.82666666666665" width="11.054347826086957" height="122.17333333333333"
	fill="#a090ff"/>
  
  <rect x="910.3967391304348" y="413.68" width="11.054347826086957" height="56.32"
	fill="#a090ff"/>
  
  <rect x="922.6793478260869" y="388.8933333333333" width="11.054347826086957" height="81.10666666666667"
	fill="#a090ff"/>
  
  <rect x="934.9619565217391" y="388.8933333333333" width="11.054347826086957" height="81.10666666666667"
	fill="#a090ff"/>
  
  <rect x="947.2445652173913" y="414.85333333333335" width="11.054347826086957" height="55.14666666666667"
	fill="#a090ff"/>
  
  <rect x="959.5271739130434" y="427.02666666666664" width="11.054347826086957" height="42.973333333333336"
	fill="#a090ff"/>
  
  <rect x="971.8097826086956" y="373.93333333333334" width="11.054347826086957" height="96.06666666666666"
	fill="#a090ff"/>
  
  <rect x="984.0923913043478" y="386.6933333333333" width="11.054347826086957" height="83.30666666666667"
	fill="#a090ff"/>
  
  <rect x="996.375" y="364.6933333333333" width="11.054347826086957" height="105.30666666666667"
	fill="#a090ff"/>
  
  <rect x="1008.6576086956521" y="312.62666666666667" width="11.054347826086957" height="157.37333333333333"
	fill="#a090ff"/>
  
  <rect x="1020.9402173913043" y="269.94666666666666" width="11.054347826086957" height="200.05333333333334"
	fill="#a090ff"/>
  
  <rect x="1033.2228260869565" y="316.2933333333333" width="11.054347826086957" height="153.70666666666668"
	fill="#a090ff"/>
  
  <rect x="1045.5054347826085" y="331.5466666666666" width="11.054347826086957" height="138.45333333333335"
	fill="#a090ff"/>
  
  <rect x="1057.788043478261" y="356.92" width="11.054347826086957" height="113.08"
	fill="#a090ff"/>
  
  <rect x="1070.070652173913" y="336.5333333333333" width="11.054347826086957" height="133.46666666666667"
	fill="#a090ff"/>
  
  <rect x="1082.3532608695652" y="337.26666666666665" width="11.054347826086957" height="132.73333333333332"
	fill="#a090ff"/>
  
  <rect x="1094.6358695652173" y="233.72" width="11.054347826086957" height="236.28"
	fill="#a090ff"/>
  
  <rect x="1106.9184782608695" y="260.56" width="11.054347826086957" height="209.44"
	fill="#a090ff"/>
  
  <rect x="1119.2010869565217" y="250.58666666666667" width="11.054347826086957" height="219.41333333333333"
	fill="#a090ff"/>
  
  <rect x="1131.4836956521738" y="155.98666666666668" width="11.054347826086957" height="314.0133333333333"
	fill="#a090ff"/>
  
  <rect x="1143.766304347826" y="185.02666666666664" width="11.054347826086957" height="284.97333333333336"
	fill="#a090ff"/>
  
  <rect x="1156.0489130434783" y="270.38666666666666" width="11.054347826086957" height="199.61333333333334"
	fill="#a090ff"/>
  
  <rect x="1168.3315217391305" y="238.56" width="11.054347826086957" height="231.44"
	fill="#a090ff"/>
  
  
  <line x1="50.0" y1="449.7390476190476" x2="62.28260869565217" y2="445.1504761904762"
	stroke="#0000ff" stroke-width="2"/>
  
  <line x1="62.28260869565217" y1="445.1504761904762" x2="74.56521739130434" y2="439.3466666666667"
	stroke="#0000ff" stroke-width="2"/>
  
  <line x1="74.56521739130434" y1="439.3466666666667" x2="86.84782608695653" y2="433.56380952380954"
	stroke="#0000ff" stroke-width="2"/>
  
  <line x1="86.84782608695653" y1="433.56380952380954" x2="99.13043478260869" y2="419.84"
	stroke="#0000ff" stroke-width="2"/>
  
  <line x1="99.13043478260869" y1="419.84" x2="111.41304347826087" y2="412.2342857142857"
	stroke="#0000ff" stroke-width="2"/>
  
  <line x1="111.41304347826087" y1="412.2342857142857" x2="123.69565217391305" y2="406.8495238095238"
	stroke="#0000ff" stroke-width="2"/>
  
  <line x1="123.69565217391305" y1="406.8495238095238" x2="135.97826086956522" y2="409.28"
	stroke="#0000ff" stroke-width="2"/>
  
  <line x1="135.97826086956522" y1="409.28" x2="148.26086956521738" y2="410.0342857142857"
	stroke="#0000ff" stroke-width="2"/>
  
  <line x1="148.26086956521738" y1="410.0342857142857" x2="160.54347826086956" y2="410.0552380952381"
	stroke="#0000ff" stroke-width="2"/>
  
  <line x1="160.54347826086956" y1="410.0552380952381" x2="172.82608695652175" y2="402.6380952380952"
	stroke="#0000ff" stroke-width="2"/>
  
  <line x1="172.82608695652175" y1="402.6380952380952" x2="185.1086956521739" y2="405.67619047619047"
	stroke="#0000ff" stroke-width="2"/>
  
  <line x1="185.1086956521739" y1="405.67619047619047" x2="197.3913043478261" y2="404.0838095238095"
	stroke="#0000ff" stroke-width="2"/>
  
  <line x1="197.3913043478261" y1="404.0838095238095" x2="209.67391304347825" y2="391.82666666666665"
	stroke="#0000ff" stroke-width="2"/>
  
  <line x1="209.67391304347825" y1="391.82666666666665" x2="221.95652173913044" y2="380.1980952380952"
	stroke="#0000ff" stroke-width="2"/>
  
  <line x1="221.95652173913044" y1="380.1980952380952" x2="234.2391304347826" y2="372.25714285714287"
	stroke="#0000ff" stroke-width="2"/>
  
  <line x1="234.2391304347826" y1="372.25714285714287" x2="246.52173913043478" y2="367.20761904761906"
	stroke="#0000ff" stroke-width="2"/>
  
  <line x1="246.52173913043478" y1="367.20761904761906" x2="258.804347826087" y2="369.34476190476187"
	stroke="#0000ff" stroke-width="2"/>
  
  <line x1="258.804347826087" y1="369.34476190476187" x2="271.0869565217391" y2="372.90666666666664"
	stroke="#0000ff" stroke-width="2"/>
  
  <line x1="271.0869565217391" y1="372.90666666666664" x2="283.3695652173913" y2="382.71238095238095"
	stroke="#0000ff" stroke-width="2"/>
  
  <line x1="283.3695652173913" y1="382.71238095238095" x2="295.6521739130435" y2="399.3066666666667"
	stroke="#0000ff" stroke-width="2"/>
  
  <line x1="295.6521739130435" y1="399.3066666666667" x2="307.9347826086956" y2="402.3447619047619"
	stroke="#0000ff" stroke-width="2"/>
  
  <line x1="307.9347826086956" y1="402.3447619047619" x2="320.2173913043478" y2="396.93904761904764"
	stroke="#0000ff" stroke-width="2"/>
  
  <line x1="320.2173913043478" y1="396.93904761904764" x2="332.5" y2="400.0190476190476"
	stroke="#0000ff" stroke-width="2"/>
  
  <line x1="332.5" y1="400.0190476190476" x2="344.7826086956522" y2="404.0838095238095"
	stroke="#0000ff" stroke-width="2"/>
  
  <line x1="344.7826086956522" y1="404.0838095238095" x2="357.0652173913044" y2="404.88"
	stroke="#0000ff" stroke-width="2"/>
  
  <line x1="357.0652173913044" y1="404.88" x2="369.3478260869565" y2="395.93333333333334"
	stroke="#0000ff" stroke-width="2"/>
  
  <line x1="369.3478260869565" y1="395.93333333333334" x2="381.6304347826087" y2="395.93333333333334"
	stroke="#0000ff" stroke-width="2"/>
  
  <line x1="381.6304347826087" y1="395.93333333333334" x2="393.9130434782609" y2="403.32952380952383"
	stroke="#0000ff" stroke-width="2"/>
  
  <line x1="393.9130434782609" y1="403.32952380952383" x2="406.19565217391306" y2="413.24"
	stroke="#0000ff" stroke-width="2"/>
  
  <line x1="406.19565217391306" y1="413.24" x2="418.4782608695652" y2="413.74285714285713"
	stroke="#0000ff" stroke-width="2"/>
  
  <line x1="418.4782608695652" y1="413.74285714285713" x2="430.7608695652174" y2="415.1047619047619"
	stroke="#0000ff" stroke-width="2"/>
  
  <line x1="430.7608695652174" y1="415.1047619047619" x2="443.04347826086956" y2="416.7809523809524"
	stroke="#0000ff" stroke-width="2"/>
  
  <line x1="443.04347826086956" y1="416.7809523809524" x2="455.32608695652175" y2="408.84"
	stroke="#0000ff" stroke-width="2"/>
  
  <line x1="455.32608695652175" y1="408.84" x2="467.60869565217394" y2="393.75428571428574"
	stroke="#0000ff" stroke-width="2"/>
  
  <line x1="467.60869565217394" y1="393.75428571428574" x2="479.89130434782606" y2="388.4533333333333"
	stroke="#0000ff" stroke-width="2"/>
  
  <line x1="479.89130434782606" y1="388.4533333333333" x2="492.17391304347825" y2="381.56"
	stroke="#0000ff" stroke-width="2"/>
  
  <line x1="492.17391304347825" y1="381.56" x2="504.45652173913044" y2="379.1504761904762"
	stroke="#0000ff" stroke-width="2"/>
  
  <line x1="504.45652173913044" y1="379.1504761904762" x2="516.7391304347826" y2="369.5542857142857"
	stroke="#0000ff" stroke-width="2"/>
  
  <line x1="516.7391304347826" y1="369.5542857142857" x2="529.0217391304348" y2="364.84000000000003"
	stroke="#0000ff" stroke-width="2"/>
  
  <line x1="529.0217391304348" y1="364.84000000000003" x2="541.304347826087" y2="372.90666666666664"
	stroke="#0000ff" stroke-width="2"/>
  
  <line x1="541.304347826087" y1="372.90666666666664" x2="553.5869565217391" y2="377.432380952381"
	stroke="#0000ff" stroke-width="2"/>
  
  <line x1="553.5869565217391" y1="377.432380952381" x2="565.8695652173913" y2="367.98285714285714"
	stroke="#0000ff" stroke-width="2"/>
  
  <line x1="565.8695652173913" y1="367.98285714285714" x2="578.1521739130435" y2="371.3561904761905"
	stroke="#0000ff" stroke-width="2"/>
  
  <line x1="578.1521739130435" y1="371.3561904761905" x2="590.4347826086956" y2="356.43809523809523"
	stroke="#0000ff" stroke-width="2"/>
  
  <line x1="590.4347826086956" y1="356.43809523809523" x2="602.7173913043479" y2="350.2361904761905"
	stroke="#0000ff" stroke-width="2"/>
  
  <line x1="602.7173913043479" y1="350.2361904761905" x2="615.0" y2="336.0514285714286"
	stroke="#0000ff" stroke-width="2"/>
  
  <line x1="615.0" y1="336.0514285714286" x2="627.2826086956521" y2="331.9866666666667"
	stroke="#0000ff" stroke-width="2"/>
  
  <line x1="627.2826086956521" y1="331.9866666666667" x2="639.5652173913044" y2="326.18285714285713"
	stroke="#0000ff" stroke-width="2"/>
  
  <line x1="639.5652173913044" y1="326.18285714285713" x2="651.8478260869565" y2="325.6590476190476"
	stroke="#0000ff" stroke-width="2"/>
  
  <line x1="651.8478260869565" y1="325.6590476190476" x2="664.1304347826087" y2="320.3580952380952"
	stroke="#0000ff" stroke-width="2"/>
  
  <line x1="664.1304347826087" y1="320.3580952380952" x2="676.4130434782609" y2="331.79809523809524"
	stroke="#0000ff" stroke-width="2"/>
  
  <line x1="676.4130434782609" y1="331.79809523809524" x2="688.695652173913" y2="327.9847619047619"
	stroke="#0000ff" stroke-width="2"/>
  
  <line x1="688.695652173913" y1="327.9847619047619" x2="700.9782608695652" y2="336.32380952380953"
	stroke="#0000ff" stroke-width="2"/>
  
  <line x1="700.9782608695652" y1="336.32380952380953" x2="713.2608695652174" y2="335.27619047619044"
	stroke="#0000ff" stroke-width="2"/>
  
  <line x1="713.2608695652174" y1="335.27619047619044" x2="725.5434782608695" y2="349.0628571428571"
	stroke="#0000ff" stroke-width="2"/>
  
  <line x1="725.5434782608695" y1="349.0628571428571" x2="737.8260869565217" y2="358.7847619047619"
	stroke="#0000ff" stroke-width="2"/>
  
  <line x1="737.8260869565217" y1="358.7847619047619" x2="750.1086956521739" y2="360.9009523809524"
	stroke="#0000ff" stroke-width="2"/>
  
  <line x1="750.1086956521739" y1="360.9009523809524" x2="762.3913043478261" y2="363.52"
	stroke="#0000ff" stroke-width="2"/>
  
  <line x1="762.3913043478261" y1="363.52" x2="774.6739130434783" y2="380.30285714285714"
	stroke="#0000ff" stroke-width="2"/>
  
  <line x1="774.6739130434783" y1="380.30285714285714" x2="786.9565217391304" y2="390.98857142857145"
	stroke="#0000ff" stroke-width="2"/>
  
  <line x1="786.9565217391304" y1="390.98857142857145" x2="799.2391304347826" y2="394.4247619047619"
	stroke="#0000ff" stroke-width="2"/>
  
  <line x1="799.2391304347826" y1="394.4247619047619" x2="811.5217391304348" y2="391.68"
	stroke="#0000ff" stroke-width="2"/>
  
  <line x1="811.5217391304348" y1="391.68" x2="823.804347826087" y2="392.74857142857144"
	stroke="#0000ff" stroke-width="2"/>
  
  <line x1="823.804347826087" y1="392.74857142857144" x2="836.0869565217391" y2="397.1695238095238"
	stroke="#0000ff" stroke-width="2"/>
  
  <line x1="836.0869565217391" y1="397.1695238095238" x2="848.3695652173913" y2="388.9352380952381"
	stroke="#0000ff" stroke-width="2"/>
  
  <line x1="848.3695652173913" y1="388.9352380952381" x2="860.6521739130435" y2="379.94666666666666"
	stroke="#0000ff" stroke-width="2"/>
  
  <line x1="860.6521739130435" y1="379.94666666666666" x2="872.9347826086956" y2="378.8361904761905"
	stroke="#0000ff" stroke-width="2"/>
  
  <line x1="872.9347826086956" y1="378.8361904761905" x2="885.2173913043479" y2="381.24571428571426"
	stroke="#0000ff" stroke-width="2"/>
  
  <line x1="885.2173913043479" y1="381.24571428571426" x2="897.5" y2="382.3561904761905"
	stroke="#0000ff" stroke-width="2"/>
  
  <line x1="897.5" y1="382.3561904761905" x2="909.7826086956521" y2="385.1428571428571"
	stroke="#0000ff" stroke-width="2"/>
  
  <line x1="909.7826086956521" y1="385.1428571428571" x2="922.0652173913044" y2="388.55809523809523"
	stroke="#0000ff" stroke-width="2"/>
  
  <line x1="922.0652173913044" y1="388.55809523809523" x2="934.3478260869565" y2="393.5866666666667"
	stroke="#0000ff" stroke-width="2"/>
  
  <line x1="934.3478260869565" y1="393.5866666666667" x2="946.6304347826087" y2="399.13904761904763"
	stroke="#0000ff" stroke-width="2"/>
  
  <line x1="946.6304347826087" y1="399.13904761904763" x2="958.9130434782609" y2="392.1409523809524"
	stroke="#0000ff" stroke-width="2"/>
  
  <line x1="958.9130434782609" y1="392.1409523809524" x2="971.195652173913" y2="381.24571428571426"
	stroke="#0000ff" stroke-width="2"/>
  
  <line x1="971.195652173913" y1="381.24571428571426" x2="983.4782608695652" y2="364.25333333333333"
	stroke="#0000ff" stroke-width="2"/>
  
  <line x1="983.4782608695652" y1="364.25333333333333" x2="995.7608695652174" y2="350.17333333333335"
	stroke="#0000ff" stroke-width="2"/>
  
  <line x1="995.7608695652174" y1="350.17333333333335" x2="1008.0434782608695" y2="336.5333333333333"
	stroke="#0000ff" stroke-width="2"/>
  
  <line x1="1008.0434782608695" y1="336.5333333333333" x2="1020.3260869565217" y2="334.10285714285715"
	stroke="#0000ff" stroke-width="2"/>
  
  <line x1="1020.3260869565217" y1="334.10285714285715" x2="1032.608695652174" y2="326.9371428571428"
	stroke="#0000ff" stroke-width="2"/>
  
  <line x1="1032.608695652174" y1="326.9371428571428" x2="1044.891304347826" y2="323.0190476190476"
	stroke="#0000ff" stroke-width="2"/>
  
  <line x1="1044.891304347826" y1="323.0190476190476" x2="1057.1739130434783" y2="311.74666666666667"
	stroke="#0000ff" stroke-width="2"/>
  
  <line x1="1057.1739130434783" y1="311.74666666666667" x2="1069.4565217391305" y2="310.4057142857143"
	stroke="#0000ff" stroke-width="2"/>
  
  <line x1="1069.4565217391305" y1="310.4057142857143" x2="1081.7391304347825" y2="301.0190476190476"
	stroke="#0000ff" stroke-width="2"/>
  
  <line x1="1081.7391304347825" y1="301.0190476190476" x2="1094.0217391304348" y2="275.93904761904764"
	stroke="#0000ff" stroke-width="2"/>
  
  <line x1="1094.0217391304348" y1="275.93904761904764" x2="1106.304347826087" y2="251.38285714285712"
	stroke="#0000ff" stroke-width="2"/>
  
  <line x1="1106.304347826087" y1="251.38285714285712" x2="1118.586956521739" y2="241.93333333333334"
	stroke="#0000ff" stroke-width="2"/>
  
  <line x1="1118.586956521739" y1="241.93333333333334" x2="1130.8695652173913" y2="227.83238095238096"
	stroke="#0000ff" stroke-width="2"/>
  
  <line x1="1130.8695652173913" y1="227.83238095238096" x2="1143.1521739130435" y2="228.52380952380955"
	stroke="#0000ff" stroke-width="2"/>
  
  <line x1="1143.1521739130435" y1="228.52380952380955" x2="1155.4347826086957" y2="225.38095238095238"
	stroke="#0000ff" stroke-width="2"/>
  
  <line x1="1155.4347826086957" y1="225.38095238095238" x2="1167.7173913043478" y2="223.66285714285712"
	stroke="#0000ff" stroke-width="2"/>
  



  
  <line x1="86.84782608695653" y1="470.0" x2="86.84782608695653" y2="30.0"
	stroke="#c0c0c0"/>
   
  
  <line x1="86.84782608695653" y1="470.0" x2="86.84782608695653" y2="30.0"
	stroke="#606060"/>
   
  
  <line x1="123.69565217391305" y1="470.0" x2="123.69565217391305" y2="30.0"
	stroke="#c0c0c0"/>
   
  
  <line x1="160.54347826086956" y1="470.0" x2="160.54347826086956" y2="30.0"
	stroke="#c0c0c0"/>
   
  <text y="490" x="160.54347826086956" text-anchor="middle" font-size="10">2010</text>
  
  
  <line x1="197.3913043478261" y1="470.0" x2="197.3913043478261" y2="30.0"
	stroke="#c0c0c0"/>
   
  
  <line x1="234.2391304347826" y1="470.0" x2="234.2391304347826" y2="30.0"
	stroke="#c0c0c0"/>
   
  
  <line x1="234.2391304347826" y1="470.0" x2="234.2391304347826" y2="30.0"
	stroke="#606060"/>
   
  
  <line x1="271.0869565217391" y1="470.0" x2="271.0869565217391" y2="30.0"
	stroke="#c0c0c0"/>
   
  
  <line x1="307.9347826086956" y1="470.0" x2="307.9347826086956" y2="30.0"
	stroke="#c0c0c0"/>
   
  <text y="490" x="307.9347826086956" text-anchor="middle" font-size="10">2011</text>
  
  
  <line x1="344.7826086956522" y1="470.0" x2="344.7826086956522" y2="30.0"
	stroke="#c0c0c0"/>
   
  
  <line x1="381.6304347826087" y1="470.0" x2="381.6304347826087" y2="30.0"
	stroke="#c0c0c0"/>
   
  
  <line x1="381.6304347826087" y1="470.0" x2="381.6304347826087" y2="30.0"
	stroke="#606060"/>
   
  
  <line x1="418.4782608695652" y1="470.0" x2="418.4782608695652" y2="30.0"
	stroke="#c0c0c0"/>
   
  
  <line x1="455.32608695652175" y1="470.0" x2="455.32608695652175" y2="30.0"
	stroke="#c0c0c0"/>
   
  <text y="490" x="455.32608695652175" text-anchor="middle" font-size="10">2012</text>
  
  
  <line x1="492.17391304347825" y1="470.0" x2="492.17391304347825" y2="30.0"
	stroke="#c0c0c0"/>
   
  
  <line x1="529.0217391304348" y1="470.0" x2="529.0217391304348" y2="30.0"
	stroke="#c0c0c0"/>
   
  
  <line x1="529.0217391304348" y1="470.0" x2="529.0217391304348" y2="30.0"
	stroke="#606060"/>
   
  
  <line x1="565.8695652173913" y1="470.0" x2="565.8695652173913" y2="30.0"
	stroke="#c0c0c0"/>
   
  
  <line x1="602.7173913043479" y1="470.0" x2="602.7173913043479" y2="30.0"
	stroke="#c0c0c0"/>
   
  <text y="490" x="602.7173913043479" text-anchor="middle" font-size="10">2013</text>
  
  
  <line x1="639.5652173913044" y1="470.0" x2="639.5652173913044" y2="30.0"
	stroke="#c0c0c0"/>
   
  
  <line x1="676.4130434782609" y1="470.0" x2="676.4130434782609" y2="30.0"
	stroke="#c0c0c0"/>
   
  
  <line x1="676.4130434782609" y1="470.0" x2="676.4130434782609" y2="30.0"
	stroke="#606060"/>
   
  
  <line x1="713.2608695652174" y1="470.0" x2="713.2608695652174" y2="30.0"
	stroke="#c0c0c0"/>
   
  
  <line x1="750.1086956521739" y1="470.0" x2="750.1086956521739" y2="30.0"
	stroke="#c0c0c0"/>
   
  <text y="490" x="750.1086956521739" text-anchor="middle" font-size="10">2014</text>
  
  
  <line x1="786.9565217391304" y1="470.0" x2="786.9565217391304" y2="30.0"
	stroke="#c0c0c0"/>
   
  
  <line x1="823.804347826087" y1="470.0" x2="823.804347826087" y2="30.0"
	stroke="#c0c0c0"/>
   
  
  <line x1="823.804347826087" y1="470.0" x2="823.804347826087" y2="30.0"
	stroke="#606060"/>
   
  
  <line x1="860.6521739130435" y1="470.0" x2="860.6521739130435" y2="30.0"
	stroke="#c0c0c0"/>
   
  
  <line x1="897.5" y1="470.0" x2="897.5" y2="30.0"
	stroke="#c0c0c0"/>
   
  <text y="490" x="897.5" text-anchor="middle" font-size="10">2015</text>
  
  
  <line x1="934.3478260869565" y1="470.0" x2="934.3478260869565" y2="30.0"
	stroke="#c0c0c0"/>
   
  
  <line x1="971.195652173913" y1="470.0" x2="971.195652173913" y2="30.0"
	stroke="#c0c0c0"/>
   
  
  <line x1="971.195652173913" y1="470.0" x2="971.195652173913" y2="30.0"
	stroke="#606060"/>
   
  
  <line x1="1008.0434782608695" y1="470.0" x2="1008.0434782608695" y2="30.0"
	stroke="#c0c0c0"/>
   
  
  <line x1="1044.891304347826" y1="470.0" x2="1044.891304347826" y2="30.0"
	stroke="#c0c0c0"/>
   
  <text y="490" x="1044.891304347826" text-anchor="middle" font-size="10">2016</text>
  
  
  <line x1="1081.7391304347825" y1="470.0" x2="1081.7391304347825" y2="30.0"
	stroke="#c0c0c0"/>
   
  
  <line x1="1118.586956521739" y1="470.0" x2="1118.586956521739" y2="30.0"
	stroke="#c0c0c0"/>
   
  
  <line x1="1118.586956521739" y1="470.0" x2="1118.586956521739" y2="30.0"
	stroke="#606060"/>
   
  
  <line x1="1155.4347826086957" y1="470.0" x2="1155.4347826086957" y2="30.0"
	stroke="#c0c0c0"/>
   
  
  
  <line y1="426.0" x1="50.0" y2="426.0" x2="1180.0"
	stroke="#c0c0c0"/>
  
  <text x="45" y="426.0" text-anchor="end" font-size="10">300</text>
  
  
  <line y1="382.0" x1="50.0" y2="382.0" x2="1180.0"
	stroke="#c0c0c0"/>
  
  <text x="45" y="382.0" text-anchor="end" font-size="10">600</text>
  
  
  <line y1="338.0" x1="50.0" y2="338.0" x2="1180.0"
	stroke="#c0c0c0"/>
  
  <text x="45" y="338.0" text-anchor="end" font-size="10">900</text>
  
  
  <line y1="294.0" x1="50.0" y2="294.0" x2="1180.0"
	stroke="#c0c0c0"/>
  
  <text x="45" y="294.0" text-anchor="end" font-size="10">1200</text>
  
  
  <line y1="250.0" x1="50.0" y2="250.0" x2="1180.0"
	stroke="#c0c0c0"/>
  
  <text x="45" y="250.0" text-anchor="end" font-size="10">1500</text>
  
  
  <line y1="206.0" x1="50.0" y2="206.0" x2="1180.0"
	stroke="#c0c0c0"/>
  
  <text x="45" y="206.0" text-anchor="end" font-size="10">1800</text>
  
  
  <line y1="162.0" x1="50.0" y2="162.0" x2="1180.0"
	stroke="#c0c0c0"/>
  
  <text x="45" y="162.0" text-anchor="end" font-size="10">2100</text>
  
  
  <line y1="118.0" x1="50.0" y2="118.0" x2="1180.0"
	stroke="#c0c0c0"/>
  
  <text x="45" y="118.0" text-anchor="end" font-size="10">2400</text>
  
  
  <line y1="74.0" x1="50.0" y2="74.0" x2="1180.0"
	stroke="#c0c0c0"/>
  
  <text x="45" y="74.0" text-anchor="end" font-size="10">2700</text>
  
  

</svg>
