<?xml version="1.0" encoding="UTF-8" standalone="no"?>
<!-- Created with Inkscape (http://www.inkscape.org/) -->
<!DOCTYPE svg PUBLIC "-//W3C//DTD SVG 1.1//EN" "http://www.w3.org/Graphics/SVG/1.1/DTD/svg11.dtd"> 

<svg
   xmlns="http://www.w3.org/2000/svg"
   width="1200"
   height="500"
   version="1.1"
   style="enable-background:new">

  <rect x="0" y="0" width="1200" height="500"
	fill="#e0e0e0"/>

  <text x="615.0" y="20.0" text-anchor="middle" font-size="12">Number of posts per month on forum &quot;Staff Room&quot; (and children)</text>

  <rect x="50" y="30" width="1130" height="440"
	fill="white" stroke="black" stroke-width="2"/>
  
  <rect x="50.61413043478261" y="461.7866666666667" width="11.054347826086957" height="8.213333333333333"
	fill="#a090ff"/>
  
  <rect x="62.89673913043478" y="446.82666666666665" width="11.054347826086957" height="23.173333333333332"
	fill="#a090ff"/>
  
  <rect x="75.17934782608695" y="439.2" width="11.054347826086957" height="30.8"
	fill="#a090ff"/>
  
  <rect x="87.46195652173913" y="430.84" width="11.054347826086957" height="39.160000000000004"
	fill="#a090ff"/>
  
  <rect x="99.74456521739131" y="415.88" width="11.054347826086957" height="54.12"
	fill="#a090ff"/>
  
  <rect x="112.02717391304347" y="436.70666666666665" width="11.054347826086957" height="33.29333333333334"
	fill="#a090ff"/>
  
  <rect x="124.30978260869566" y="349.44" width="11.054347826086957" height="120.56"
	fill="#a090ff"/>
  
  <rect x="136.5923913043478" y="415.58666666666664" width="11.054347826086957" height="54.413333333333334"
	fill="#a090ff"/>
  
  <rect x="148.875" y="418.96" width="11.054347826086957" height="51.04"
	fill="#a090ff"/>
  
  <rect x="161.1576086956522" y="403.26666666666665" width="11.054347826086957" height="66.73333333333333"
	fill="#a090ff"/>
  
  <rect x="173.44021739130437" y="448.58666666666664" width="11.054347826086957" height="21.413333333333334"
	fill="#a090ff"/>
  
  <rect x="185.72282608695653" y="434.36" width="11.054347826086957" height="35.64"
	fill="#a090ff"/>
  
  <rect x="198.00543478260872" y="396.08" width="11.054347826086957" height="73.92"
	fill="#a090ff"/>
  
  <rect x="210.28804347826087" y="338.14666666666665" width="11.054347826086957" height="131.85333333333332"
	fill="#a090ff"/>
  
  <rect x="222.57065217391306" y="378.7733333333333" width="11.054347826086957" height="91.22666666666667"
	fill="#a090ff"/>
  
  <rect x="234.85326086956522" y="362.78666666666663" width="11.054347826086957" height="107.21333333333334"
	fill="#a090ff"/>
  
  <rect x="247.1358695652174" y="345.62666666666667" width="11.054347826086957" height="124.37333333333333"
	fill="#a090ff"/>
  
  <rect x="259.41847826086956" y="392.4133333333333" width="11.054347826086957" height="77.58666666666667"
	fill="#a090ff"/>
  
  <rect x="271.70108695652175" y="344.4533333333333" width="11.054347826086957" height="125.54666666666667"
	fill="#a090ff"/>
  
  <rect x="283.9836956521739" y="364.84000000000003" width="11.054347826086957" height="105.16"
	fill="#a090ff"/>
  
  <rect x="296.2663043478261" y="391.5333333333333" width="11.054347826086957" height="78.46666666666667"
	fill="#a090ff"/>
  
  <rect x="308.54891304347825" y="397.9866666666667" width="11.054347826086957" height="72.01333333333334"
	fill="#a090ff"/>
  
  <rect x="320.83152173913044" y="403.4133333333333" width="11.054347826086957" height="66.58666666666667"
	fill="#a090ff"/>
  
  <rect x="333.1141304347826" y="254.4" width="11.054347826086957" height="215.6"
	fill="#a090ff"/>
  
  <rect x="345.3967391304348" y="271.56" width="11.054347826086957" height="198.44"
	fill="#a090ff"/>
  
  <rect x="357.67934782608694" y="259.97333333333336" width="11.054347826086957" height="210.02666666666667"
	fill="#a090ff"/>
  
  <rect x="369.9619565217391" y="305.88" width="11.054347826086957" height="164.12"
	fill="#a090ff"/>
  
  <rect x="382.2445652173913" y="343.28" width="11.054347826086957" height="126.72"
	fill="#a090ff"/>
  
  <rect x="394.5271739130435" y="220.96" width="11.054347826086957" height="249.04"
	fill="#a090ff"/>
  
  <rect x="406.8097826086957" y="208.64" width="11.054347826086957" height="261.36"
	fill="#a090ff"/>
  
  <rect x="419.0923913043478" y="225.94666666666666" width="11.054347826086957" height="244.05333333333334"
	fill="#a090ff"/>
  
  <rect x="431.375" y="270.5333333333333" width="11.054347826086957" height="199.46666666666667"
	fill="#a090ff"/>
  
  <rect x="443.65760869565213" y="310.8666666666667" width="11.054347826086957" height="159.13333333333333"
	fill="#a090ff"/>
  
  <rect x="455.9402173913043" y="33.079999999999984" width="11.054347826086957" height="436.92"
	fill="#a090ff"/>
  
  <rect x="468.2228260869565" y="323.91999999999996" width="11.054347826086957" height="146.08"
	fill="#a090ff"/>
  
  <rect x="480.50543478260863" y="330.96000000000004" width="11.054347826086957" height="139.04"
	fill="#a090ff"/>
  
  <rect x="492.7880434782608" y="154.95999999999998" width="11.054347826086957" height="315.04"
	fill="#a090ff"/>
  
  <rect x="505.070652173913" y="146.45333333333332" width="11.054347826086957" height="323.5466666666667"
	fill="#a090ff"/>
  
  <rect x="517.3532608695652" y="272.73333333333335" width="11.054347826086957" height="197.26666666666668"
	fill="#a090ff"/>
  
  <rect x="529.6358695652174" y="152.32" width="11.054347826086957" height="317.68"
	fill="#a090ff"/>
  
  <rect x="541.9184782608695" y="296.93333333333334" width="11.054347826086957" height="173.06666666666666"
	fill="#a090ff"/>
  
  <rect x="554.2010869565217" y="328.90666666666664" width="11.054347826086957" height="141.09333333333333"
	fill="#a090ff"/>
  
  <rect x="566.4836956521739" y="305.44" width="11.054347826086957" height="164.56"
	fill="#a090ff"/>
  
  <rect x="578.766304347826" y="353.1066666666667" width="11.054347826086957" height="116.89333333333333"
	fill="#a090ff"/>
  
  <rect x="591.0489130434783" y="368.8" width="11.054347826086957" height="101.2"
	fill="#a090ff"/>
  
  <rect x="603.3315217391304" y="327.5866666666667" width="11.054347826086957" height="142.41333333333333"
	fill="#a090ff"/>
  
  <rect x="615.6141304347826" y="361.76" width="11.054347826086957" height="108.24"
	fill="#a090ff"/>
  
  <rect x="627.8967391304348" y="342.25333333333333" width="11.054347826086957" height="127.74666666666667"
	fill="#a090ff"/>
  
  <rect x="640.1793478260869" y="350.61333333333334" width="11.054347826086957" height="119.38666666666667"
	fill="#a090ff"/>
  
  <rect x="652.4619565217391" y="300.6" width="11.054347826086957" height="169.4"
	fill="#a090ff"/>
  
  <rect x="664.7445652173913" y="399.74666666666667" width="11.054347826086957" height="70.25333333333333"
	fill="#a090ff"/>
  
  <rect x="677.0271739130434" y="406.2" width="11.054347826086957" height="63.8"
	fill="#a090ff"/>
  
  <rect x="689.3097826086956" y="368.50666666666666" width="11.054347826086957" height="101.49333333333334"
	fill="#a090ff"/>
  
  <rect x="701.5923913043478" y="377.4533333333333" width="11.054347826086957" height="92.54666666666667"
	fill="#a090ff"/>
  
  <rect x="713.875" y="392.26666666666665" width="11.054347826086957" height="77.73333333333333"
	fill="#a090ff"/>
  
  <rect x="726.1576086956521" y="355.74666666666667" width="11.054347826086957" height="114.25333333333333"
	fill="#a090ff"/>
  
  <rect x="738.4402173913043" y="363.08" width="11.054347826086957" height="106.92"
	fill="#a090ff"/>
  
  <rect x="750.7228260869565" y="357.36" width="11.054347826086957" height="112.64"
	fill="#a090ff"/>
  
  <rect x="763.0054347826086" y="397.1066666666667" width="11.054347826086957" height="72.89333333333333"
	fill="#a090ff"/>
  
  <rect x="775.2880434782609" y="424.38666666666666" width="11.054347826086957" height="45.61333333333334"
	fill="#a090ff"/>
  
  <rect x="787.570652173913" y="415.58666666666664" width="11.054347826086957" height="54.413333333333334"
	fill="#a090ff"/>
  
  <rect x="799.8532608695651" y="379.21333333333337" width="11.054347826086957" height="90.78666666666666"
	fill="#a090ff"/>
  
  <rect x="812.1358695652174" y="333.0133333333333" width="11.054347826086957" height="136.98666666666668"
	fill="#a090ff"/>
  
  <rect x="824.4184782608695" y="301.48" width="11.054347826086957" height="168.52"
	fill="#a090ff"/>
  
  <rect x="836.7010869565217" y="406.49333333333334" width="11.054347826086957" height="63.50666666666667"
	fill="#a090ff"/>
  
  <rect x="848.9836956521739" y="427.02666666666664" width="11.054347826086957" height="42.973333333333336"
	fill="#a090ff"/>
  
  <rect x="861.266304347826" y="433.92" width="11.054347826086957" height="36.08"
	fill="#a090ff"/>
  
  <rect x="873.5489130434783" y="422.92" width="11.054347826086957" height="47.08"
	fill="#a090ff"/>
  
  <rect x="885.8315217391304" y="407.81333333333333" width="11.054347826086957" height="62.18666666666667"
	fill="#a090ff"/>
  
  <rect x="898.1141304347826" y="184.73333333333335" width="11.054347826086957" height="285.26666666666665"
	fill="#a090ff"/>
  
  <rect x="910.3967391304348" y="233.13333333333333" width="11.054347826086957" height="236.86666666666667"
	fill="#a090ff"/>
  
  <rect x="922.6793478260869" y="315.4133333333333" width="11.054347826086957" height="154.58666666666667"
	fill="#a090ff"/>
  
  <rect x="934.9619565217391" y="413.38666666666666" width="11.054347826086957" height="56.61333333333334"
	fill="#a090ff"/>
  
  <rect x="947.2445652173913" y="408.84" width="11.054347826086957" height="61.160000000000004"
	fill="#a090ff"/>
  
  <rect x="959.5271739130434" y="430.25333333333333" width="11.054347826086957" height="39.74666666666667"
	fill="#a090ff"/>
  
  <rect x="971.8097826086956" y="391.38666666666666" width="11.054347826086957" height="78.61333333333333"
	fill="#a090ff"/>
  
  <rect x="984.0923913043478" y="301.03999999999996" width="11.054347826086957" height="168.96"
	fill="#a090ff"/>
  
  <rect x="996.375" y="324.6533333333333" width="11.054347826086957" height="145.34666666666666"
	fill="#a090ff"/>
  
  <rect x="1008.6576086956521" y="435.68" width="11.054347826086957" height="34.32"
	fill="#a090ff"/>
  
  <rect x="1020.9402173913043" y="412.50666666666666" width="11.054347826086957" height="57.49333333333333"
	fill="#a090ff"/>
  
  <rect x="1033.2228260869565" y="438.32" width="11.054347826086957" height="31.68"
	fill="#a090ff"/>
  
  <rect x="1045.5054347826085" y="439.3466666666667" width="11.054347826086957" height="30.653333333333332"
	fill="#a090ff"/>
  
  <rect x="1057.788043478261" y="418.2266666666667" width="11.054347826086957" height="51.77333333333333"
	fill="#a090ff"/>
  
  <rect x="1070.070652173913" y="406.93333333333334" width="11.054347826086957" height="63.06666666666667"
	fill="#a090ff"/>
  
  <rect x="1082.3532608695652" y="385.37333333333333" width="11.054347826086957" height="84.62666666666667"
	fill="#a090ff"/>
  
  <rect x="1094.6358695652173" y="350.32" width="11.054347826086957" height="119.68"
	fill="#a090ff"/>
  
  <rect x="1106.9184782608695" y="369.5333333333333" width="11.054347826086957" height="100.46666666666667"
	fill="#a090ff"/>
  
  <rect x="1119.2010869565217" y="344.6" width="11.054347826086957" height="125.4"
	fill="#a090ff"/>
  
  <rect x="1131.4836956521738" y="337.7066666666667" width="11.054347826086957" height="132.29333333333332"
	fill="#a090ff"/>
  
  <rect x="1143.766304347826" y="368.21333333333337" width="11.054347826086957" height="101.78666666666666"
	fill="#a090ff"/>
  
  <rect x="1156.0489130434783" y="386.1066666666667" width="11.054347826086957" height="83.89333333333333"
	fill="#a090ff"/>
  
  <rect x="1168.3315217391305" y="333.15999999999997" width="11.054347826086957" height="136.84"
	fill="#a090ff"/>
  
  
  <line x1="50.0" y1="455.52190476190475" x2="62.28260869565217" y2="447.79047619047617"
	stroke="#0000ff" stroke-width="2"/>
  
  <line x1="62.28260869565217" y1="447.79047619047617" x2="74.56521739130434" y2="443.0342857142857"
	stroke="#0000ff" stroke-width="2"/>
  
  <line x1="74.56521739130434" y1="443.0342857142857" x2="86.84782608695653" y2="425.81142857142856"
	stroke="#0000ff" stroke-width="2"/>
  
  <line x1="86.84782608695653" y1="425.81142857142856" x2="99.13043478260869" y2="419.21142857142854"
	stroke="#0000ff" stroke-width="2"/>
  
  <line x1="99.13043478260869" y1="419.21142857142854" x2="111.41304347826087" y2="415.23047619047617"
	stroke="#0000ff" stroke-width="2"/>
  
  <line x1="111.41304347826087" y1="415.23047619047617" x2="123.69565217391305" y2="410.09714285714284"
	stroke="#0000ff" stroke-width="2"/>
  
  <line x1="123.69565217391305" y1="410.09714285714284" x2="135.97826086956522" y2="412.63238095238097"
	stroke="#0000ff" stroke-width="2"/>
  
  <line x1="135.97826086956522" y1="412.63238095238097" x2="148.26086956521738" y2="415.27238095238096"
	stroke="#0000ff" stroke-width="2"/>
  
  <line x1="148.26086956521738" y1="415.27238095238096" x2="160.54347826086956" y2="409.4685714285714"
	stroke="#0000ff" stroke-width="2"/>
  
  <line x1="160.54347826086956" y1="409.4685714285714" x2="172.82608695652175" y2="407.85523809523806"
	stroke="#0000ff" stroke-width="2"/>
  
  <line x1="172.82608695652175" y1="407.85523809523806" x2="185.1086956521739" y2="402.5961904761905"
	stroke="#0000ff" stroke-width="2"/>
  
  <line x1="185.1086956521739" y1="402.5961904761905" x2="197.3913043478261" y2="394.57142857142856"
	stroke="#0000ff" stroke-width="2"/>
  
  <line x1="197.3913043478261" y1="394.57142857142856" x2="209.67391304347825" y2="386.33714285714285"
	stroke="#0000ff" stroke-width="2"/>
  
  <line x1="209.67391304347825" y1="386.33714285714285" x2="221.95652173913044" y2="378.312380952381"
	stroke="#0000ff" stroke-width="2"/>
  
  <line x1="221.95652173913044" y1="378.312380952381" x2="234.2391304347826" y2="365.4685714285714"
	stroke="#0000ff" stroke-width="2"/>
  
  <line x1="234.2391304347826" y1="365.4685714285714" x2="246.52173913043478" y2="361.0057142857143"
	stroke="#0000ff" stroke-width="2"/>
  
  <line x1="246.52173913043478" y1="361.0057142857143" x2="258.804347826087" y2="368.63238095238097"
	stroke="#0000ff" stroke-width="2"/>
  
  <line x1="258.804347826087" y1="368.63238095238097" x2="271.0869565217391" y2="371.37714285714287"
	stroke="#0000ff" stroke-width="2"/>
  
  <line x1="271.0869565217391" y1="371.37714285714287" x2="283.3695652173913" y2="377.18095238095236"
	stroke="#0000ff" stroke-width="2"/>
  
  <line x1="283.3695652173913" y1="377.18095238095236" x2="295.6521739130435" y2="364.1485714285714"
	stroke="#0000ff" stroke-width="2"/>
  
  <line x1="295.6521739130435" y1="364.1485714285714" x2="307.9347826086956" y2="346.88380952380953"
	stroke="#0000ff" stroke-width="2"/>
  
  <line x1="307.9347826086956" y1="346.88380952380953" x2="320.2173913043478" y2="334.8152380952381"
	stroke="#0000ff" stroke-width="2"/>
  
  <line x1="320.2173913043478" y1="334.8152380952381" x2="332.5" y2="326.39238095238096"
	stroke="#0000ff" stroke-width="2"/>
  
  <line x1="332.5" y1="326.39238095238096" x2="344.7826086956522" y2="319.4990476190476"
	stroke="#0000ff" stroke-width="2"/>
  
  <line x1="344.7826086956522" y1="319.4990476190476" x2="357.0652173913044" y2="294.20952380952383"
	stroke="#0000ff" stroke-width="2"/>
  
  <line x1="357.0652173913044" y1="294.20952380952383" x2="369.3478260869565" y2="266.38476190476194"
	stroke="#0000ff" stroke-width="2"/>
  
  <line x1="369.3478260869565" y1="266.38476190476194" x2="381.6304347826087" y2="262.32"
	stroke="#0000ff" stroke-width="2"/>
  
  <line x1="381.6304347826087" y1="262.32" x2="393.9130434782609" y2="262.17333333333335"
	stroke="#0000ff" stroke-width="2"/>
  
  <line x1="393.9130434782609" y1="262.17333333333335" x2="406.19565217391306" y2="269.44380952380953"
	stroke="#0000ff" stroke-width="2"/>
  
  <line x1="406.19565217391306" y1="269.44380952380953" x2="418.4782608695652" y2="230.47238095238095"
	stroke="#0000ff" stroke-width="2"/>
  
  <line x1="418.4782608695652" y1="230.47238095238095" x2="430.7608695652174" y2="227.70666666666668"
	stroke="#0000ff" stroke-width="2"/>
  
  <line x1="430.7608695652174" y1="227.70666666666668" x2="443.04347826086956" y2="243.42095238095237"
	stroke="#0000ff" stroke-width="2"/>
  
  <line x1="443.04347826086956" y1="243.42095238095237" x2="455.32608695652175" y2="235.75238095238095"
	stroke="#0000ff" stroke-width="2"/>
  
  <line x1="455.32608695652175" y1="235.75238095238095" x2="467.60869565217394" y2="224.39619047619047"
	stroke="#0000ff" stroke-width="2"/>
  
  <line x1="467.60869565217394" y1="224.39619047619047" x2="479.89130434782606" y2="224.71047619047621"
	stroke="#0000ff" stroke-width="2"/>
  
  <line x1="479.89130434782606" y1="224.71047619047621" x2="492.17391304347825" y2="202.06095238095236"
	stroke="#0000ff" stroke-width="2"/>
  
  <line x1="492.17391304347825" y1="202.06095238095236" x2="504.45652173913044" y2="239.75428571428571"
	stroke="#0000ff" stroke-width="2"/>
  
  <line x1="504.45652173913044" y1="239.75428571428571" x2="516.7391304347826" y2="240.46666666666667"
	stroke="#0000ff" stroke-width="2"/>
  
  <line x1="516.7391304347826" y1="240.46666666666667" x2="529.0217391304348" y2="236.82095238095238"
	stroke="#0000ff" stroke-width="2"/>
  
  <line x1="529.0217391304348" y1="236.82095238095238" x2="541.304347826087" y2="265.1276190476191"
	stroke="#0000ff" stroke-width="2"/>
  
  <line x1="541.304347826087" y1="265.1276190476191" x2="553.5869565217391" y2="296.8914285714286"
	stroke="#0000ff" stroke-width="2"/>
  
  <line x1="553.5869565217391" y1="296.8914285714286" x2="565.8695652173913" y2="304.72761904761904"
	stroke="#0000ff" stroke-width="2"/>
  
  <line x1="565.8695652173913" y1="304.72761904761904" x2="578.1521739130435" y2="334.64761904761906"
	stroke="#0000ff" stroke-width="2"/>
  
  <line x1="578.1521739130435" y1="334.64761904761906" x2="590.4347826086956" y2="341.1219047619048"
	stroke="#0000ff" stroke-width="2"/>
  
  <line x1="590.4347826086956" y1="341.1219047619048" x2="602.7173913043479" y2="344.22285714285715"
	stroke="#0000ff" stroke-width="2"/>
  
  <line x1="602.7173913043479" y1="344.22285714285715" x2="615.0" y2="343.5314285714286"
	stroke="#0000ff" stroke-width="2"/>
  
  <line x1="615.0" y1="343.5314285714286" x2="627.2826086956521" y2="350.1942857142857"
	stroke="#0000ff" stroke-width="2"/>
  
  <line x1="627.2826086956521" y1="350.1942857142857" x2="639.5652173913044" y2="355.53714285714284"
	stroke="#0000ff" stroke-width="2"/>
  
  <line x1="639.5652173913044" y1="355.53714285714284" x2="651.8478260869565" y2="361.3828571428571"
	stroke="#0000ff" stroke-width="2"/>
  
  <line x1="651.8478260869565" y1="361.3828571428571" x2="664.1304347826087" y2="363.6247619047619"
	stroke="#0000ff" stroke-width="2"/>
  
  <line x1="664.1304347826087" y1="363.6247619047619" x2="676.4130434782609" y2="370.76952380952383"
	stroke="#0000ff" stroke-width="2"/>
  
  <line x1="676.4130434782609" y1="370.76952380952383" x2="688.695652173913" y2="371.5028571428571"
	stroke="#0000ff" stroke-width="2"/>
  
  <line x1="688.695652173913" y1="371.5028571428571" x2="700.9782608695652" y2="380.42857142857144"
	stroke="#0000ff" stroke-width="2"/>
  
  <line x1="700.9782608695652" y1="380.42857142857144" x2="713.2608695652174" y2="374.37333333333333"
	stroke="#0000ff" stroke-width="2"/>
  
  <line x1="713.2608695652174" y1="374.37333333333333" x2="725.5434782608695" y2="373.0742857142857"
	stroke="#0000ff" stroke-width="2"/>
  
  <line x1="725.5434782608695" y1="373.0742857142857" x2="737.8260869565217" y2="381.0571428571428"
	stroke="#0000ff" stroke-width="2"/>
  
  <line x1="737.8260869565217" y1="381.0571428571428" x2="750.1086956521739" y2="386.5047619047619"
	stroke="#0000ff" stroke-width="2"/>
  
  <line x1="750.1086956521739" y1="386.5047619047619" x2="762.3913043478261" y2="384.64"
	stroke="#0000ff" stroke-width="2"/>
  
  <line x1="762.3913043478261" y1="384.64" x2="774.6739130434783" y2="381.39238095238096"
	stroke="#0000ff" stroke-width="2"/>
  
  <line x1="774.6739130434783" y1="381.39238095238096" x2="786.9565217391304" y2="372.59238095238095"
	stroke="#0000ff" stroke-width="2"/>
  
  <line x1="786.9565217391304" y1="372.59238095238095" x2="799.2391304347826" y2="379.6114285714286"
	stroke="#0000ff" stroke-width="2"/>
  
  <line x1="799.2391304347826" y1="379.6114285714286" x2="811.5217391304348" y2="383.8857142857143"
	stroke="#0000ff" stroke-width="2"/>
  
  <line x1="811.5217391304348" y1="383.8857142857143" x2="823.804347826087" y2="385.247619047619"
	stroke="#0000ff" stroke-width="2"/>
  
  <line x1="823.804347826087" y1="385.247619047619" x2="836.0869565217391" y2="386.2952380952381"
	stroke="#0000ff" stroke-width="2"/>
  
  <line x1="836.0869565217391" y1="386.2952380952381" x2="848.3695652173913" y2="390.3809523809524"
	stroke="#0000ff" stroke-width="2"/>
  
  <line x1="848.3695652173913" y1="390.3809523809524" x2="860.6521739130435" y2="369.1980952380952"
	stroke="#0000ff" stroke-width="2"/>
  
  <line x1="860.6521739130435" y1="369.1980952380952" x2="872.9347826086956" y2="359.4342857142857"
	stroke="#0000ff" stroke-width="2"/>
  
  <line x1="872.9347826086956" y1="359.4342857142857" x2="885.2173913043479" y2="346.42285714285714"
	stroke="#0000ff" stroke-width="2"/>
  
  <line x1="885.2173913043479" y1="346.42285714285714" x2="897.5" y2="344.4742857142857"
	stroke="#0000ff" stroke-width="2"/>
  
  <line x1="897.5" y1="344.4742857142857" x2="909.7826086956521" y2="340.8914285714286"
	stroke="#0000ff" stroke-width="2"/>
  
  <line x1="909.7826086956521" y1="340.8914285714286" x2="922.0652173913044" y2="341.93904761904764"
	stroke="#0000ff" stroke-width="2"/>
  
  <line x1="922.0652173913044" y1="341.93904761904764" x2="934.3478260869565" y2="339.59238095238095"
	stroke="#0000ff" stroke-width="2"/>
  
  <line x1="934.3478260869565" y1="339.59238095238095" x2="946.6304347826087" y2="356.20761904761906"
	stroke="#0000ff" stroke-width="2"/>
  
  <line x1="946.6304347826087" y1="356.20761904761906" x2="958.9130434782609" y2="369.2819047619048"
	stroke="#0000ff" stroke-width="2"/>
  
  <line x1="958.9130434782609" y1="369.2819047619048" x2="971.195652173913" y2="386.46285714285716"
	stroke="#0000ff" stroke-width="2"/>
  
  <line x1="971.195652173913" y1="386.46285714285716" x2="983.4782608695652" y2="386.33714285714285"
	stroke="#0000ff" stroke-width="2"/>
  
  <line x1="983.4782608695652" y1="386.33714285714285" x2="995.7608695652174" y2="390.54857142857145"
	stroke="#0000ff" stroke-width="2"/>
  
  <line x1="995.7608695652174" y1="390.54857142857145" x2="1008.0434782608695" y2="391.84761904761905"
	stroke="#0000ff" stroke-width="2"/>
  
  <line x1="1008.0434782608695" y1="391.84761904761905" x2="1020.3260869565217" y2="395.6819047619048"
	stroke="#0000ff" stroke-width="2"/>
  
  <line x1="1020.3260869565217" y1="395.6819047619048" x2="1032.608695652174" y2="410.8095238095238"
	stroke="#0000ff" stroke-width="2"/>
  
  <line x1="1032.608695652174" y1="410.8095238095238" x2="1044.891304347826" y2="419.4838095238095"
	stroke="#0000ff" stroke-width="2"/>
  
  <line x1="1044.891304347826" y1="419.4838095238095" x2="1057.1739130434783" y2="407.2895238095238"
	stroke="#0000ff" stroke-width="2"/>
  
  <line x1="1057.1739130434783" y1="407.2895238095238" x2="1069.4565217391305" y2="401.1504761904762"
	stroke="#0000ff" stroke-width="2"/>
  
  <line x1="1069.4565217391305" y1="401.1504761904762" x2="1081.7391304347825" y2="387.76190476190476"
	stroke="#0000ff" stroke-width="2"/>
  
  <line x1="1081.7391304347825" y1="387.76190476190476" x2="1094.0217391304348" y2="373.2419047619048"
	stroke="#0000ff" stroke-width="2"/>
  
  <line x1="1094.0217391304348" y1="373.2419047619048" x2="1106.304347826087" y2="366.09714285714284"
	stroke="#0000ff" stroke-width="2"/>
  
  <line x1="1106.304347826087" y1="366.09714285714284" x2="1118.586956521739" y2="363.1219047619048"
	stroke="#0000ff" stroke-width="2"/>
  
  <line x1="1118.586956521739" y1="363.1219047619048" x2="1130.8695652173913" y2="355.66285714285715"
	stroke="#0000ff" stroke-width="2"/>
  
  <line x1="1130.8695652173913" y1="355.66285714285715" x2="1143.1521739130435" y2="353.21142857142854"
	stroke="#0000ff" stroke-width="2"/>
  
  <line x1="1143.1521739130435" y1="353.21142857142854" x2="1155.4347826086957" y2="348.0152380952381"
	stroke="#0000ff" stroke-width="2"/>
  
  <line x1="1155.4347826086957" y1="348.0152380952381" x2="1167.7173913043478" y2="346.3809523809524"
	stroke="#0000ff" stroke-width="2"/>
  



  
  <line x1="86.84782608695653" y1="470.0" x2="86.84782608695653" y2="30.0"
	stroke="#c0c0c0"/>
   
  
  <line x1="86.84782608695653" y1="470.0" x2="86.84782608695653" y2="30.0"
	stroke="#606060"/>
   
  
  <line x1="123.69565217391305" y1="470.0" x2="123.69565217391305" y2="30.0"
	stroke="#c0c0c0"/>
   
  
  <line x1="160.54347826086956" y1="470.0" x2="160.54347826086956" y2="30.0"
	stroke="#c0c0c0"/>
   
  <text y="490" x="160.54347826086956" text-anchor="middle" font-size="10">2010</text>
  
  
  <line x1="197.3913043478261" y1="470.0" x2="197.3913043478261" y2="30.0"
	stroke="#c0c0c0"/>
   
  
  <line x1="234.2391304347826" y1="470.0" x2="234.2391304347826" y2="30.0"
	stroke="#c0c0c0"/>
   
  
  <line x1="234.2391304347826" y1="470.0" x2="234.2391304347826" y2="30.0"
	stroke="#606060"/>
   
  
  <line x1="271.0869565217391" y1="470.0" x2="271.0869565217391" y2="30.0"
	stroke="#c0c0c0"/>
   
  
  <line x1="307.9347826086956" y1="470.0" x2="307.9347826086956" y2="30.0"
	stroke="#c0c0c0"/>
   
  <text y="490" x="307.9347826086956" text-anchor="middle" font-size="10">2011</text>
  
  
  <line x1="344.7826086956522" y1="470.0" x2="344.7826086956522" y2="30.0"
	stroke="#c0c0c0"/>
   
  
  <line x1="381.6304347826087" y1="470.0" x2="381.6304347826087" y2="30.0"
	stroke="#c0c0c0"/>
   
  
  <line x1="381.6304347826087" y1="470.0" x2="381.6304347826087" y2="30.0"
	stroke="#606060"/>
   
  
  <line x1="418.4782608695652" y1="470.0" x2="418.4782608695652" y2="30.0"
	stroke="#c0c0c0"/>
   
  
  <line x1="455.32608695652175" y1="470.0" x2="455.32608695652175" y2="30.0"
	stroke="#c0c0c0"/>
   
  <text y="490" x="455.32608695652175" text-anchor="middle" font-size="10">2012</text>
  
  
  <line x1="492.17391304347825" y1="470.0" x2="492.17391304347825" y2="30.0"
	stroke="#c0c0c0"/>
   
  
  <line x1="529.0217391304348" y1="470.0" x2="529.0217391304348" y2="30.0"
	stroke="#c0c0c0"/>
   
  
  <line x1="529.0217391304348" y1="470.0" x2="529.0217391304348" y2="30.0"
	stroke="#606060"/>
   
  
  <line x1="565.8695652173913" y1="470.0" x2="565.8695652173913" y2="30.0"
	stroke="#c0c0c0"/>
   
  
  <line x1="602.7173913043479" y1="470.0" x2="602.7173913043479" y2="30.0"
	stroke="#c0c0c0"/>
   
  <text y="490" x="602.7173913043479" text-anchor="middle" font-size="10">2013</text>
  
  
  <line x1="639.5652173913044" y1="470.0" x2="639.5652173913044" y2="30.0"
	stroke="#c0c0c0"/>
   
  
  <line x1="676.4130434782609" y1="470.0" x2="676.4130434782609" y2="30.0"
	stroke="#c0c0c0"/>
   
  
  <line x1="676.4130434782609" y1="470.0" x2="676.4130434782609" y2="30.0"
	stroke="#606060"/>
   
  
  <line x1="713.2608695652174" y1="470.0" x2="713.2608695652174" y2="30.0"
	stroke="#c0c0c0"/>
   
  
  <line x1="750.1086956521739" y1="470.0" x2="750.1086956521739" y2="30.0"
	stroke="#c0c0c0"/>
   
  <text y="490" x="750.1086956521739" text-anchor="middle" font-size="10">2014</text>
  
  
  <line x1="786.9565217391304" y1="470.0" x2="786.9565217391304" y2="30.0"
	stroke="#c0c0c0"/>
   
  
  <line x1="823.804347826087" y1="470.0" x2="823.804347826087" y2="30.0"
	stroke="#c0c0c0"/>
   
  
  <line x1="823.804347826087" y1="470.0" x2="823.804347826087" y2="30.0"
	stroke="#606060"/>
   
  
  <line x1="860.6521739130435" y1="470.0" x2="860.6521739130435" y2="30.0"
	stroke="#c0c0c0"/>
   
  
  <line x1="897.5" y1="470.0" x2="897.5" y2="30.0"
	stroke="#c0c0c0"/>
   
  <text y="490" x="897.5" text-anchor="middle" font-size="10">2015</text>
  
  
  <line x1="934.3478260869565" y1="470.0" x2="934.3478260869565" y2="30.0"
	stroke="#c0c0c0"/>
   
  
  <line x1="971.195652173913" y1="470.0" x2="971.195652173913" y2="30.0"
	stroke="#c0c0c0"/>
   
  
  <line x1="971.195652173913" y1="470.0" x2="971.195652173913" y2="30.0"
	stroke="#606060"/>
   
  
  <line x1="1008.0434782608695" y1="470.0" x2="1008.0434782608695" y2="30.0"
	stroke="#c0c0c0"/>
   
  
  <line x1="1044.891304347826" y1="470.0" x2="1044.891304347826" y2="30.0"
	stroke="#c0c0c0"/>
   
  <text y="490" x="1044.891304347826" text-anchor="middle" font-size="10">2016</text>
  
  
  <line x1="1081.7391304347825" y1="470.0" x2="1081.7391304347825" y2="30.0"
	stroke="#c0c0c0"/>
   
  
  <line x1="1118.586956521739" y1="470.0" x2="1118.586956521739" y2="30.0"
	stroke="#c0c0c0"/>
   
  
  <line x1="1118.586956521739" y1="470.0" x2="1118.586956521739" y2="30.0"
	stroke="#606060"/>
   
  
  <line x1="1155.4347826086957" y1="470.0" x2="1155.4347826086957" y2="30.0"
	stroke="#c0c0c0"/>
   
  
  
  <line y1="426.0" x1="50.0" y2="426.0" x2="1180.0"
	stroke="#c0c0c0"/>
  
  <text x="45" y="426.0" text-anchor="end" font-size="10">300</text>
  
  
  <line y1="382.0" x1="50.0" y2="382.0" x2="1180.0"
	stroke="#c0c0c0"/>
  
  <text x="45" y="382.0" text-anchor="end" font-size="10">600</text>
  
  
  <line y1="338.0" x1="50.0" y2="338.0" x2="1180.0"
	stroke="#c0c0c0"/>
  
  <text x="45" y="338.0" text-anchor="end" font-size="10">900</text>
  
  
  <line y1="294.0" x1="50.0" y2="294.0" x2="1180.0"
	stroke="#c0c0c0"/>
  
  <text x="45" y="294.0" text-anchor="end" font-size="10">1200</text>
  
  
  <line y1="250.0" x1="50.0" y2="250.0" x2="1180.0"
	stroke="#c0c0c0"/>
  
  <text x="45" y="250.0" text-anchor="end" font-size="10">1500</text>
  
  
  <line y1="206.0" x1="50.0" y2="206.0" x2="1180.0"
	stroke="#c0c0c0"/>
  
  <text x="45" y="206.0" text-anchor="end" font-size="10">1800</text>
  
  
  <line y1="162.0" x1="50.0" y2="162.0" x2="1180.0"
	stroke="#c0c0c0"/>
  
  <text x="45" y="162.0" text-anchor="end" font-size="10">2100</text>
  
  
  <line y1="118.0" x1="50.0" y2="118.0" x2="1180.0"
	stroke="#c0c0c0"/>
  
  <text x="45" y="118.0" text-anchor="end" font-size="10">2400</text>
  
  
  <line y1="74.0" x1="50.0" y2="74.0" x2="1180.0"
	stroke="#c0c0c0"/>
  
  <text x="45" y="74.0" text-anchor="end" font-size="10">2700</text>
  
  

</svg>
