<?xml version="1.0" encoding="UTF-8" standalone="no"?>
<!-- Created with Inkscape (http://www.inkscape.org/) -->
<!DOCTYPE svg PUBLIC "-//W3C//DTD SVG 1.1//EN" "http://www.w3.org/Graphics/SVG/1.1/DTD/svg11.dtd"> 

<svg
   xmlns="http://www.w3.org/2000/svg"
   width="1200"
   height="500"
   version="1.1"
   style="enable-background:new">

  <rect x="0" y="0" width="1200" height="500"
	fill="#e0e0e0"/>

  <text x="615.0" y="20.0" text-anchor="middle" font-size="12">Number of posts per month on forum &quot;Officina&quot; (and children)</text>

  <rect x="50" y="30" width="1130" height="440"
	fill="white" stroke="black" stroke-width="2"/>
  
  <rect x="50.61413043478261" y="439.552" width="11.054347826086957" height="30.447999999999997"
	fill="#a090ff"/>
  
  <rect x="62.89673913043478" y="402.504" width="11.054347826086957" height="67.496"
	fill="#a090ff"/>
  
  <rect x="75.17934782608695" y="387.016" width="11.054347826086957" height="82.984"
	fill="#a090ff"/>
  
  <rect x="87.46195652173913" y="387.632" width="11.054347826086957" height="82.368"
	fill="#a090ff"/>
  
  <rect x="99.74456521739131" y="387.808" width="11.054347826086957" height="82.192"
	fill="#a090ff"/>
  
  <rect x="112.02717391304347" y="411.832" width="11.054347826086957" height="58.168"
	fill="#a090ff"/>
  
  <rect x="124.30978260869566" y="400.832" width="11.054347826086957" height="69.16799999999999"
	fill="#a090ff"/>
  
  <rect x="136.5923913043478" y="393.0" width="11.054347826086957" height="77.0"
	fill="#a090ff"/>
  
  <rect x="148.875" y="370.736" width="11.054347826086957" height="99.264"
	fill="#a090ff"/>
  
  <rect x="161.1576086956522" y="348.03200000000004" width="11.054347826086957" height="121.96799999999999"
	fill="#a090ff"/>
  
  <rect x="173.44021739130437" y="391.24" width="11.054347826086957" height="78.75999999999999"
	fill="#a090ff"/>
  
  <rect x="185.72282608695653" y="354.808" width="11.054347826086957" height="115.192"
	fill="#a090ff"/>
  
  <rect x="198.00543478260872" y="318.20000000000005" width="11.054347826086957" height="151.79999999999998"
	fill="#a090ff"/>
  
  <rect x="210.28804347826087" y="338.528" width="11.054347826086957" height="131.47199999999998"
	fill="#a090ff"/>
  
  <rect x="222.57065217391306" y="357.88800000000003" width="11.054347826086957" height="112.112"
	fill="#a090ff"/>
  
  <rect x="234.85326086956522" y="309.84000000000003" width="11.054347826086957" height="160.16"
	fill="#a090ff"/>
  
  <rect x="247.1358695652174" y="346.536" width="11.054347826086957" height="123.464"
	fill="#a090ff"/>
  
  <rect x="259.41847826086956" y="350.05600000000004" width="11.054347826086957" height="119.94399999999999"
	fill="#a090ff"/>
  
  <rect x="271.70108695652175" y="354.192" width="11.054347826086957" height="115.80799999999999"
	fill="#a090ff"/>
  
  <rect x="283.9836956521739" y="362.81600000000003" width="11.054347826086957" height="107.184"
	fill="#a090ff"/>
  
  <rect x="296.2663043478261" y="361.496" width="11.054347826086957" height="108.50399999999999"
	fill="#a090ff"/>
  
  <rect x="308.54891304347825" y="367.216" width="11.054347826086957" height="102.78399999999999"
	fill="#a090ff"/>
  
  <rect x="320.83152173913044" y="348.03200000000004" width="11.054347826086957" height="121.96799999999999"
	fill="#a090ff"/>
  
  <rect x="333.1141304347826" y="366.6" width="11.054347826086957" height="103.39999999999999"
	fill="#a090ff"/>
  
  <rect x="345.3967391304348" y="368.36" width="11.054347826086957" height="101.64"
	fill="#a090ff"/>
  
  <rect x="357.67934782608694" y="388.248" width="11.054347826086957" height="81.752"
	fill="#a090ff"/>
  
  <rect x="369.9619565217391" y="376.368" width="11.054347826086957" height="93.63199999999999"
	fill="#a090ff"/>
  
  <rect x="382.2445652173913" y="374.872" width="11.054347826086957" height="95.128"
	fill="#a090ff"/>
  
  <rect x="394.5271739130435" y="328.76" width="11.054347826086957" height="141.23999999999998"
	fill="#a090ff"/>
  
  <rect x="406.8097826086957" y="301.832" width="11.054347826086957" height="168.16799999999998"
	fill="#a090ff"/>
  
  <rect x="419.0923913043478" y="259.24" width="11.054347826086957" height="210.76"
	fill="#a090ff"/>
  
  <rect x="431.375" y="358.504" width="11.054347826086957" height="111.496"
	fill="#a090ff"/>
  
  <rect x="443.65760869565213" y="365.016" width="11.054347826086957" height="104.984"
	fill="#a090ff"/>
  
  <rect x="455.9402173913043" y="351.112" width="11.054347826086957" height="118.88799999999999"
	fill="#a090ff"/>
  
  <rect x="468.2228260869565" y="403.91200000000003" width="11.054347826086957" height="66.088"
	fill="#a090ff"/>
  
  <rect x="480.50543478260863" y="307.024" width="11.054347826086957" height="162.976"
	fill="#a090ff"/>
  
  <rect x="492.7880434782608" y="276.312" width="11.054347826086957" height="193.688"
	fill="#a090ff"/>
  
  <rect x="505.070652173913" y="300.24800000000005" width="11.054347826086957" height="169.75199999999998"
	fill="#a090ff"/>
  
  <rect x="517.3532608695652" y="314.68" width="11.054347826086957" height="155.32"
	fill="#a090ff"/>
  
  <rect x="529.6358695652174" y="338.0" width="11.054347826086957" height="132.0"
	fill="#a090ff"/>
  
  <rect x="541.9184782608695" y="312.04" width="11.054347826086957" height="157.95999999999998"
	fill="#a090ff"/>
  
  <rect x="554.2010869565217" y="309.576" width="11.054347826086957" height="160.42399999999998"
	fill="#a090ff"/>
  
  <rect x="566.4836956521739" y="391.328" width="11.054347826086957" height="78.672"
	fill="#a090ff"/>
  
  <rect x="578.766304347826" y="391.76800000000003" width="11.054347826086957" height="78.232"
	fill="#a090ff"/>
  
  <rect x="591.0489130434783" y="363.52" width="11.054347826086957" height="106.47999999999999"
	fill="#a090ff"/>
  
  <rect x="603.3315217391304" y="318.81600000000003" width="11.054347826086957" height="151.184"
	fill="#a090ff"/>
  
  <rect x="615.6141304347826" y="360.088" width="11.054347826086957" height="109.91199999999999"
	fill="#a090ff"/>
  
  <rect x="627.8967391304348" y="359.384" width="11.054347826086957" height="110.616"
	fill="#a090ff"/>
  
  <rect x="640.1793478260869" y="318.288" width="11.054347826086957" height="151.712"
	fill="#a090ff"/>
  
  <rect x="652.4619565217391" y="323.216" width="11.054347826086957" height="146.784"
	fill="#a090ff"/>
  
  <rect x="664.7445652173913" y="344.512" width="11.054347826086957" height="125.488"
	fill="#a090ff"/>
  
  <rect x="677.0271739130434" y="384.81600000000003" width="11.054347826086957" height="85.184"
	fill="#a090ff"/>
  
  <rect x="689.3097826086956" y="328.496" width="11.054347826086957" height="141.504"
	fill="#a090ff"/>
  
  <rect x="701.5923913043478" y="316.528" width="11.054347826086957" height="153.47199999999998"
	fill="#a090ff"/>
  
  <rect x="713.875" y="381.56" width="11.054347826086957" height="88.44"
	fill="#a090ff"/>
  
  <rect x="726.1576086956521" y="335.712" width="11.054347826086957" height="134.28799999999998"
	fill="#a090ff"/>
  
  <rect x="738.4402173913043" y="304.20799999999997" width="11.054347826086957" height="165.792"
	fill="#a090ff"/>
  
  <rect x="750.7228260869565" y="323.392" width="11.054347826086957" height="146.608"
	fill="#a090ff"/>
  
  <rect x="763.0054347826086" y="275.168" width="11.054347826086957" height="194.832"
	fill="#a090ff"/>
  
  <rect x="775.2880434782609" y="309.576" width="11.054347826086957" height="160.42399999999998"
	fill="#a090ff"/>
  
  <rect x="787.570652173913" y="247.976" width="11.054347826086957" height="222.024"
	fill="#a090ff"/>
  
  <rect x="799.8532608695651" y="237.768" width="11.054347826086957" height="232.232"
	fill="#a090ff"/>
  
  <rect x="812.1358695652174" y="256.24800000000005" width="11.054347826086957" height="213.75199999999998"
	fill="#a090ff"/>
  
  <rect x="824.4184782608695" y="263.112" width="11.054347826086957" height="206.88799999999998"
	fill="#a090ff"/>
  
  <rect x="836.7010869565217" y="306.848" width="11.054347826086957" height="163.152"
	fill="#a090ff"/>
  
  <rect x="848.9836956521739" y="301.304" width="11.054347826086957" height="168.696"
	fill="#a090ff"/>
  
  <rect x="861.266304347826" y="322.336" width="11.054347826086957" height="147.664"
	fill="#a090ff"/>
  
  <rect x="873.5489130434783" y="308.256" width="11.054347826086957" height="161.744"
	fill="#a090ff"/>
  
  <rect x="885.8315217391304" y="310.544" width="11.054347826086957" height="159.456"
	fill="#a090ff"/>
  
  <rect x="898.1141304347826" y="358.504" width="11.054347826086957" height="111.496"
	fill="#a090ff"/>
  
  <rect x="910.3967391304348" y="274.728" width="11.054347826086957" height="195.272"
	fill="#a090ff"/>
  
  <rect x="922.6793478260869" y="296.024" width="11.054347826086957" height="173.976"
	fill="#a090ff"/>
  
  <rect x="934.9619565217391" y="314.504" width="11.054347826086957" height="155.49599999999998"
	fill="#a090ff"/>
  
  <rect x="947.2445652173913" y="290.304" width="11.054347826086957" height="179.696"
	fill="#a090ff"/>
  
  <rect x="959.5271739130434" y="283.0" width="11.054347826086957" height="187.0"
	fill="#a090ff"/>
  
  <rect x="971.8097826086956" y="271.648" width="11.054347826086957" height="198.35199999999998"
	fill="#a090ff"/>
  
  <rect x="984.0923913043478" y="255.28" width="11.054347826086957" height="214.72"
	fill="#a090ff"/>
  
  <rect x="996.375" y="298.664" width="11.054347826086957" height="171.33599999999998"
	fill="#a090ff"/>
  
  <rect x="1008.6576086956521" y="273.408" width="11.054347826086957" height="196.59199999999998"
	fill="#a090ff"/>
  
  <rect x="1020.9402173913043" y="261.88" width="11.054347826086957" height="208.11999999999998"
	fill="#a090ff"/>
  
  <rect x="1033.2228260869565" y="285.64" width="11.054347826086957" height="184.35999999999999"
	fill="#a090ff"/>
  
  <rect x="1045.5054347826085" y="288.72" width="11.054347826086957" height="181.28"
	fill="#a090ff"/>
  
  <rect x="1057.788043478261" y="317.408" width="11.054347826086957" height="152.59199999999998"
	fill="#a090ff"/>
  
  <rect x="1070.070652173913" y="333.688" width="11.054347826086957" height="136.31199999999998"
	fill="#a090ff"/>
  
  <rect x="1082.3532608695652" y="261.79200000000003" width="11.054347826086957" height="208.208"
	fill="#a090ff"/>
  
  <rect x="1094.6358695652173" y="205.296" width="11.054347826086957" height="264.704"
	fill="#a090ff"/>
  
  <rect x="1106.9184782608695" y="293.03200000000004" width="11.054347826086957" height="176.968"
	fill="#a090ff"/>
  
  <rect x="1119.2010869565217" y="244.89600000000002" width="11.054347826086957" height="225.10399999999998"
	fill="#a090ff"/>
  
  <rect x="1131.4836956521738" y="291.00800000000004" width="11.054347826086957" height="178.992"
	fill="#a090ff"/>
  
  <rect x="1143.766304347826" y="176.168" width="11.054347826086957" height="293.832"
	fill="#a090ff"/>
  
  <rect x="1156.0489130434783" y="241.20000000000002" width="11.054347826086957" height="228.79999999999998"
	fill="#a090ff"/>
  
  <rect x="1168.3315217391305" y="60.888000000000034" width="11.054347826086957" height="409.11199999999997"
	fill="#a090ff"/>
  
  
  <line x1="50.0" y1="432.3862857142857" x2="62.28260869565217" y2="420.64457142857145"
	stroke="#0000ff" stroke-width="2"/>
  
  <line x1="62.28260869565217" y1="420.64457142857145" x2="74.56521739130434" y2="412.3348571428571"
	stroke="#0000ff" stroke-width="2"/>
  
  <line x1="74.56521739130434" y1="412.3348571428571" x2="86.84782608695653" y2="402.4537142857143"
	stroke="#0000ff" stroke-width="2"/>
  
  <line x1="86.84782608695653" y1="402.4537142857143" x2="99.13043478260869" y2="395.8034285714286"
	stroke="#0000ff" stroke-width="2"/>
  
  <line x1="99.13043478260869" y1="395.8034285714286" x2="111.41304347826087" y2="391.26514285714285"
	stroke="#0000ff" stroke-width="2"/>
  
  <line x1="111.41304347826087" y1="391.26514285714285" x2="123.69565217391305" y2="385.696"
	stroke="#0000ff" stroke-width="2"/>
  
  <line x1="123.69565217391305" y1="385.696" x2="135.97826086956522" y2="386.2114285714286"
	stroke="#0000ff" stroke-width="2"/>
  
  <line x1="135.97826086956522" y1="386.2114285714286" x2="148.26086956521738" y2="381.4971428571429"
	stroke="#0000ff" stroke-width="2"/>
  
  <line x1="148.26086956521738" y1="381.4971428571429" x2="160.54347826086956" y2="368.12114285714284"
	stroke="#0000ff" stroke-width="2"/>
  
  <line x1="160.54347826086956" y1="368.12114285714284" x2="172.82608695652175" y2="359.2205714285714"
	stroke="#0000ff" stroke-width="2"/>
  
  <line x1="172.82608695652175" y1="359.2205714285714" x2="185.1086956521739" y2="354.2045714285714"
	stroke="#0000ff" stroke-width="2"/>
  
  <line x1="185.1086956521739" y1="354.2045714285714" x2="197.3913043478261" y2="345.50514285714286"
	stroke="#0000ff" stroke-width="2"/>
  
  <line x1="197.3913043478261" y1="345.50514285714286" x2="209.67391304347825" y2="345.2914285714286"
	stroke="#0000ff" stroke-width="2"/>
  
  <line x1="209.67391304347825" y1="345.2914285714286" x2="221.95652173913044" y2="339.408"
	stroke="#0000ff" stroke-width="2"/>
  
  <line x1="221.95652173913044" y1="339.408" x2="234.2391304347826" y2="339.32000000000005"
	stroke="#0000ff" stroke-width="2"/>
  
  <line x1="234.2391304347826" y1="339.32000000000005" x2="246.52173913043478" y2="345.6937142857143"
	stroke="#0000ff" stroke-width="2"/>
  
  <line x1="246.52173913043478" y1="345.6937142857143" x2="258.804347826087" y2="348.97485714285716"
	stroke="#0000ff" stroke-width="2"/>
  
  <line x1="258.804347826087" y1="348.97485714285716" x2="271.0869565217391" y2="350.3074285714286"
	stroke="#0000ff" stroke-width="2"/>
  
  <line x1="271.0869565217391" y1="350.3074285714286" x2="283.3695652173913" y2="355.76342857142856"
	stroke="#0000ff" stroke-width="2"/>
  
  <line x1="283.3695652173913" y1="355.76342857142856" x2="295.6521739130435" y2="358.6297142857143"
	stroke="#0000ff" stroke-width="2"/>
  
  <line x1="295.6521739130435" y1="358.6297142857143" x2="307.9347826086956" y2="361.2445714285714"
	stroke="#0000ff" stroke-width="2"/>
  
  <line x1="307.9347826086956" y1="361.2445714285714" x2="320.2173913043478" y2="366.1097142857143"
	stroke="#0000ff" stroke-width="2"/>
  
  <line x1="320.2173913043478" y1="366.1097142857143" x2="332.5" y2="368.04571428571427"
	stroke="#0000ff" stroke-width="2"/>
  
  <line x1="332.5" y1="368.04571428571427" x2="344.7826086956522" y2="369.95657142857146"
	stroke="#0000ff" stroke-width="2"/>
  
  <line x1="344.7826086956522" y1="369.95657142857146" x2="357.0652173913044" y2="364.46285714285716"
	stroke="#0000ff" stroke-width="2"/>
  
  <line x1="357.0652173913044" y1="364.46285714285716" x2="369.3478260869565" y2="357.86285714285714"
	stroke="#0000ff" stroke-width="2"/>
  
  <line x1="369.3478260869565" y1="357.86285714285714" x2="381.6304347826087" y2="342.5257142857143"
	stroke="#0000ff" stroke-width="2"/>
  
  <line x1="381.6304347826087" y1="342.5257142857143" x2="393.9130434782609" y2="341.11771428571427"
	stroke="#0000ff" stroke-width="2"/>
  
  <line x1="393.9130434782609" y1="341.11771428571427" x2="406.19565217391306" y2="337.7988571428572"
	stroke="#0000ff" stroke-width="2"/>
  
  <line x1="406.19565217391306" y1="337.7988571428572" x2="418.4782608695652" y2="334.19085714285717"
	stroke="#0000ff" stroke-width="2"/>
  
  <line x1="418.4782608695652" y1="334.19085714285717" x2="430.7608695652174" y2="338.3394285714286"
	stroke="#0000ff" stroke-width="2"/>
  
  <line x1="430.7608695652174" y1="338.3394285714286" x2="443.04347826086956" y2="335.23428571428576"
	stroke="#0000ff" stroke-width="2"/>
  
  <line x1="443.04347826086956" y1="335.23428571428576" x2="455.32608695652175" y2="331.5885714285714"
	stroke="#0000ff" stroke-width="2"/>
  
  <line x1="455.32608695652175" y1="331.5885714285714" x2="467.60869565217394" y2="337.4468571428572"
	stroke="#0000ff" stroke-width="2"/>
  
  <line x1="467.60869565217394" y1="337.4468571428572" x2="479.89130434782606" y2="331.18628571428576"
	stroke="#0000ff" stroke-width="2"/>
  
  <line x1="479.89130434782606" y1="331.18628571428576" x2="492.17391304347825" y2="327.3268571428572"
	stroke="#0000ff" stroke-width="2"/>
  
  <line x1="492.17391304347825" y1="327.3268571428572" x2="504.45652173913044" y2="321.74514285714287"
	stroke="#0000ff" stroke-width="2"/>
  
  <line x1="504.45652173913044" y1="321.74514285714287" x2="516.7391304347826" y2="308.2685714285715"
	stroke="#0000ff" stroke-width="2"/>
  
  <line x1="516.7391304347826" y1="308.2685714285715" x2="529.0217391304348" y2="320.312"
	stroke="#0000ff" stroke-width="2"/>
  
  <line x1="529.0217391304348" y1="320.312" x2="541.304347826087" y2="336.8057142857143"
	stroke="#0000ff" stroke-width="2"/>
  
  <line x1="541.304347826087" y1="336.8057142857143" x2="553.5869565217391" y2="345.84457142857144"
	stroke="#0000ff" stroke-width="2"/>
  
  <line x1="553.5869565217391" y1="345.84457142857144" x2="565.8695652173913" y2="346.4354285714286"
	stroke="#0000ff" stroke-width="2"/>
  
  <line x1="565.8695652173913" y1="346.4354285714286" x2="578.1521739130435" y2="349.59085714285715"
	stroke="#0000ff" stroke-width="2"/>
  
  <line x1="578.1521739130435" y1="349.59085714285715" x2="590.4347826086956" y2="356.3542857142857"
	stroke="#0000ff" stroke-width="2"/>
  
  <line x1="590.4347826086956" y1="356.3542857142857" x2="602.7173913043479" y2="357.5988571428571"
	stroke="#0000ff" stroke-width="2"/>
  
  <line x1="602.7173913043479" y1="357.5988571428571" x2="615.0" y2="347.86857142857144"
	stroke="#0000ff" stroke-width="2"/>
  
  <line x1="615.0" y1="347.86857142857144" x2="627.2826086956521" y2="341.11771428571427"
	stroke="#0000ff" stroke-width="2"/>
  
  <line x1="627.2826086956521" y1="341.11771428571427" x2="639.5652173913044" y2="344.16"
	stroke="#0000ff" stroke-width="2"/>
  
  <line x1="639.5652173913044" y1="344.16" x2="651.8478260869565" y2="345.54285714285714"
	stroke="#0000ff" stroke-width="2"/>
  
  <line x1="651.8478260869565" y1="345.54285714285714" x2="664.1304347826087" y2="339.32000000000005"
	stroke="#0000ff" stroke-width="2"/>
  
  <line x1="664.1304347826087" y1="339.32000000000005" x2="676.4130434782609" y2="342.488"
	stroke="#0000ff" stroke-width="2"/>
  
  <line x1="676.4130434782609" y1="342.488" x2="688.695652173913" y2="344.9771428571429"
	stroke="#0000ff" stroke-width="2"/>
  
  <line x1="688.695652173913" y1="344.9771428571429" x2="700.9782608695652" y2="342.2617142857143"
	stroke="#0000ff" stroke-width="2"/>
  
  <line x1="700.9782608695652" y1="342.2617142857143" x2="713.2608695652174" y2="339.2445714285715"
	stroke="#0000ff" stroke-width="2"/>
  
  <line x1="713.2608695652174" y1="339.2445714285715" x2="725.5434782608695" y2="323.58057142857143"
	stroke="#0000ff" stroke-width="2"/>
  
  <line x1="725.5434782608695" y1="323.58057142857143" x2="737.8260869565217" y2="320.8777142857143"
	stroke="#0000ff" stroke-width="2"/>
  
  <line x1="737.8260869565217" y1="320.8777142857143" x2="750.1086956521739" y2="311.0845714285714"
	stroke="#0000ff" stroke-width="2"/>
  
  <line x1="750.1086956521739" y1="311.0845714285714" x2="762.3913043478261" y2="290.5428571428572"
	stroke="#0000ff" stroke-width="2"/>
  
  <line x1="762.3913043478261" y1="290.5428571428572" x2="774.6739130434783" y2="279.19085714285717"
	stroke="#0000ff" stroke-width="2"/>
  
  <line x1="774.6739130434783" y1="279.19085714285717" x2="786.9565217391304" y2="273.32000000000005"
	stroke="#0000ff" stroke-width="2"/>
  
  <line x1="786.9565217391304" y1="273.32000000000005" x2="799.2391304347826" y2="270.95657142857146"
	stroke="#0000ff" stroke-width="2"/>
  
  <line x1="799.2391304347826" y1="270.95657142857146" x2="811.5217391304348" y2="274.6902857142857"
	stroke="#0000ff" stroke-width="2"/>
  
  <line x1="811.5217391304348" y1="274.6902857142857" x2="823.804347826087" y2="276.51314285714284"
	stroke="#0000ff" stroke-width="2"/>
  
  <line x1="823.804347826087" y1="276.51314285714284" x2="836.0869565217391" y2="285.12457142857147"
	stroke="#0000ff" stroke-width="2"/>
  
  <line x1="836.0869565217391" y1="285.12457142857147" x2="848.3695652173913" y2="295.5211428571429"
	stroke="#0000ff" stroke-width="2"/>
  
  <line x1="848.3695652173913" y1="295.5211428571429" x2="860.6521739130435" y2="310.1291428571428"
	stroke="#0000ff" stroke-width="2"/>
  
  <line x1="860.6521739130435" y1="310.1291428571428" x2="872.9347826086956" y2="311.78857142857146"
	stroke="#0000ff" stroke-width="2"/>
  
  <line x1="872.9347826086956" y1="311.78857142857146" x2="885.2173913043479" y2="310.24228571428574"
	stroke="#0000ff" stroke-width="2"/>
  
  <line x1="885.2173913043479" y1="310.24228571428574" x2="897.5" y2="312.12800000000004"
	stroke="#0000ff" stroke-width="2"/>
  
  <line x1="897.5" y1="312.12800000000004" x2="909.7826086956521" y2="307.552"
	stroke="#0000ff" stroke-width="2"/>
  
  <line x1="909.7826086956521" y1="307.552" x2="922.0652173913044" y2="303.944"
	stroke="#0000ff" stroke-width="2"/>
  
  <line x1="922.0652173913044" y1="303.944" x2="934.3478260869565" y2="298.3874285714286"
	stroke="#0000ff" stroke-width="2"/>
  
  <line x1="934.3478260869565" y1="298.3874285714286" x2="946.6304347826087" y2="283.6411428571429"
	stroke="#0000ff" stroke-width="2"/>
  
  <line x1="946.6304347826087" y1="283.6411428571429" x2="958.9130434782609" y2="287.06057142857145"
	stroke="#0000ff" stroke-width="2"/>
  
  <line x1="958.9130434782609" y1="287.06057142857145" x2="971.195652173913" y2="283.8297142857143"
	stroke="#0000ff" stroke-width="2"/>
  
  <line x1="971.195652173913" y1="283.8297142857143" x2="983.4782608695652" y2="276.312"
	stroke="#0000ff" stroke-width="2"/>
  
  <line x1="983.4782608695652" y1="276.312" x2="995.7608695652174" y2="275.64571428571435"
	stroke="#0000ff" stroke-width="2"/>
  
  <line x1="995.7608695652174" y1="275.64571428571435" x2="1008.0434782608695" y2="276.46285714285716"
	stroke="#0000ff" stroke-width="2"/>
  
  <line x1="1008.0434782608695" y1="276.46285714285716" x2="1020.3260869565217" y2="283.0"
	stroke="#0000ff" stroke-width="2"/>
  
  <line x1="1020.3260869565217" y1="283.0" x2="1032.608695652174" y2="294.2011428571428"
	stroke="#0000ff" stroke-width="2"/>
  
  <line x1="1032.608695652174" y1="294.2011428571428" x2="1044.891304347826" y2="288.9337142857143"
	stroke="#0000ff" stroke-width="2"/>
  
  <line x1="1044.891304347826" y1="288.9337142857143" x2="1057.1739130434783" y2="279.20342857142856"
	stroke="#0000ff" stroke-width="2"/>
  
  <line x1="1057.1739130434783" y1="279.20342857142856" x2="1069.4565217391305" y2="283.6537142857143"
	stroke="#0000ff" stroke-width="2"/>
  
  <line x1="1069.4565217391305" y1="283.6537142857143" x2="1081.7391304347825" y2="277.8331428571429"
	stroke="#0000ff" stroke-width="2"/>
  
  <line x1="1081.7391304347825" y1="277.8331428571429" x2="1094.0217391304348" y2="278.16"
	stroke="#0000ff" stroke-width="2"/>
  
  <line x1="1094.0217391304348" y1="278.16" x2="1106.304347826087" y2="257.98285714285714"
	stroke="#0000ff" stroke-width="2"/>
  
  <line x1="1106.304347826087" y1="257.98285714285714" x2="1118.586956521739" y2="244.7702857142857"
	stroke="#0000ff" stroke-width="2"/>
  
  <line x1="1118.586956521739" y1="244.7702857142857" x2="1130.8695652173913" y2="216.0697142857143"
	stroke="#0000ff" stroke-width="2"/>
  
  <line x1="1130.8695652173913" y1="216.0697142857143" x2="1143.1521739130435" y2="195.44"
	stroke="#0000ff" stroke-width="2"/>
  
  <line x1="1143.1521739130435" y1="195.44" x2="1155.4347826086957" y2="162.27657142857146"
	stroke="#0000ff" stroke-width="2"/>
  
  <line x1="1155.4347826086957" y1="162.27657142857146" x2="1167.7173913043478" y2="135.98971428571434"
	stroke="#0000ff" stroke-width="2"/>
  



  
  <line x1="86.84782608695653" y1="470.0" x2="86.84782608695653" y2="30.0"
	stroke="#c0c0c0"/>
   
  
  <line x1="86.84782608695653" y1="470.0" x2="86.84782608695653" y2="30.0"
	stroke="#606060"/>
   
  
  <line x1="123.69565217391305" y1="470.0" x2="123.69565217391305" y2="30.0"
	stroke="#c0c0c0"/>
   
  
  <line x1="160.54347826086956" y1="470.0" x2="160.54347826086956" y2="30.0"
	stroke="#c0c0c0"/>
   
  <text y="490" x="160.54347826086956" text-anchor="middle" font-size="10">2010</text>
  
  
  <line x1="197.3913043478261" y1="470.0" x2="197.3913043478261" y2="30.0"
	stroke="#c0c0c0"/>
   
  
  <line x1="234.2391304347826" y1="470.0" x2="234.2391304347826" y2="30.0"
	stroke="#c0c0c0"/>
   
  
  <line x1="234.2391304347826" y1="470.0" x2="234.2391304347826" y2="30.0"
	stroke="#606060"/>
   
  
  <line x1="271.0869565217391" y1="470.0" x2="271.0869565217391" y2="30.0"
	stroke="#c0c0c0"/>
   
  
  <line x1="307.9347826086956" y1="470.0" x2="307.9347826086956" y2="30.0"
	stroke="#c0c0c0"/>
   
  <text y="490" x="307.9347826086956" text-anchor="middle" font-size="10">2011</text>
  
  
  <line x1="344.7826086956522" y1="470.0" x2="344.7826086956522" y2="30.0"
	stroke="#c0c0c0"/>
   
  
  <line x1="381.6304347826087" y1="470.0" x2="381.6304347826087" y2="30.0"
	stroke="#c0c0c0"/>
   
  
  <line x1="381.6304347826087" y1="470.0" x2="381.6304347826087" y2="30.0"
	stroke="#606060"/>
   
  
  <line x1="418.4782608695652" y1="470.0" x2="418.4782608695652" y2="30.0"
	stroke="#c0c0c0"/>
   
  
  <line x1="455.32608695652175" y1="470.0" x2="455.32608695652175" y2="30.0"
	stroke="#c0c0c0"/>
   
  <text y="490" x="455.32608695652175" text-anchor="middle" font-size="10">2012</text>
  
  
  <line x1="492.17391304347825" y1="470.0" x2="492.17391304347825" y2="30.0"
	stroke="#c0c0c0"/>
   
  
  <line x1="529.0217391304348" y1="470.0" x2="529.0217391304348" y2="30.0"
	stroke="#c0c0c0"/>
   
  
  <line x1="529.0217391304348" y1="470.0" x2="529.0217391304348" y2="30.0"
	stroke="#606060"/>
   
  
  <line x1="565.8695652173913" y1="470.0" x2="565.8695652173913" y2="30.0"
	stroke="#c0c0c0"/>
   
  
  <line x1="602.7173913043479" y1="470.0" x2="602.7173913043479" y2="30.0"
	stroke="#c0c0c0"/>
   
  <text y="490" x="602.7173913043479" text-anchor="middle" font-size="10">2013</text>
  
  
  <line x1="639.5652173913044" y1="470.0" x2="639.5652173913044" y2="30.0"
	stroke="#c0c0c0"/>
   
  
  <line x1="676.4130434782609" y1="470.0" x2="676.4130434782609" y2="30.0"
	stroke="#c0c0c0"/>
   
  
  <line x1="676.4130434782609" y1="470.0" x2="676.4130434782609" y2="30.0"
	stroke="#606060"/>
   
  
  <line x1="713.2608695652174" y1="470.0" x2="713.2608695652174" y2="30.0"
	stroke="#c0c0c0"/>
   
  
  <line x1="750.1086956521739" y1="470.0" x2="750.1086956521739" y2="30.0"
	stroke="#c0c0c0"/>
   
  <text y="490" x="750.1086956521739" text-anchor="middle" font-size="10">2014</text>
  
  
  <line x1="786.9565217391304" y1="470.0" x2="786.9565217391304" y2="30.0"
	stroke="#c0c0c0"/>
   
  
  <line x1="823.804347826087" y1="470.0" x2="823.804347826087" y2="30.0"
	stroke="#c0c0c0"/>
   
  
  <line x1="823.804347826087" y1="470.0" x2="823.804347826087" y2="30.0"
	stroke="#606060"/>
   
  
  <line x1="860.6521739130435" y1="470.0" x2="860.6521739130435" y2="30.0"
	stroke="#c0c0c0"/>
   
  
  <line x1="897.5" y1="470.0" x2="897.5" y2="30.0"
	stroke="#c0c0c0"/>
   
  <text y="490" x="897.5" text-anchor="middle" font-size="10">2015</text>
  
  
  <line x1="934.3478260869565" y1="470.0" x2="934.3478260869565" y2="30.0"
	stroke="#c0c0c0"/>
   
  
  <line x1="971.195652173913" y1="470.0" x2="971.195652173913" y2="30.0"
	stroke="#c0c0c0"/>
   
  
  <line x1="971.195652173913" y1="470.0" x2="971.195652173913" y2="30.0"
	stroke="#606060"/>
   
  
  <line x1="1008.0434782608695" y1="470.0" x2="1008.0434782608695" y2="30.0"
	stroke="#c0c0c0"/>
   
  
  <line x1="1044.891304347826" y1="470.0" x2="1044.891304347826" y2="30.0"
	stroke="#c0c0c0"/>
   
  <text y="490" x="1044.891304347826" text-anchor="middle" font-size="10">2016</text>
  
  
  <line x1="1081.7391304347825" y1="470.0" x2="1081.7391304347825" y2="30.0"
	stroke="#c0c0c0"/>
   
  
  <line x1="1118.586956521739" y1="470.0" x2="1118.586956521739" y2="30.0"
	stroke="#c0c0c0"/>
   
  
  <line x1="1118.586956521739" y1="470.0" x2="1118.586956521739" y2="30.0"
	stroke="#606060"/>
   
  
  <line x1="1155.4347826086957" y1="470.0" x2="1155.4347826086957" y2="30.0"
	stroke="#c0c0c0"/>
   
  
  
  <line y1="426.0" x1="50.0" y2="426.0" x2="1180.0"
	stroke="#c0c0c0"/>
  
  <text x="45" y="426.0" text-anchor="end" font-size="10">500</text>
  
  
  <line y1="382.0" x1="50.0" y2="382.0" x2="1180.0"
	stroke="#c0c0c0"/>
  
  <text x="45" y="382.0" text-anchor="end" font-size="10">1000</text>
  
  
  <line y1="338.0" x1="50.0" y2="338.0" x2="1180.0"
	stroke="#c0c0c0"/>
  
  <text x="45" y="338.0" text-anchor="end" font-size="10">1500</text>
  
  
  <line y1="294.0" x1="50.0" y2="294.0" x2="1180.0"
	stroke="#c0c0c0"/>
  
  <text x="45" y="294.0" text-anchor="end" font-size="10">2000</text>
  
  
  <line y1="250.0" x1="50.0" y2="250.0" x2="1180.0"
	stroke="#c0c0c0"/>
  
  <text x="45" y="250.0" text-anchor="end" font-size="10">2500</text>
  
  
  <line y1="206.0" x1="50.0" y2="206.0" x2="1180.0"
	stroke="#c0c0c0"/>
  
  <text x="45" y="206.0" text-anchor="end" font-size="10">3000</text>
  
  
  <line y1="162.0" x1="50.0" y2="162.0" x2="1180.0"
	stroke="#c0c0c0"/>
  
  <text x="45" y="162.0" text-anchor="end" font-size="10">3500</text>
  
  
  <line y1="118.0" x1="50.0" y2="118.0" x2="1180.0"
	stroke="#c0c0c0"/>
  
  <text x="45" y="118.0" text-anchor="end" font-size="10">4000</text>
  
  
  <line y1="74.0" x1="50.0" y2="74.0" x2="1180.0"
	stroke="#c0c0c0"/>
  
  <text x="45" y="74.0" text-anchor="end" font-size="10">4500</text>
  
  

</svg>
