<?xml version="1.0" encoding="UTF-8" standalone="no"?>
<!-- Created with Inkscape (http://www.inkscape.org/) -->
<!DOCTYPE svg PUBLIC "-//W3C//DTD SVG 1.1//EN" "http://www.w3.org/Graphics/SVG/1.1/DTD/svg11.dtd"> 

<svg
   xmlns="http://www.w3.org/2000/svg"
   width="1200"
   height="500"
   version="1.1"
   style="enable-background:new">

  <rect x="0" y="0" width="1200" height="500"
	fill="#e0e0e0"/>

  <text x="615.0" y="20.0" text-anchor="middle" font-size="12">Number of storie per month</text>

  <rect x="50" y="30" width="1130" height="440"
	fill="white" stroke="black" stroke-width="2"/>
  
  <rect x="53.766666666666666" y="118.0" width="67.8" height="352.0"
	fill="#a090ff"/>
  
  <rect x="129.1" y="123.5" width="67.8" height="346.5"
	fill="#a090ff"/>
  
  <rect x="204.4333333333333" y="112.5" width="67.8" height="357.5"
	fill="#a090ff"/>
  
  <rect x="279.76666666666665" y="173.0" width="67.8" height="297.0"
	fill="#a090ff"/>
  
  <rect x="355.09999999999997" y="178.5" width="67.8" height="291.5"
	fill="#a090ff"/>
  
  <rect x="430.4333333333333" y="140.0" width="67.8" height="330.0"
	fill="#a090ff"/>
  
  <rect x="505.76666666666665" y="118.0" width="67.8" height="352.0"
	fill="#a090ff"/>
  
  <rect x="581.0999999999999" y="46.5" width="67.8" height="423.5"
	fill="#a090ff"/>
  
  <rect x="656.4333333333334" y="255.5" width="67.8" height="214.5"
	fill="#a090ff"/>
  
  <rect x="731.7666666666667" y="354.5" width="67.8" height="115.5"
	fill="#a090ff"/>
  
  <rect x="807.1" y="316.0" width="67.8" height="154.0"
	fill="#a090ff"/>
  
  <rect x="882.4333333333333" y="338.0" width="67.8" height="132.0"
	fill="#a090ff"/>
  
  <rect x="957.7666666666667" y="266.5" width="67.8" height="203.5"
	fill="#a090ff"/>
  
  <rect x="1033.1" y="371.0" width="67.8" height="99.0"
	fill="#a090ff"/>
  
  <rect x="1108.4333333333334" y="354.5" width="67.8" height="115.5"
	fill="#a090ff"/>
  
  
  <line x1="50.0" y1="276.71428571428567" x2="125.33333333333333" y2="235.07142857142856"
	stroke="#0000ff" stroke-width="2"/>
  
  <line x1="125.33333333333333" y1="235.07142857142856" x2="200.66666666666666" y2="187.92857142857144"
	stroke="#0000ff" stroke-width="2"/>
  
  <line x1="200.66666666666666" y1="187.92857142857144" x2="276.0" y2="137.6428571428571"
	stroke="#0000ff" stroke-width="2"/>
  
  <line x1="276.0" y1="137.6428571428571" x2="351.3333333333333" y2="127.42857142857144"
	stroke="#0000ff" stroke-width="2"/>
  
  <line x1="351.3333333333333" y1="127.42857142857144" x2="426.66666666666663" y2="146.28571428571428"
	stroke="#0000ff" stroke-width="2"/>
  
  <line x1="426.66666666666663" y1="146.28571428571428" x2="502.0" y2="180.8571428571429"
	stroke="#0000ff" stroke-width="2"/>
  
  <line x1="502.0" y1="180.8571428571429" x2="577.3333333333333" y2="201.28571428571428"
	stroke="#0000ff" stroke-width="2"/>
  
  <line x1="577.3333333333333" y1="201.28571428571428" x2="652.6666666666666" y2="224.07142857142856"
	stroke="#0000ff" stroke-width="2"/>
  
  <line x1="652.6666666666666" y1="224.07142857142856" x2="728.0" y2="242.14285714285714"
	stroke="#0000ff" stroke-width="2"/>
  
  <line x1="728.0" y1="242.14285714285714" x2="803.3333333333333" y2="278.28571428571433"
	stroke="#0000ff" stroke-width="2"/>
  
  <line x1="803.3333333333333" y1="278.28571428571433" x2="878.6666666666666" y2="322.2857142857143"
	stroke="#0000ff" stroke-width="2"/>
  
  <line x1="878.6666666666666" y1="322.2857142857143" x2="954.0" y2="336.42857142857144"
	stroke="#0000ff" stroke-width="2"/>
  
  <line x1="954.0" y1="336.42857142857144" x2="1029.3333333333333" y2="336.42857142857144"
	stroke="#0000ff" stroke-width="2"/>
  
  <line x1="1029.3333333333333" y1="336.42857142857144" x2="1104.6666666666665" y2="341.92857142857144"
	stroke="#0000ff" stroke-width="2"/>
  



  
  <line x1="125.33333333333333" y1="470.0" x2="125.33333333333333" y2="30.0"
	stroke="#c0c0c0"/>
   
  
  <line x1="351.3333333333333" y1="470.0" x2="351.3333333333333" y2="30.0"
	stroke="#c0c0c0"/>
   
  <text y="490" x="351.3333333333333" text-anchor="middle" font-size="10">2016</text>
  
  
  <line x1="577.3333333333333" y1="470.0" x2="577.3333333333333" y2="30.0"
	stroke="#c0c0c0"/>
   
  
  <line x1="803.3333333333333" y1="470.0" x2="803.3333333333333" y2="30.0"
	stroke="#c0c0c0"/>
   
  
  <line x1="803.3333333333333" y1="470.0" x2="803.3333333333333" y2="30.0"
	stroke="#606060"/>
   
  
  <line x1="1029.3333333333333" y1="470.0" x2="1029.3333333333333" y2="30.0"
	stroke="#c0c0c0"/>
   
  
  
  <line y1="426.0" x1="50.0" y2="426.0" x2="1180.0"
	stroke="#c0c0c0"/>
  
  <text x="45" y="426.0" text-anchor="end" font-size="10">8</text>
  
  
  <line y1="382.0" x1="50.0" y2="382.0" x2="1180.0"
	stroke="#c0c0c0"/>
  
  <text x="45" y="382.0" text-anchor="end" font-size="10">16</text>
  
  
  <line y1="338.0" x1="50.0" y2="338.0" x2="1180.0"
	stroke="#c0c0c0"/>
  
  <text x="45" y="338.0" text-anchor="end" font-size="10">24</text>
  
  
  <line y1="294.0" x1="50.0" y2="294.0" x2="1180.0"
	stroke="#c0c0c0"/>
  
  <text x="45" y="294.0" text-anchor="end" font-size="10">32</text>
  
  
  <line y1="250.0" x1="50.0" y2="250.0" x2="1180.0"
	stroke="#c0c0c0"/>
  
  <text x="45" y="250.0" text-anchor="end" font-size="10">40</text>
  
  
  <line y1="206.0" x1="50.0" y2="206.0" x2="1180.0"
	stroke="#c0c0c0"/>
  
  <text x="45" y="206.0" text-anchor="end" font-size="10">48</text>
  
  
  <line y1="162.0" x1="50.0" y2="162.0" x2="1180.0"
	stroke="#c0c0c0"/>
  
  <text x="45" y="162.0" text-anchor="end" font-size="10">56</text>
  
  
  <line y1="118.0" x1="50.0" y2="118.0" x2="1180.0"
	stroke="#c0c0c0"/>
  
  <text x="45" y="118.0" text-anchor="end" font-size="10">64</text>
  
  
  <line y1="74.0" x1="50.0" y2="74.0" x2="1180.0"
	stroke="#c0c0c0"/>
  
  <text x="45" y="74.0" text-anchor="end" font-size="10">72</text>
  
  

</svg>
