<?xml version="1.0" encoding="UTF-8" standalone="no"?>
<!-- Created with Inkscape (http://www.inkscape.org/) -->
<!DOCTYPE svg PUBLIC "-//W3C//DTD SVG 1.1//EN" "http://www.w3.org/Graphics/SVG/1.1/DTD/svg11.dtd"> 

<svg
   xmlns="http://www.w3.org/2000/svg"
   width="1200"
   height="500"
   version="1.1"
   style="enable-background:new">

  <rect x="0" y="0" width="1200" height="500"
	fill="#e0e0e0"/>

  <text x="615.0" y="20.0" text-anchor="middle" font-size="12">Number of topics per month on forum &quot;Area Relax&quot; (and children)</text>

  <rect x="50" y="30" width="1130" height="440"
	fill="white" stroke="black" stroke-width="2"/>
  
  <rect x="50.61413043478261" y="411.3333333333333" width="11.054347826086957" height="58.66666666666667"
	fill="#a090ff"/>
  
  <rect x="62.89673913043478" y="367.3333333333333" width="11.054347826086957" height="102.66666666666667"
	fill="#a090ff"/>
  
  <rect x="75.17934782608695" y="289.1111111111111" width="11.054347826086957" height="180.8888888888889"
	fill="#a090ff"/>
  
  <rect x="87.46195652173913" y="289.1111111111111" width="11.054347826086957" height="180.8888888888889"
	fill="#a090ff"/>
  
  <rect x="99.74456521739131" y="382.0" width="11.054347826086957" height="88.0"
	fill="#a090ff"/>
  
  <rect x="112.02717391304347" y="382.0" width="11.054347826086957" height="88.0"
	fill="#a090ff"/>
  
  <rect x="124.30978260869566" y="279.3333333333333" width="11.054347826086957" height="190.66666666666669"
	fill="#a090ff"/>
  
  <rect x="136.5923913043478" y="333.1111111111111" width="11.054347826086957" height="136.8888888888889"
	fill="#a090ff"/>
  
  <rect x="148.875" y="230.44444444444443" width="11.054347826086957" height="239.55555555555557"
	fill="#a090ff"/>
  
  <rect x="161.1576086956522" y="279.3333333333333" width="11.054347826086957" height="190.66666666666669"
	fill="#a090ff"/>
  
  <rect x="173.44021739130437" y="323.3333333333333" width="11.054347826086957" height="146.66666666666669"
	fill="#a090ff"/>
  
  <rect x="185.72282608695653" y="249.99999999999997" width="11.054347826086957" height="220.00000000000003"
	fill="#a090ff"/>
  
  <rect x="198.00543478260872" y="249.99999999999997" width="11.054347826086957" height="220.00000000000003"
	fill="#a090ff"/>
  
  <rect x="210.28804347826087" y="186.4444444444444" width="11.054347826086957" height="283.5555555555556"
	fill="#a090ff"/>
  
  <rect x="222.57065217391306" y="186.4444444444444" width="11.054347826086957" height="283.5555555555556"
	fill="#a090ff"/>
  
  <rect x="234.85326086956522" y="245.1111111111111" width="11.054347826086957" height="224.8888888888889"
	fill="#a090ff"/>
  
  <rect x="247.1358695652174" y="230.44444444444443" width="11.054347826086957" height="239.55555555555557"
	fill="#a090ff"/>
  
  <rect x="259.41847826086956" y="181.55555555555554" width="11.054347826086957" height="288.44444444444446"
	fill="#a090ff"/>
  
  <rect x="271.70108695652175" y="118.0" width="11.054347826086957" height="352.0"
	fill="#a090ff"/>
  
  <rect x="283.9836956521739" y="69.11111111111109" width="11.054347826086957" height="400.8888888888889"
	fill="#a090ff"/>
  
  <rect x="296.2663043478261" y="225.55555555555554" width="11.054347826086957" height="244.44444444444446"
	fill="#a090ff"/>
  
  <rect x="308.54891304347825" y="313.55555555555554" width="11.054347826086957" height="156.44444444444446"
	fill="#a090ff"/>
  
  <rect x="320.83152173913044" y="347.77777777777777" width="11.054347826086957" height="122.22222222222223"
	fill="#a090ff"/>
  
  <rect x="333.1141304347826" y="298.8888888888889" width="11.054347826086957" height="171.11111111111111"
	fill="#a090ff"/>
  
  <rect x="345.3967391304348" y="303.77777777777777" width="11.054347826086957" height="166.22222222222223"
	fill="#a090ff"/>
  
  <rect x="357.67934782608694" y="328.2222222222222" width="11.054347826086957" height="141.7777777777778"
	fill="#a090ff"/>
  
  <rect x="369.9619565217391" y="347.77777777777777" width="11.054347826086957" height="122.22222222222223"
	fill="#a090ff"/>
  
  <rect x="382.2445652173913" y="357.55555555555554" width="11.054347826086957" height="112.44444444444446"
	fill="#a090ff"/>
  
  <rect x="394.5271739130435" y="210.88888888888886" width="11.054347826086957" height="259.11111111111114"
	fill="#a090ff"/>
  
  <rect x="406.8097826086957" y="210.88888888888886" width="11.054347826086957" height="259.11111111111114"
	fill="#a090ff"/>
  
  <rect x="419.0923913043478" y="333.1111111111111" width="11.054347826086957" height="136.8888888888889"
	fill="#a090ff"/>
  
  <rect x="431.375" y="357.55555555555554" width="11.054347826086957" height="112.44444444444446"
	fill="#a090ff"/>
  
  <rect x="443.65760869565213" y="328.2222222222222" width="11.054347826086957" height="141.7777777777778"
	fill="#a090ff"/>
  
  <rect x="455.9402173913043" y="367.3333333333333" width="11.054347826086957" height="102.66666666666667"
	fill="#a090ff"/>
  
  <rect x="468.2228260869565" y="308.66666666666663" width="11.054347826086957" height="161.33333333333334"
	fill="#a090ff"/>
  
  <rect x="480.50543478260863" y="264.66666666666663" width="11.054347826086957" height="205.33333333333334"
	fill="#a090ff"/>
  
  <rect x="492.7880434782608" y="259.77777777777777" width="11.054347826086957" height="210.22222222222223"
	fill="#a090ff"/>
  
  <rect x="505.070652173913" y="259.77777777777777" width="11.054347826086957" height="210.22222222222223"
	fill="#a090ff"/>
  
  <rect x="517.3532608695652" y="225.55555555555554" width="11.054347826086957" height="244.44444444444446"
	fill="#a090ff"/>
  
  <rect x="529.6358695652174" y="313.55555555555554" width="11.054347826086957" height="156.44444444444446"
	fill="#a090ff"/>
  
  <rect x="541.9184782608695" y="328.2222222222222" width="11.054347826086957" height="141.7777777777778"
	fill="#a090ff"/>
  
  <rect x="554.2010869565217" y="303.77777777777777" width="11.054347826086957" height="166.22222222222223"
	fill="#a090ff"/>
  
  <rect x="566.4836956521739" y="298.8888888888889" width="11.054347826086957" height="171.11111111111111"
	fill="#a090ff"/>
  
  <rect x="578.766304347826" y="342.8888888888889" width="11.054347826086957" height="127.11111111111111"
	fill="#a090ff"/>
  
  <rect x="591.0489130434783" y="362.44444444444446" width="11.054347826086957" height="107.55555555555557"
	fill="#a090ff"/>
  
  <rect x="603.3315217391304" y="347.77777777777777" width="11.054347826086957" height="122.22222222222223"
	fill="#a090ff"/>
  
  <rect x="615.6141304347826" y="367.3333333333333" width="11.054347826086957" height="102.66666666666667"
	fill="#a090ff"/>
  
  <rect x="627.8967391304348" y="362.44444444444446" width="11.054347826086957" height="107.55555555555557"
	fill="#a090ff"/>
  
  <rect x="640.1793478260869" y="313.55555555555554" width="11.054347826086957" height="156.44444444444446"
	fill="#a090ff"/>
  
  <rect x="652.4619565217391" y="347.77777777777777" width="11.054347826086957" height="122.22222222222223"
	fill="#a090ff"/>
  
  <rect x="664.7445652173913" y="357.55555555555554" width="11.054347826086957" height="112.44444444444446"
	fill="#a090ff"/>
  
  <rect x="677.0271739130434" y="303.77777777777777" width="11.054347826086957" height="166.22222222222223"
	fill="#a090ff"/>
  
  <rect x="689.3097826086956" y="367.3333333333333" width="11.054347826086957" height="102.66666666666667"
	fill="#a090ff"/>
  
  <rect x="701.5923913043478" y="338.0" width="11.054347826086957" height="132.0"
	fill="#a090ff"/>
  
  <rect x="713.875" y="347.77777777777777" width="11.054347826086957" height="122.22222222222223"
	fill="#a090ff"/>
  
  <rect x="726.1576086956521" y="328.2222222222222" width="11.054347826086957" height="141.7777777777778"
	fill="#a090ff"/>
  
  <rect x="738.4402173913043" y="401.55555555555554" width="11.054347826086957" height="68.44444444444446"
	fill="#a090ff"/>
  
  <rect x="750.7228260869565" y="391.77777777777777" width="11.054347826086957" height="78.22222222222223"
	fill="#a090ff"/>
  
  <rect x="763.0054347826086" y="372.22222222222223" width="11.054347826086957" height="97.77777777777779"
	fill="#a090ff"/>
  
  <rect x="775.2880434782609" y="406.44444444444446" width="11.054347826086957" height="63.55555555555556"
	fill="#a090ff"/>
  
  <rect x="787.570652173913" y="421.1111111111111" width="11.054347826086957" height="48.88888888888889"
	fill="#a090ff"/>
  
  <rect x="799.8532608695651" y="396.66666666666663" width="11.054347826086957" height="73.33333333333334"
	fill="#a090ff"/>
  
  <rect x="812.1358695652174" y="391.77777777777777" width="11.054347826086957" height="78.22222222222223"
	fill="#a090ff"/>
  
  <rect x="824.4184782608695" y="426.0" width="11.054347826086957" height="44.0"
	fill="#a090ff"/>
  
  <rect x="836.7010869565217" y="401.55555555555554" width="11.054347826086957" height="68.44444444444446"
	fill="#a090ff"/>
  
  <rect x="848.9836956521739" y="406.44444444444446" width="11.054347826086957" height="63.55555555555556"
	fill="#a090ff"/>
  
  <rect x="861.266304347826" y="386.8888888888889" width="11.054347826086957" height="83.11111111111111"
	fill="#a090ff"/>
  
  <rect x="873.5489130434783" y="377.1111111111111" width="11.054347826086957" height="92.8888888888889"
	fill="#a090ff"/>
  
  <rect x="885.8315217391304" y="377.1111111111111" width="11.054347826086957" height="92.8888888888889"
	fill="#a090ff"/>
  
  <rect x="898.1141304347826" y="372.22222222222223" width="11.054347826086957" height="97.77777777777779"
	fill="#a090ff"/>
  
  <rect x="910.3967391304348" y="406.44444444444446" width="11.054347826086957" height="63.55555555555556"
	fill="#a090ff"/>
  
  <rect x="922.6793478260869" y="416.22222222222223" width="11.054347826086957" height="53.777777777777786"
	fill="#a090ff"/>
  
  <rect x="934.9619565217391" y="421.1111111111111" width="11.054347826086957" height="48.88888888888889"
	fill="#a090ff"/>
  
  <rect x="947.2445652173913" y="445.55555555555554" width="11.054347826086957" height="24.444444444444446"
	fill="#a090ff"/>
  
  <rect x="959.5271739130434" y="421.1111111111111" width="11.054347826086957" height="48.88888888888889"
	fill="#a090ff"/>
  
  <rect x="971.8097826086956" y="411.3333333333333" width="11.054347826086957" height="58.66666666666667"
	fill="#a090ff"/>
  
  <rect x="984.0923913043478" y="406.44444444444446" width="11.054347826086957" height="63.55555555555556"
	fill="#a090ff"/>
  
  <rect x="996.375" y="391.77777777777777" width="11.054347826086957" height="78.22222222222223"
	fill="#a090ff"/>
  
  <rect x="1008.6576086956521" y="411.3333333333333" width="11.054347826086957" height="58.66666666666667"
	fill="#a090ff"/>
  
  <rect x="1020.9402173913043" y="382.0" width="11.054347826086957" height="88.0"
	fill="#a090ff"/>
  
  <rect x="1033.2228260869565" y="435.77777777777777" width="11.054347826086957" height="34.22222222222223"
	fill="#a090ff"/>
  
  <rect x="1045.5054347826085" y="406.44444444444446" width="11.054347826086957" height="63.55555555555556"
	fill="#a090ff"/>
  
  <rect x="1057.788043478261" y="430.8888888888889" width="11.054347826086957" height="39.111111111111114"
	fill="#a090ff"/>
  
  <rect x="1070.070652173913" y="411.3333333333333" width="11.054347826086957" height="58.66666666666667"
	fill="#a090ff"/>
  
  <rect x="1082.3532608695652" y="440.6666666666667" width="11.054347826086957" height="29.333333333333336"
	fill="#a090ff"/>
  
  <rect x="1094.6358695652173" y="421.1111111111111" width="11.054347826086957" height="48.88888888888889"
	fill="#a090ff"/>
  
  <rect x="1106.9184782608695" y="416.22222222222223" width="11.054347826086957" height="53.777777777777786"
	fill="#a090ff"/>
  
  <rect x="1119.2010869565217" y="435.77777777777777" width="11.054347826086957" height="34.22222222222223"
	fill="#a090ff"/>
  
  <rect x="1131.4836956521738" y="445.55555555555554" width="11.054347826086957" height="24.444444444444446"
	fill="#a090ff"/>
  
  <rect x="1143.766304347826" y="396.66666666666663" width="11.054347826086957" height="73.33333333333334"
	fill="#a090ff"/>
  
  <rect x="1156.0489130434783" y="435.77777777777777" width="11.054347826086957" height="34.22222222222223"
	fill="#a090ff"/>
  
  <rect x="1168.3315217391305" y="440.6666666666667" width="11.054347826086957" height="29.333333333333336"
	fill="#a090ff"/>
  
  
  <line x1="50.0" y1="395.26984126984127" x2="62.28260869565217" y2="382.6984126984127"
	stroke="#0000ff" stroke-width="2"/>
  
  <line x1="62.28260869565217" y1="382.6984126984127" x2="74.56521739130434" y2="370.1269841269841"
	stroke="#0000ff" stroke-width="2"/>
  
  <line x1="74.56521739130434" y1="370.1269841269841" x2="86.84782608695653" y2="342.8888888888889"
	stroke="#0000ff" stroke-width="2"/>
  
  <line x1="86.84782608695653" y1="342.8888888888889" x2="99.13043478260869" y2="331.71428571428567"
	stroke="#0000ff" stroke-width="2"/>
  
  <line x1="99.13043478260869" y1="331.71428571428567" x2="111.41304347826087" y2="312.1587301587301"
	stroke="#0000ff" stroke-width="2"/>
  
  <line x1="111.41304347826087" y1="312.1587301587301" x2="123.69565217391305" y2="310.76190476190476"
	stroke="#0000ff" stroke-width="2"/>
  
  <line x1="123.69565217391305" y1="310.76190476190476" x2="135.97826086956522" y2="315.6507936507936"
	stroke="#0000ff" stroke-width="2"/>
  
  <line x1="135.97826086956522" y1="315.6507936507936" x2="148.26086956521738" y2="296.7936507936508"
	stroke="#0000ff" stroke-width="2"/>
  
  <line x1="148.26086956521738" y1="296.7936507936508" x2="160.54347826086956" y2="277.93650793650795"
	stroke="#0000ff" stroke-width="2"/>
  
  <line x1="160.54347826086956" y1="277.93650793650795" x2="172.82608695652175" y2="264.66666666666663"
	stroke="#0000ff" stroke-width="2"/>
  
  <line x1="172.82608695652175" y1="264.66666666666663" x2="185.1086956521739" y2="243.7142857142857"
	stroke="#0000ff" stroke-width="2"/>
  
  <line x1="185.1086956521739" y1="243.7142857142857" x2="197.3913043478261" y2="245.8095238095238"
	stroke="#0000ff" stroke-width="2"/>
  
  <line x1="197.3913043478261" y1="245.8095238095238" x2="209.67391304347825" y2="238.8253968253968"
	stroke="#0000ff" stroke-width="2"/>
  
  <line x1="209.67391304347825" y1="238.8253968253968" x2="221.95652173913044" y2="218.57142857142856"
	stroke="#0000ff" stroke-width="2"/>
  
  <line x1="221.95652173913044" y1="218.57142857142856" x2="234.2391304347826" y2="199.71428571428572"
	stroke="#0000ff" stroke-width="2"/>
  
  <line x1="234.2391304347826" y1="199.71428571428572" x2="246.52173913043478" y2="173.87301587301585"
	stroke="#0000ff" stroke-width="2"/>
  
  <line x1="246.52173913043478" y1="173.87301587301585" x2="258.804347826087" y2="179.4603174603174"
	stroke="#0000ff" stroke-width="2"/>
  
  <line x1="258.804347826087" y1="179.4603174603174" x2="271.0869565217391" y2="197.6190476190476"
	stroke="#0000ff" stroke-width="2"/>
  
  <line x1="271.0869565217391" y1="197.6190476190476" x2="283.3695652173913" y2="212.28571428571428"
	stroke="#0000ff" stroke-width="2"/>
  
  <line x1="283.3695652173913" y1="212.28571428571428" x2="295.6521739130435" y2="222.06349206349205"
	stroke="#0000ff" stroke-width="2"/>
  
  <line x1="295.6521739130435" y1="222.06349206349205" x2="307.9347826086956" y2="239.5238095238095"
	stroke="#0000ff" stroke-width="2"/>
  
  <line x1="307.9347826086956" y1="239.5238095238095" x2="320.2173913043478" y2="269.55555555555554"
	stroke="#0000ff" stroke-width="2"/>
  
  <line x1="320.2173913043478" y1="269.55555555555554" x2="332.5" y2="309.3650793650794"
	stroke="#0000ff" stroke-width="2"/>
  
  <line x1="332.5" y1="309.3650793650794" x2="344.7826086956522" y2="328.2222222222222"
	stroke="#0000ff" stroke-width="2"/>
  
  <line x1="344.7826086956522" y1="328.2222222222222" x2="357.0652173913044" y2="313.55555555555554"
	stroke="#0000ff" stroke-width="2"/>
  
  <line x1="357.0652173913044" y1="313.55555555555554" x2="369.3478260869565" y2="294.0"
	stroke="#0000ff" stroke-width="2"/>
  
  <line x1="369.3478260869565" y1="294.0" x2="381.6304347826087" y2="298.8888888888889"
	stroke="#0000ff" stroke-width="2"/>
  
  <line x1="381.6304347826087" y1="298.8888888888889" x2="393.9130434782609" y2="306.57142857142856"
	stroke="#0000ff" stroke-width="2"/>
  
  <line x1="393.9130434782609" y1="306.57142857142856" x2="406.19565217391306" y2="306.57142857142856"
	stroke="#0000ff" stroke-width="2"/>
  
  <line x1="406.19565217391306" y1="306.57142857142856" x2="418.4782608695652" y2="309.3650793650794"
	stroke="#0000ff" stroke-width="2"/>
  
  <line x1="418.4782608695652" y1="309.3650793650794" x2="430.7608695652174" y2="302.3809523809524"
	stroke="#0000ff" stroke-width="2"/>
  
  <line x1="430.7608695652174" y1="302.3809523809524" x2="443.04347826086956" y2="310.06349206349205"
	stroke="#0000ff" stroke-width="2"/>
  
  <line x1="443.04347826086956" y1="310.06349206349205" x2="455.32608695652175" y2="317.04761904761904"
	stroke="#0000ff" stroke-width="2"/>
  
  <line x1="455.32608695652175" y1="317.04761904761904" x2="467.60869565217394" y2="306.57142857142856"
	stroke="#0000ff" stroke-width="2"/>
  
  <line x1="467.60869565217394" y1="306.57142857142856" x2="479.89130434782606" y2="287.71428571428567"
	stroke="#0000ff" stroke-width="2"/>
  
  <line x1="479.89130434782606" y1="287.71428571428567" x2="492.17391304347825" y2="285.6190476190476"
	stroke="#0000ff" stroke-width="2"/>
  
  <line x1="492.17391304347825" y1="285.6190476190476" x2="504.45652173913044" y2="280.031746031746"
	stroke="#0000ff" stroke-width="2"/>
  
  <line x1="504.45652173913044" y1="280.031746031746" x2="516.7391304347826" y2="279.3333333333333"
	stroke="#0000ff" stroke-width="2"/>
  
  <line x1="516.7391304347826" y1="279.3333333333333" x2="529.0217391304348" y2="284.2222222222222"
	stroke="#0000ff" stroke-width="2"/>
  
  <line x1="529.0217391304348" y1="284.2222222222222" x2="541.304347826087" y2="296.0952380952381"
	stroke="#0000ff" stroke-width="2"/>
  
  <line x1="541.304347826087" y1="296.0952380952381" x2="553.5869565217391" y2="310.76190476190476"
	stroke="#0000ff" stroke-width="2"/>
  
  <line x1="553.5869565217391" y1="310.76190476190476" x2="565.8695652173913" y2="328.2222222222222"
	stroke="#0000ff" stroke-width="2"/>
  
  <line x1="565.8695652173913" y1="328.2222222222222" x2="578.1521739130435" y2="335.9047619047619"
	stroke="#0000ff" stroke-width="2"/>
  
  <line x1="578.1521739130435" y1="335.9047619047619" x2="590.4347826086956" y2="340.7936507936508"
	stroke="#0000ff" stroke-width="2"/>
  
  <line x1="590.4347826086956" y1="340.7936507936508" x2="602.7173913043479" y2="342.19047619047615"
	stroke="#0000ff" stroke-width="2"/>
  
  <line x1="602.7173913043479" y1="342.19047619047615" x2="615.0" y2="349.17460317460313"
	stroke="#0000ff" stroke-width="2"/>
  
  <line x1="615.0" y1="349.17460317460313" x2="627.2826086956521" y2="351.26984126984127"
	stroke="#0000ff" stroke-width="2"/>
  
  <line x1="627.2826086956521" y1="351.26984126984127" x2="639.5652173913044" y2="342.8888888888889"
	stroke="#0000ff" stroke-width="2"/>
  
  <line x1="639.5652173913044" y1="342.8888888888889" x2="651.8478260869565" y2="345.6825396825397"
	stroke="#0000ff" stroke-width="2"/>
  
  <line x1="651.8478260869565" y1="345.6825396825397" x2="664.1304347826087" y2="341.4920634920635"
	stroke="#0000ff" stroke-width="2"/>
  
  <line x1="664.1304347826087" y1="341.4920634920635" x2="676.4130434782609" y2="339.3968253968254"
	stroke="#0000ff" stroke-width="2"/>
  
  <line x1="676.4130434782609" y1="339.3968253968254" x2="688.695652173913" y2="341.4920634920635"
	stroke="#0000ff" stroke-width="2"/>
  
  <line x1="688.695652173913" y1="341.4920634920635" x2="700.9782608695652" y2="349.17460317460313"
	stroke="#0000ff" stroke-width="2"/>
  
  <line x1="700.9782608695652" y1="349.17460317460313" x2="713.2608695652174" y2="354.06349206349205"
	stroke="#0000ff" stroke-width="2"/>
  
  <line x1="713.2608695652174" y1="354.06349206349205" x2="725.5434782608695" y2="363.8412698412698"
	stroke="#0000ff" stroke-width="2"/>
  
  <line x1="725.5434782608695" y1="363.8412698412698" x2="737.8260869565217" y2="369.42857142857144"
	stroke="#0000ff" stroke-width="2"/>
  
  <line x1="737.8260869565217" y1="369.42857142857144" x2="750.1086956521739" y2="381.3015873015873"
	stroke="#0000ff" stroke-width="2"/>
  
  <line x1="750.1086956521739" y1="381.3015873015873" x2="762.3913043478261" y2="388.2857142857143"
	stroke="#0000ff" stroke-width="2"/>
  
  <line x1="762.3913043478261" y1="388.2857142857143" x2="774.6739130434783" y2="397.36507936507934"
	stroke="#0000ff" stroke-width="2"/>
  
  <line x1="774.6739130434783" y1="397.36507936507934" x2="786.9565217391304" y2="400.85714285714283"
	stroke="#0000ff" stroke-width="2"/>
  
  <line x1="786.9565217391304" y1="400.85714285714283" x2="799.2391304347826" y2="402.25396825396825"
	stroke="#0000ff" stroke-width="2"/>
  
  <line x1="799.2391304347826" y1="402.25396825396825" x2="811.5217391304348" y2="407.1428571428571"
	stroke="#0000ff" stroke-width="2"/>
  
  <line x1="811.5217391304348" y1="407.1428571428571" x2="823.804347826087" y2="404.3492063492063"
	stroke="#0000ff" stroke-width="2"/>
  
  <line x1="823.804347826087" y1="404.3492063492063" x2="836.0869565217391" y2="398.06349206349205"
	stroke="#0000ff" stroke-width="2"/>
  
  <line x1="836.0869565217391" y1="398.06349206349205" x2="848.3695652173913" y2="395.26984126984127"
	stroke="#0000ff" stroke-width="2"/>
  
  <line x1="848.3695652173913" y1="395.26984126984127" x2="860.6521739130435" y2="392.4761904761905"
	stroke="#0000ff" stroke-width="2"/>
  
  <line x1="860.6521739130435" y1="392.4761904761905" x2="872.9347826086956" y2="389.6825396825397"
	stroke="#0000ff" stroke-width="2"/>
  
  <line x1="872.9347826086956" y1="389.6825396825397" x2="885.2173913043479" y2="391.77777777777777"
	stroke="#0000ff" stroke-width="2"/>
  
  <line x1="885.2173913043479" y1="391.77777777777777" x2="897.5" y2="393.8730158730159"
	stroke="#0000ff" stroke-width="2"/>
  
  <line x1="897.5" y1="393.8730158730159" x2="909.7826086956521" y2="402.25396825396825"
	stroke="#0000ff" stroke-width="2"/>
  
  <line x1="909.7826086956521" y1="402.25396825396825" x2="922.0652173913044" y2="408.53968253968253"
	stroke="#0000ff" stroke-width="2"/>
  
  <line x1="922.0652173913044" y1="408.53968253968253" x2="934.3478260869565" y2="413.42857142857144"
	stroke="#0000ff" stroke-width="2"/>
  
  <line x1="934.3478260869565" y1="413.42857142857144" x2="946.6304347826087" y2="418.3174603174603"
	stroke="#0000ff" stroke-width="2"/>
  
  <line x1="946.6304347826087" y1="418.3174603174603" x2="958.9130434782609" y2="416.22222222222223"
	stroke="#0000ff" stroke-width="2"/>
  
  <line x1="958.9130434782609" y1="416.22222222222223" x2="971.195652173913" y2="415.5238095238095"
	stroke="#0000ff" stroke-width="2"/>
  
  <line x1="971.195652173913" y1="415.5238095238095" x2="983.4782608695652" y2="409.93650793650795"
	stroke="#0000ff" stroke-width="2"/>
  
  <line x1="983.4782608695652" y1="409.93650793650795" x2="995.7608695652174" y2="408.53968253968253"
	stroke="#0000ff" stroke-width="2"/>
  
  <line x1="995.7608695652174" y1="408.53968253968253" x2="1008.0434782608695" y2="406.44444444444446"
	stroke="#0000ff" stroke-width="2"/>
  
  <line x1="1008.0434782608695" y1="406.44444444444446" x2="1020.3260869565217" y2="409.23809523809524"
	stroke="#0000ff" stroke-width="2"/>
  
  <line x1="1020.3260869565217" y1="409.23809523809524" x2="1032.608695652174" y2="409.93650793650795"
	stroke="#0000ff" stroke-width="2"/>
  
  <line x1="1032.608695652174" y1="409.93650793650795" x2="1044.891304347826" y2="416.92063492063494"
	stroke="#0000ff" stroke-width="2"/>
  
  <line x1="1044.891304347826" y1="416.92063492063494" x2="1057.1739130434783" y2="418.3174603174603"
	stroke="#0000ff" stroke-width="2"/>
  
  <line x1="1057.1739130434783" y1="418.3174603174603" x2="1069.4565217391305" y2="423.2063492063492"
	stroke="#0000ff" stroke-width="2"/>
  
  <line x1="1069.4565217391305" y1="423.2063492063492" x2="1081.7391304347825" y2="423.2063492063492"
	stroke="#0000ff" stroke-width="2"/>
  
  <line x1="1081.7391304347825" y1="423.2063492063492" x2="1094.0217391304348" y2="428.7936507936508"
	stroke="#0000ff" stroke-width="2"/>
  
  <line x1="1094.0217391304348" y1="428.7936507936508" x2="1106.304347826087" y2="423.9047619047619"
	stroke="#0000ff" stroke-width="2"/>
  
  <line x1="1106.304347826087" y1="423.9047619047619" x2="1118.586956521739" y2="427.3968253968254"
	stroke="#0000ff" stroke-width="2"/>
  
  <line x1="1118.586956521739" y1="427.3968253968254" x2="1130.8695652173913" y2="427.3968253968254"
	stroke="#0000ff" stroke-width="2"/>
  
  <line x1="1130.8695652173913" y1="427.3968253968254" x2="1143.1521739130435" y2="430.1904761904762"
	stroke="#0000ff" stroke-width="2"/>
  
  <line x1="1143.1521739130435" y1="430.1904761904762" x2="1155.4347826086957" y2="433.6825396825397"
	stroke="#0000ff" stroke-width="2"/>
  
  <line x1="1155.4347826086957" y1="433.6825396825397" x2="1167.7173913043478" y2="434.3809523809524"
	stroke="#0000ff" stroke-width="2"/>
  



  
  <line x1="86.84782608695653" y1="470.0" x2="86.84782608695653" y2="29.999999999999943"
	stroke="#c0c0c0"/>
   
  
  <line x1="86.84782608695653" y1="470.0" x2="86.84782608695653" y2="29.999999999999943"
	stroke="#606060"/>
   
  
  <line x1="123.69565217391305" y1="470.0" x2="123.69565217391305" y2="29.999999999999943"
	stroke="#c0c0c0"/>
   
  
  <line x1="160.54347826086956" y1="470.0" x2="160.54347826086956" y2="29.999999999999943"
	stroke="#c0c0c0"/>
   
  <text y="490" x="160.54347826086956" text-anchor="middle" font-size="10">2010</text>
  
  
  <line x1="197.3913043478261" y1="470.0" x2="197.3913043478261" y2="29.999999999999943"
	stroke="#c0c0c0"/>
   
  
  <line x1="234.2391304347826" y1="470.0" x2="234.2391304347826" y2="29.999999999999943"
	stroke="#c0c0c0"/>
   
  
  <line x1="234.2391304347826" y1="470.0" x2="234.2391304347826" y2="29.999999999999943"
	stroke="#606060"/>
   
  
  <line x1="271.0869565217391" y1="470.0" x2="271.0869565217391" y2="29.999999999999943"
	stroke="#c0c0c0"/>
   
  
  <line x1="307.9347826086956" y1="470.0" x2="307.9347826086956" y2="29.999999999999943"
	stroke="#c0c0c0"/>
   
  <text y="490" x="307.9347826086956" text-anchor="middle" font-size="10">2011</text>
  
  
  <line x1="344.7826086956522" y1="470.0" x2="344.7826086956522" y2="29.999999999999943"
	stroke="#c0c0c0"/>
   
  
  <line x1="381.6304347826087" y1="470.0" x2="381.6304347826087" y2="29.999999999999943"
	stroke="#c0c0c0"/>
   
  
  <line x1="381.6304347826087" y1="470.0" x2="381.6304347826087" y2="29.999999999999943"
	stroke="#606060"/>
   
  
  <line x1="418.4782608695652" y1="470.0" x2="418.4782608695652" y2="29.999999999999943"
	stroke="#c0c0c0"/>
   
  
  <line x1="455.32608695652175" y1="470.0" x2="455.32608695652175" y2="29.999999999999943"
	stroke="#c0c0c0"/>
   
  <text y="490" x="455.32608695652175" text-anchor="middle" font-size="10">2012</text>
  
  
  <line x1="492.17391304347825" y1="470.0" x2="492.17391304347825" y2="29.999999999999943"
	stroke="#c0c0c0"/>
   
  
  <line x1="529.0217391304348" y1="470.0" x2="529.0217391304348" y2="29.999999999999943"
	stroke="#c0c0c0"/>
   
  
  <line x1="529.0217391304348" y1="470.0" x2="529.0217391304348" y2="29.999999999999943"
	stroke="#606060"/>
   
  
  <line x1="565.8695652173913" y1="470.0" x2="565.8695652173913" y2="29.999999999999943"
	stroke="#c0c0c0"/>
   
  
  <line x1="602.7173913043479" y1="470.0" x2="602.7173913043479" y2="29.999999999999943"
	stroke="#c0c0c0"/>
   
  <text y="490" x="602.7173913043479" text-anchor="middle" font-size="10">2013</text>
  
  
  <line x1="639.5652173913044" y1="470.0" x2="639.5652173913044" y2="29.999999999999943"
	stroke="#c0c0c0"/>
   
  
  <line x1="676.4130434782609" y1="470.0" x2="676.4130434782609" y2="29.999999999999943"
	stroke="#c0c0c0"/>
   
  
  <line x1="676.4130434782609" y1="470.0" x2="676.4130434782609" y2="29.999999999999943"
	stroke="#606060"/>
   
  
  <line x1="713.2608695652174" y1="470.0" x2="713.2608695652174" y2="29.999999999999943"
	stroke="#c0c0c0"/>
   
  
  <line x1="750.1086956521739" y1="470.0" x2="750.1086956521739" y2="29.999999999999943"
	stroke="#c0c0c0"/>
   
  <text y="490" x="750.1086956521739" text-anchor="middle" font-size="10">2014</text>
  
  
  <line x1="786.9565217391304" y1="470.0" x2="786.9565217391304" y2="29.999999999999943"
	stroke="#c0c0c0"/>
   
  
  <line x1="823.804347826087" y1="470.0" x2="823.804347826087" y2="29.999999999999943"
	stroke="#c0c0c0"/>
   
  
  <line x1="823.804347826087" y1="470.0" x2="823.804347826087" y2="29.999999999999943"
	stroke="#606060"/>
   
  
  <line x1="860.6521739130435" y1="470.0" x2="860.6521739130435" y2="29.999999999999943"
	stroke="#c0c0c0"/>
   
  
  <line x1="897.5" y1="470.0" x2="897.5" y2="29.999999999999943"
	stroke="#c0c0c0"/>
   
  <text y="490" x="897.5" text-anchor="middle" font-size="10">2015</text>
  
  
  <line x1="934.3478260869565" y1="470.0" x2="934.3478260869565" y2="29.999999999999943"
	stroke="#c0c0c0"/>
   
  
  <line x1="971.195652173913" y1="470.0" x2="971.195652173913" y2="29.999999999999943"
	stroke="#c0c0c0"/>
   
  
  <line x1="971.195652173913" y1="470.0" x2="971.195652173913" y2="29.999999999999943"
	stroke="#606060"/>
   
  
  <line x1="1008.0434782608695" y1="470.0" x2="1008.0434782608695" y2="29.999999999999943"
	stroke="#c0c0c0"/>
   
  
  <line x1="1044.891304347826" y1="470.0" x2="1044.891304347826" y2="29.999999999999943"
	stroke="#c0c0c0"/>
   
  <text y="490" x="1044.891304347826" text-anchor="middle" font-size="10">2016</text>
  
  
  <line x1="1081.7391304347825" y1="470.0" x2="1081.7391304347825" y2="29.999999999999943"
	stroke="#c0c0c0"/>
   
  
  <line x1="1118.586956521739" y1="470.0" x2="1118.586956521739" y2="29.999999999999943"
	stroke="#c0c0c0"/>
   
  
  <line x1="1118.586956521739" y1="470.0" x2="1118.586956521739" y2="29.999999999999943"
	stroke="#606060"/>
   
  
  <line x1="1155.4347826086957" y1="470.0" x2="1155.4347826086957" y2="29.999999999999943"
	stroke="#c0c0c0"/>
   
  
  
  <line y1="426.0" x1="50.0" y2="426.0" x2="1180.0"
	stroke="#c0c0c0"/>
  
  <text x="45" y="426.0" text-anchor="end" font-size="10">9</text>
  
  
  <line y1="382.0" x1="50.0" y2="382.0" x2="1180.0"
	stroke="#c0c0c0"/>
  
  <text x="45" y="382.0" text-anchor="end" font-size="10">18</text>
  
  
  <line y1="338.0" x1="50.0" y2="338.0" x2="1180.0"
	stroke="#c0c0c0"/>
  
  <text x="45" y="338.0" text-anchor="end" font-size="10">27</text>
  
  
  <line y1="294.0" x1="50.0" y2="294.0" x2="1180.0"
	stroke="#c0c0c0"/>
  
  <text x="45" y="294.0" text-anchor="end" font-size="10">36</text>
  
  
  <line y1="249.99999999999997" x1="50.0" y2="249.99999999999997" x2="1180.0"
	stroke="#c0c0c0"/>
  
  <text x="45" y="249.99999999999997" text-anchor="end" font-size="10">45</text>
  
  
  <line y1="206.0" x1="50.0" y2="206.0" x2="1180.0"
	stroke="#c0c0c0"/>
  
  <text x="45" y="206.0" text-anchor="end" font-size="10">54</text>
  
  
  <line y1="162.0" x1="50.0" y2="162.0" x2="1180.0"
	stroke="#c0c0c0"/>
  
  <text x="45" y="162.0" text-anchor="end" font-size="10">63</text>
  
  
  <line y1="118.0" x1="50.0" y2="118.0" x2="1180.0"
	stroke="#c0c0c0"/>
  
  <text x="45" y="118.0" text-anchor="end" font-size="10">72</text>
  
  
  <line y1="73.99999999999994" x1="50.0" y2="73.99999999999994" x2="1180.0"
	stroke="#c0c0c0"/>
  
  <text x="45" y="73.99999999999994" text-anchor="end" font-size="10">81</text>
  
  

</svg>
