<?xml version="1.0" encoding="UTF-8" standalone="no"?>
<!-- Created with Inkscape (http://www.inkscape.org/) -->
<!DOCTYPE svg PUBLIC "-//W3C//DTD SVG 1.1//EN" "http://www.w3.org/Graphics/SVG/1.1/DTD/svg11.dtd"> 

<svg
   xmlns="http://www.w3.org/2000/svg"
   width="1200"
   height="500"
   version="1.1"
   style="enable-background:new">

  <rect x="0" y="0" width="1200" height="500"
	fill="#e0e0e0"/>

  <text x="615.0" y="20.0" text-anchor="middle" font-size="12">Number of topics per month on forum &quot;Staff Room&quot; (and children)</text>

  <rect x="50" y="30" width="1130" height="440"
	fill="white" stroke="black" stroke-width="2"/>
  
  <rect x="50.61413043478261" y="426.0" width="11.054347826086957" height="44.0"
	fill="#a090ff"/>
  
  <rect x="62.89673913043478" y="393.0" width="11.054347826086957" height="77.0"
	fill="#a090ff"/>
  
  <rect x="75.17934782608695" y="420.5" width="11.054347826086957" height="49.5"
	fill="#a090ff"/>
  
  <rect x="87.46195652173913" y="376.5" width="11.054347826086957" height="93.5"
	fill="#a090ff"/>
  
  <rect x="99.74456521739131" y="431.5" width="11.054347826086957" height="38.5"
	fill="#a090ff"/>
  
  <rect x="112.02717391304347" y="426.0" width="11.054347826086957" height="44.0"
	fill="#a090ff"/>
  
  <rect x="124.30978260869566" y="316.0" width="11.054347826086957" height="154.0"
	fill="#a090ff"/>
  
  <rect x="136.5923913043478" y="404.0" width="11.054347826086957" height="66.0"
	fill="#a090ff"/>
  
  <rect x="148.875" y="349.0" width="11.054347826086957" height="121.0"
	fill="#a090ff"/>
  
  <rect x="161.1576086956522" y="338.0" width="11.054347826086957" height="132.0"
	fill="#a090ff"/>
  
  <rect x="173.44021739130437" y="398.5" width="11.054347826086957" height="71.5"
	fill="#a090ff"/>
  
  <rect x="185.72282608695653" y="393.0" width="11.054347826086957" height="77.0"
	fill="#a090ff"/>
  
  <rect x="198.00543478260872" y="387.5" width="11.054347826086957" height="82.5"
	fill="#a090ff"/>
  
  <rect x="210.28804347826087" y="327.0" width="11.054347826086957" height="143.0"
	fill="#a090ff"/>
  
  <rect x="222.57065217391306" y="398.5" width="11.054347826086957" height="71.5"
	fill="#a090ff"/>
  
  <rect x="234.85326086956522" y="360.0" width="11.054347826086957" height="110.0"
	fill="#a090ff"/>
  
  <rect x="247.1358695652174" y="310.5" width="11.054347826086957" height="159.5"
	fill="#a090ff"/>
  
  <rect x="259.41847826086956" y="365.5" width="11.054347826086957" height="104.5"
	fill="#a090ff"/>
  
  <rect x="271.70108695652175" y="63.0" width="11.054347826086957" height="407.0"
	fill="#a090ff"/>
  
  <rect x="283.9836956521739" y="283.0" width="11.054347826086957" height="187.0"
	fill="#a090ff"/>
  
  <rect x="296.2663043478261" y="321.5" width="11.054347826086957" height="148.5"
	fill="#a090ff"/>
  
  <rect x="308.54891304347825" y="376.5" width="11.054347826086957" height="93.5"
	fill="#a090ff"/>
  
  <rect x="320.83152173913044" y="365.5" width="11.054347826086957" height="104.5"
	fill="#a090ff"/>
  
  <rect x="333.1141304347826" y="228.0" width="11.054347826086957" height="242.0"
	fill="#a090ff"/>
  
  <rect x="345.3967391304348" y="255.5" width="11.054347826086957" height="214.5"
	fill="#a090ff"/>
  
  <rect x="357.67934782608694" y="310.5" width="11.054347826086957" height="159.5"
	fill="#a090ff"/>
  
  <rect x="369.9619565217391" y="343.5" width="11.054347826086957" height="126.5"
	fill="#a090ff"/>
  
  <rect x="382.2445652173913" y="305.0" width="11.054347826086957" height="165.0"
	fill="#a090ff"/>
  
  <rect x="394.5271739130435" y="250.0" width="11.054347826086957" height="220.0"
	fill="#a090ff"/>
  
  <rect x="406.8097826086957" y="310.5" width="11.054347826086957" height="159.5"
	fill="#a090ff"/>
  
  <rect x="419.0923913043478" y="244.5" width="11.054347826086957" height="225.5"
	fill="#a090ff"/>
  
  <rect x="431.375" y="272.0" width="11.054347826086957" height="198.0"
	fill="#a090ff"/>
  
  <rect x="443.65760869565213" y="129.0" width="11.054347826086957" height="341.0"
	fill="#a090ff"/>
  
  <rect x="455.9402173913043" y="195.0" width="11.054347826086957" height="275.0"
	fill="#a090ff"/>
  
  <rect x="468.2228260869565" y="376.5" width="11.054347826086957" height="93.5"
	fill="#a090ff"/>
  
  <rect x="480.50543478260863" y="371.0" width="11.054347826086957" height="99.0"
	fill="#a090ff"/>
  
  <rect x="492.7880434782608" y="272.0" width="11.054347826086957" height="198.0"
	fill="#a090ff"/>
  
  <rect x="505.070652173913" y="327.0" width="11.054347826086957" height="143.0"
	fill="#a090ff"/>
  
  <rect x="517.3532608695652" y="321.5" width="11.054347826086957" height="148.5"
	fill="#a090ff"/>
  
  <rect x="529.6358695652174" y="244.5" width="11.054347826086957" height="225.5"
	fill="#a090ff"/>
  
  <rect x="541.9184782608695" y="228.0" width="11.054347826086957" height="242.0"
	fill="#a090ff"/>
  
  <rect x="554.2010869565217" y="288.5" width="11.054347826086957" height="181.5"
	fill="#a090ff"/>
  
  <rect x="566.4836956521739" y="233.5" width="11.054347826086957" height="236.5"
	fill="#a090ff"/>
  
  <rect x="578.766304347826" y="343.5" width="11.054347826086957" height="126.5"
	fill="#a090ff"/>
  
  <rect x="591.0489130434783" y="316.0" width="11.054347826086957" height="154.0"
	fill="#a090ff"/>
  
  <rect x="603.3315217391304" y="261.0" width="11.054347826086957" height="209.0"
	fill="#a090ff"/>
  
  <rect x="615.6141304347826" y="332.5" width="11.054347826086957" height="137.5"
	fill="#a090ff"/>
  
  <rect x="627.8967391304348" y="294.0" width="11.054347826086957" height="176.0"
	fill="#a090ff"/>
  
  <rect x="640.1793478260869" y="305.0" width="11.054347826086957" height="165.0"
	fill="#a090ff"/>
  
  <rect x="652.4619565217391" y="316.0" width="11.054347826086957" height="154.0"
	fill="#a090ff"/>
  
  <rect x="664.7445652173913" y="365.5" width="11.054347826086957" height="104.5"
	fill="#a090ff"/>
  
  <rect x="677.0271739130434" y="365.5" width="11.054347826086957" height="104.5"
	fill="#a090ff"/>
  
  <rect x="689.3097826086956" y="321.5" width="11.054347826086957" height="148.5"
	fill="#a090ff"/>
  
  <rect x="701.5923913043478" y="398.5" width="11.054347826086957" height="71.5"
	fill="#a090ff"/>
  
  <rect x="713.875" y="420.5" width="11.054347826086957" height="49.5"
	fill="#a090ff"/>
  
  <rect x="726.1576086956521" y="376.5" width="11.054347826086957" height="93.5"
	fill="#a090ff"/>
  
  <rect x="738.4402173913043" y="365.5" width="11.054347826086957" height="104.5"
	fill="#a090ff"/>
  
  <rect x="750.7228260869565" y="338.0" width="11.054347826086957" height="132.0"
	fill="#a090ff"/>
  
  <rect x="763.0054347826086" y="376.5" width="11.054347826086957" height="93.5"
	fill="#a090ff"/>
  
  <rect x="775.2880434782609" y="426.0" width="11.054347826086957" height="44.0"
	fill="#a090ff"/>
  
  <rect x="787.570652173913" y="442.5" width="11.054347826086957" height="27.5"
	fill="#a090ff"/>
  
  <rect x="799.8532608695651" y="376.5" width="11.054347826086957" height="93.5"
	fill="#a090ff"/>
  
  <rect x="812.1358695652174" y="272.0" width="11.054347826086957" height="198.0"
	fill="#a090ff"/>
  
  <rect x="824.4184782608695" y="233.5" width="11.054347826086957" height="236.5"
	fill="#a090ff"/>
  
  <rect x="836.7010869565217" y="343.5" width="11.054347826086957" height="126.5"
	fill="#a090ff"/>
  
  <rect x="848.9836956521739" y="409.5" width="11.054347826086957" height="60.5"
	fill="#a090ff"/>
  
  <rect x="861.266304347826" y="464.5" width="11.054347826086957" height="5.5"
	fill="#a090ff"/>
  
  <rect x="873.5489130434783" y="437.0" width="11.054347826086957" height="33.0"
	fill="#a090ff"/>
  
  <rect x="885.8315217391304" y="409.5" width="11.054347826086957" height="60.5"
	fill="#a090ff"/>
  
  <rect x="898.1141304347826" y="277.5" width="11.054347826086957" height="192.5"
	fill="#a090ff"/>
  
  <rect x="910.3967391304348" y="321.5" width="11.054347826086957" height="148.5"
	fill="#a090ff"/>
  
  <rect x="922.6793478260869" y="316.0" width="11.054347826086957" height="154.0"
	fill="#a090ff"/>
  
  <rect x="934.9619565217391" y="431.5" width="11.054347826086957" height="38.5"
	fill="#a090ff"/>
  
  <rect x="947.2445652173913" y="393.0" width="11.054347826086957" height="77.0"
	fill="#a090ff"/>
  
  <rect x="959.5271739130434" y="437.0" width="11.054347826086957" height="33.0"
	fill="#a090ff"/>
  
  <rect x="971.8097826086956" y="420.5" width="11.054347826086957" height="49.5"
	fill="#a090ff"/>
  
  <rect x="984.0923913043478" y="354.5" width="11.054347826086957" height="115.5"
	fill="#a090ff"/>
  
  <rect x="996.375" y="387.5" width="11.054347826086957" height="82.5"
	fill="#a090ff"/>
  
  <rect x="1008.6576086956521" y="437.0" width="11.054347826086957" height="33.0"
	fill="#a090ff"/>
  
  <rect x="1020.9402173913043" y="448.0" width="11.054347826086957" height="22.0"
	fill="#a090ff"/>
  
  <rect x="1033.2228260869565" y="453.5" width="11.054347826086957" height="16.5"
	fill="#a090ff"/>
  
  <rect x="1045.5054347826085" y="459.0" width="11.054347826086957" height="11.0"
	fill="#a090ff"/>
  
  <rect x="1057.788043478261" y="431.5" width="11.054347826086957" height="38.5"
	fill="#a090ff"/>
  
  <rect x="1070.070652173913" y="426.0" width="11.054347826086957" height="44.0"
	fill="#a090ff"/>
  
  <rect x="1082.3532608695652" y="431.5" width="11.054347826086957" height="38.5"
	fill="#a090ff"/>
  
  <rect x="1094.6358695652173" y="431.5" width="11.054347826086957" height="38.5"
	fill="#a090ff"/>
  
  <rect x="1106.9184782608695" y="420.5" width="11.054347826086957" height="49.5"
	fill="#a090ff"/>
  
  <rect x="1119.2010869565217" y="437.0" width="11.054347826086957" height="33.0"
	fill="#a090ff"/>
  
  <rect x="1131.4836956521738" y="442.5" width="11.054347826086957" height="27.5"
	fill="#a090ff"/>
  
  <rect x="1143.766304347826" y="354.5" width="11.054347826086957" height="115.5"
	fill="#a090ff"/>
  
  <rect x="1156.0489130434783" y="459.0" width="11.054347826086957" height="11.0"
	fill="#a090ff"/>
  
  <rect x="1168.3315217391305" y="448.0" width="11.054347826086957" height="22.0"
	fill="#a090ff"/>
  
  
  <line x1="50.0" y1="432.2857142857143" x2="62.28260869565217" y2="426.7857142857143"
	stroke="#0000ff" stroke-width="2"/>
  
  <line x1="62.28260869565217" y1="426.7857142857143" x2="74.56521739130434" y2="420.5"
	stroke="#0000ff" stroke-width="2"/>
  
  <line x1="74.56521739130434" y1="420.5" x2="86.84782608695653" y2="398.5"
	stroke="#0000ff" stroke-width="2"/>
  
  <line x1="86.84782608695653" y1="398.5" x2="99.13043478260869" y2="395.3571428571429"
	stroke="#0000ff" stroke-width="2"/>
  
  <line x1="99.13043478260869" y1="395.3571428571429" x2="111.41304347826087" y2="389.07142857142856"
	stroke="#0000ff" stroke-width="2"/>
  
  <line x1="111.41304347826087" y1="389.07142857142856" x2="123.69565217391305" y2="377.2857142857143"
	stroke="#0000ff" stroke-width="2"/>
  
  <line x1="123.69565217391305" y1="377.2857142857143" x2="135.97826086956522" y2="380.42857142857144"
	stroke="#0000ff" stroke-width="2"/>
  
  <line x1="135.97826086956522" y1="380.42857142857144" x2="148.26086956521738" y2="374.92857142857144"
	stroke="#0000ff" stroke-width="2"/>
  
  <line x1="148.26086956521738" y1="374.92857142857144" x2="160.54347826086956" y2="369.42857142857144"
	stroke="#0000ff" stroke-width="2"/>
  
  <line x1="160.54347826086956" y1="369.42857142857144" x2="172.82608695652175" y2="371.0"
	stroke="#0000ff" stroke-width="2"/>
  
  <line x1="172.82608695652175" y1="371.0" x2="185.1086956521739" y2="370.2142857142857"
	stroke="#0000ff" stroke-width="2"/>
  
  <line x1="185.1086956521739" y1="370.2142857142857" x2="197.3913043478261" y2="371.7857142857143"
	stroke="#0000ff" stroke-width="2"/>
  
  <line x1="197.3913043478261" y1="371.7857142857143" x2="209.67391304347825" y2="367.85714285714283"
	stroke="#0000ff" stroke-width="2"/>
  
  <line x1="209.67391304347825" y1="367.85714285714283" x2="221.95652173913044" y2="363.14285714285717"
	stroke="#0000ff" stroke-width="2"/>
  
  <line x1="221.95652173913044" y1="363.14285714285717" x2="234.2391304347826" y2="316.0"
	stroke="#0000ff" stroke-width="2"/>
  
  <line x1="234.2391304347826" y1="316.0" x2="246.52173913043478" y2="301.07142857142856"
	stroke="#0000ff" stroke-width="2"/>
  
  <line x1="246.52173913043478" y1="301.07142857142856" x2="258.804347826087" y2="300.2857142857143"
	stroke="#0000ff" stroke-width="2"/>
  
  <line x1="258.804347826087" y1="300.2857142857143" x2="271.0869565217391" y2="297.1428571428571"
	stroke="#0000ff" stroke-width="2"/>
  
  <line x1="271.0869565217391" y1="297.1428571428571" x2="283.3695652173913" y2="297.92857142857144"
	stroke="#0000ff" stroke-width="2"/>
  
  <line x1="283.3695652173913" y1="297.92857142857144" x2="295.6521739130435" y2="286.1428571428571"
	stroke="#0000ff" stroke-width="2"/>
  
  <line x1="295.6521739130435" y1="286.1428571428571" x2="307.9347826086956" y2="270.42857142857144"
	stroke="#0000ff" stroke-width="2"/>
  
  <line x1="307.9347826086956" y1="270.42857142857144" x2="320.2173913043478" y2="305.7857142857143"
	stroke="#0000ff" stroke-width="2"/>
  
  <line x1="320.2173913043478" y1="305.7857142857143" x2="332.5" y2="314.42857142857144"
	stroke="#0000ff" stroke-width="2"/>
  
  <line x1="332.5" y1="314.42857142857144" x2="344.7826086956522" y2="312.07142857142856"
	stroke="#0000ff" stroke-width="2"/>
  
  <line x1="344.7826086956522" y1="312.07142857142856" x2="357.0652173913044" y2="294.0"
	stroke="#0000ff" stroke-width="2"/>
  
  <line x1="357.0652173913044" y1="294.0" x2="369.3478260869565" y2="286.1428571428571"
	stroke="#0000ff" stroke-width="2"/>
  
  <line x1="369.3478260869565" y1="286.1428571428571" x2="381.6304347826087" y2="288.5"
	stroke="#0000ff" stroke-width="2"/>
  
  <line x1="381.6304347826087" y1="288.5" x2="393.9130434782609" y2="290.8571428571429"
	stroke="#0000ff" stroke-width="2"/>
  
  <line x1="393.9130434782609" y1="290.8571428571429" x2="406.19565217391306" y2="264.92857142857144"
	stroke="#0000ff" stroke-width="2"/>
  
  <line x1="406.19565217391306" y1="264.92857142857144" x2="418.4782608695652" y2="243.7142857142857"
	stroke="#0000ff" stroke-width="2"/>
  
  <line x1="418.4782608695652" y1="243.7142857142857" x2="430.7608695652174" y2="253.92857142857144"
	stroke="#0000ff" stroke-width="2"/>
  
  <line x1="430.7608695652174" y1="253.92857142857144" x2="443.04347826086956" y2="271.21428571428567"
	stroke="#0000ff" stroke-width="2"/>
  
  <line x1="443.04347826086956" y1="271.21428571428567" x2="455.32608695652175" y2="265.71428571428567"
	stroke="#0000ff" stroke-width="2"/>
  
  <line x1="455.32608695652175" y1="265.71428571428567" x2="467.60869565217394" y2="277.5"
	stroke="#0000ff" stroke-width="2"/>
  
  <line x1="467.60869565217394" y1="277.5" x2="479.89130434782606" y2="284.57142857142856"
	stroke="#0000ff" stroke-width="2"/>
  
  <line x1="479.89130434782606" y1="284.57142857142856" x2="492.17391304347825" y2="301.07142857142856"
	stroke="#0000ff" stroke-width="2"/>
  
  <line x1="492.17391304347825" y1="301.07142857142856" x2="504.45652173913044" y2="305.7857142857143"
	stroke="#0000ff" stroke-width="2"/>
  
  <line x1="504.45652173913044" y1="305.7857142857143" x2="516.7391304347826" y2="293.21428571428567"
	stroke="#0000ff" stroke-width="2"/>
  
  <line x1="516.7391304347826" y1="293.21428571428567" x2="529.0217391304348" y2="273.57142857142856"
	stroke="#0000ff" stroke-width="2"/>
  
  <line x1="529.0217391304348" y1="273.57142857142856" x2="541.304347826087" y2="283.78571428571433"
	stroke="#0000ff" stroke-width="2"/>
  
  <line x1="541.304347826087" y1="283.78571428571433" x2="553.5869565217391" y2="282.21428571428567"
	stroke="#0000ff" stroke-width="2"/>
  
  <line x1="553.5869565217391" y1="282.21428571428567" x2="565.8695652173913" y2="273.57142857142856"
	stroke="#0000ff" stroke-width="2"/>
  
  <line x1="565.8695652173913" y1="273.57142857142856" x2="578.1521739130435" y2="286.1428571428571"
	stroke="#0000ff" stroke-width="2"/>
  
  <line x1="578.1521739130435" y1="286.1428571428571" x2="590.4347826086956" y2="295.57142857142856"
	stroke="#0000ff" stroke-width="2"/>
  
  <line x1="590.4347826086956" y1="295.57142857142856" x2="602.7173913043479" y2="297.92857142857144"
	stroke="#0000ff" stroke-width="2"/>
  
  <line x1="602.7173913043479" y1="297.92857142857144" x2="615.0" y2="309.7142857142857"
	stroke="#0000ff" stroke-width="2"/>
  
  <line x1="615.0" y1="309.7142857142857" x2="627.2826086956521" y2="312.8571428571429"
	stroke="#0000ff" stroke-width="2"/>
  
  <line x1="627.2826086956521" y1="312.8571428571429" x2="639.5652173913044" y2="319.92857142857144"
	stroke="#0000ff" stroke-width="2"/>
  
  <line x1="639.5652173913044" y1="319.92857142857144" x2="651.8478260869565" y2="328.57142857142856"
	stroke="#0000ff" stroke-width="2"/>
  
  <line x1="651.8478260869565" y1="328.57142857142856" x2="664.1304347826087" y2="338.0"
	stroke="#0000ff" stroke-width="2"/>
  
  <line x1="664.1304347826087" y1="338.0" x2="676.4130434782609" y2="356.07142857142856"
	stroke="#0000ff" stroke-width="2"/>
  
  <line x1="676.4130434782609" y1="356.07142857142856" x2="688.695652173913" y2="366.2857142857143"
	stroke="#0000ff" stroke-width="2"/>
  
  <line x1="688.695652173913" y1="366.2857142857143" x2="700.9782608695652" y2="373.35714285714283"
	stroke="#0000ff" stroke-width="2"/>
  
  <line x1="700.9782608695652" y1="373.35714285714283" x2="713.2608695652174" y2="369.42857142857144"
	stroke="#0000ff" stroke-width="2"/>
  
  <line x1="713.2608695652174" y1="369.42857142857144" x2="725.5434782608695" y2="371.0"
	stroke="#0000ff" stroke-width="2"/>
  
  <line x1="725.5434782608695" y1="371.0" x2="737.8260869565217" y2="385.92857142857144"
	stroke="#0000ff" stroke-width="2"/>
  
  <line x1="737.8260869565217" y1="385.92857142857144" x2="750.1086956521739" y2="392.2142857142857"
	stroke="#0000ff" stroke-width="2"/>
  
  <line x1="750.1086956521739" y1="392.2142857142857" x2="762.3913043478261" y2="385.92857142857144"
	stroke="#0000ff" stroke-width="2"/>
  
  <line x1="762.3913043478261" y1="385.92857142857144" x2="774.6739130434783" y2="371.0"
	stroke="#0000ff" stroke-width="2"/>
  
  <line x1="774.6739130434783" y1="371.0" x2="786.9565217391304" y2="352.14285714285717"
	stroke="#0000ff" stroke-width="2"/>
  
  <line x1="786.9565217391304" y1="352.14285714285717" x2="799.2391304347826" y2="352.92857142857144"
	stroke="#0000ff" stroke-width="2"/>
  
  <line x1="799.2391304347826" y1="352.92857142857144" x2="811.5217391304348" y2="357.64285714285717"
	stroke="#0000ff" stroke-width="2"/>
  
  <line x1="811.5217391304348" y1="357.64285714285717" x2="823.804347826087" y2="363.14285714285717"
	stroke="#0000ff" stroke-width="2"/>
  
  <line x1="823.804347826087" y1="363.14285714285717" x2="836.0869565217391" y2="362.35714285714283"
	stroke="#0000ff" stroke-width="2"/>
  
  <line x1="836.0869565217391" y1="362.35714285714283" x2="848.3695652173913" y2="367.07142857142856"
	stroke="#0000ff" stroke-width="2"/>
  
  <line x1="848.3695652173913" y1="367.07142857142856" x2="860.6521739130435" y2="367.85714285714283"
	stroke="#0000ff" stroke-width="2"/>
  
  <line x1="860.6521739130435" y1="367.85714285714283" x2="872.9347826086956" y2="380.42857142857144"
	stroke="#0000ff" stroke-width="2"/>
  
  <line x1="872.9347826086956" y1="380.42857142857144" x2="885.2173913043479" y2="376.5"
	stroke="#0000ff" stroke-width="2"/>
  
  <line x1="885.2173913043479" y1="376.5" x2="897.5" y2="379.64285714285717"
	stroke="#0000ff" stroke-width="2"/>
  
  <line x1="897.5" y1="379.64285714285717" x2="909.7826086956521" y2="369.42857142857144"
	stroke="#0000ff" stroke-width="2"/>
  
  <line x1="909.7826086956521" y1="369.42857142857144" x2="922.0652173913044" y2="369.42857142857144"
	stroke="#0000ff" stroke-width="2"/>
  
  <line x1="922.0652173913044" y1="369.42857142857144" x2="934.3478260869565" y2="371.0"
	stroke="#0000ff" stroke-width="2"/>
  
  <line x1="934.3478260869565" y1="371.0" x2="946.6304347826087" y2="382.0"
	stroke="#0000ff" stroke-width="2"/>
  
  <line x1="946.6304347826087" y1="382.0" x2="958.9130434782609" y2="391.42857142857144"
	stroke="#0000ff" stroke-width="2"/>
  
  <line x1="958.9130434782609" y1="391.42857142857144" x2="971.195652173913" y2="408.7142857142857"
	stroke="#0000ff" stroke-width="2"/>
  
  <line x1="971.195652173913" y1="408.7142857142857" x2="983.4782608695652" y2="411.07142857142856"
	stroke="#0000ff" stroke-width="2"/>
  
  <line x1="983.4782608695652" y1="411.07142857142856" x2="995.7608695652174" y2="419.7142857142857"
	stroke="#0000ff" stroke-width="2"/>
  
  <line x1="995.7608695652174" y1="419.7142857142857" x2="1008.0434782608695" y2="422.8571428571429"
	stroke="#0000ff" stroke-width="2"/>
  
  <line x1="1008.0434782608695" y1="422.8571428571429" x2="1020.3260869565217" y2="424.42857142857144"
	stroke="#0000ff" stroke-width="2"/>
  
  <line x1="1020.3260869565217" y1="424.42857142857144" x2="1032.608695652174" y2="434.6428571428571"
	stroke="#0000ff" stroke-width="2"/>
  
  <line x1="1032.608695652174" y1="434.6428571428571" x2="1044.891304347826" y2="440.92857142857144"
	stroke="#0000ff" stroke-width="2"/>
  
  <line x1="1044.891304347826" y1="440.92857142857144" x2="1057.1739130434783" y2="440.14285714285717"
	stroke="#0000ff" stroke-width="2"/>
  
  <line x1="1057.1739130434783" y1="440.14285714285717" x2="1069.4565217391305" y2="436.2142857142857"
	stroke="#0000ff" stroke-width="2"/>
  
  <line x1="1069.4565217391305" y1="436.2142857142857" x2="1081.7391304347825" y2="433.8571428571429"
	stroke="#0000ff" stroke-width="2"/>
  
  <line x1="1081.7391304347825" y1="433.8571428571429" x2="1094.0217391304348" y2="431.5"
	stroke="#0000ff" stroke-width="2"/>
  
  <line x1="1094.0217391304348" y1="431.5" x2="1106.304347826087" y2="420.5"
	stroke="#0000ff" stroke-width="2"/>
  
  <line x1="1106.304347826087" y1="420.5" x2="1118.586956521739" y2="425.2142857142857"
	stroke="#0000ff" stroke-width="2"/>
  
  <line x1="1118.586956521739" y1="425.2142857142857" x2="1130.8695652173913" y2="427.57142857142856"
	stroke="#0000ff" stroke-width="2"/>
  
  <line x1="1130.8695652173913" y1="427.57142857142856" x2="1143.1521739130435" y2="429.92857142857144"
	stroke="#0000ff" stroke-width="2"/>
  
  <line x1="1143.1521739130435" y1="429.92857142857144" x2="1155.4347826086957" y2="433.8571428571429"
	stroke="#0000ff" stroke-width="2"/>
  
  <line x1="1155.4347826086957" y1="433.8571428571429" x2="1167.7173913043478" y2="435.42857142857144"
	stroke="#0000ff" stroke-width="2"/>
  



  
  <line x1="86.84782608695653" y1="470.0" x2="86.84782608695653" y2="30.0"
	stroke="#c0c0c0"/>
   
  
  <line x1="86.84782608695653" y1="470.0" x2="86.84782608695653" y2="30.0"
	stroke="#606060"/>
   
  
  <line x1="123.69565217391305" y1="470.0" x2="123.69565217391305" y2="30.0"
	stroke="#c0c0c0"/>
   
  
  <line x1="160.54347826086956" y1="470.0" x2="160.54347826086956" y2="30.0"
	stroke="#c0c0c0"/>
   
  <text y="490" x="160.54347826086956" text-anchor="middle" font-size="10">2010</text>
  
  
  <line x1="197.3913043478261" y1="470.0" x2="197.3913043478261" y2="30.0"
	stroke="#c0c0c0"/>
   
  
  <line x1="234.2391304347826" y1="470.0" x2="234.2391304347826" y2="30.0"
	stroke="#c0c0c0"/>
   
  
  <line x1="234.2391304347826" y1="470.0" x2="234.2391304347826" y2="30.0"
	stroke="#606060"/>
   
  
  <line x1="271.0869565217391" y1="470.0" x2="271.0869565217391" y2="30.0"
	stroke="#c0c0c0"/>
   
  
  <line x1="307.9347826086956" y1="470.0" x2="307.9347826086956" y2="30.0"
	stroke="#c0c0c0"/>
   
  <text y="490" x="307.9347826086956" text-anchor="middle" font-size="10">2011</text>
  
  
  <line x1="344.7826086956522" y1="470.0" x2="344.7826086956522" y2="30.0"
	stroke="#c0c0c0"/>
   
  
  <line x1="381.6304347826087" y1="470.0" x2="381.6304347826087" y2="30.0"
	stroke="#c0c0c0"/>
   
  
  <line x1="381.6304347826087" y1="470.0" x2="381.6304347826087" y2="30.0"
	stroke="#606060"/>
   
  
  <line x1="418.4782608695652" y1="470.0" x2="418.4782608695652" y2="30.0"
	stroke="#c0c0c0"/>
   
  
  <line x1="455.32608695652175" y1="470.0" x2="455.32608695652175" y2="30.0"
	stroke="#c0c0c0"/>
   
  <text y="490" x="455.32608695652175" text-anchor="middle" font-size="10">2012</text>
  
  
  <line x1="492.17391304347825" y1="470.0" x2="492.17391304347825" y2="30.0"
	stroke="#c0c0c0"/>
   
  
  <line x1="529.0217391304348" y1="470.0" x2="529.0217391304348" y2="30.0"
	stroke="#c0c0c0"/>
   
  
  <line x1="529.0217391304348" y1="470.0" x2="529.0217391304348" y2="30.0"
	stroke="#606060"/>
   
  
  <line x1="565.8695652173913" y1="470.0" x2="565.8695652173913" y2="30.0"
	stroke="#c0c0c0"/>
   
  
  <line x1="602.7173913043479" y1="470.0" x2="602.7173913043479" y2="30.0"
	stroke="#c0c0c0"/>
   
  <text y="490" x="602.7173913043479" text-anchor="middle" font-size="10">2013</text>
  
  
  <line x1="639.5652173913044" y1="470.0" x2="639.5652173913044" y2="30.0"
	stroke="#c0c0c0"/>
   
  
  <line x1="676.4130434782609" y1="470.0" x2="676.4130434782609" y2="30.0"
	stroke="#c0c0c0"/>
   
  
  <line x1="676.4130434782609" y1="470.0" x2="676.4130434782609" y2="30.0"
	stroke="#606060"/>
   
  
  <line x1="713.2608695652174" y1="470.0" x2="713.2608695652174" y2="30.0"
	stroke="#c0c0c0"/>
   
  
  <line x1="750.1086956521739" y1="470.0" x2="750.1086956521739" y2="30.0"
	stroke="#c0c0c0"/>
   
  <text y="490" x="750.1086956521739" text-anchor="middle" font-size="10">2014</text>
  
  
  <line x1="786.9565217391304" y1="470.0" x2="786.9565217391304" y2="30.0"
	stroke="#c0c0c0"/>
   
  
  <line x1="823.804347826087" y1="470.0" x2="823.804347826087" y2="30.0"
	stroke="#c0c0c0"/>
   
  
  <line x1="823.804347826087" y1="470.0" x2="823.804347826087" y2="30.0"
	stroke="#606060"/>
   
  
  <line x1="860.6521739130435" y1="470.0" x2="860.6521739130435" y2="30.0"
	stroke="#c0c0c0"/>
   
  
  <line x1="897.5" y1="470.0" x2="897.5" y2="30.0"
	stroke="#c0c0c0"/>
   
  <text y="490" x="897.5" text-anchor="middle" font-size="10">2015</text>
  
  
  <line x1="934.3478260869565" y1="470.0" x2="934.3478260869565" y2="30.0"
	stroke="#c0c0c0"/>
   
  
  <line x1="971.195652173913" y1="470.0" x2="971.195652173913" y2="30.0"
	stroke="#c0c0c0"/>
   
  
  <line x1="971.195652173913" y1="470.0" x2="971.195652173913" y2="30.0"
	stroke="#606060"/>
   
  
  <line x1="1008.0434782608695" y1="470.0" x2="1008.0434782608695" y2="30.0"
	stroke="#c0c0c0"/>
   
  
  <line x1="1044.891304347826" y1="470.0" x2="1044.891304347826" y2="30.0"
	stroke="#c0c0c0"/>
   
  <text y="490" x="1044.891304347826" text-anchor="middle" font-size="10">2016</text>
  
  
  <line x1="1081.7391304347825" y1="470.0" x2="1081.7391304347825" y2="30.0"
	stroke="#c0c0c0"/>
   
  
  <line x1="1118.586956521739" y1="470.0" x2="1118.586956521739" y2="30.0"
	stroke="#c0c0c0"/>
   
  
  <line x1="1118.586956521739" y1="470.0" x2="1118.586956521739" y2="30.0"
	stroke="#606060"/>
   
  
  <line x1="1155.4347826086957" y1="470.0" x2="1155.4347826086957" y2="30.0"
	stroke="#c0c0c0"/>
   
  
  
  <line y1="426.0" x1="50.0" y2="426.0" x2="1180.0"
	stroke="#c0c0c0"/>
  
  <text x="45" y="426.0" text-anchor="end" font-size="10">8</text>
  
  
  <line y1="382.0" x1="50.0" y2="382.0" x2="1180.0"
	stroke="#c0c0c0"/>
  
  <text x="45" y="382.0" text-anchor="end" font-size="10">16</text>
  
  
  <line y1="338.0" x1="50.0" y2="338.0" x2="1180.0"
	stroke="#c0c0c0"/>
  
  <text x="45" y="338.0" text-anchor="end" font-size="10">24</text>
  
  
  <line y1="294.0" x1="50.0" y2="294.0" x2="1180.0"
	stroke="#c0c0c0"/>
  
  <text x="45" y="294.0" text-anchor="end" font-size="10">32</text>
  
  
  <line y1="250.0" x1="50.0" y2="250.0" x2="1180.0"
	stroke="#c0c0c0"/>
  
  <text x="45" y="250.0" text-anchor="end" font-size="10">40</text>
  
  
  <line y1="206.0" x1="50.0" y2="206.0" x2="1180.0"
	stroke="#c0c0c0"/>
  
  <text x="45" y="206.0" text-anchor="end" font-size="10">48</text>
  
  
  <line y1="162.0" x1="50.0" y2="162.0" x2="1180.0"
	stroke="#c0c0c0"/>
  
  <text x="45" y="162.0" text-anchor="end" font-size="10">56</text>
  
  
  <line y1="118.0" x1="50.0" y2="118.0" x2="1180.0"
	stroke="#c0c0c0"/>
  
  <text x="45" y="118.0" text-anchor="end" font-size="10">64</text>
  
  
  <line y1="74.0" x1="50.0" y2="74.0" x2="1180.0"
	stroke="#c0c0c0"/>
  
  <text x="45" y="74.0" text-anchor="end" font-size="10">72</text>
  
  

</svg>
