<?xml version="1.0" encoding="UTF-8" standalone="no"?>
<!-- Created with Inkscape (http://www.inkscape.org/) -->
<!DOCTYPE svg PUBLIC "-//W3C//DTD SVG 1.1//EN" "http://www.w3.org/Graphics/SVG/1.1/DTD/svg11.dtd"> 

<svg
   xmlns="http://www.w3.org/2000/svg"
   width="1200"
   height="500"
   version="1.1"
   style="enable-background:new">

  <rect x="0" y="0" width="1200" height="500"
	fill="#e0e0e0"/>

  <text x="615.0" y="20.0" text-anchor="middle" font-size="12">Number of topics per month on forum &quot;Documentazione&quot; (and children)</text>

  <rect x="50" y="30" width="1130" height="440"
	fill="white" stroke="black" stroke-width="2"/>
  
  <rect x="50.61413043478261" y="243.71428571428572" width="11.054347826086957" height="226.28571428571428"
	fill="#a090ff"/>
  
  <rect x="62.89673913043478" y="356.8571428571429" width="11.054347826086957" height="113.14285714285714"
	fill="#a090ff"/>
  
  <rect x="75.17934782608695" y="331.7142857142857" width="11.054347826086957" height="138.28571428571428"
	fill="#a090ff"/>
  
  <rect x="87.46195652173913" y="256.2857142857143" width="11.054347826086957" height="213.71428571428572"
	fill="#a090ff"/>
  
  <rect x="99.74456521739131" y="294.0" width="11.054347826086957" height="176.0"
	fill="#a090ff"/>
  
  <rect x="112.02717391304347" y="350.57142857142856" width="11.054347826086957" height="119.42857142857143"
	fill="#a090ff"/>
  
  <rect x="124.30978260869566" y="306.57142857142856" width="11.054347826086957" height="163.42857142857142"
	fill="#a090ff"/>
  
  <rect x="136.5923913043478" y="268.8571428571429" width="11.054347826086957" height="201.14285714285714"
	fill="#a090ff"/>
  
  <rect x="148.875" y="268.8571428571429" width="11.054347826086957" height="201.14285714285714"
	fill="#a090ff"/>
  
  <rect x="161.1576086956522" y="256.2857142857143" width="11.054347826086957" height="213.71428571428572"
	fill="#a090ff"/>
  
  <rect x="173.44021739130437" y="250.0" width="11.054347826086957" height="220.0"
	fill="#a090ff"/>
  
  <rect x="185.72282608695653" y="275.1428571428571" width="11.054347826086957" height="194.85714285714286"
	fill="#a090ff"/>
  
  <rect x="198.00543478260872" y="275.1428571428571" width="11.054347826086957" height="194.85714285714286"
	fill="#a090ff"/>
  
  <rect x="210.28804347826087" y="218.57142857142858" width="11.054347826086957" height="251.42857142857142"
	fill="#a090ff"/>
  
  <rect x="222.57065217391306" y="356.8571428571429" width="11.054347826086957" height="113.14285714285714"
	fill="#a090ff"/>
  
  <rect x="234.85326086956522" y="180.8571428571429" width="11.054347826086957" height="289.1428571428571"
	fill="#a090ff"/>
  
  <rect x="247.1358695652174" y="74.0" width="11.054347826086957" height="396.0"
	fill="#a090ff"/>
  
  <rect x="259.41847826086956" y="130.57142857142856" width="11.054347826086957" height="339.42857142857144"
	fill="#a090ff"/>
  
  <rect x="271.70108695652175" y="111.71428571428572" width="11.054347826086957" height="358.2857142857143"
	fill="#a090ff"/>
  
  <rect x="283.9836956521739" y="42.571428571428555" width="11.054347826086957" height="427.42857142857144"
	fill="#a090ff"/>
  
  <rect x="296.2663043478261" y="174.57142857142856" width="11.054347826086957" height="295.42857142857144"
	fill="#a090ff"/>
  
  <rect x="308.54891304347825" y="268.8571428571429" width="11.054347826086957" height="201.14285714285714"
	fill="#a090ff"/>
  
  <rect x="320.83152173913044" y="187.14285714285717" width="11.054347826086957" height="282.85714285714283"
	fill="#a090ff"/>
  
  <rect x="333.1141304347826" y="281.42857142857144" width="11.054347826086957" height="188.57142857142856"
	fill="#a090ff"/>
  
  <rect x="345.3967391304348" y="287.7142857142857" width="11.054347826086957" height="182.28571428571428"
	fill="#a090ff"/>
  
  <rect x="357.67934782608694" y="262.57142857142856" width="11.054347826086957" height="207.42857142857142"
	fill="#a090ff"/>
  
  <rect x="369.9619565217391" y="268.8571428571429" width="11.054347826086957" height="201.14285714285714"
	fill="#a090ff"/>
  
  <rect x="382.2445652173913" y="250.0" width="11.054347826086957" height="220.0"
	fill="#a090ff"/>
  
  <rect x="394.5271739130435" y="136.8571428571429" width="11.054347826086957" height="333.1428571428571"
	fill="#a090ff"/>
  
  <rect x="406.8097826086957" y="268.8571428571429" width="11.054347826086957" height="201.14285714285714"
	fill="#a090ff"/>
  
  <rect x="419.0923913043478" y="287.7142857142857" width="11.054347826086957" height="182.28571428571428"
	fill="#a090ff"/>
  
  <rect x="431.375" y="224.85714285714286" width="11.054347826086957" height="245.14285714285714"
	fill="#a090ff"/>
  
  <rect x="443.65760869565213" y="218.57142857142858" width="11.054347826086957" height="251.42857142857142"
	fill="#a090ff"/>
  
  <rect x="455.9402173913043" y="275.1428571428571" width="11.054347826086957" height="194.85714285714286"
	fill="#a090ff"/>
  
  <rect x="468.2228260869565" y="369.42857142857144" width="11.054347826086957" height="100.57142857142857"
	fill="#a090ff"/>
  
  <rect x="480.50543478260863" y="250.0" width="11.054347826086957" height="220.0"
	fill="#a090ff"/>
  
  <rect x="492.7880434782608" y="224.85714285714286" width="11.054347826086957" height="245.14285714285714"
	fill="#a090ff"/>
  
  <rect x="505.070652173913" y="287.7142857142857" width="11.054347826086957" height="182.28571428571428"
	fill="#a090ff"/>
  
  <rect x="517.3532608695652" y="42.571428571428555" width="11.054347826086957" height="427.42857142857144"
	fill="#a090ff"/>
  
  <rect x="529.6358695652174" y="42.571428571428555" width="11.054347826086957" height="427.42857142857144"
	fill="#a090ff"/>
  
  <rect x="541.9184782608695" y="86.57142857142856" width="11.054347826086957" height="383.42857142857144"
	fill="#a090ff"/>
  
  <rect x="554.2010869565217" y="55.14285714285717" width="11.054347826086957" height="414.85714285714283"
	fill="#a090ff"/>
  
  <rect x="566.4836956521739" y="149.42857142857144" width="11.054347826086957" height="320.57142857142856"
	fill="#a090ff"/>
  
  <rect x="578.766304347826" y="331.7142857142857" width="11.054347826086957" height="138.28571428571428"
	fill="#a090ff"/>
  
  <rect x="591.0489130434783" y="180.8571428571429" width="11.054347826086957" height="289.1428571428571"
	fill="#a090ff"/>
  
  <rect x="603.3315217391304" y="237.42857142857144" width="11.054347826086957" height="232.57142857142856"
	fill="#a090ff"/>
  
  <rect x="615.6141304347826" y="199.71428571428572" width="11.054347826086957" height="270.2857142857143"
	fill="#a090ff"/>
  
  <rect x="627.8967391304348" y="155.71428571428572" width="11.054347826086957" height="314.2857142857143"
	fill="#a090ff"/>
  
  <rect x="640.1793478260869" y="55.14285714285717" width="11.054347826086957" height="414.85714285714283"
	fill="#a090ff"/>
  
  <rect x="652.4619565217391" y="118.0" width="11.054347826086957" height="352.0"
	fill="#a090ff"/>
  
  <rect x="664.7445652173913" y="300.2857142857143" width="11.054347826086957" height="169.71428571428572"
	fill="#a090ff"/>
  
  <rect x="677.0271739130434" y="187.14285714285717" width="11.054347826086957" height="282.85714285714283"
	fill="#a090ff"/>
  
  <rect x="689.3097826086956" y="180.8571428571429" width="11.054347826086957" height="289.1428571428571"
	fill="#a090ff"/>
  
  <rect x="701.5923913043478" y="149.42857142857144" width="11.054347826086957" height="320.57142857142856"
	fill="#a090ff"/>
  
  <rect x="713.875" y="325.42857142857144" width="11.054347826086957" height="144.57142857142856"
	fill="#a090ff"/>
  
  <rect x="726.1576086956521" y="168.28571428571428" width="11.054347826086957" height="301.7142857142857"
	fill="#a090ff"/>
  
  <rect x="738.4402173913043" y="312.8571428571429" width="11.054347826086957" height="157.14285714285714"
	fill="#a090ff"/>
  
  <rect x="750.7228260869565" y="262.57142857142856" width="11.054347826086957" height="207.42857142857142"
	fill="#a090ff"/>
  
  <rect x="763.0054347826086" y="306.57142857142856" width="11.054347826086957" height="163.42857142857142"
	fill="#a090ff"/>
  
  <rect x="775.2880434782609" y="306.57142857142856" width="11.054347826086957" height="163.42857142857142"
	fill="#a090ff"/>
  
  <rect x="787.570652173913" y="294.0" width="11.054347826086957" height="176.0"
	fill="#a090ff"/>
  
  <rect x="799.8532608695651" y="325.42857142857144" width="11.054347826086957" height="144.57142857142856"
	fill="#a090ff"/>
  
  <rect x="812.1358695652174" y="256.2857142857143" width="11.054347826086957" height="213.71428571428572"
	fill="#a090ff"/>
  
  <rect x="824.4184782608695" y="250.0" width="11.054347826086957" height="220.0"
	fill="#a090ff"/>
  
  <rect x="836.7010869565217" y="344.2857142857143" width="11.054347826086957" height="125.71428571428571"
	fill="#a090ff"/>
  
  <rect x="848.9836956521739" y="300.2857142857143" width="11.054347826086957" height="169.71428571428572"
	fill="#a090ff"/>
  
  <rect x="861.266304347826" y="344.2857142857143" width="11.054347826086957" height="125.71428571428571"
	fill="#a090ff"/>
  
  <rect x="873.5489130434783" y="300.2857142857143" width="11.054347826086957" height="169.71428571428572"
	fill="#a090ff"/>
  
  <rect x="885.8315217391304" y="350.57142857142856" width="11.054347826086957" height="119.42857142857143"
	fill="#a090ff"/>
  
  <rect x="898.1141304347826" y="350.57142857142856" width="11.054347826086957" height="119.42857142857143"
	fill="#a090ff"/>
  
  <rect x="910.3967391304348" y="350.57142857142856" width="11.054347826086957" height="119.42857142857143"
	fill="#a090ff"/>
  
  <rect x="922.6793478260869" y="275.1428571428571" width="11.054347826086957" height="194.85714285714286"
	fill="#a090ff"/>
  
  <rect x="934.9619565217391" y="338.0" width="11.054347826086957" height="132.0"
	fill="#a090ff"/>
  
  <rect x="947.2445652173913" y="375.7142857142857" width="11.054347826086957" height="94.28571428571428"
	fill="#a090ff"/>
  
  <rect x="959.5271739130434" y="388.2857142857143" width="11.054347826086957" height="81.71428571428571"
	fill="#a090ff"/>
  
  <rect x="971.8097826086956" y="382.0" width="11.054347826086957" height="88.0"
	fill="#a090ff"/>
  
  <rect x="984.0923913043478" y="294.0" width="11.054347826086957" height="176.0"
	fill="#a090ff"/>
  
  <rect x="996.375" y="363.1428571428571" width="11.054347826086957" height="106.85714285714286"
	fill="#a090ff"/>
  
  <rect x="1008.6576086956521" y="369.42857142857144" width="11.054347826086957" height="100.57142857142857"
	fill="#a090ff"/>
  
  <rect x="1020.9402173913043" y="382.0" width="11.054347826086957" height="88.0"
	fill="#a090ff"/>
  
  <rect x="1033.2228260869565" y="407.14285714285717" width="11.054347826086957" height="62.857142857142854"
	fill="#a090ff"/>
  
  <rect x="1045.5054347826085" y="382.0" width="11.054347826086957" height="88.0"
	fill="#a090ff"/>
  
  <rect x="1057.788043478261" y="407.14285714285717" width="11.054347826086957" height="62.857142857142854"
	fill="#a090ff"/>
  
  <rect x="1070.070652173913" y="432.2857142857143" width="11.054347826086957" height="37.714285714285715"
	fill="#a090ff"/>
  
  <rect x="1082.3532608695652" y="419.7142857142857" width="11.054347826086957" height="50.285714285714285"
	fill="#a090ff"/>
  
  <rect x="1094.6358695652173" y="400.8571428571429" width="11.054347826086957" height="69.14285714285714"
	fill="#a090ff"/>
  
  <rect x="1106.9184782608695" y="325.42857142857144" width="11.054347826086957" height="144.57142857142856"
	fill="#a090ff"/>
  
  <rect x="1119.2010869565217" y="268.8571428571429" width="11.054347826086957" height="201.14285714285714"
	fill="#a090ff"/>
  
  <rect x="1131.4836956521738" y="268.8571428571429" width="11.054347826086957" height="201.14285714285714"
	fill="#a090ff"/>
  
  <rect x="1143.766304347826" y="306.57142857142856" width="11.054347826086957" height="163.42857142857142"
	fill="#a090ff"/>
  
  <rect x="1156.0489130434783" y="331.7142857142857" width="11.054347826086957" height="138.28571428571428"
	fill="#a090ff"/>
  
  <rect x="1168.3315217391305" y="319.1428571428571" width="11.054347826086957" height="150.85714285714286"
	fill="#a090ff"/>
  
  
  <line x1="50.0" y1="371.2244897959184" x2="62.28260869565217" y2="346.0816326530612"
	stroke="#0000ff" stroke-width="2"/>
  
  <line x1="62.28260869565217" y1="346.0816326530612" x2="74.56521739130434" y2="329.0204081632653"
	stroke="#0000ff" stroke-width="2"/>
  
  <line x1="74.56521739130434" y1="329.0204081632653" x2="86.84782608695653" y2="305.6734693877551"
	stroke="#0000ff" stroke-width="2"/>
  
  <line x1="86.84782608695653" y1="305.6734693877551" x2="99.13043478260869" y2="309.265306122449"
	stroke="#0000ff" stroke-width="2"/>
  
  <line x1="99.13043478260869" y1="309.265306122449" x2="111.41304347826087" y2="296.69387755102036"
	stroke="#0000ff" stroke-width="2"/>
  
  <line x1="111.41304347826087" y1="296.69387755102036" x2="123.69565217391305" y2="285.9183673469388"
	stroke="#0000ff" stroke-width="2"/>
  
  <line x1="123.69565217391305" y1="285.9183673469388" x2="135.97826086956522" y2="285.0204081632653"
	stroke="#0000ff" stroke-width="2"/>
  
  <line x1="135.97826086956522" y1="285.0204081632653" x2="148.26086956521738" y2="282.32653061224494"
	stroke="#0000ff" stroke-width="2"/>
  
  <line x1="148.26086956521738" y1="282.32653061224494" x2="160.54347826086956" y2="271.55102040816325"
	stroke="#0000ff" stroke-width="2"/>
  
  <line x1="160.54347826086956" y1="271.55102040816325" x2="172.82608695652175" y2="258.9795918367347"
	stroke="#0000ff" stroke-width="2"/>
  
  <line x1="172.82608695652175" y1="258.9795918367347" x2="185.1086956521739" y2="271.55102040816325"
	stroke="#0000ff" stroke-width="2"/>
  
  <line x1="185.1086956521739" y1="271.55102040816325" x2="197.3913043478261" y2="258.9795918367347"
	stroke="#0000ff" stroke-width="2"/>
  
  <line x1="197.3913043478261" y1="258.9795918367347" x2="209.67391304347825" y2="232.93877551020407"
	stroke="#0000ff" stroke-width="2"/>
  
  <line x1="209.67391304347825" y1="232.93877551020407" x2="221.95652173913044" y2="215.87755102040816"
	stroke="#0000ff" stroke-width="2"/>
  
  <line x1="221.95652173913044" y1="215.87755102040816" x2="234.2391304347826" y2="192.53061224489795"
	stroke="#0000ff" stroke-width="2"/>
  
  <line x1="234.2391304347826" y1="192.53061224489795" x2="246.52173913043478" y2="159.30612244897958"
	stroke="#0000ff" stroke-width="2"/>
  
  <line x1="246.52173913043478" y1="159.30612244897958" x2="258.804347826087" y2="153.0204081632653"
	stroke="#0000ff" stroke-width="2"/>
  
  <line x1="258.804347826087" y1="153.0204081632653" x2="271.0869565217391" y2="140.44897959183675"
	stroke="#0000ff" stroke-width="2"/>
  
  <line x1="271.0869565217391" y1="140.44897959183675" x2="283.3695652173913" y2="141.34693877551024"
	stroke="#0000ff" stroke-width="2"/>
  
  <line x1="283.3695652173913" y1="141.34693877551024" x2="295.6521739130435" y2="170.9795918367347"
	stroke="#0000ff" stroke-width="2"/>
  
  <line x1="295.6521739130435" y1="170.9795918367347" x2="307.9347826086956" y2="193.42857142857144"
	stroke="#0000ff" stroke-width="2"/>
  
  <line x1="307.9347826086956" y1="193.42857142857144" x2="320.2173913043478" y2="214.9795918367347"
	stroke="#0000ff" stroke-width="2"/>
  
  <line x1="320.2173913043478" y1="214.9795918367347" x2="332.5" y2="247.30612244897958"
	stroke="#0000ff" stroke-width="2"/>
  
  <line x1="332.5" y1="247.30612244897958" x2="344.7826086956522" y2="258.0816326530612"
	stroke="#0000ff" stroke-width="2"/>
  
  <line x1="344.7826086956522" y1="258.0816326530612" x2="357.0652173913044" y2="239.22448979591837"
	stroke="#0000ff" stroke-width="2"/>
  
  <line x1="357.0652173913044" y1="239.22448979591837" x2="369.3478260869565" y2="250.8979591836735"
	stroke="#0000ff" stroke-width="2"/>
  
  <line x1="369.3478260869565" y1="250.8979591836735" x2="381.6304347826087" y2="251.79591836734693"
	stroke="#0000ff" stroke-width="2"/>
  
  <line x1="381.6304347826087" y1="251.79591836734693" x2="393.9130434782609" y2="242.81632653061223"
	stroke="#0000ff" stroke-width="2"/>
  
  <line x1="393.9130434782609" y1="242.81632653061223" x2="406.19565217391306" y2="236.53061224489795"
	stroke="#0000ff" stroke-width="2"/>
  
  <line x1="406.19565217391306" y1="236.53061224489795" x2="418.4782608695652" y2="237.42857142857144"
	stroke="#0000ff" stroke-width="2"/>
  
  <line x1="418.4782608695652" y1="237.42857142857144" x2="430.7608695652174" y2="254.48979591836735"
	stroke="#0000ff" stroke-width="2"/>
  
  <line x1="430.7608695652174" y1="254.48979591836735" x2="443.04347826086956" y2="270.65306122448976"
	stroke="#0000ff" stroke-width="2"/>
  
  <line x1="443.04347826086956" y1="270.65306122448976" x2="455.32608695652175" y2="264.36734693877554"
	stroke="#0000ff" stroke-width="2"/>
  
  <line x1="455.32608695652175" y1="264.36734693877554" x2="467.60869565217394" y2="264.36734693877554"
	stroke="#0000ff" stroke-width="2"/>
  
  <line x1="467.60869565217394" y1="264.36734693877554" x2="479.89130434782606" y2="238.3265306122449"
	stroke="#0000ff" stroke-width="2"/>
  
  <line x1="479.89130434782606" y1="238.3265306122449" x2="492.17391304347825" y2="213.18367346938777"
	stroke="#0000ff" stroke-width="2"/>
  
  <line x1="492.17391304347825" y1="213.18367346938777" x2="504.45652173913044" y2="186.24489795918367"
	stroke="#0000ff" stroke-width="2"/>
  
  <line x1="504.45652173913044" y1="186.24489795918367" x2="516.7391304347826" y2="141.34693877551024"
	stroke="#0000ff" stroke-width="2"/>
  
  <line x1="516.7391304347826" y1="141.34693877551024" x2="529.0217391304348" y2="126.9795918367347"
	stroke="#0000ff" stroke-width="2"/>
  
  <line x1="529.0217391304348" y1="126.9795918367347" x2="541.304347826087" y2="142.24489795918367"
	stroke="#0000ff" stroke-width="2"/>
  
  <line x1="541.304347826087" y1="142.24489795918367" x2="553.5869565217391" y2="126.9795918367347"
	stroke="#0000ff" stroke-width="2"/>
  
  <line x1="553.5869565217391" y1="126.9795918367347" x2="565.8695652173913" y2="154.81632653061223"
	stroke="#0000ff" stroke-width="2"/>
  
  <line x1="565.8695652173913" y1="154.81632653061223" x2="578.1521739130435" y2="177.26530612244898"
	stroke="#0000ff" stroke-width="2"/>
  
  <line x1="578.1521739130435" y1="177.26530612244898" x2="590.4347826086956" y2="187.14285714285717"
	stroke="#0000ff" stroke-width="2"/>
  
  <line x1="590.4347826086956" y1="187.14285714285717" x2="602.7173913043479" y2="187.14285714285717"
	stroke="#0000ff" stroke-width="2"/>
  
  <line x1="602.7173913043479" y1="187.14285714285717" x2="615.0" y2="182.65306122448982"
	stroke="#0000ff" stroke-width="2"/>
  
  <line x1="615.0" y1="182.65306122448982" x2="627.2826086956521" y2="178.16326530612247"
	stroke="#0000ff" stroke-width="2"/>
  
  <line x1="627.2826086956521" y1="178.16326530612247" x2="639.5652173913044" y2="179.0612244897959"
	stroke="#0000ff" stroke-width="2"/>
  
  <line x1="639.5652173913044" y1="179.0612244897959" x2="651.8478260869565" y2="170.9795918367347"
	stroke="#0000ff" stroke-width="2"/>
  
  <line x1="651.8478260869565" y1="170.9795918367347" x2="664.1304347826087" y2="163.79591836734693"
	stroke="#0000ff" stroke-width="2"/>
  
  <line x1="664.1304347826087" y1="163.79591836734693" x2="676.4130434782609" y2="188.04081632653066"
	stroke="#0000ff" stroke-width="2"/>
  
  <line x1="676.4130434782609" y1="188.04081632653066" x2="688.695652173913" y2="204.20408163265307"
	stroke="#0000ff" stroke-width="2"/>
  
  <line x1="688.695652173913" y1="204.20408163265307" x2="700.9782608695652" y2="232.04081632653063"
	stroke="#0000ff" stroke-width="2"/>
  
  <line x1="700.9782608695652" y1="232.04081632653063" x2="713.2608695652174" y2="226.6530612244898"
	stroke="#0000ff" stroke-width="2"/>
  
  <line x1="713.2608695652174" y1="226.6530612244898" x2="725.5434782608695" y2="243.71428571428572"
	stroke="#0000ff" stroke-width="2"/>
  
  <line x1="725.5434782608695" y1="243.71428571428572" x2="737.8260869565217" y2="261.67346938775506"
	stroke="#0000ff" stroke-width="2"/>
  
  <line x1="737.8260869565217" y1="261.67346938775506" x2="750.1086956521739" y2="282.32653061224494"
	stroke="#0000ff" stroke-width="2"/>
  
  <line x1="750.1086956521739" y1="282.32653061224494" x2="762.3913043478261" y2="282.32653061224494"
	stroke="#0000ff" stroke-width="2"/>
  
  <line x1="762.3913043478261" y1="282.32653061224494" x2="774.6739130434783" y2="294.8979591836735"
	stroke="#0000ff" stroke-width="2"/>
  
  <line x1="774.6739130434783" y1="294.8979591836735" x2="786.9565217391304" y2="285.9183673469388"
	stroke="#0000ff" stroke-width="2"/>
  
  <line x1="786.9565217391304" y1="285.9183673469388" x2="799.2391304347826" y2="297.59183673469386"
	stroke="#0000ff" stroke-width="2"/>
  
  <line x1="799.2391304347826" y1="297.59183673469386" x2="811.5217391304348" y2="296.69387755102036"
	stroke="#0000ff" stroke-width="2"/>
  
  <line x1="811.5217391304348" y1="296.69387755102036" x2="823.804347826087" y2="302.0816326530612"
	stroke="#0000ff" stroke-width="2"/>
  
  <line x1="823.804347826087" y1="302.0816326530612" x2="836.0869565217391" y2="302.9795918367347"
	stroke="#0000ff" stroke-width="2"/>
  
  <line x1="836.0869565217391" y1="302.9795918367347" x2="848.3695652173913" y2="306.57142857142856"
	stroke="#0000ff" stroke-width="2"/>
  
  <line x1="848.3695652173913" y1="306.57142857142856" x2="860.6521739130435" y2="320.0408163265306"
	stroke="#0000ff" stroke-width="2"/>
  
  <line x1="860.6521739130435" y1="320.0408163265306" x2="872.9347826086956" y2="334.40816326530614"
	stroke="#0000ff" stroke-width="2"/>
  
  <line x1="872.9347826086956" y1="334.40816326530614" x2="885.2173913043479" y2="324.53061224489795"
	stroke="#0000ff" stroke-width="2"/>
  
  <line x1="885.2173913043479" y1="324.53061224489795" x2="897.5" y2="329.9183673469388"
	stroke="#0000ff" stroke-width="2"/>
  
  <line x1="897.5" y1="329.9183673469388" x2="909.7826086956521" y2="334.40816326530614"
	stroke="#0000ff" stroke-width="2"/>
  
  <line x1="909.7826086956521" y1="334.40816326530614" x2="922.0652173913044" y2="346.9795918367347"
	stroke="#0000ff" stroke-width="2"/>
  
  <line x1="922.0652173913044" y1="346.9795918367347" x2="934.3478260869565" y2="351.46938775510205"
	stroke="#0000ff" stroke-width="2"/>
  
  <line x1="934.3478260869565" y1="351.46938775510205" x2="946.6304347826087" y2="343.38775510204084"
	stroke="#0000ff" stroke-width="2"/>
  
  <line x1="946.6304347826087" y1="343.38775510204084" x2="958.9130434782609" y2="345.18367346938777"
	stroke="#0000ff" stroke-width="2"/>
  
  <line x1="958.9130434782609" y1="345.18367346938777" x2="971.195652173913" y2="358.65306122448976"
	stroke="#0000ff" stroke-width="2"/>
  
  <line x1="971.195652173913" y1="358.65306122448976" x2="983.4782608695652" y2="364.9387755102041"
	stroke="#0000ff" stroke-width="2"/>
  
  <line x1="983.4782608695652" y1="364.9387755102041" x2="995.7608695652174" y2="369.42857142857144"
	stroke="#0000ff" stroke-width="2"/>
  
  <line x1="995.7608695652174" y1="369.42857142857144" x2="1008.0434782608695" y2="368.53061224489795"
	stroke="#0000ff" stroke-width="2"/>
  
  <line x1="1008.0434782608695" y1="368.53061224489795" x2="1020.3260869565217" y2="372.1224489795918"
	stroke="#0000ff" stroke-width="2"/>
  
  <line x1="1020.3260869565217" y1="372.1224489795918" x2="1032.608695652174" y2="391.8775510204082"
	stroke="#0000ff" stroke-width="2"/>
  
  <line x1="1032.608695652174" y1="391.8775510204082" x2="1044.891304347826" y2="399.9591836734694"
	stroke="#0000ff" stroke-width="2"/>
  
  <line x1="1044.891304347826" y1="399.9591836734694" x2="1057.1739130434783" y2="404.44897959183675"
	stroke="#0000ff" stroke-width="2"/>
  
  <line x1="1057.1739130434783" y1="404.44897959183675" x2="1069.4565217391305" y2="396.36734693877554"
	stroke="#0000ff" stroke-width="2"/>
  
  <line x1="1069.4565217391305" y1="396.36734693877554" x2="1081.7391304347825" y2="376.61224489795916"
	stroke="#0000ff" stroke-width="2"/>
  
  <line x1="1081.7391304347825" y1="376.61224489795916" x2="1094.0217391304348" y2="360.44897959183675"
	stroke="#0000ff" stroke-width="2"/>
  
  <line x1="1094.0217391304348" y1="360.44897959183675" x2="1106.304347826087" y2="346.0816326530612"
	stroke="#0000ff" stroke-width="2"/>
  
  <line x1="1106.304347826087" y1="346.0816326530612" x2="1118.586956521739" y2="331.7142857142857"
	stroke="#0000ff" stroke-width="2"/>
  
  <line x1="1118.586956521739" y1="331.7142857142857" x2="1130.8695652173913" y2="317.34693877551024"
	stroke="#0000ff" stroke-width="2"/>
  
  <line x1="1130.8695652173913" y1="317.34693877551024" x2="1143.1521739130435" y2="305.6734693877551"
	stroke="#0000ff" stroke-width="2"/>
  
  <line x1="1143.1521739130435" y1="305.6734693877551" x2="1155.4347826086957" y2="304.7755102040817"
	stroke="#0000ff" stroke-width="2"/>
  
  <line x1="1155.4347826086957" y1="304.7755102040817" x2="1167.7173913043478" y2="311.9591836734694"
	stroke="#0000ff" stroke-width="2"/>
  



  
  <line x1="86.84782608695653" y1="470.0" x2="86.84782608695653" y2="30.0"
	stroke="#c0c0c0"/>
   
  
  <line x1="86.84782608695653" y1="470.0" x2="86.84782608695653" y2="30.0"
	stroke="#606060"/>
   
  
  <line x1="123.69565217391305" y1="470.0" x2="123.69565217391305" y2="30.0"
	stroke="#c0c0c0"/>
   
  
  <line x1="160.54347826086956" y1="470.0" x2="160.54347826086956" y2="30.0"
	stroke="#c0c0c0"/>
   
  <text y="490" x="160.54347826086956" text-anchor="middle" font-size="10">2010</text>
  
  
  <line x1="197.3913043478261" y1="470.0" x2="197.3913043478261" y2="30.0"
	stroke="#c0c0c0"/>
   
  
  <line x1="234.2391304347826" y1="470.0" x2="234.2391304347826" y2="30.0"
	stroke="#c0c0c0"/>
   
  
  <line x1="234.2391304347826" y1="470.0" x2="234.2391304347826" y2="30.0"
	stroke="#606060"/>
   
  
  <line x1="271.0869565217391" y1="470.0" x2="271.0869565217391" y2="30.0"
	stroke="#c0c0c0"/>
   
  
  <line x1="307.9347826086956" y1="470.0" x2="307.9347826086956" y2="30.0"
	stroke="#c0c0c0"/>
   
  <text y="490" x="307.9347826086956" text-anchor="middle" font-size="10">2011</text>
  
  
  <line x1="344.7826086956522" y1="470.0" x2="344.7826086956522" y2="30.0"
	stroke="#c0c0c0"/>
   
  
  <line x1="381.6304347826087" y1="470.0" x2="381.6304347826087" y2="30.0"
	stroke="#c0c0c0"/>
   
  
  <line x1="381.6304347826087" y1="470.0" x2="381.6304347826087" y2="30.0"
	stroke="#606060"/>
   
  
  <line x1="418.4782608695652" y1="470.0" x2="418.4782608695652" y2="30.0"
	stroke="#c0c0c0"/>
   
  
  <line x1="455.32608695652175" y1="470.0" x2="455.32608695652175" y2="30.0"
	stroke="#c0c0c0"/>
   
  <text y="490" x="455.32608695652175" text-anchor="middle" font-size="10">2012</text>
  
  
  <line x1="492.17391304347825" y1="470.0" x2="492.17391304347825" y2="30.0"
	stroke="#c0c0c0"/>
   
  
  <line x1="529.0217391304348" y1="470.0" x2="529.0217391304348" y2="30.0"
	stroke="#c0c0c0"/>
   
  
  <line x1="529.0217391304348" y1="470.0" x2="529.0217391304348" y2="30.0"
	stroke="#606060"/>
   
  
  <line x1="565.8695652173913" y1="470.0" x2="565.8695652173913" y2="30.0"
	stroke="#c0c0c0"/>
   
  
  <line x1="602.7173913043479" y1="470.0" x2="602.7173913043479" y2="30.0"
	stroke="#c0c0c0"/>
   
  <text y="490" x="602.7173913043479" text-anchor="middle" font-size="10">2013</text>
  
  
  <line x1="639.5652173913044" y1="470.0" x2="639.5652173913044" y2="30.0"
	stroke="#c0c0c0"/>
   
  
  <line x1="676.4130434782609" y1="470.0" x2="676.4130434782609" y2="30.0"
	stroke="#c0c0c0"/>
   
  
  <line x1="676.4130434782609" y1="470.0" x2="676.4130434782609" y2="30.0"
	stroke="#606060"/>
   
  
  <line x1="713.2608695652174" y1="470.0" x2="713.2608695652174" y2="30.0"
	stroke="#c0c0c0"/>
   
  
  <line x1="750.1086956521739" y1="470.0" x2="750.1086956521739" y2="30.0"
	stroke="#c0c0c0"/>
   
  <text y="490" x="750.1086956521739" text-anchor="middle" font-size="10">2014</text>
  
  
  <line x1="786.9565217391304" y1="470.0" x2="786.9565217391304" y2="30.0"
	stroke="#c0c0c0"/>
   
  
  <line x1="823.804347826087" y1="470.0" x2="823.804347826087" y2="30.0"
	stroke="#c0c0c0"/>
   
  
  <line x1="823.804347826087" y1="470.0" x2="823.804347826087" y2="30.0"
	stroke="#606060"/>
   
  
  <line x1="860.6521739130435" y1="470.0" x2="860.6521739130435" y2="30.0"
	stroke="#c0c0c0"/>
   
  
  <line x1="897.5" y1="470.0" x2="897.5" y2="30.0"
	stroke="#c0c0c0"/>
   
  <text y="490" x="897.5" text-anchor="middle" font-size="10">2015</text>
  
  
  <line x1="934.3478260869565" y1="470.0" x2="934.3478260869565" y2="30.0"
	stroke="#c0c0c0"/>
   
  
  <line x1="971.195652173913" y1="470.0" x2="971.195652173913" y2="30.0"
	stroke="#c0c0c0"/>
   
  
  <line x1="971.195652173913" y1="470.0" x2="971.195652173913" y2="30.0"
	stroke="#606060"/>
   
  
  <line x1="1008.0434782608695" y1="470.0" x2="1008.0434782608695" y2="30.0"
	stroke="#c0c0c0"/>
   
  
  <line x1="1044.891304347826" y1="470.0" x2="1044.891304347826" y2="30.0"
	stroke="#c0c0c0"/>
   
  <text y="490" x="1044.891304347826" text-anchor="middle" font-size="10">2016</text>
  
  
  <line x1="1081.7391304347825" y1="470.0" x2="1081.7391304347825" y2="30.0"
	stroke="#c0c0c0"/>
   
  
  <line x1="1118.586956521739" y1="470.0" x2="1118.586956521739" y2="30.0"
	stroke="#c0c0c0"/>
   
  
  <line x1="1118.586956521739" y1="470.0" x2="1118.586956521739" y2="30.0"
	stroke="#606060"/>
   
  
  <line x1="1155.4347826086957" y1="470.0" x2="1155.4347826086957" y2="30.0"
	stroke="#c0c0c0"/>
   
  
  
  <line y1="426.0" x1="50.0" y2="426.0" x2="1180.0"
	stroke="#c0c0c0"/>
  
  <text x="45" y="426.0" text-anchor="end" font-size="10">7</text>
  
  
  <line y1="382.0" x1="50.0" y2="382.0" x2="1180.0"
	stroke="#c0c0c0"/>
  
  <text x="45" y="382.0" text-anchor="end" font-size="10">14</text>
  
  
  <line y1="338.0" x1="50.0" y2="338.0" x2="1180.0"
	stroke="#c0c0c0"/>
  
  <text x="45" y="338.0" text-anchor="end" font-size="10">21</text>
  
  
  <line y1="294.0" x1="50.0" y2="294.0" x2="1180.0"
	stroke="#c0c0c0"/>
  
  <text x="45" y="294.0" text-anchor="end" font-size="10">28</text>
  
  
  <line y1="250.0" x1="50.0" y2="250.0" x2="1180.0"
	stroke="#c0c0c0"/>
  
  <text x="45" y="250.0" text-anchor="end" font-size="10">35</text>
  
  
  <line y1="206.0" x1="50.0" y2="206.0" x2="1180.0"
	stroke="#c0c0c0"/>
  
  <text x="45" y="206.0" text-anchor="end" font-size="10">42</text>
  
  
  <line y1="162.0" x1="50.0" y2="162.0" x2="1180.0"
	stroke="#c0c0c0"/>
  
  <text x="45" y="162.0" text-anchor="end" font-size="10">49</text>
  
  
  <line y1="118.0" x1="50.0" y2="118.0" x2="1180.0"
	stroke="#c0c0c0"/>
  
  <text x="45" y="118.0" text-anchor="end" font-size="10">56</text>
  
  
  <line y1="74.0" x1="50.0" y2="74.0" x2="1180.0"
	stroke="#c0c0c0"/>
  
  <text x="45" y="74.0" text-anchor="end" font-size="10">63</text>
  
  

</svg>
