<?xml version="1.0" encoding="UTF-8" standalone="no"?>
<!-- Created with Inkscape (http://www.inkscape.org/) -->
<!DOCTYPE svg PUBLIC "-//W3C//DTD SVG 1.1//EN" "http://www.w3.org/Graphics/SVG/1.1/DTD/svg11.dtd"> 

<svg
   xmlns="http://www.w3.org/2000/svg"
   width="1200"
   height="500"
   version="1.1"
   style="enable-background:new">

  <rect x="0" y="0" width="1200" height="500"
	fill="#e0e0e0"/>

  <text x="615.0" y="20.0" text-anchor="middle" font-size="12">Number of topics per month on forum &quot;Il mondo dell&#39;editoria&quot; (and children)</text>

  <rect x="50" y="30" width="1130" height="440"
	fill="white" stroke="black" stroke-width="2"/>
  
  <rect x="50.61413043478261" y="69.59999999999997" width="11.054347826086957" height="400.40000000000003"
	fill="#a090ff"/>
  
  <rect x="62.89673913043478" y="364.4" width="11.054347826086957" height="105.60000000000001"
	fill="#a090ff"/>
  
  <rect x="75.17934782608695" y="382.0" width="11.054347826086957" height="88.0"
	fill="#a090ff"/>
  
  <rect x="87.46195652173913" y="360.0" width="11.054347826086957" height="110.00000000000001"
	fill="#a090ff"/>
  
  <rect x="99.74456521739131" y="426.0" width="11.054347826086957" height="44.0"
	fill="#a090ff"/>
  
  <rect x="112.02717391304347" y="346.79999999999995" width="11.054347826086957" height="123.20000000000002"
	fill="#a090ff"/>
  
  <rect x="124.30978260869566" y="316.0" width="11.054347826086957" height="154.0"
	fill="#a090ff"/>
  
  <rect x="136.5923913043478" y="355.6" width="11.054347826086957" height="114.4"
	fill="#a090ff"/>
  
  <rect x="148.875" y="351.2" width="11.054347826086957" height="118.80000000000001"
	fill="#a090ff"/>
  
  <rect x="161.1576086956522" y="377.6" width="11.054347826086957" height="92.4"
	fill="#a090ff"/>
  
  <rect x="173.44021739130437" y="408.4" width="11.054347826086957" height="61.60000000000001"
	fill="#a090ff"/>
  
  <rect x="185.72282608695653" y="426.0" width="11.054347826086957" height="44.0"
	fill="#a090ff"/>
  
  <rect x="198.00543478260872" y="399.6" width="11.054347826086957" height="70.4"
	fill="#a090ff"/>
  
  <rect x="210.28804347826087" y="329.2" width="11.054347826086957" height="140.8"
	fill="#a090ff"/>
  
  <rect x="222.57065217391306" y="368.8" width="11.054347826086957" height="101.2"
	fill="#a090ff"/>
  
  <rect x="234.85326086956522" y="368.8" width="11.054347826086957" height="101.2"
	fill="#a090ff"/>
  
  <rect x="247.1358695652174" y="241.2" width="11.054347826086957" height="228.8"
	fill="#a090ff"/>
  
  <rect x="259.41847826086956" y="329.2" width="11.054347826086957" height="140.8"
	fill="#a090ff"/>
  
  <rect x="271.70108695652175" y="386.4" width="11.054347826086957" height="83.60000000000001"
	fill="#a090ff"/>
  
  <rect x="283.9836956521739" y="399.6" width="11.054347826086957" height="70.4"
	fill="#a090ff"/>
  
  <rect x="296.2663043478261" y="395.2" width="11.054347826086957" height="74.80000000000001"
	fill="#a090ff"/>
  
  <rect x="308.54891304347825" y="382.0" width="11.054347826086957" height="88.0"
	fill="#a090ff"/>
  
  <rect x="320.83152173913044" y="434.8" width="11.054347826086957" height="35.2"
	fill="#a090ff"/>
  
  <rect x="333.1141304347826" y="430.4" width="11.054347826086957" height="39.6"
	fill="#a090ff"/>
  
  <rect x="345.3967391304348" y="412.8" width="11.054347826086957" height="57.2"
	fill="#a090ff"/>
  
  <rect x="357.67934782608694" y="351.2" width="11.054347826086957" height="118.80000000000001"
	fill="#a090ff"/>
  
  <rect x="369.9619565217391" y="399.6" width="11.054347826086957" height="70.4"
	fill="#a090ff"/>
  
  <rect x="382.2445652173913" y="408.4" width="11.054347826086957" height="61.60000000000001"
	fill="#a090ff"/>
  
  <rect x="394.5271739130435" y="390.8" width="11.054347826086957" height="79.2"
	fill="#a090ff"/>
  
  <rect x="406.8097826086957" y="395.2" width="11.054347826086957" height="74.80000000000001"
	fill="#a090ff"/>
  
  <rect x="419.0923913043478" y="368.8" width="11.054347826086957" height="101.2"
	fill="#a090ff"/>
  
  <rect x="431.375" y="430.4" width="11.054347826086957" height="39.6"
	fill="#a090ff"/>
  
  <rect x="443.65760869565213" y="426.0" width="11.054347826086957" height="44.0"
	fill="#a090ff"/>
  
  <rect x="455.9402173913043" y="408.4" width="11.054347826086957" height="61.60000000000001"
	fill="#a090ff"/>
  
  <rect x="468.2228260869565" y="386.4" width="11.054347826086957" height="83.60000000000001"
	fill="#a090ff"/>
  
  <rect x="480.50543478260863" y="399.6" width="11.054347826086957" height="70.4"
	fill="#a090ff"/>
  
  <rect x="492.7880434782608" y="417.2" width="11.054347826086957" height="52.800000000000004"
	fill="#a090ff"/>
  
  <rect x="505.070652173913" y="355.6" width="11.054347826086957" height="114.4"
	fill="#a090ff"/>
  
  <rect x="517.3532608695652" y="395.2" width="11.054347826086957" height="74.80000000000001"
	fill="#a090ff"/>
  
  <rect x="529.6358695652174" y="364.4" width="11.054347826086957" height="105.60000000000001"
	fill="#a090ff"/>
  
  <rect x="541.9184782608695" y="382.0" width="11.054347826086957" height="88.0"
	fill="#a090ff"/>
  
  <rect x="554.2010869565217" y="360.0" width="11.054347826086957" height="110.00000000000001"
	fill="#a090ff"/>
  
  <rect x="566.4836956521739" y="355.6" width="11.054347826086957" height="114.4"
	fill="#a090ff"/>
  
  <rect x="578.766304347826" y="342.4" width="11.054347826086957" height="127.60000000000001"
	fill="#a090ff"/>
  
  <rect x="591.0489130434783" y="307.2" width="11.054347826086957" height="162.8"
	fill="#a090ff"/>
  
  <rect x="603.3315217391304" y="254.39999999999998" width="11.054347826086957" height="215.60000000000002"
	fill="#a090ff"/>
  
  <rect x="615.6141304347826" y="382.0" width="11.054347826086957" height="88.0"
	fill="#a090ff"/>
  
  <rect x="627.8967391304348" y="355.6" width="11.054347826086957" height="114.4"
	fill="#a090ff"/>
  
  <rect x="640.1793478260869" y="368.8" width="11.054347826086957" height="101.2"
	fill="#a090ff"/>
  
  <rect x="652.4619565217391" y="360.0" width="11.054347826086957" height="110.00000000000001"
	fill="#a090ff"/>
  
  <rect x="664.7445652173913" y="368.8" width="11.054347826086957" height="101.2"
	fill="#a090ff"/>
  
  <rect x="677.0271739130434" y="338.0" width="11.054347826086957" height="132.0"
	fill="#a090ff"/>
  
  <rect x="689.3097826086956" y="351.2" width="11.054347826086957" height="118.80000000000001"
	fill="#a090ff"/>
  
  <rect x="701.5923913043478" y="368.8" width="11.054347826086957" height="101.2"
	fill="#a090ff"/>
  
  <rect x="713.875" y="382.0" width="11.054347826086957" height="88.0"
	fill="#a090ff"/>
  
  <rect x="726.1576086956521" y="298.4" width="11.054347826086957" height="171.60000000000002"
	fill="#a090ff"/>
  
  <rect x="738.4402173913043" y="360.0" width="11.054347826086957" height="110.00000000000001"
	fill="#a090ff"/>
  
  <rect x="750.7228260869565" y="390.8" width="11.054347826086957" height="79.2"
	fill="#a090ff"/>
  
  <rect x="763.0054347826086" y="408.4" width="11.054347826086957" height="61.60000000000001"
	fill="#a090ff"/>
  
  <rect x="775.2880434782609" y="373.2" width="11.054347826086957" height="96.80000000000001"
	fill="#a090ff"/>
  
  <rect x="787.570652173913" y="377.6" width="11.054347826086957" height="92.4"
	fill="#a090ff"/>
  
  <rect x="799.8532608695651" y="377.6" width="11.054347826086957" height="92.4"
	fill="#a090ff"/>
  
  <rect x="812.1358695652174" y="417.2" width="11.054347826086957" height="52.800000000000004"
	fill="#a090ff"/>
  
  <rect x="824.4184782608695" y="395.2" width="11.054347826086957" height="74.80000000000001"
	fill="#a090ff"/>
  
  <rect x="836.7010869565217" y="333.6" width="11.054347826086957" height="136.4"
	fill="#a090ff"/>
  
  <rect x="848.9836956521739" y="390.8" width="11.054347826086957" height="79.2"
	fill="#a090ff"/>
  
  <rect x="861.266304347826" y="364.4" width="11.054347826086957" height="105.60000000000001"
	fill="#a090ff"/>
  
  <rect x="873.5489130434783" y="390.8" width="11.054347826086957" height="79.2"
	fill="#a090ff"/>
  
  <rect x="885.8315217391304" y="329.2" width="11.054347826086957" height="140.8"
	fill="#a090ff"/>
  
  <rect x="898.1141304347826" y="360.0" width="11.054347826086957" height="110.00000000000001"
	fill="#a090ff"/>
  
  <rect x="910.3967391304348" y="386.4" width="11.054347826086957" height="83.60000000000001"
	fill="#a090ff"/>
  
  <rect x="922.6793478260869" y="395.2" width="11.054347826086957" height="74.80000000000001"
	fill="#a090ff"/>
  
  <rect x="934.9619565217391" y="360.0" width="11.054347826086957" height="110.00000000000001"
	fill="#a090ff"/>
  
  <rect x="947.2445652173913" y="404.0" width="11.054347826086957" height="66.0"
	fill="#a090ff"/>
  
  <rect x="959.5271739130434" y="408.4" width="11.054347826086957" height="61.60000000000001"
	fill="#a090ff"/>
  
  <rect x="971.8097826086956" y="316.0" width="11.054347826086957" height="154.0"
	fill="#a090ff"/>
  
  <rect x="984.0923913043478" y="377.6" width="11.054347826086957" height="92.4"
	fill="#a090ff"/>
  
  <rect x="996.375" y="377.6" width="11.054347826086957" height="92.4"
	fill="#a090ff"/>
  
  <rect x="1008.6576086956521" y="324.79999999999995" width="11.054347826086957" height="145.20000000000002"
	fill="#a090ff"/>
  
  <rect x="1020.9402173913043" y="382.0" width="11.054347826086957" height="88.0"
	fill="#a090ff"/>
  
  <rect x="1033.2228260869565" y="329.2" width="11.054347826086957" height="140.8"
	fill="#a090ff"/>
  
  <rect x="1045.5054347826085" y="364.4" width="11.054347826086957" height="105.60000000000001"
	fill="#a090ff"/>
  
  <rect x="1057.788043478261" y="355.6" width="11.054347826086957" height="114.4"
	fill="#a090ff"/>
  
  <rect x="1070.070652173913" y="355.6" width="11.054347826086957" height="114.4"
	fill="#a090ff"/>
  
  <rect x="1082.3532608695652" y="360.0" width="11.054347826086957" height="110.00000000000001"
	fill="#a090ff"/>
  
  <rect x="1094.6358695652173" y="285.2" width="11.054347826086957" height="184.8"
	fill="#a090ff"/>
  
  <rect x="1106.9184782608695" y="285.2" width="11.054347826086957" height="184.8"
	fill="#a090ff"/>
  
  <rect x="1119.2010869565217" y="298.4" width="11.054347826086957" height="171.60000000000002"
	fill="#a090ff"/>
  
  <rect x="1131.4836956521738" y="214.79999999999998" width="11.054347826086957" height="255.20000000000002"
	fill="#a090ff"/>
  
  <rect x="1143.766304347826" y="192.79999999999995" width="11.054347826086957" height="277.20000000000005"
	fill="#a090ff"/>
  
  <rect x="1156.0489130434783" y="267.6" width="11.054347826086957" height="202.4"
	fill="#a090ff"/>
  
  <rect x="1168.3315217391305" y="263.2" width="11.054347826086957" height="206.8"
	fill="#a090ff"/>
  
  
  <line x1="50.0" y1="369.42857142857144" x2="62.28260869565217" y2="363.1428571428571"
	stroke="#0000ff" stroke-width="2"/>
  
  <line x1="62.28260869565217" y1="363.1428571428571" x2="74.56521739130434" y2="345.54285714285714"
	stroke="#0000ff" stroke-width="2"/>
  
  <line x1="74.56521739130434" y1="345.54285714285714" x2="86.84782608695653" y2="323.54285714285714"
	stroke="#0000ff" stroke-width="2"/>
  
  <line x1="86.84782608695653" y1="323.54285714285714" x2="99.13043478260869" y2="364.4"
	stroke="#0000ff" stroke-width="2"/>
  
  <line x1="99.13043478260869" y1="364.4" x2="111.41304347826087" y2="362.51428571428573"
	stroke="#0000ff" stroke-width="2"/>
  
  <line x1="111.41304347826087" y1="362.51428571428573" x2="123.69565217391305" y2="361.88571428571424"
	stroke="#0000ff" stroke-width="2"/>
  
  <line x1="123.69565217391305" y1="361.88571428571424" x2="135.97826086956522" y2="368.8"
	stroke="#0000ff" stroke-width="2"/>
  
  <line x1="135.97826086956522" y1="368.8" x2="148.26086956521738" y2="368.8"
	stroke="#0000ff" stroke-width="2"/>
  
  <line x1="148.26086956521738" y1="368.8" x2="160.54347826086956" y2="376.34285714285716"
	stroke="#0000ff" stroke-width="2"/>
  
  <line x1="160.54347826086956" y1="376.34285714285716" x2="172.82608695652175" y2="378.2285714285714"
	stroke="#0000ff" stroke-width="2"/>
  
  <line x1="172.82608695652175" y1="378.2285714285714" x2="185.1086956521739" y2="380.1142857142857"
	stroke="#0000ff" stroke-width="2"/>
  
  <line x1="185.1086956521739" y1="380.1142857142857" x2="197.3913043478261" y2="382.62857142857143"
	stroke="#0000ff" stroke-width="2"/>
  
  <line x1="197.3913043478261" y1="382.62857142857143" x2="209.67391304347825" y2="363.1428571428571"
	stroke="#0000ff" stroke-width="2"/>
  
  <line x1="209.67391304347825" y1="363.1428571428571" x2="221.95652173913044" y2="351.8285714285714"
	stroke="#0000ff" stroke-width="2"/>
  
  <line x1="221.95652173913044" y1="351.8285714285714" x2="234.2391304347826" y2="346.1714285714286"
	stroke="#0000ff" stroke-width="2"/>
  
  <line x1="234.2391304347826" y1="346.1714285714286" x2="246.52173913043478" y2="346.1714285714286"
	stroke="#0000ff" stroke-width="2"/>
  
  <line x1="246.52173913043478" y1="346.1714285714286" x2="258.804347826087" y2="355.6"
	stroke="#0000ff" stroke-width="2"/>
  
  <line x1="258.804347826087" y1="355.6" x2="271.0869565217391" y2="357.48571428571427"
	stroke="#0000ff" stroke-width="2"/>
  
  <line x1="271.0869565217391" y1="357.48571428571427" x2="283.3695652173913" y2="366.9142857142857"
	stroke="#0000ff" stroke-width="2"/>
  
  <line x1="283.3695652173913" y1="366.9142857142857" x2="295.6521739130435" y2="393.9428571428571"
	stroke="#0000ff" stroke-width="2"/>
  
  <line x1="295.6521739130435" y1="393.9428571428571" x2="307.9347826086956" y2="405.8857142857143"
	stroke="#0000ff" stroke-width="2"/>
  
  <line x1="307.9347826086956" y1="405.8857142857143" x2="320.2173913043478" y2="400.8571428571429"
	stroke="#0000ff" stroke-width="2"/>
  
  <line x1="320.2173913043478" y1="400.8571428571429" x2="332.5" y2="400.8571428571429"
	stroke="#0000ff" stroke-width="2"/>
  
  <line x1="332.5" y1="400.8571428571429" x2="344.7826086956522" y2="402.74285714285713"
	stroke="#0000ff" stroke-width="2"/>
  
  <line x1="344.7826086956522" y1="402.74285714285713" x2="357.0652173913044" y2="404.0"
	stroke="#0000ff" stroke-width="2"/>
  
  <line x1="357.0652173913044" y1="404.0" x2="369.3478260869565" y2="398.34285714285716"
	stroke="#0000ff" stroke-width="2"/>
  
  <line x1="369.3478260869565" y1="398.34285714285716" x2="381.6304347826087" y2="389.54285714285714"
	stroke="#0000ff" stroke-width="2"/>
  
  <line x1="381.6304347826087" y1="389.54285714285714" x2="393.9130434782609" y2="392.0571428571428"
	stroke="#0000ff" stroke-width="2"/>
  
  <line x1="393.9130434782609" y1="392.0571428571428" x2="406.19565217391306" y2="402.74285714285713"
	stroke="#0000ff" stroke-width="2"/>
  
  <line x1="406.19565217391306" y1="402.74285714285713" x2="418.4782608695652" y2="404.0"
	stroke="#0000ff" stroke-width="2"/>
  
  <line x1="418.4782608695652" y1="404.0" x2="430.7608695652174" y2="400.8571428571429"
	stroke="#0000ff" stroke-width="2"/>
  
  <line x1="430.7608695652174" y1="400.8571428571429" x2="443.04347826086956" y2="402.1142857142857"
	stroke="#0000ff" stroke-width="2"/>
  
  <line x1="443.04347826086956" y1="402.1142857142857" x2="455.32608695652175" y2="405.25714285714287"
	stroke="#0000ff" stroke-width="2"/>
  
  <line x1="455.32608695652175" y1="405.25714285714287" x2="467.60869565217394" y2="403.37142857142857"
	stroke="#0000ff" stroke-width="2"/>
  
  <line x1="467.60869565217394" y1="403.37142857142857" x2="479.89130434782606" y2="398.34285714285716"
	stroke="#0000ff" stroke-width="2"/>
  
  <line x1="479.89130434782606" y1="398.34285714285716" x2="492.17391304347825" y2="389.54285714285714"
	stroke="#0000ff" stroke-width="2"/>
  
  <line x1="492.17391304347825" y1="389.54285714285714" x2="504.45652173913044" y2="385.7714285714286"
	stroke="#0000ff" stroke-width="2"/>
  
  <line x1="504.45652173913044" y1="385.7714285714286" x2="516.7391304347826" y2="382.0"
	stroke="#0000ff" stroke-width="2"/>
  
  <line x1="516.7391304347826" y1="382.0" x2="529.0217391304348" y2="375.7142857142857"
	stroke="#0000ff" stroke-width="2"/>
  
  <line x1="529.0217391304348" y1="375.7142857142857" x2="541.304347826087" y2="365.0285714285714"
	stroke="#0000ff" stroke-width="2"/>
  
  <line x1="541.304347826087" y1="365.0285714285714" x2="553.5869565217391" y2="358.1142857142857"
	stroke="#0000ff" stroke-width="2"/>
  
  <line x1="553.5869565217391" y1="358.1142857142857" x2="565.8695652173913" y2="338.0"
	stroke="#0000ff" stroke-width="2"/>
  
  <line x1="565.8695652173913" y1="338.0" x2="578.1521739130435" y2="340.51428571428573"
	stroke="#0000ff" stroke-width="2"/>
  
  <line x1="578.1521739130435" y1="340.51428571428573" x2="590.4347826086956" y2="336.74285714285713"
	stroke="#0000ff" stroke-width="2"/>
  
  <line x1="590.4347826086956" y1="336.74285714285713" x2="602.7173913043479" y2="338.0"
	stroke="#0000ff" stroke-width="2"/>
  
  <line x1="602.7173913043479" y1="338.0" x2="615.0" y2="338.6285714285714"
	stroke="#0000ff" stroke-width="2"/>
  
  <line x1="615.0" y1="338.6285714285714" x2="627.2826086956521" y2="342.4"
	stroke="#0000ff" stroke-width="2"/>
  
  <line x1="627.2826086956521" y1="342.4" x2="639.5652173913044" y2="346.79999999999995"
	stroke="#0000ff" stroke-width="2"/>
  
  <line x1="639.5652173913044" y1="346.79999999999995" x2="651.8478260869565" y2="360.62857142857143"
	stroke="#0000ff" stroke-width="2"/>
  
  <line x1="651.8478260869565" y1="360.62857142857143" x2="664.1304347826087" y2="358.74285714285713"
	stroke="#0000ff" stroke-width="2"/>
  
  <line x1="664.1304347826087" y1="358.74285714285713" x2="676.4130434782609" y2="362.51428571428573"
	stroke="#0000ff" stroke-width="2"/>
  
  <line x1="676.4130434782609" y1="362.51428571428573" x2="688.695652173913" y2="352.45714285714286"
	stroke="#0000ff" stroke-width="2"/>
  
  <line x1="688.695652173913" y1="352.45714285714286" x2="700.9782608695652" y2="352.45714285714286"
	stroke="#0000ff" stroke-width="2"/>
  
  <line x1="700.9782608695652" y1="352.45714285714286" x2="713.2608695652174" y2="355.6"
	stroke="#0000ff" stroke-width="2"/>
  
  <line x1="713.2608695652174" y1="355.6" x2="725.5434782608695" y2="365.65714285714284"
	stroke="#0000ff" stroke-width="2"/>
  
  <line x1="725.5434782608695" y1="365.65714285714284" x2="737.8260869565217" y2="368.8"
	stroke="#0000ff" stroke-width="2"/>
  
  <line x1="737.8260869565217" y1="368.8" x2="750.1086956521739" y2="370.0571428571428"
	stroke="#0000ff" stroke-width="2"/>
  
  <line x1="750.1086956521739" y1="370.0571428571428" x2="762.3913043478261" y2="369.42857142857144"
	stroke="#0000ff" stroke-width="2"/>
  
  <line x1="762.3913043478261" y1="369.42857142857144" x2="774.6739130434783" y2="386.4"
	stroke="#0000ff" stroke-width="2"/>
  
  <line x1="774.6739130434783" y1="386.4" x2="786.9565217391304" y2="391.42857142857144"
	stroke="#0000ff" stroke-width="2"/>
  
  <line x1="786.9565217391304" y1="391.42857142857144" x2="799.2391304347826" y2="383.25714285714287"
	stroke="#0000ff" stroke-width="2"/>
  
  <line x1="799.2391304347826" y1="383.25714285714287" x2="811.5217391304348" y2="380.74285714285713"
	stroke="#0000ff" stroke-width="2"/>
  
  <line x1="811.5217391304348" y1="380.74285714285713" x2="823.804347826087" y2="379.48571428571427"
	stroke="#0000ff" stroke-width="2"/>
  
  <line x1="823.804347826087" y1="379.48571428571427" x2="836.0869565217391" y2="381.37142857142857"
	stroke="#0000ff" stroke-width="2"/>
  
  <line x1="836.0869565217391" y1="381.37142857142857" x2="848.3695652173913" y2="374.45714285714286"
	stroke="#0000ff" stroke-width="2"/>
  
  <line x1="848.3695652173913" y1="374.45714285714286" x2="860.6521739130435" y2="366.2857142857143"
	stroke="#0000ff" stroke-width="2"/>
  
  <line x1="860.6521739130435" y1="366.2857142857143" x2="872.9347826086956" y2="365.0285714285714"
	stroke="#0000ff" stroke-width="2"/>
  
  <line x1="872.9347826086956" y1="365.0285714285714" x2="885.2173913043479" y2="373.8285714285714"
	stroke="#0000ff" stroke-width="2"/>
  
  <line x1="885.2173913043479" y1="373.8285714285714" x2="897.5" y2="369.42857142857144"
	stroke="#0000ff" stroke-width="2"/>
  
  <line x1="897.5" y1="369.42857142857144" x2="909.7826086956521" y2="375.0857142857143"
	stroke="#0000ff" stroke-width="2"/>
  
  <line x1="909.7826086956521" y1="375.0857142857143" x2="922.0652173913044" y2="377.6"
	stroke="#0000ff" stroke-width="2"/>
  
  <line x1="922.0652173913044" y1="377.6" x2="934.3478260869565" y2="375.7142857142857"
	stroke="#0000ff" stroke-width="2"/>
  
  <line x1="934.3478260869565" y1="375.7142857142857" x2="946.6304347826087" y2="378.2285714285714"
	stroke="#0000ff" stroke-width="2"/>
  
  <line x1="946.6304347826087" y1="378.2285714285714" x2="958.9130434782609" y2="376.97142857142853"
	stroke="#0000ff" stroke-width="2"/>
  
  <line x1="958.9130434782609" y1="376.97142857142853" x2="971.195652173913" y2="366.9142857142857"
	stroke="#0000ff" stroke-width="2"/>
  
  <line x1="971.195652173913" y1="366.9142857142857" x2="983.4782608695652" y2="370.0571428571428"
	stroke="#0000ff" stroke-width="2"/>
  
  <line x1="983.4782608695652" y1="370.0571428571428" x2="995.7608695652174" y2="359.37142857142857"
	stroke="#0000ff" stroke-width="2"/>
  
  <line x1="995.7608695652174" y1="359.37142857142857" x2="1008.0434782608695" y2="353.0857142857143"
	stroke="#0000ff" stroke-width="2"/>
  
  <line x1="1008.0434782608695" y1="353.0857142857143" x2="1020.3260869565217" y2="358.74285714285713"
	stroke="#0000ff" stroke-width="2"/>
  
  <line x1="1020.3260869565217" y1="358.74285714285713" x2="1032.608695652174" y2="355.6"
	stroke="#0000ff" stroke-width="2"/>
  
  <line x1="1032.608695652174" y1="355.6" x2="1044.891304347826" y2="353.0857142857143"
	stroke="#0000ff" stroke-width="2"/>
  
  <line x1="1044.891304347826" y1="353.0857142857143" x2="1057.1739130434783" y2="347.42857142857144"
	stroke="#0000ff" stroke-width="2"/>
  
  <line x1="1057.1739130434783" y1="347.42857142857144" x2="1069.4565217391305" y2="333.6"
	stroke="#0000ff" stroke-width="2"/>
  
  <line x1="1069.4565217391305" y1="333.6" x2="1081.7391304347825" y2="329.2"
	stroke="#0000ff" stroke-width="2"/>
  
  <line x1="1081.7391304347825" y1="329.2" x2="1094.0217391304348" y2="307.8285714285714"
	stroke="#0000ff" stroke-width="2"/>
  
  <line x1="1094.0217391304348" y1="307.8285714285714" x2="1106.304347826087" y2="284.57142857142856"
	stroke="#0000ff" stroke-width="2"/>
  
  <line x1="1106.304347826087" y1="284.57142857142856" x2="1118.586956521739" y2="272.0"
	stroke="#0000ff" stroke-width="2"/>
  
  <line x1="1118.586956521739" y1="272.0" x2="1130.8695652173913" y2="258.1714285714286"
	stroke="#0000ff" stroke-width="2"/>
  
  <line x1="1130.8695652173913" y1="258.1714285714286" x2="1143.1521739130435" y2="255.0285714285714"
	stroke="#0000ff" stroke-width="2"/>
  
  <line x1="1143.1521739130435" y1="255.0285714285714" x2="1155.4347826086957" y2="251.88571428571427"
	stroke="#0000ff" stroke-width="2"/>
  
  <line x1="1155.4347826086957" y1="251.88571428571427" x2="1167.7173913043478" y2="246.85714285714283"
	stroke="#0000ff" stroke-width="2"/>
  



  
  <line x1="86.84782608695653" y1="470.0" x2="86.84782608695653" y2="29.999999999999943"
	stroke="#c0c0c0"/>
   
  
  <line x1="86.84782608695653" y1="470.0" x2="86.84782608695653" y2="29.999999999999943"
	stroke="#606060"/>
   
  
  <line x1="123.69565217391305" y1="470.0" x2="123.69565217391305" y2="29.999999999999943"
	stroke="#c0c0c0"/>
   
  
  <line x1="160.54347826086956" y1="470.0" x2="160.54347826086956" y2="29.999999999999943"
	stroke="#c0c0c0"/>
   
  <text y="490" x="160.54347826086956" text-anchor="middle" font-size="10">2010</text>
  
  
  <line x1="197.3913043478261" y1="470.0" x2="197.3913043478261" y2="29.999999999999943"
	stroke="#c0c0c0"/>
   
  
  <line x1="234.2391304347826" y1="470.0" x2="234.2391304347826" y2="29.999999999999943"
	stroke="#c0c0c0"/>
   
  
  <line x1="234.2391304347826" y1="470.0" x2="234.2391304347826" y2="29.999999999999943"
	stroke="#606060"/>
   
  
  <line x1="271.0869565217391" y1="470.0" x2="271.0869565217391" y2="29.999999999999943"
	stroke="#c0c0c0"/>
   
  
  <line x1="307.9347826086956" y1="470.0" x2="307.9347826086956" y2="29.999999999999943"
	stroke="#c0c0c0"/>
   
  <text y="490" x="307.9347826086956" text-anchor="middle" font-size="10">2011</text>
  
  
  <line x1="344.7826086956522" y1="470.0" x2="344.7826086956522" y2="29.999999999999943"
	stroke="#c0c0c0"/>
   
  
  <line x1="381.6304347826087" y1="470.0" x2="381.6304347826087" y2="29.999999999999943"
	stroke="#c0c0c0"/>
   
  
  <line x1="381.6304347826087" y1="470.0" x2="381.6304347826087" y2="29.999999999999943"
	stroke="#606060"/>
   
  
  <line x1="418.4782608695652" y1="470.0" x2="418.4782608695652" y2="29.999999999999943"
	stroke="#c0c0c0"/>
   
  
  <line x1="455.32608695652175" y1="470.0" x2="455.32608695652175" y2="29.999999999999943"
	stroke="#c0c0c0"/>
   
  <text y="490" x="455.32608695652175" text-anchor="middle" font-size="10">2012</text>
  
  
  <line x1="492.17391304347825" y1="470.0" x2="492.17391304347825" y2="29.999999999999943"
	stroke="#c0c0c0"/>
   
  
  <line x1="529.0217391304348" y1="470.0" x2="529.0217391304348" y2="29.999999999999943"
	stroke="#c0c0c0"/>
   
  
  <line x1="529.0217391304348" y1="470.0" x2="529.0217391304348" y2="29.999999999999943"
	stroke="#606060"/>
   
  
  <line x1="565.8695652173913" y1="470.0" x2="565.8695652173913" y2="29.999999999999943"
	stroke="#c0c0c0"/>
   
  
  <line x1="602.7173913043479" y1="470.0" x2="602.7173913043479" y2="29.999999999999943"
	stroke="#c0c0c0"/>
   
  <text y="490" x="602.7173913043479" text-anchor="middle" font-size="10">2013</text>
  
  
  <line x1="639.5652173913044" y1="470.0" x2="639.5652173913044" y2="29.999999999999943"
	stroke="#c0c0c0"/>
   
  
  <line x1="676.4130434782609" y1="470.0" x2="676.4130434782609" y2="29.999999999999943"
	stroke="#c0c0c0"/>
   
  
  <line x1="676.4130434782609" y1="470.0" x2="676.4130434782609" y2="29.999999999999943"
	stroke="#606060"/>
   
  
  <line x1="713.2608695652174" y1="470.0" x2="713.2608695652174" y2="29.999999999999943"
	stroke="#c0c0c0"/>
   
  
  <line x1="750.1086956521739" y1="470.0" x2="750.1086956521739" y2="29.999999999999943"
	stroke="#c0c0c0"/>
   
  <text y="490" x="750.1086956521739" text-anchor="middle" font-size="10">2014</text>
  
  
  <line x1="786.9565217391304" y1="470.0" x2="786.9565217391304" y2="29.999999999999943"
	stroke="#c0c0c0"/>
   
  
  <line x1="823.804347826087" y1="470.0" x2="823.804347826087" y2="29.999999999999943"
	stroke="#c0c0c0"/>
   
  
  <line x1="823.804347826087" y1="470.0" x2="823.804347826087" y2="29.999999999999943"
	stroke="#606060"/>
   
  
  <line x1="860.6521739130435" y1="470.0" x2="860.6521739130435" y2="29.999999999999943"
	stroke="#c0c0c0"/>
   
  
  <line x1="897.5" y1="470.0" x2="897.5" y2="29.999999999999943"
	stroke="#c0c0c0"/>
   
  <text y="490" x="897.5" text-anchor="middle" font-size="10">2015</text>
  
  
  <line x1="934.3478260869565" y1="470.0" x2="934.3478260869565" y2="29.999999999999943"
	stroke="#c0c0c0"/>
   
  
  <line x1="971.195652173913" y1="470.0" x2="971.195652173913" y2="29.999999999999943"
	stroke="#c0c0c0"/>
   
  
  <line x1="971.195652173913" y1="470.0" x2="971.195652173913" y2="29.999999999999943"
	stroke="#606060"/>
   
  
  <line x1="1008.0434782608695" y1="470.0" x2="1008.0434782608695" y2="29.999999999999943"
	stroke="#c0c0c0"/>
   
  
  <line x1="1044.891304347826" y1="470.0" x2="1044.891304347826" y2="29.999999999999943"
	stroke="#c0c0c0"/>
   
  <text y="490" x="1044.891304347826" text-anchor="middle" font-size="10">2016</text>
  
  
  <line x1="1081.7391304347825" y1="470.0" x2="1081.7391304347825" y2="29.999999999999943"
	stroke="#c0c0c0"/>
   
  
  <line x1="1118.586956521739" y1="470.0" x2="1118.586956521739" y2="29.999999999999943"
	stroke="#c0c0c0"/>
   
  
  <line x1="1118.586956521739" y1="470.0" x2="1118.586956521739" y2="29.999999999999943"
	stroke="#606060"/>
   
  
  <line x1="1155.4347826086957" y1="470.0" x2="1155.4347826086957" y2="29.999999999999943"
	stroke="#c0c0c0"/>
   
  
  
  <line y1="426.0" x1="50.0" y2="426.0" x2="1180.0"
	stroke="#c0c0c0"/>
  
  <text x="45" y="426.0" text-anchor="end" font-size="10">10</text>
  
  
  <line y1="382.0" x1="50.0" y2="382.0" x2="1180.0"
	stroke="#c0c0c0"/>
  
  <text x="45" y="382.0" text-anchor="end" font-size="10">20</text>
  
  
  <line y1="338.0" x1="50.0" y2="338.0" x2="1180.0"
	stroke="#c0c0c0"/>
  
  <text x="45" y="338.0" text-anchor="end" font-size="10">30</text>
  
  
  <line y1="294.0" x1="50.0" y2="294.0" x2="1180.0"
	stroke="#c0c0c0"/>
  
  <text x="45" y="294.0" text-anchor="end" font-size="10">40</text>
  
  
  <line y1="249.99999999999997" x1="50.0" y2="249.99999999999997" x2="1180.0"
	stroke="#c0c0c0"/>
  
  <text x="45" y="249.99999999999997" text-anchor="end" font-size="10">50</text>
  
  
  <line y1="206.0" x1="50.0" y2="206.0" x2="1180.0"
	stroke="#c0c0c0"/>
  
  <text x="45" y="206.0" text-anchor="end" font-size="10">60</text>
  
  
  <line y1="162.0" x1="50.0" y2="162.0" x2="1180.0"
	stroke="#c0c0c0"/>
  
  <text x="45" y="162.0" text-anchor="end" font-size="10">70</text>
  
  
  <line y1="118.0" x1="50.0" y2="118.0" x2="1180.0"
	stroke="#c0c0c0"/>
  
  <text x="45" y="118.0" text-anchor="end" font-size="10">80</text>
  
  
  <line y1="73.99999999999994" x1="50.0" y2="73.99999999999994" x2="1180.0"
	stroke="#c0c0c0"/>
  
  <text x="45" y="73.99999999999994" text-anchor="end" font-size="10">90</text>
  
  

</svg>
