<?xml version="1.0" standalone="no"?>
<!DOCTYPE svg PUBLIC "-//W3C//DTD SVG 20010904//EN"
 "http://www.w3.org/TR/2001/REC-SVG-20010904/DTD/svg10.dtd">
<svg version="1.0" xmlns="http://www.w3.org/2000/svg"
 width="240.000000pt" height="240.000000pt" viewBox="0 0 240.000000 240.000000"
 preserveAspectRatio="xMidYMid meet">
<metadata>
Created by potrace 1.15, written by Peter Selinger 2001-2017
</metadata>
<g transform="translate(0.000000,240.000000) scale(0.100000,-0.100000)"
fill="#000000" stroke="none">
<path d="M1273 2136 c-64 -30 -93 -79 -93 -156 0 -59 17 -97 60 -134 66 -55
155 -54 221 1 36 31 68 94 69 136 0 86 -91 177 -177 177 -15 0 -51 -11 -80
-24z"/>
<path d="M845 2055 c-64 -32 -102 -121 -84 -198 23 -97 114 -153 207 -128 84
22 132 86 132 174 0 62 -25 108 -79 144 -40 27 -129 31 -176 8z"/>
<path d="M1380 1691 c-31 -5 -38 -13 -65 -68 -38 -78 -62 -103 -131 -138 -97
-49 -228 -47 -391 7 -52 17 -67 18 -97 8 -44 -14 -57 -50 -33 -92 l16 -28 -42
0 c-39 0 -48 -6 -115 -71 -74 -73 -84 -91 -56 -107 13 -7 9 -16 -25 -58 -49
-58 -53 -84 -13 -84 22 0 46 22 137 130 l110 129 45 0 c25 0 79 -6 120 -14 70
-12 72 -13 28 -14 -27 -1 -48 -5 -48 -10 0 -4 43 -23 96 -41 91 -31 100 -32
202 -26 165 9 217 19 352 69 69 25 130 48 136 49 7 2 70 -54 142 -124 111
-109 135 -128 161 -128 55 0 50 26 -20 96 -49 50 -61 66 -51 76 24 24 10 44
-82 116 -93 72 -124 84 -145 59 -6 -8 -28 -21 -48 -29 -160 -67 -178 -71 -146
-35 41 45 68 119 71 198 4 74 3 76 -28 107 -17 18 -35 31 -38 31 -4 -1 -23 -4
-42 -8z"/>
<path d="M622 1185 c-37 -31 -54 -81 -77 -225 -34 -214 -73 -310 -170 -423
-75 -88 -97 -129 -77 -149 8 -8 27 0 68 28 242 165 394 432 382 669 -4 81 -19
108 -69 120 -19 5 -34 0 -57 -20z"/>
<path d="M1345 1157 c-54 -58 -131 -195 -164 -294 -25 -74 -27 -159 -6 -210
32 -75 140 -179 291 -278 111 -73 123 -60 36 42 -111 129 -198 277 -188 318 3
12 35 63 71 111 82 110 124 194 131 261 6 46 4 54 -19 77 -19 19 -37 26 -64
26 -32 0 -44 -7 -88 -53z"/>
<path d="M802 1164 c-27 -19 -30 -79 -5 -132 16 -34 104 -128 191 -204 34 -30
42 -43 42 -71 0 -49 -35 -173 -81 -289 -57 -144 -41 -145 61 -3 89 123 132
216 138 296 2 38 -1 82 -7 102 -18 54 -81 145 -151 221 -89 95 -138 116 -188
80z"/>
<path d="M1567 1152 c-23 -24 -27 -37 -27 -85 0 -79 17 -150 55 -234 80 -174
216 -312 418 -422 l77 -42 0 37 c0 34 -8 45 -99 133 -85 83 -104 108 -140 182
-23 48 -59 147 -80 221 -43 152 -59 184 -105 216 -43 29 -67 28 -99 -6z"/>
</g>
</svg>
