<?xml version="1.0" encoding="UTF-8" standalone="no"?>
<!-- Created with Inkscape (http://www.inkscape.org/) -->

<svg
   xmlns:dc="http://purl.org/dc/elements/1.1/"
   xmlns:cc="http://creativecommons.org/ns#"
   xmlns:rdf="http://www.w3.org/1999/02/22-rdf-syntax-ns#"
   xmlns:svg="http://www.w3.org/2000/svg"
   xmlns="http://www.w3.org/2000/svg"
   xmlns:sodipodi="http://sodipodi.sourceforge.net/DTD/sodipodi-0.dtd"
   xmlns:inkscape="http://www.inkscape.org/namespaces/inkscape"
   version="1.0"
   width="300"
   height="300"
   viewBox="0 0 300 300"
   id="svg2372"
   inkscape:version="0.47 r22583"
   sodipodi:docname="Futsal_pictogram[1].svg">
  <metadata
     id="metadata17">
    <rdf:RDF>
      <cc:Work
         rdf:about="">
        <dc:format>image/svg+xml</dc:format>
        <dc:type
           rdf:resource="http://purl.org/dc/dcmitype/StillImage" />
        <dc:title></dc:title>
      </cc:Work>
    </rdf:RDF>
  </metadata>
  <sodipodi:namedview
     pagecolor="#ffffff"
     bordercolor="#666666"
     borderopacity="1"
     objecttolerance="10"
     gridtolerance="10"
     guidetolerance="10"
     inkscape:pageopacity="0"
     inkscape:pageshadow="2"
     inkscape:window-width="1366"
     inkscape:window-height="718"
     id="namedview15"
     showgrid="false"
     inkscape:zoom="0.78666667"
     inkscape:cx="150"
     inkscape:cy="150"
     inkscape:window-x="-8"
     inkscape:window-y="-8"
     inkscape:window-maximized="1"
     inkscape:current-layer="svg2372" />
  <defs
     id="defs2374">
    <inkscape:perspective
       sodipodi:type="inkscape:persp3d"
       inkscape:vp_x="0 : 150 : 1"
       inkscape:vp_y="0 : 1000 : 0"
       inkscape:vp_z="300 : 150 : 1"
       inkscape:persp3d-origin="150 : 100 : 1"
       id="perspective19" />
    <clipPath
       id="clip0">
      <rect
         width="300"
         height="300"
         x="0"
         y="0"
         id="rect2377" />
    </clipPath>
    <inkscape:perspective
       id="perspective2837"
       inkscape:persp3d-origin="0.5 : 0.33333333 : 1"
       inkscape:vp_z="1 : 0.5 : 1"
       inkscape:vp_y="0 : 1000 : 0"
       inkscape:vp_x="0 : 0.5 : 1"
       sodipodi:type="inkscape:persp3d" />
  </defs>
  <path
     d="M 77.369112 248.83089 A 23.210733 23.210733 0 1 1  30.947645,248.83089 A 23.210733 23.210733 0 1 1  77.369112 248.83089 z"
     transform="matrix(0.9886364,0,0,0.9886364,0.8791944,3.091382)"
     style="fill:#000000;fill-opacity:1;stroke:none;stroke-width:1.20000005;stroke-linejoin:round;stroke-miterlimit:4;stroke-dasharray:none;stroke-opacity:1"
     id="path2459" />
  <path
     d="M 240.89927 49.253746 A 20.748989 20.748989 0 1 1  199.40129,49.253746 A 20.748989 20.748989 0 1 1  240.89927 49.253746 z"
     transform="matrix(1.0466102,0,0,1.0466102,-9.294128,-1.3286115)"
     style="fill:#000000;fill-opacity:1;stroke:none;stroke-width:1.20000005;stroke-linejoin:round;stroke-miterlimit:4;stroke-dasharray:none;stroke-opacity:1"
     id="path2457" />
  <path
     d="M 71.952591,69.535355 C 99.630188,66.899155 127.34358,64.624847 155.05722,62.400864 C 161.83772,62.475113 168.80875,61.657944 175.43105,63.489883 C 179.66367,64.623398 183.96471,68.195526 183.78311,72.930222 C 183.35135,77.957443 178.23712,80.947937 173.73119,81.809174 C 154.46222,84.241852 135.13634,81.240433 115.94821,79.477707 C 98.954834,77.66011 81.965225,75.809906 64.97316,73.982254 C 61.766266,73.659637 58.546356,73.343369 55.41394,72.552383 C 60.567856,70.242233 66.423233,70.262054 71.952591,69.535355 z "
     style="fill:#000000;fill-rule:nonzero;stroke:none"
     id="path2390" />
  <path
     d="M 231.05954,90.930222 C 230.20383,85.379623 235.91161,81.136398 240.9521,81.046143 C 248.09685,82.227966 253.43378,88.23941 256.58455,94.417664 C 260.10561,102.63289 263.4706,111.04109 264.80069,119.9313 C 265.60713,125.86606 264.26967,132.52286 259.66193,136.66923 C 251.36734,143.72247 240.48303,146.44234 230.01038,148.34204 C 221.36356,149.51332 212.68144,150.80186 203.94083,150.81776 C 204.23169,148.35075 206.94917,147.71063 208.83801,146.80713 C 222.00443,141.70161 235.33566,136.32971 246.55597,127.55562 C 247.51784,126.68266 249.18536,125.60098 248.47118,124.05971 C 246.97475,119.75147 243.9971,116.16022 241.80676,112.19615 C 237.88011,105.31168 232.65566,98.866821 231.05954,90.930222 z "
     style="fill:#000000;fill-rule:nonzero;stroke:none"
     id="path2394" />
  <path
     d="M 152.45915,127.58325 C 156.84114,125.70528 162.27583,125.95561 166.11514,128.93398 C 168.40436,130.84198 168.30702,134.1861 167.58397,136.81462 C 164.72502,146.15944 158.66083,154.06639 152.32101,161.3331 C 146.32086,167.98451 140.12845,174.47362 133.54091,180.54753 C 130.13646,183.5439 126.57048,186.80013 121.95865,187.67256 C 117.78662,188.80638 113.17424,186.48781 111.41374,182.58562 C 110.78455,178.29491 112.41612,174.07857 114.28481,170.29965 C 117.91534,163.21736 122.6695,156.77574 127.60144,150.55573 C 134.79048,141.90382 142.23418,132.73241 152.45915,127.58325 z "
     style="fill:#000000;fill-rule:nonzero;stroke:none"
     id="path2402" />
  <path
     d="M 176.13171,147.07903 C 181.22269,144.58766 188.23219,144.22145 192.53368,148.41737 C 195.4485,152.10414 194.50763,157.18581 193.14378,161.30208 C 190.29915,169.07929 185.75909,176.14986 180.6203,182.60054 C 152.58479,215.15742 120.36044,243.70268 89.390884,273.37237 C 88.586594,274.00583 87.75354,274.60155 86.891724,275.15953 C 88.747345,269.69728 92.182846,264.9946 94.990341,260.00951 C 114.42679,228.68663 134.08737,197.47058 155.35873,167.35233 C 161.46979,159.87856 167.2795,151.53224 176.13171,147.07903 z "
     style="fill:#000000;fill-rule:nonzero;stroke:none"
     id="path2406" />
  <path
     d="M 176.13171,147.07903 C 181.22269,144.58766 188.23219,144.22145 192.53368,148.41737 C 195.4485,152.10414 194.50763,157.18581 193.14378,161.30208 C 190.29915,169.07929 185.75909,176.14986 180.6203,182.60054 C 152.58479,215.15742 120.36044,243.70268 89.390884,273.37237 C 88.586594,274.00583 87.75354,274.60155 86.891724,275.15953 C 88.747345,269.69728 92.182846,264.9946 94.990341,260.00951 C 114.42679,228.68663 134.08737,197.47058 155.35873,167.35233 C 161.46979,159.87856 167.2795,151.53224 176.13171,147.07903 z "
     style="fill:none;stroke:#000000;stroke-width:0.1;stroke-linecap:butt;stroke-linejoin:miter;stroke-miterlimit:10"
     id="path2404" />
  <path
     d="m 260.913,278.26532 c -4.382,-0.614 -8.55,-2.242 -12.86,-3.218 -3.133,1.372 -6.318,2.646 -9.267,4.396 -2.407,1.293 -4.915,2.984 -7.794,2.583 -10.353,-0.845 -19.371,-7.423 -29.905,-7.37 -15.578,0.378 -30.785,4.221 -46.054,6.957 -7.446,0.842 -13.695,-4.236 -20.829,-5.251 -11.03,-0.706 -21.202,5.989 -32.267,4.54 -5.692001,-0.674 -11.398001,-1.223 -17.089001,-1.902 -8.586,-1.524 -16.891,3.955 -25.448,1.789 -5.956,-2.053 -11.778999,-5.245 -18.275999,-4.925 -4.475,0.565 -8.631,2.704 -13.158,2.978 -5.793,-0.18 -11.034,-3.271 -16.816,-3.555 -3.804,-0.117 -7.49,1.006 -11.15,1.892 v 1.763 c 0.29,1.428 0.595,2.855 0.916,4.283 3.055,-0.596 6.038,-1.775 9.17,-1.846 6.388,0.742 12.386,3.838 18.927,3.523 4.492,0.137 8.481,-2.4 12.891,-2.801 6.111,-0.094 11.271999,3.703 17.066999,5.005 2.656,0.341 5.348,0.249 8.018,0.167 4.728,-0.204 9.171,-2.439 13.928,-2.322 9.634,0.783 19.245001,2.708 28.947001,2.039 6.479,-0.887 12.663,-3.221 19.12,-4.224 7.053,-1.237 13.017,3.772 19.782,4.649 4.48,0.936 9.049,0.322 13.409,-0.886 11.934,-1.959 23.706,-5.169 35.829,-5.783 12.28,-1.013 22.739,8.218 35,7.35 5.706,-0.249 9.991,-4.552 15.149,-6.409 4.096,0.406 7.851,2.526 11.994,2.684 7.317,0.014 14.521,-1.963 21.858,-1.465 5.991,0.336 11.994,0.129 17.992,0.191 v -5.985 c -5.995,-0.482 -12.012,-0.083 -18.01,-0.425 -7.079,-0.417 -14.014,1.591 -21.074,1.578 z"
     id="path11" />
</svg>
