<?xml version="1.0" standalone="no"?>
<!DOCTYPE svg PUBLIC "-//W3C//DTD SVG 20010904//EN"
 "http://www.w3.org/TR/2001/REC-SVG-20010904/DTD/svg10.dtd">
<svg version="1.0" xmlns="http://www.w3.org/2000/svg"
 width="240.000000pt" height="240.000000pt" viewBox="0 0 240.000000 240.000000"
 preserveAspectRatio="xMidYMid meet">
<metadata>
Created by potrace 1.15, written by Peter Selinger 2001-2017
</metadata>
<g transform="translate(0.000000,240.000000) scale(0.100000,-0.100000)"
fill="#000000" stroke="none">
<path d="M1737 2230 c-37 -29 -37 -80 -1 -109 35 -27 59 -26 89 4 63 63 -18
160 -88 105z"/>
<path d="M1245 2165 c-30 -29 -32 -64 -7 -96 39 -47 122 -17 122 45 0 37 -7
49 -37 65 -33 17 -51 14 -78 -14z"/>
<path d="M1077 2150 c-54 -42 -23 -120 47 -120 40 0 66 28 66 70 -1 59 -65 88
-113 50z"/>
<path d="M907 2142 c-21 -23 -22 -76 -1 -96 59 -59 153 10 113 83 -19 34 -86
42 -112 13z"/>
<path d="M750 2130 c-11 -11 -20 -33 -20 -50 0 -17 9 -39 20 -50 43 -43 120
-11 120 50 0 60 -78 92 -120 50z"/>
<path d="M1840 2110 c-11 -11 -20 -33 -20 -50 0 -17 9 -39 20 -50 11 -11 33
-20 50 -20 17 0 39 9 50 20 11 11 20 33 20 50 0 17 -9 39 -20 50 -11 11 -33
20 -50 20 -17 0 -39 -9 -50 -20z"/>
<path d="M1029 1968 c-18 -74 -14 -290 7 -396 37 -188 130 -371 247 -485 116
-113 227 -117 227 -9 0 52 -23 90 -117 193 -128 139 -160 183 -213 289 -69
138 -97 223 -104 320 -13 155 -25 178 -47 88z"/>
<path d="M1935 1980 c-26 -29 -24 -79 4 -102 66 -53 153 29 101 95 -27 34 -78
37 -105 7z"/>
<path d="M1844 1928 c-23 -18 -55 -49 -71 -68 -47 -55 -141 -204 -172 -272
-130 -288 -109 -698 36 -698 67 0 101 68 90 178 -33 326 -33 336 8 521 29 131
40 159 106 267 28 46 49 88 47 94 -2 7 -21 -3 -44 -22z"/>
<path d="M2035 1860 c-26 -29 -24 -79 4 -102 66 -53 153 29 101 95 -27 34 -78
37 -105 7z"/>
<path d="M535 1052 c-75 -36 -111 -99 -103 -182 9 -94 83 -160 179 -160 56 0
104 25 143 73 27 34 31 46 31 101 0 51 -5 70 -27 104 -49 73 -146 101 -223 64z"/>
<path d="M845 736 c-17 -40 -9 -78 27 -126 51 -70 219 -173 357 -220 60 -20
302 -60 364 -60 27 0 29 2 17 14 -8 7 -54 27 -102 44 -177 63 -249 108 -398
247 -125 118 -152 135 -208 135 -39 0 -44 -3 -57 -34z"/>
</g>
</svg>
