<?xml version="1.0" standalone="no"?>
<!DOCTYPE svg PUBLIC "-//W3C//DTD SVG 20010904//EN"
 "http://www.w3.org/TR/2001/REC-SVG-20010904/DTD/svg10.dtd">
<svg version="1.0" xmlns="http://www.w3.org/2000/svg"
 width="240.000000pt" height="240.000000pt" viewBox="0 0 240.000000 240.000000"
 preserveAspectRatio="xMidYMid meet">
<metadata>
Created by potrace 1.15, written by Peter Selinger 2001-2017
</metadata>
<g transform="translate(0.000000,240.000000) scale(0.100000,-0.100000)"
fill="#000000" stroke="none">
<path d="M872 1930 c-69 -42 -94 -144 -53 -220 39 -75 153 -104 222 -57 101
68 107 207 10 273 -46 31 -130 33 -179 4z"/>
<path d="M662 1700 c-15 -25 -16 -84 0 -113 43 -82 192 -207 313 -263 69 -31
274 -94 309 -94 28 0 9 18 -52 50 -121 63 -149 82 -219 145 -39 36 -103 107
-141 158 -39 50 -84 102 -101 115 -38 28 -92 29 -109 2z"/>
<path d="M1400 1647 c0 -8 14 -54 31 -103 30 -85 31 -95 30 -238 -1 -162 -8
-197 -76 -391 -39 -111 -42 -142 -20 -185 29 -57 89 -51 135 12 81 111 115
345 79 538 -13 71 -54 191 -86 255 -50 98 -93 150 -93 112z"/>
<path d="M826 1338 c4 -7 30 -41 56 -76 72 -95 91 -137 137 -316 17 -66 21
-110 21 -258 0 -198 7 -226 59 -247 43 -18 67 -6 92 46 56 116 28 343 -66 535
-61 124 -242 328 -291 328 -10 0 -12 -5 -8 -12z"/>
<path d="M421 1254 c-42 -30 -51 -71 -51 -241 0 -165 -8 -214 -54 -353 -39
-120 -60 -160 -125 -246 -63 -84 -69 -94 -50 -94 45 0 211 177 288 308 74 124
131 317 131 441 0 59 -26 160 -47 183 -20 22 -61 23 -92 2z"/>
<path d="M602 1224 c-17 -12 -22 -25 -22 -62 0 -57 18 -88 103 -179 103 -110
145 -169 197 -279 57 -119 77 -188 87 -305 16 -175 57 -38 48 160 -8 183 -46
316 -127 454 -53 89 -126 169 -185 201 -53 30 -70 32 -101 10z"/>
<path d="M1999 1047 c-126 -84 -68 -287 82 -287 99 0 164 61 164 155 0 94 -65
155 -164 155 -33 0 -58 -7 -82 -23z"/>
<path d="M1768 762 c-19 -15 -66 -63 -104 -106 -92 -104 -187 -175 -317 -235
-59 -28 -107 -56 -107 -62 0 -7 10 -9 27 -4 15 3 52 11 83 17 98 18 204 50
265 81 211 105 320 232 275 318 -17 30 -79 26 -122 -9z"/>
</g>
</svg>
