<?xml version="1.0" standalone="no"?>
<!DOCTYPE svg PUBLIC "-//W3C//DTD SVG 20010904//EN"
 "http://www.w3.org/TR/2001/REC-SVG-20010904/DTD/svg10.dtd">
<svg version="1.0" xmlns="http://www.w3.org/2000/svg"
 width="240.000000pt" height="240.000000pt" viewBox="0 0 240.000000 240.000000"
 preserveAspectRatio="xMidYMid meet">
<metadata>
Created by potrace 1.11, written by Peter Selinger 2001-2013
</metadata>
<g transform="translate(0.000000,240.000000) scale(0.100000,-0.100000)"
fill="#000000" stroke="none">
<path d="M790 2138 c-114 -58 -122 -194 -17 -272 38 -28 126 -28 164 0 52 39
68 71 68 134 0 65 -20 102 -71 132 -51 29 -94 31 -144 6z"/>
<path d="M520 1933 c-81 -30 -103 -183 -46 -309 44 -95 115 -157 212 -183 28
-7 51 -23 72 -50 18 -22 32 -42 32 -44 0 -3 -30 -3 -67 0 -64 4 -67 3 -48 -12
22 -18 107 -45 141 -45 13 0 43 -18 69 -40 110 -95 214 -149 340 -175 132 -27
215 0 215 69 0 62 -64 98 -206 116 -49 6 -113 18 -143 26 l-54 15 29 18 c81
49 145 162 152 268 5 83 -9 116 -53 127 -41 11 -71 -15 -89 -76 -8 -29 -24
-85 -36 -124 -16 -59 -27 -78 -65 -113 -24 -22 -51 -41 -59 -41 -9 0 -32 15
-52 33 l-37 32 71 6 c65 5 92 12 81 23 -2 2 -44 11 -92 19 -108 19 -191 57
-218 101 -28 45 -37 86 -47 214 -6 74 -14 118 -23 127 -17 16 -58 26 -79 18z"/>
<path d="M2013 1569 c-62 -31 -86 -75 -81 -150 4 -51 9 -64 38 -94 82 -85 214
-59 256 50 30 81 -2 160 -80 196 -53 24 -82 24 -133 -2z"/>
<path d="M487 1269 c-33 -20 -56 -85 -72 -209 -17 -126 -54 -248 -100 -325
-13 -22 -51 -67 -84 -100 -46 -44 -61 -66 -61 -87 0 -15 2 -28 5 -28 18 0 152
100 207 153 144 140 228 318 228 478 0 85 -25 129 -72 129 -18 0 -41 -5 -51
-11z"/>
<path d="M652 1240 c-44 -42 -18 -113 74 -201 33 -30 79 -68 104 -84 79 -51
90 -64 90 -111 0 -58 -43 -191 -96 -296 -24 -49 -40 -88 -35 -88 5 0 31 24 57
52 126 140 204 278 204 361 0 91 -100 234 -238 338 -74 56 -122 64 -160 29z"/>
<path d="M1853 1134 c-22 -22 -24 -30 -18 -72 14 -95 76 -194 172 -273 41 -34
189 -119 207 -119 3 0 6 9 6 20 0 12 -21 34 -61 61 -70 48 -131 133 -155 219
-26 96 -44 136 -67 157 -37 34 -56 35 -84 7z"/>
<path d="M1367 1022 c-20 -22 -22 -62 -4 -105 19 -45 106 -137 172 -182 31
-22 58 -49 61 -62 13 -50 -27 -207 -87 -338 -16 -37 -28 -69 -26 -72 9 -8 147
184 182 255 27 53 39 90 42 135 4 55 2 68 -26 121 -70 132 -204 266 -266 266
-18 0 -39 -8 -48 -18z"/>
</g>
</svg>
