<?xml version="1.0" encoding="UTF-8" standalone="no"?>
<!-- Created with Inkscape (http://www.inkscape.org/) -->

<svg
   xmlns:dc="http://purl.org/dc/elements/1.1/"
   xmlns:cc="http://creativecommons.org/ns#"
   xmlns:rdf="http://www.w3.org/1999/02/22-rdf-syntax-ns#"
   xmlns:svg="http://www.w3.org/2000/svg"
   xmlns="http://www.w3.org/2000/svg"
   xmlns:sodipodi="http://sodipodi.sourceforge.net/DTD/sodipodi-0.dtd"
   xmlns:inkscape="http://www.inkscape.org/namespaces/inkscape"
   width="300"
   height="300"
   id="svg2"
   version="1.1"
   inkscape:version="0.48.4 r9939"
   sodipodi:docname="kendo1.svg">
  <defs
     id="defs4" />
  <sodipodi:namedview
     id="base"
     pagecolor="#ffffff"
     bordercolor="#666666"
     borderopacity="1.0"
     inkscape:pageopacity="0.0"
     inkscape:pageshadow="2"
     inkscape:zoom="1.979899"
     inkscape:cx="79.204673"
     inkscape:cy="139.80629"
     inkscape:document-units="px"
     inkscape:current-layer="layer1"
     showgrid="false"
     inkscape:snap-smooth-nodes="false"
     inkscape:window-width="1920"
     inkscape:window-height="1028"
     inkscape:window-x="1592"
     inkscape:window-y="-8"
     inkscape:window-maximized="1" />
  <metadata
     id="metadata7">
    <rdf:RDF>
      <cc:Work
         rdf:about="">
        <dc:format>image/svg+xml</dc:format>
        <dc:type
           rdf:resource="http://purl.org/dc/dcmitype/StillImage" />
        <dc:title></dc:title>
      </cc:Work>
    </rdf:RDF>
  </metadata>
  <g
     inkscape:label="Layer 1"
     inkscape:groupmode="layer"
     id="layer1"
     transform="translate(0,-752.36218)">
    <path
       inkscape:connector-curvature="0"
       d="m 243.51495,839.5133 c 2.19197,-6.36276 -1.91138,-14.65922 -6.40756,-14.25568 -1.53302,0.10064 -6.15833,4.92809 -6.92627,6.74235 -6.58385,9.80503 -11.5348,12.36243 -22.56335,24.33548 -7.07189,6.44928 -21.90121,14.57189 -34.01723,22.57026 -3.13456,1.28828 -2.01322,6.95606 1.96767,7.73366 6.95235,4.60106 7.18314,0.18103 10.95153,-4.62443 13.50616,-6.36506 15.18621,-6.70855 29.60616,-17.60776 6.96072,-7.50067 21.85531,-11.15973 27.38905,-24.89388 z"
       id="path3013"
       sodipodi:nodetypes="ccccccccc" />
    <path
       inkscape:connector-curvature="0"
       d="m 38.758506,842.06722 c -2.191974,-6.36275 1.911381,-14.65921 6.407558,-14.25567 1.533021,0.10063 2.586895,2.07095 3.354838,3.88521 5.512424,12.30502 11.524306,24.56656 19.818251,32.79486 11.617577,12.00511 25.360592,21.46963 39.619467,19.82515 3.13456,-1.56885 4.51322,6.24179 0.53233,7.01939 -6.95234,4.60105 -13.968843,-0.17612 -21.308665,-2.12444 C 76.201501,886.02505 65.54212,879.82986 56.172938,870.44588 49.212211,862.94521 42.506537,854.01566 38.758506,842.06722 z"
       id="path3013-1"
       sodipodi:nodetypes="ccccccccc" />
    <path
       style="fill:#000000;stroke:#000000;stroke-width:0.99217123px;stroke-linecap:butt;stroke-linejoin:miter;stroke-opacity:1"
       d="m 87.751128,900.69615 c -1.904496,0.8363 -0.390814,-1.37085 -0.390814,-1.37085 l 98.915136,-98.91089 c 0,0 2.09295,-0.99443 2.82339,-1.12022 0.9925,-0.17088 1.58114,0.58927 1.58114,0.58927 -33.70044,33.56029 -82.76365,80.42694 -97.957744,97.95811 0,0 -0.565397,0.91998 -4.971111,2.85456"
       id="path3086-0"
       inkscape:connector-curvature="0"
       sodipodi:nodetypes="cccaccc" />
    <path
       inkscape:connector-curvature="0"
       d="m 43.324448,846.98353 c -5.025371,-4.47604 -5.507103,-13.71924 -1.38864,-15.56767 1.386147,-0.66248 3.269438,0.54003 4.827005,1.74637 10.829076,8.03315 22.072436,15.06966 33.332116,19.97212 12.434993,4.4267 25.123061,9.88339 38.895861,13.97126 1.96578,-2.90215 9.13332,4.30601 6.04223,6.93231 -3.81125,7.41478 -13.33941,2.03966 -20.33658,0.004 -9.349793,-3.11948 -19.534472,-7.23417 -32.297403,-10.83254 -9.740932,-3.13464 -19.958709,-7.64019 -29.074609,-16.22584 z"
       id="path3013-1-9"
       sodipodi:nodetypes="cccccccccc" />
    <path
       style="fill:#000000;stroke:#000000;stroke-width:0.99217123px;stroke-linecap:butt;stroke-linejoin:miter;stroke-opacity:1"
       d="m 223.09144,894.20756 c 1.60064,1.32832 -1.05068,0.96335 -1.05068,0.96335 L 145.4199,869.68764 89.305422,851.02457 c 0,0 -1.826423,-1.426 -2.266009,-2.02277 -0.59726,-0.81088 -0.181208,-1.67762 -0.181208,-1.67762 45.098975,15.10279 108.975345,37.9827 131.454685,43.717 0,0 1.07577,0.0935 4.77853,3.16639"
       id="path3086-0-4"
       inkscape:connector-curvature="0"
       sodipodi:nodetypes="ccccaccc" />
    <path
       inkscape:connector-curvature="0"
       d="m 249.80694,843.81846 c 0.38983,-5.55115 -4.79546,-11.29115 -8.38379,-10.00137 -1.23162,0.41027 -3.95014,5.25947 -4.17819,6.87307 -3.22285,9.24432 -9.8763,14.46084 -15.27215,23.53843 -6.85471,12.08399 -10.133,18.9105 -20.66136,26.08346 -2.27962,1.70304 -0.11283,5.98632 3.31449,5.75033 6.70062,2.1768 9.1291,1.8129 11.15161,-2.83431 8.357,-4.62204 11.98133,-10.15789 17.57507,-19.66552 4.03916,-7.48585 14.95665,-17.58915 16.45432,-29.74409 z"
       id="path3013-8"
       sodipodi:nodetypes="ccccccccc" />
    <path
       inkscape:connector-curvature="0"
       d="m 284.4815,999.05986 c -4.48461,-12.16425 -9.2436,-24.27276 -12.48635,-36.81678 -3.55811,-12.06908 -4.28594,-24.65082 -6.49885,-36.96079 -1.3746,-7.32564 -4.98082,-14.40865 -11.18747,-19.03807 -3.50644,-0.20147 -7.25074,-1.09821 -10.57366,0.45608 -3.44853,1.31939 -5.61155,4.71687 -6.07837,8.16321 -1.04231,6.82497 0.0579,13.82912 2.28863,20.34374 3.9688,13.70995 9.77902,26.83951 15.88678,39.77274 6.3866,12.68119 12.80706,25.47121 21.25601,37.02511 6.64941,7.93 13.33623,15.836 19.95179,23.7935 0.70556,0.9473 1.64275,1.6854 2.68506,2.2856 0.002,-0.529 0.007,-1.5895 0.009,-2.1201 -5.47347,-12.148 -10.0828,-24.6354 -15.25248,-36.90424 z"
       id="path3076" />
    <path
       inkscape:connector-curvature="0"
       d="m 215.64358,914.32341 c -8.87301,3.37262 -14.08545,11.76474 -17.66494,19.82508 -7.48415,17.59609 -12.98612,35.94832 -16.76339,54.60233 -3.01468,13.41338 -4.33494,27.09668 -6.54428,40.63778 0.0561,1.6915 -1.34877,4.4237 1.00846,5.2081 4.64763,-10.7505 8.44271,-21.8149 12.6761,-32.7163 7.47524,-17.4521 14.68945,-35.3491 26.60119,-50.54047 5.03784,-6.66294 10.52734,-13.32759 13.04492,-21.3322 1.20089,-4.89262 2.87036,-10.92115 -0.95144,-15.14422 -3.02537,-3.17887 -7.75408,-1.65544 -11.40662,-0.5401 z"
       id="path3078" />
    <path
       inkscape:connector-curvature="0"
       d="m 37.111558,780.41975 c -7.576,1.041 -14.763,5.693 -17.865,12.83 -5.442,10.382 0.702,24.067 11.311,28.24 7.269,3.229 16.136,2.337 22.621,-2.256 5.484,-3.739 8.762,-10.194 9.398,-16.716 0.003,-5.325 -2.22,-10.478 -5.554,-14.568 -4.911,-5.504 -12.596,-8.37 -19.911,-7.53 z"
       id="path3074" />
    <path
       inkscape:connector-curvature="0"
       d="m 223.98978,777.38928 c -7.576,1.041 -14.763,5.693 -17.865,12.83 -5.442,10.382 0.702,24.067 11.311,28.24 7.269,3.229 16.136,2.337 22.621,-2.256 5.484,-3.739 8.762,-10.194 9.398,-16.716 0.003,-5.325 -2.22,-10.478 -5.554,-14.568 -4.911,-5.504 -12.596,-8.37 -19.911,-7.53 z"
       id="path3074-2" />
    <path
       inkscape:connector-curvature="0"
       d="m 25.269638,995.13013 c 4.48461,-12.16425 9.2436,-24.27276 12.48635,-36.81678 3.55811,-12.06908 4.28594,-24.65082 6.49885,-36.96079 1.374602,-7.32564 4.980822,-14.40865 11.187472,-19.03807 3.50644,-0.20147 7.25074,-1.09821 10.57366,0.45608 3.44853,1.31939 5.61155,4.71687 6.07837,8.16321 1.04231,6.82497 -0.0579,13.82912 -2.28863,20.34374 -3.9688,13.70995 -9.77902,26.83951 -15.88678,39.77274 -6.3866,12.68119 -12.807062,25.47121 -21.256012,37.02514 -6.64941,7.93 -13.33623,15.836 -19.95179,23.7935 -0.70556,0.9473 -1.64275,1.6854 -2.68506,2.2856 -0.002,-0.529 -0.007,-1.5895 -0.009,-2.1201 5.47347,-12.148 10.0828,-24.6354 15.25248,-36.90427 z"
       id="path3076-4" />
    <path
       inkscape:connector-curvature="0"
       d="m 94.10756,910.39368 c 8.87301,3.37262 14.08545,11.76474 17.66494,19.82508 7.48415,17.59609 12.98612,35.94832 16.76339,54.60233 3.01468,13.41338 4.33494,27.09671 6.54428,40.63781 -0.0561,1.6915 1.34877,4.4237 -1.00846,5.2081 -4.64763,-10.7505 -8.44271,-21.8149 -12.6761,-32.71633 -7.47524,-17.4521 -14.68945,-35.3491 -26.60119,-50.54047 -5.03784,-6.66294 -10.52734,-13.32759 -13.04492,-21.3322 -1.20089,-4.89262 -2.87036,-10.92115 0.95144,-15.14422 3.02537,-3.17887 7.75408,-1.65544 11.40662,-0.5401 z"
       id="path3078-5" />
  </g>
</svg>
