<?xml version="1.0" encoding="UTF-8" standalone="no"?>
<svg
   xmlns:dc="http://purl.org/dc/elements/1.1/"
   xmlns:cc="http://creativecommons.org/ns#"
   xmlns:rdf="http://www.w3.org/1999/02/22-rdf-syntax-ns#"
   xmlns:svg="http://www.w3.org/2000/svg"
   xmlns="http://www.w3.org/2000/svg"
   xmlns:sodipodi="http://sodipodi.sourceforge.net/DTD/sodipodi-0.dtd"
   xmlns:inkscape="http://www.inkscape.org/namespaces/inkscape"
   version="1.0"
   width="300"
   height="300"
   viewBox="0 0 300 300"
   id="svg2243"
   inkscape:version="0.47 r22583"
   sodipodi:docname="Netball pictogram.svg">
  <metadata
     id="metadata15">
    <rdf:RDF>
      <cc:Work
         rdf:about="">
        <dc:format>image/svg+xml</dc:format>
        <dc:type
           rdf:resource="http://purl.org/dc/dcmitype/StillImage" />
        <dc:title />
      </cc:Work>
    </rdf:RDF>
  </metadata>
  <sodipodi:namedview
     pagecolor="#ffffff"
     bordercolor="#666666"
     borderopacity="1"
     objecttolerance="10"
     gridtolerance="10"
     guidetolerance="10"
     inkscape:pageopacity="0"
     inkscape:pageshadow="2"
     inkscape:window-width="1366"
     inkscape:window-height="706"
     id="namedview13"
     showgrid="false"
     inkscape:zoom="1.1228526"
     inkscape:cx="150"
     inkscape:cy="209.76874"
     inkscape:window-x="-8"
     inkscape:window-y="-8"
     inkscape:window-maximized="1"
     inkscape:current-layer="svg2243" />
  <defs
     id="defs2245">
    <inkscape:perspective
       sodipodi:type="inkscape:persp3d"
       inkscape:vp_x="0 : 150 : 1"
       inkscape:vp_y="0 : 1000 : 0"
       inkscape:vp_z="300 : 150 : 1"
       inkscape:persp3d-origin="150 : 100 : 1"
       id="perspective17" />
    <clipPath
       id="clip0">
      <rect
         width="300"
         height="300"
         x="0"
         y="0"
         id="rect2248" />
    </clipPath>
    <inkscape:perspective
       id="perspective2831"
       inkscape:persp3d-origin="0.5 : 0.33333333 : 1"
       inkscape:vp_z="1 : 0.5 : 1"
       inkscape:vp_y="0 : 1000 : 0"
       inkscape:vp_x="0 : 0.5 : 1"
       sodipodi:type="inkscape:persp3d" />
    <inkscape:perspective
       id="perspective2853"
       inkscape:persp3d-origin="0.5 : 0.33333333 : 1"
       inkscape:vp_z="1 : 0.5 : 1"
       inkscape:vp_y="0 : 1000 : 0"
       inkscape:vp_x="0 : 0.5 : 1"
       sodipodi:type="inkscape:persp3d" />
    <inkscape:perspective
       id="perspective2875"
       inkscape:persp3d-origin="0.5 : 0.33333333 : 1"
       inkscape:vp_z="1 : 0.5 : 1"
       inkscape:vp_y="0 : 1000 : 0"
       inkscape:vp_x="0 : 0.5 : 1"
       sodipodi:type="inkscape:persp3d" />
  </defs>
  <path
     d="m 163.86893,13.422385 c -11.84169,0 -21.46875,9.595806 -21.46875,21.4375 0,11.841694 9.62705,21.46875 21.46875,21.46875 11.84169,0 21.43751,-9.627055 21.4375,-21.46875 0,-11.841694 -9.59581,-21.4375 -21.4375,-21.4375 z m 0.15625,5.625 c 8.63861,0 15.65625,7.017637 15.65625,15.65625 -1e-5,8.638613 -7.01764,15.625 -15.65625,15.625 -8.63861,1e-6 -15.625,-6.986387 -15.625,-15.625 0,-8.638613 6.98639,-15.65625 15.625,-15.65625 z"
     style="fill:#000000;fill-opacity:1;stroke:none"
     id="path2226" />
  <path
     d="m 111.18478,73.950075 a 18.097214,18.097214 0 0 1 -36.194424,0 18.097214,18.097214 0 1 1 36.194424,0 z"
     style="fill:#000000;fill-opacity:1;stroke:none"
     id="path2224" />
  <path
     d="M 88.327613,103.94618 C 118.75181,90.311371 131.52251,70.567193 153.64228,49.379757 c -5.42722,12.071106 -11.57697,23.988098 -20.17771,34.144409 -13.31006,16.174072 -27.26274,32.945424 -46.075497,42.878804 -6.01948,3.77327 -15.62141,-1.37125 -14.00311,-8.92845 0.62098,-8.36539 8.77156,-9.46651 14.94165,-13.52834 z"
     style="fill:#050505;fill-rule:nonzero;stroke:none"
     id="path2257"
     sodipodi:nodetypes="cccccc" />
  <path
     d="m 89.279533,173.11491 c 7.03776,-2.08207 12.757117,6.09973 11.503047,12.52439 -0.27771,19.37153 -10.909727,36.58093 -19.746167,53.17325 -13.504273,21.31372 -25.218094,43.83471 -40.404175,64.03562 4.481079,-17.34384 10.423752,-34.27934 14.727142,-51.67297 5.837265,-22.55189 10.917954,-45.65839 21.483213,-66.5941 2.5703,-5.00572 6.24611,-10.91141 12.43694,-11.46619 z"
     style="fill:#050505;fill-rule:nonzero;stroke:none"
     id="path2285" />
  <path
     d="m 221.675,2.356576 c 20.32589,-1.387115 40.75248,-1.309601 61.08974,-0.136398 -1.44615,7.1379239 -3.80928,14.044159 -5.37776,21.150833 -1.44435,7.698685 -1.99518,15.536438 -3.48039,23.227921 -1.68201,-0.04372 -3.36058,-0.08824 -5.03572,-0.133591 -0.60866,-13.236832 2.13923,-26.267853 5.86166,-38.888168 -15.04537,-0.126908 -30.08815,-0.09754 -45.13011,-0.116471 3.3663,11.71666 6.01614,23.764603 5.75354,36.02861 0.22262,2.594193 -3.17054,2.74379 -4.78917,3.920334 -1.35605,-9.276184 -1.80666,-18.730499 -4.33002,-27.799759 C 224.71971,13.863061 222.42671,8.2869049 221.675,2.356576 z"
     style="fill:#050505;fill-rule:nonzero;stroke:none"
     id="path2273" />
  <path
     d="m 117.04233,163.9515 c -5.18269,-2.3068 -10.23394,4.2178 -9.82509,9.77845 -1.43542,16.49969 5.19844,31.94825 10.51732,46.73521 8.47232,19.15854 15.47845,39.2078 25.32619,57.54772 -1.93811,-15.09475 -5.02401,-29.95339 -6.82255,-45.07697 -2.52814,-19.62825 -4.43297,-39.6707 -10.69917,-58.28399 -1.53188,-4.45379 -3.82916,-9.75729 -8.4967,-10.70042 z"
     style="fill:#050505;fill-rule:nonzero;stroke:none"
     id="path2285-1" />
  <path
     d="m 129.88827,96.464249 c 13.82117,-7.179471 30.90415,-31.431122 46.8732,-50.416822 -3.27825,10.169746 -7.15688,20.281051 -13.18749,29.201384 -9.29012,14.170895 -19.04589,28.878709 -33.38035,38.541069 -4.53119,3.56873 -12.79842,0.30889 -12.18939,-5.8975 -0.27517,-6.76459 7.25756,-8.894651 11.88403,-11.428131 z"
     style="fill:#050505;fill-rule:nonzero;stroke:none"
     id="path2257-7"
     sodipodi:nodetypes="cccccc" />
</svg>
