<?xml version="1.0" encoding="UTF-8" standalone="no"?>
<!-- Created with Inkscape (http://www.inkscape.org/) -->

<svg
   xmlns:dc="http://purl.org/dc/elements/1.1/"
   xmlns:cc="http://creativecommons.org/ns#"
   xmlns:rdf="http://www.w3.org/1999/02/22-rdf-syntax-ns#"
   xmlns:svg="http://www.w3.org/2000/svg"
   xmlns="http://www.w3.org/2000/svg"
   version="1.1"
   width="1000"
   height="1000"
   id="svg2">
  <defs
     id="defs4" />
  <metadata
     id="metadata7">
    <rdf:RDF>
      <cc:Work
         rdf:about="">
        <dc:format>image/svg+xml</dc:format>
        <dc:type
           rdf:resource="http://purl.org/dc/dcmitype/StillImage" />
        <dc:title></dc:title>
      </cc:Work>
    </rdf:RDF>
  </metadata>
  <g
     transform="translate(0,-52.362183)"
     id="layer1">
    <path
       d="m 160,800 240,0 0,-220 200,0 0,220 240,0 c 6.66667,-6.66667 20,-10 20,-20 l 0,-380 -360,-300 -360,300 0,380 c 0,10 10,20 20,20 z m 120,-440 160,0 0,120 -160,0 z m 280,0 160,0 0,120 -160,0 z"
       transform="translate(0,52.362183)"
       id="rect3802-8"
       style="fill:#000000;fill-opacity:1;fill-rule:nonzero;stroke:none" />
    <path
       d="M 480,20 40,400 c 0,20 20,40 40,20 L 500,60 920,420 c 20,20 40,0 40,-20 L 760,226.09375 760,60 C 740,40 700,40 680,60 l 0,96.53125 L 520,20 C 500,0 500,0 480,20 z"
       transform="translate(0,52.362183)"
       id="rect3031"
       style="fill:#000000;fill-opacity:1;fill-rule:nonzero;stroke:none" />
  </g>
</svg>
