<?xml version="1.0" encoding="UTF-8" standalone="no"?>
<!-- Created with Inkscape (http://www.inkscape.org/) -->

<svg
   xmlns:dc="http://purl.org/dc/elements/1.1/"
   xmlns:cc="http://creativecommons.org/ns#"
   xmlns:rdf="http://www.w3.org/1999/02/22-rdf-syntax-ns#"
   xmlns:svg="http://www.w3.org/2000/svg"
   xmlns="http://www.w3.org/2000/svg"
   xmlns:xlink="http://www.w3.org/1999/xlink"
   xmlns:sodipodi="http://sodipodi.sourceforge.net/DTD/sodipodi-0.dtd"
   xmlns:inkscape="http://www.inkscape.org/namespaces/inkscape"
   width="744.09448819"
   height="1052.3622047"
   id="svg2"
   version="1.1"
   inkscape:version="0.48.3.1 r9886"
   sodipodi:docname="New document 1">
  <defs
     id="defs4">
    <linearGradient
       id="linearGradient3802">
      <stop
         style="stop-color:#ffffff;stop-opacity:0;"
         offset="0"
         id="stop3804" />
      <stop
         id="stop3810"
         offset="0.92378753"
         style="stop-color:#ffffff;stop-opacity:0;" />
      <stop
         style="stop-color:#000000;stop-opacity:1;"
         offset="1"
         id="stop3806" />
    </linearGradient>
    <radialGradient
       inkscape:collect="always"
       xlink:href="#linearGradient3802"
       id="radialGradient3808"
       cx="-320"
       cy="172.36218"
       fx="-320"
       fy="172.36218"
       r="216.5"
       gradientTransform="translate(0,1.1941952e-6)"
       gradientUnits="userSpaceOnUse" />
    <radialGradient
       inkscape:collect="always"
       xlink:href="#linearGradient3802-1"
       id="radialGradient3808-2"
       cx="-320"
       cy="172.36218"
       fx="-320"
       fy="172.36218"
       r="216.5"
       gradientTransform="translate(0,1.1941952e-6)"
       gradientUnits="userSpaceOnUse" />
    <linearGradient
       id="linearGradient3802-1">
      <stop
         style="stop-color:#ffffff;stop-opacity:0;"
         offset="0"
         id="stop3804-8" />
      <stop
         id="stop3810-8"
         offset="0.92378753"
         style="stop-color:#ffffff;stop-opacity:0;" />
      <stop
         style="stop-color:#000000;stop-opacity:1;"
         offset="1"
         id="stop3806-5" />
    </linearGradient>
    <filter
       inkscape:collect="always"
       id="filter3988">
      <feGaussianBlur
         inkscape:collect="always"
         stdDeviation="2.0228123"
         id="feGaussianBlur3990" />
    </filter>
    <filter
       inkscape:collect="always"
       id="filter4010">
      <feGaussianBlur
         inkscape:collect="always"
         stdDeviation="4.1039062"
         id="feGaussianBlur4012" />
    </filter>
    <filter
       inkscape:collect="always"
       id="filter4088">
      <feGaussianBlur
         inkscape:collect="always"
         stdDeviation="4.1039062"
         id="feGaussianBlur4090" />
    </filter>
    <filter
       inkscape:collect="always"
       id="filter4135">
      <feGaussianBlur
         inkscape:collect="always"
         stdDeviation="2.2750641"
         id="feGaussianBlur4137" />
    </filter>
    <filter
       inkscape:collect="always"
       id="filter4273">
      <feGaussianBlur
         inkscape:collect="always"
         stdDeviation="4.1039062"
         id="feGaussianBlur4275" />
    </filter>
  </defs>
  <sodipodi:namedview
     id="base"
     pagecolor="#ffffff"
     bordercolor="#666666"
     borderopacity="1.0"
     inkscape:pageopacity="0.0"
     inkscape:pageshadow="2"
     inkscape:zoom="0.49497475"
     inkscape:cx="-149.11463"
     inkscape:cy="856.01911"
     inkscape:document-units="px"
     inkscape:current-layer="layer6"
     showgrid="true"
     inkscape:window-width="1206"
     inkscape:window-height="698"
     inkscape:window-x="66"
     inkscape:window-y="66"
     inkscape:window-maximized="0">
    <inkscape:grid
       type="xygrid"
       id="grid2985" />
  </sodipodi:namedview>
  <metadata
     id="metadata7">
    <rdf:RDF>
      <cc:Work
         rdf:about="">
        <dc:format>image/svg+xml</dc:format>
        <dc:type
           rdf:resource="http://purl.org/dc/dcmitype/StillImage" />
        <dc:title></dc:title>
      </cc:Work>
    </rdf:RDF>
  </metadata>
  <g
     inkscape:groupmode="layer"
     id="layer2"
     inkscape:label="base"
     style="display:inline"
     sodipodi:insensitive="true">
    <path
       style="fill:#7f7f7f;fill-opacity:1;fill-rule:nonzero;stroke:none"
       d="m -80,172.36218 c 0,132.54834 -107.45166,240 -240,240 -132.54834,0 -240,-107.45166 -240,-240 0,-132.548337 107.45166,-239.999997 240,-239.999997 132.54834,0 240,107.45166 240,239.999997 z"
       id="path2987"
       inkscape:connector-curvature="0" />
  </g>
  <g
     inkscape:groupmode="layer"
     id="layer3"
     inkscape:label="ombra bordo"
     sodipodi:insensitive="true">
    <path
       inkscape:connector-curvature="0"
       style="fill:url(#radialGradient3808);fill-opacity:1;fill-rule:nonzero;stroke:none"
       d="m -104,172.36218 c 0,119.29351 -96.70649,216 -216,216 -119.29351,0 -216,-96.70649 -216,-216 0,-119.293503 96.70649,-215.999997 216,-215.999997 119.29351,0 216,96.706494 216,215.999997 z"
       id="path2987-0" />
  </g>
  <g
     style="display:none"
     inkscape:label="base scritta"
     id="g4051"
     inkscape:groupmode="layer"
     sodipodi:insensitive="true">
    <path
       id="path4055-9"
       d="m -320,-32.843748 c -113.32883,0 -205.1875,91.889917 -205.1875,205.218748 0,113.32883 91.85867,205.1875 205.1875,205.1875 113.32883,0 205.1875,-91.85867 205.1875,-205.1875 0,-113.328831 -91.85867,-205.218748 -205.1875,-205.218748 z"
       style="fill:#000000;fill-opacity:1;fill-rule:nonzero;stroke:none;display:inline;filter:url(#filter4088)"
       inkscape:connector-curvature="0"
       sodipodi:nodetypes="sssss" />
  </g>
  <g
     inkscape:groupmode="layer"
     id="layer4"
     inkscape:label="scritta alto fairy tales"
     style="display:inline"
     sodipodi:insensitive="true">
    <path
       style="fill:#000000;fill-opacity:1;fill-rule:nonzero;stroke:#000000;stroke-width:2;stroke-miterlimit:4;stroke-opacity:1;stroke-dasharray:none;display:inline;filter:url(#filter4273)"
       d="m -320,-32.843747 c -113.32883,0 -205.1875,91.889922 -205.1875,205.218747 0,113.32883 91.85867,205.1875 205.1875,205.1875 113.32883,0 205.1875,-91.85867 205.1875,-205.1875 0,-113.328824 -91.85867,-205.218747 -205.1875,-205.218747 z m 155.75,94.1875 1.25,0 c 0.32536,1.43e-4 0.58578,0.145976 0.78125,0.40625 0.26025,0.260559 0.40608,0.578268 0.40625,0.96875 -1.7e-4,1.172016 -0.57829,2.502744 -1.75,4 -4.42725,5.59909 -9.63558,9.4194 -15.625,11.4375 -5.92463,1.95325 -12.86993,2.90637 -20.8125,2.90625 l -31.25,0 -21.375,85.062497 c -3.5157,13.99742 -8.37768,27.94532 -14.5625,41.8125 -0.84642,1.56249 -2.29433,3.09635 -4.3125,4.59375 -1.95318,1.49739 -4.17974,2.77082 -6.71875,3.8125 -2.53911,1.10675 -4.65108,1.74217 -6.34375,1.9375 l -1.28125,0 c -0.9115,-1e-5 -1.37504,-0.37502 -1.375,-1.15625 -4e-5,-0.26043 0.14579,-0.66668 0.40625,-1.1875 2.08329,-4.6224 3.99214,-9.22396 5.75,-13.78125 1.75776,-4.62239 3.29162,-9.04947 4.59375,-13.28125 1.36714,-4.23175 2.64057,-8.80206 3.8125,-13.75 L -250,85.468753 c 0.65096,-1.49728 1.9244,-2.97384 3.8125,-4.40625 l -40.25,0 c -4.36201,1.2e-4 -7.34118,0.69544 -8.96875,2.0625 -4.1667,3.97147 -6.25003,8.48449 -6.25,13.5625 -3e-5,1.62771 -1.07034,3.364687 -3.21875,5.187497 -2.08335,1.75791 -4.57294,3.29177 -7.4375,4.59375 -2.8646,1.30218 -5.17969,2.05478 -6.9375,2.25 l -1.15625,0 c -0.91147,9e-5 -1.375,-0.69522 -1.375,-2.0625 0,-4.94782 1.64843,-9.721247 4.96875,-14.343747 3.3854,-4.68738 7.72654,-8.85404 13,-12.5 5.33851,-3.64571 10.95309,-6.51028 16.8125,-8.59375 5.85932,-2.0832 11.12495,-3.12486 15.8125,-3.125 l 86.40625,0 c 2.92954,1.4e-4 5.13006,-0.0572 6.5625,-0.1875 4.49203,-3.841005 9.15089,-6.041524 13.96875,-6.5625 z m -231.375,6.84375 58.59375,0 c 12.95557,1.4e-4 19.43733,2.54701 19.4375,7.625 -1.7e-4,2.92981 -1.76579,5.59127 -5.28125,8 -3.51578,2.34387 -6.95849,3.6746 -10.34375,4 l -0.96875,0 c -0.97671,-0.52072 -1.4689,-0.89571 -1.46875,-1.15625 0.065,-0.39051 0.12225,-0.8254 0.1875,-1.28125 0.065,-0.45561 0.0935,-0.77332 0.0937,-0.96875 -1.5e-4,-2.92956 -5.52619,-4.40613 -16.59375,-4.40625 l -31.65625,0 c -3.77614,18.685 -8.6355,36.307377 -14.625,52.843747 l 50.46875,0 c 0.91132,0.4558 1.37487,1.03392 1.375,1.75 -0.84649,3.19017 -2.84388,5.90892 -5.96875,8.1875 -3.12513,2.2136 -6.39335,3.48703 -9.84375,3.8125 l -1.1875,0 c -0.97669,-0.52078 -1.46887,-1.04161 -1.46875,-1.5625 l 0,-0.375 -37.78125,0 c -5.85945,14.97401 -12.80475,29.87503 -20.8125,44.71875 -3.32037,5.92449 -8.03651,11.07553 -14.15625,15.4375 -6.11984,4.42708 -12.22399,6.62499 -18.34375,6.625 l -1.09375,0 c -5.20835,-1e-5 -9.89585,-1.38803 -14.0625,-4.1875 -4.16667,-2.73438 -7.11719,-6.55469 -8.875,-11.4375 0,-2.34374 1.8802,-4.59895 5.65625,-6.8125 3.77602,-2.27863 6.92967,-3.55207 9.46875,-3.8125 l 1.28125,0 c 0.45571,0.26043 1.52602,1.82293 3.21875,4.6875 1.75779,2.79949 3.86976,5.14323 6.34375,7.03125 2.53903,1.82292 6.09892,2.71876 10.65625,2.71875 0.91141,-1.17187 1.69266,-2.29947 2.34375,-3.40625 9.57026,-17.70831 17.70046,-35.79422 24.40625,-54.21875 3.64576,-10.02597 6.9166,-20.35409 9.78125,-31.03125 2.92961,-10.74209 5.18482,-21.072797 6.8125,-30.968747 l -8.375,0 c -13.28131,1.2e-4 -21.70318,6.22147 -25.21875,18.65625 -1.30213,2.343847 -3.44276,4.398537 -6.4375,6.156247 -2.92973,1.75791 -5.79431,2.77093 -8.59375,3.03125 l -1.15625,0 c -0.91149,-0.58584 -1.37504,-1.28115 -1.375,-2.0625 2.01819,-7.096237 5.98173,-13.520717 11.90625,-19.249997 5.98953,-5.72904 12.93484,-10.21341 20.8125,-13.46875 7.87753,-3.25507 15.4869,-4.87486 22.84375,-4.875 z"
       id="path4055-92"
       inkscape:connector-curvature="0" />
    <path
       style="fill:#a0a0a0;fill-opacity:1;fill-rule:nonzero;stroke:none;display:inline"
       d="m -320,-32.843748 c -113.32883,0 -205.1875,91.889922 -205.1875,205.218748 0,113.32883 91.85867,205.1875 205.1875,205.1875 113.32883,0 205.1875,-91.85867 205.1875,-205.1875 0,-113.328825 -91.85867,-205.218748 -205.1875,-205.218748 z m 155.75,94.1875 1.25,0 c 0.32536,1.43e-4 0.58578,0.145976 0.78125,0.40625 0.26025,0.260559 0.40608,0.578268 0.40625,0.96875 -1.7e-4,1.172016 -0.57829,2.502744 -1.75,4 -4.42725,5.599091 -9.63558,9.419399 -15.625,11.4375 -5.92463,1.953249 -12.86993,2.906374 -20.8125,2.90625 l -31.25,0 -21.375,85.062498 c -3.5157,13.99742 -8.37768,27.94532 -14.5625,41.8125 -0.84642,1.56249 -2.29433,3.09635 -4.3125,4.59375 -1.95318,1.49739 -4.17974,2.77082 -6.71875,3.8125 -2.53911,1.10675 -4.65108,1.74217 -6.34375,1.9375 l -1.28125,0 c -0.9115,-1e-5 -1.37504,-0.37502 -1.375,-1.15625 -4e-5,-0.26043 0.14579,-0.66668 0.40625,-1.1875 2.08329,-4.6224 3.99214,-9.22396 5.75,-13.78125 1.75776,-4.62239 3.29162,-9.04947 4.59375,-13.28125 1.36714,-4.23175 2.64057,-8.80206 3.8125,-13.75 L -250,85.468752 c 0.65096,-1.497275 1.9244,-2.973836 3.8125,-4.40625 l -40.25,0 c -4.36201,1.24e-4 -7.34118,0.695436 -8.96875,2.0625 -4.1667,3.971472 -6.25003,8.484488 -6.25,13.5625 -3e-5,1.62771 -1.07034,3.364688 -3.21875,5.187498 -2.08335,1.75791 -4.57294,3.29177 -7.4375,4.59375 -2.8646,1.30218 -5.17969,2.05478 -6.9375,2.25 l -1.15625,0 c -0.91147,9e-5 -1.375,-0.69522 -1.375,-2.0625 0,-4.94782 1.64843,-9.721247 4.96875,-14.343748 3.3854,-4.687383 7.72654,-8.854045 13,-12.5 5.33851,-3.645705 10.95309,-6.510285 16.8125,-8.59375 5.85932,-2.083198 11.12495,-3.124863 15.8125,-3.125 l 86.40625,0 c 2.92954,1.37e-4 5.13006,-0.05716 6.5625,-0.1875 4.49203,-3.841005 9.15089,-6.041524 13.96875,-6.5625 z m -231.375,6.84375 58.59375,0 c 12.95557,1.37e-4 19.43733,2.54701 19.4375,7.625 -1.7e-4,2.929814 -1.76579,5.591269 -5.28125,8 -3.51578,2.343869 -6.95849,3.674597 -10.34375,4 l -0.96875,0 c -0.97671,-0.520716 -1.4689,-0.895715 -1.46875,-1.15625 0.065,-0.390506 0.12225,-0.825402 0.1875,-1.28125 0.065,-0.455609 0.0935,-0.773317 0.0937,-0.96875 -1.5e-4,-2.929564 -5.52619,-4.406125 -16.59375,-4.40625 l -31.65625,0 c -3.77614,18.685002 -8.6355,36.307378 -14.625,52.843748 l 50.46875,0 c 0.91132,0.4558 1.37487,1.03392 1.375,1.75 -0.84649,3.19017 -2.84388,5.90892 -5.96875,8.1875 -3.12513,2.2136 -6.39335,3.48703 -9.84375,3.8125 l -1.1875,0 c -0.97669,-0.52078 -1.46887,-1.04161 -1.46875,-1.5625 l 0,-0.375 -37.78125,0 c -5.85945,14.97401 -12.80475,29.87503 -20.8125,44.71875 -3.32037,5.92449 -8.03651,11.07553 -14.15625,15.4375 -6.11984,4.42708 -12.22399,6.62499 -18.34375,6.625 l -1.09375,0 c -5.20835,-1e-5 -9.89585,-1.38803 -14.0625,-4.1875 -4.16667,-2.73438 -7.11719,-6.55469 -8.875,-11.4375 0,-2.34374 1.8802,-4.59895 5.65625,-6.8125 3.77602,-2.27863 6.92967,-3.55207 9.46875,-3.8125 l 1.28125,0 c 0.45571,0.26043 1.52602,1.82293 3.21875,4.6875 1.75779,2.79949 3.86976,5.14323 6.34375,7.03125 2.53903,1.82292 6.09892,2.71876 10.65625,2.71875 0.91141,-1.17187 1.69266,-2.29947 2.34375,-3.40625 9.57026,-17.70831 17.70046,-35.79422 24.40625,-54.21875 3.64576,-10.02597 6.9166,-20.35409 9.78125,-31.03125 2.92961,-10.74209 5.18482,-21.0728 6.8125,-30.968748 l -8.375,0 c -13.28131,1.25e-4 -21.70318,6.221473 -25.21875,18.65625 -1.30213,2.343848 -3.44276,4.398538 -6.4375,6.156248 -2.92973,1.75791 -5.79431,2.77093 -8.59375,3.03125 l -1.15625,0 c -0.91149,-0.58584 -1.37504,-1.28115 -1.375,-2.0625 2.01819,-7.096242 5.98173,-13.520719 11.90625,-19.249998 5.98953,-5.729043 12.93484,-10.213413 20.8125,-13.46875 7.87753,-3.255073 15.4869,-4.874863 22.84375,-4.875 z"
       id="path4055"
       inkscape:connector-curvature="0" />
  </g>
  <g
     inkscape:groupmode="layer"
     id="layer6"
     inkscape:label="alfabeto" />
  <g
     inkscape:groupmode="layer"
     id="layer5"
     inkscape:label="scritta basso mese/anno"
     style="display:none"
     sodipodi:insensitive="true">
    <path
       inkscape:connector-curvature="0"
       style="fill:#a0a0a0;fill-opacity:1;fill-rule:nonzero;stroke:none;display:inline"
       d="m 25.2,172.36218 c 0,113.32883 -91.87117,205.2 -205.2,205.2 -113.32883,0 -205.2,-91.87117 -205.2,-205.2 0,-113.328828 91.87117,-205.199997 205.2,-205.199997 113.32883,0 205.2,91.871169 205.2,205.199997 z"
       id="path2987-0-6-9" />
    <text
       xml:space="preserve"
       style="font-size:48px;font-style:normal;font-variant:normal;font-weight:bold;font-stretch:normal;text-align:center;line-height:125%;letter-spacing:0px;word-spacing:0px;writing-mode:lr-tb;text-anchor:middle;fill:#000000;fill-opacity:1;stroke:none;display:inline;font-family:Liberation Serif;-inkscape-font-specification:Liberation Serif Bold"
       x="-320"
       y="252.36218"
       id="text3867"
       sodipodi:linespacing="125%"><tspan
         sodipodi:role="line"
         id="tspan3869"
         x="-320"
         y="252.36218">luglio</tspan><tspan
         sodipodi:role="line"
         x="-320"
         y="312.36218"
         id="tspan3871">2015</tspan></text>
  </g>
  <g
     inkscape:label="bordo superiore"
     inkscape:groupmode="layer"
     id="layer1"
     style="display:inline"
     sodipodi:insensitive="true">
    <path
       style="fill:#c0c0c0;fill-opacity:1;fill-rule:nonzero;stroke:none"
       d="m -320,-67.637817 c -132.54834,0 -240,107.451663 -240,239.999997 0,132.54834 107.45166,240 240,240 132.54834,0 240,-107.45166 240,-240 0,-132.548334 -107.45166,-239.999997 -240,-239.999997 z m 0,24 c 119.29351,0 216,96.706493 216,215.999997 0,119.29351 -96.70649,216 -216,216 -119.29351,0 -216,-96.70649 -216,-216 0,-119.293504 96.70649,-215.999997 216,-215.999997 z"
       id="path2987-5"
       inkscape:connector-curvature="0" />
  </g>
</svg>
